/* XPM */
static char *ad7ee9ab58b14730c8318950c8fd3f1eG5B4akIMYZESmLkz[] = {
/* columns rows colors chars-per-pixel */
"48 48 12 1 ",
"  c #4A3B1F",
". c #78A158",
"X c #E5AB3D",
"o c #A4C263",
"O c #C0D470",
"+ c #FDC760",
"@ c #2379EA",
"# c #D8B78F",
"$ c #B1E0BE",
"% c #FFD7A8",
"& c #9BD4C3",
"* c white",
/* pixels */
"&&&&&&&&&&&&&&&&&&&&&&&&........................",
"&&&&&&&&&&&&&&&&&&&&&&&&........................",
"&&&&&&&&&&&&&&&&&&&&&&&&........................",
"&&&&&&&&&&&&&&&&&&&&&&&&........................",
"&&&&&&&&&&&&........................oooooooooooo",
"&&&&&&&&&&&&........................oooooooooooo",
"&&&&&&&&&&&&........................oooooooooooo",
"&&&&&&&&&&&&.                        ooooooooooo",
"$$$$$$$$.....                        ooooooooooo",
"$$$$$$$$...    XXXXXXXX++++++++++++++  ooooooooo",
"$$$$$$$$...    XXXXXXXX++++++++++++++  ooooooooo",
"$$$$$$$$.  @@  XXXXXXXXXX++++XXXXXX++  ooooooooo",
"&&&&.....  @@  XXXXXXXXXX++++XXXXXX++  ooooooooo",
"&&&&.....  @@  XX******XX++  ++++++    ooooooooo",
"&&&&.....  @@  XX******XX++  ++++++    ooooooooo",
"&&&&.....      XX**  **XX++++++++++++  ooooooooo",
"&&&&....o      XX**  **XX++++++++++++  oOOOOOOOO",
"&&&&....ooo  @@  ******XX++++++++++++  oOOOOOOOO",
"&&&&....ooo  @@  ******XX++++++++++++  oOOOOOOOO",
"&&&&....ooo  @@  XXXXXXXX++++++++++++  oOOOOOOOO",
"&&&&.......  @@  XXXXXXXX++++++++++++  OOOOOoooo",
"&&&&.......      XXXXXXXXXX++          OOOOOoooo",
"&&&&.......      XXXXXXXXXX++          OOOOOoooo",
"&&&&........ooo    XXXX++++++++  OOOOOOOOOOOoooo",
"............ooo    XXXX++++++++  OOOOOOOOOOOOOOO",
"............o  oo  XX##%%%%%%%%  OOOOOOOOOOOOOOO",
"............o  oo  XX##%%%%%%%%  OOOOOOOOOOOOOOO",
"............o      XX##%%%%%%%%  OOOOOOOOOOOOOOO",
"........ooooo      XX##%%%%%%%%  OOOOOOOOOOOOOOO",
"........ooooo  ++++XX##%%%%%%%%  OOOOOOOOOOOOOOO",
"........ooooo  ++++XX##%%%%%%%%  OOOOOOOOOOOOOOO",
"........ooooo    XXXXXX++####++  OOOOOOOOOOOOOOO",
"........ooooo    XXXXXX++####++  OOOOOOOOOOOOOOO",
"........ooooooo    XX++++++++++  OOOOOOOOOOOOOOO",
"........ooooooo    XX++++++++++  OOOOOOOOOOOOOOO",
"........ooooooooo  XX++    XX++  OOOOOOOOOOOOOOO",
"....ooooooooooooO  XX++    XX++  OOOOOOOOOOOOOOO",
"....ooooooooooooO  XX  OO  XX  OOOOOOOOOOOOOOOOO",
"....ooooooooooooO  XX  OO  XX  OOOOOOOOOOOOOOOOO",
"....ooooooooooooO    OOOO    OOOOOOOOOOOOOOOOOOO",
"....ooooooooooooO    OOOO    OOOOOOOOOOOOOOOoooo",
"....ooooooooooooOOOOOOOOOOOOOOOOOOOOOOOOOOOOoooo",
"....ooooooooooooOOOOOOOOOOOOOOOOOOOOOOOOOOOOoooo",
"....ooooooooooooOOOOOOOOOOOOOOOOOOOOOOOOOOOOoooo",
"....ooooooooooooOOOOooooOOOOOOOOOOOOOOOOOOOOOOOO",
"....ooooooooooooOOOOooooOOOOOOOOOOOOOOOOOOOOOOOO",
"....ooooooooooooOOOOooooOOOOOOOOOOOOOOOOOOOOOOOO",
"....ooooooooooooOOOOooooOOOOOOOOOOOOOOOOOOOOOOOO"
};
