/* XPM */
static char *_768f16625974563bd244e1e502b902bkOBn7jsWiYIo4ng6[] = {
/* columns rows colors chars-per-pixel */
"48 48 12 1 ",
"  c #4A3B1F",
". c #78A158",
"X c #E5AB3D",
"o c #A4C263",
"O c #C0D470",
"+ c #FDC760",
"@ c #2379EA",
"# c #D8B78F",
"$ c #B1E0BE",
"% c #FFD7A8",
"& c #9BD4C3",
"* c white",
/* pixels */
"&&&&&&&&&&&&&&&&&&&&$$$$........................",
"&&&&&&&&&&&&&&&&&&&&$$$$........................",
"&&&&&&&&&&&&&&&&&&&&$$$$........................",
"&&&&&&&&&&&&&&&&&&&&$$$$........................",
"&&&&&&&&&&&&........................oooooooooooo",
"&&&&&&&&&&&&........................oooooooooooo",
"&&&&&&&&&&&&........................oooooooooooo",
"&&&&&&&&&&&&.                        ooooooooooo",
"&&&&&&&&.....                        ooooooooooo",
"&&&&&&&&...    XXXXXXXX++++++++++++++  ooooooooo",
"&&&&&&&&...    XXXXXXXX++++++++++++++  ooooooooo",
"&&&&&&&&.  @@  XXXXXXXXXX++++XXXXXX++  ooooooooo",
"$$$$.....  @@  XXXXXXXXXX++++XXXXXX++  oOOOOOOOO",
"$$$$.....  @@  XX******XX++  ++++++    oOOOOOOOO",
"$$$$.....  @@  XX******XX++  ++++++    oOOOOOOOO",
"$$$$.....      XX**  **XX++++++++++++  oOOOOOOOO",
"........o      XX**  **XX++++++++++++  OOOOOoooo",
"........ooo  @@  ******XX++++++++++++  OOOOOoooo",
"........ooo  @@  ******XX++++++++++++  OOOOOoooo",
"........ooo  @@  XXXXXXXX++++++++++++  OOOOOoooo",
"........ooo  @@  XXXXXXXX++++++++++++  OOOOOOOOO",
"........ooo      XXXXXXXXXX++          OOOOOOOOO",
"........ooo      XXXXXXXXXX++          OOOOOOOOO",
"........ooooooo    XXXX++++++++  OOOOOOOOOOOOOOO",
"........ooooooo    XXXX++++++++  OOOOOOOOOOOOOOO",
"........ooooo  oo  XX##%%%%%%%%  OOOOOOOOOOOOOOO",
"........ooooo  oo  XX##%%%%%%%%  OOOOOOOOOOOOOOO",
"........ooooo      XX##%%%%%%%%  OOOOOOOOOOOOOOO",
"........ooooo      XX##%%%%%%%%  oooOOOOOOOOOOOO",
"........ooooo  ++++XX##%%%%%%%%  oooOOOOOOOOOOOO",
"........ooooo  ++++XX##%%%%%%%%  oooOOOOOOOOOOOO",
"........ooooo    XXXXXX++####++  oooOOOOOOOOOOOO",
"&&&&........o    XXXXXX++####++  oooooooooooOOOO",
"&&&&........ooo    XX++++++++++  oooooooooooOOOO",
"&&&&........ooo    XX++++++++++  oooooooooooOOOO",
"&&&&........ooooo  XX++    XX++  oooooooooooOOOO",
"&&&&&&&&........o  XX++    XX++  ooooooooooooooo",
"&&&&&&&&........o  XX  oo  XX  ooooooooooooooooo",
"&&&&&&&&........o  XX  oo  XX  ooooooooooooooooo",
"&&&&&&&&........o    oooo    ooooooooooooooooooo",
"&&&&&&&&&&&&.....    ....    .......oooo........",
"&&&&&&&&&&&&........................oooo........",
"&&&&&&&&&&&&........................oooo........",
"&&&&&&&&&&&&........................oooo........",
"&&&&&&&&&&&&&&&&&&&&$$$$........................",
"&&&&&&&&&&&&&&&&&&&&$$$$........................",
"&&&&&&&&&&&&&&&&&&&&$$$$........................",
"&&&&&&&&&&&&&&&&&&&&$$$$........................"
};
