/* XPM */
static char *image[] = {
"128 128 64 1",
"a c #faf5d9",
"b c #ece0bb",
"c c #cfc29e",
"d c #e1d3ad",
"e c #d9caa4",
"f c #3d3e39",
"g c #e6d6ad",
"h c #ccbd99",
"i c #c4b694",
"j c #7d7764",
"k c #c4b590",
"l c #aea080",
"m c #9b9075",
"n c #baac8a",
"o c #c2b38f",
"p c #c6b691",
"q c #d2c39c",
"r c #beb08e",
"s c #d6c6a0",
"t c #d7c69e",
"u c #bdae8a",
"v c #a79b7e",
"w c #beaf8c",
"x c #a09579",
"y c #c1b28f",
"z c #c6b793",
"A c #ddcca4",
"B c #cdbe99",
"C c #c2b491",
"D c #c6b997",
"E c #d8c8a0",
"F c #c8b893",
"G c #b5a888",
"H c #ab9f81",
"I c #b3a687",
"J c #b0a484",
"K c #cabb96",
"L c #cdbd97",
"M c #a4987b",
"N c #afa282",
"O c #a99d7f",
"P c #c8b792",
"Q c #b2a484",
"R c #dfcfa7",
"S c #c0b18d",
"T c #bcae8d",
"U c #d0c09a",
"V c #d4c39c",
"W c #d5c49d",
"X c #c9ba96",
"Y c #cbbc97",
"Z c #b7a887",
"0 c #b5a785",
"1 c #bcad8a",
"2 c #d2c19a",
"3 c #b9ab89",
"4 c #caba94",
"5 c #baae8e",
"6 c #c9b994",
"7 c #b8aa88",
"8 c #cfbf99",
"9 c #cebe97",
"! c #222321",
"@ c #151614",
"ababbcbbadaaaaaaaabbaabbabbdaaaaadabaaaedcdaababaaaaabaaaabaaaefeghbebababeabaaababaadaaabaaaababaigabbaaaaaaaabadcbcbaabbaaaaaj",
"dklmlnnopqrstuvrwlxyxzAABoCDEoFFkGHrHxlIDreAnvJChsydtKdLGiklvMmfGmpNOPxvMQzREBAmznSvTAURnnnVWkxMwjmxjjXRYqTXLZTYDqlMvRsKuEyxUxwf",
"s0F012EtgvRWoFDYU34ydEbedBYAq2eNn1DCGpk5eOBomMowgdFAWRRADUz1uGdfDKmy4NmwS6ZtpYMeqGeEgryiA6RKsIOIxN7mj7BcsWdW73geUNOvDYp6K4xhlm6f",
"inwmoEA2td8LEO8KkFuw7AhqAdYYRBUTXCCwFkxeHq95MW4c4FOeDUUDdJFlUCxfeHCw0wl8wW9yumegRbgbXGbb9gA8lGxIOxvG3Ag2gsgDnIqGO5mSrR4A9pIhzWqf",
"cqoYqpk2RRUAdkySpZHF2o0wysAqwnqDrgEtNIekJFUTnYgkDCgRRqRyITsD8dGfsZwxHOmvULFYSkWz4CRKrbE4RRnD6d5HTm1noyEEAseHhcDEGWds8Yt6QSioikBf",
"ev0SUUhRA4geQ24LukFtdxrFqUYX3W6IpqqZScgo8gTYmKeqwgdiAtAJqpyCJQ3fevMIEMnt6zQkSSUALYgogVs27NAdYSir7SWACXLqRHD4NRb8hDXvrkEvk0vMFP0f",
"HztAtWiqVK4Q41Mm3QopPHvN7H7yFwNAEgBqWdRDSoHZA4b6VzFELo58MSvNSkAfdXGBpkLuprComw4ArARAdYL9YCdAUKGMONCCyKRGhB8shqbHFgRVixm0FpkrMSNf",
"DWF0zFR2VRL8FFK8yERosNMiI7Mn3vEUsgeAgPLAF3YogAsrS4YP7ZT3HX7wtYkfDDCry8lS1o4mGygrWgeskCooPYUuKJM18E2KAgwJySeNRqb6DEQNxkLVqxJxmx0f",
"DERVLOEs4EgoGQHB3Ke660vmMN34hu9WE2AEpWL1zpqRRFrkeoFV0HQHhzIAWNrfDcG5V6SkwkipQE8RUEsgpQAYtKXGxZJMp0vMRSHYT2dbs2yFX7cCrLuZHvHmIZGf",
"R4YyQRRgAt6QwWWQlQcyOmmJUpULXUApQo933WBlD2FQUTCB4ykWOWdGOQU2LN7fem3n57NMGokSuqqggEgA8AKWdqUBRSKUgNz6FiFFgEAbdRPpQPxyZ2QNxJiNpt2f",
"581R42b22FooE13kZQ4rOrUhkWAUw9A8O30NYFuJr3yeRnH97x83oZ78xpkYhIvfDGZGCv4zTkYrVWdRbeddgRRgAQ2gY4VP0K8RZ7RbFEggg91uVI3MNoM7HwNvDUpf",
"GH8RggV4gqyopuYlCWF1vNTzsY34199q0U614wpozdLUt30ZGEStz9omvV87kI3f5vxjNZrIvYSpiWY4RVbeqkEq6Uqr7L3NhFA0YgRsAbgge8ypCwvvpoxpr3kpKWEf",
"csWRgRhu1YS1KFrO29J3QNpVbYlVEuF7y4yFpPFN4ZS4R7ZNz9LsSC03TEeWHKMfHrn8lk65errE4s2gPYgdLAkpYSnkFQwYszlJde4YgAspODXPFOMIvmu0vHEnhppf",
"cgWREwsp2kh4286YAQmQCWPnSMGUn3Y7noo49k2LZ72Loyx0JLKeL6HkUgAue3yfIHF6nozUYR268WEsQdgRWegUvBSQAZkUrKhAAWRAWn2XYBEOZIm3T0XoZyeW55Jf",
"bgnLE4uWPLAE4VF1uN0SwSF1zwIo0kpQw3gEQZZQWLuARQXYRRWYFw08WVRzZkefbeRh0sERekiWAtqK9edWEgUDNYkEEFVdk9kgRTsqHNhU5CwCnmNIn3eoMogWpWqf",
"bRWYqn9VUoVrVLKpQ7oBCSCLUIzFn7uqsp8c3U29FSRuJUwtgELMllYYL9LgDcSfdsRGS4bAokhBWW1gRgbbFQnq7hUoLohRRRYtEqRyJ9rGmihOGmONYKtlr6WW4uTf",
"cAG8dWtRAs8eEUwNNnCFZknIOzIN7NFWFEFQo98kYsz9s8esgYOzqgAWK9YoBsefsoCsgAE8wtWRqzqqbgb6kqeEEgERQybgg8EbNQ7wQkN3N7BZxI2wF3k7espE2oRf",
"bUvBgNs6RLB1EoZOQSU28YJprpXBK9EQyr0oWC824FWwyzwEEZh4QN2sEEggXgdfgYIXdu2VW64ykAY8gVAL14Wspeb6NqAYKUVZyRVeyzEvr1KkoWsURA44tSAgRR9f",
"bwcgUibwEUFq6n4oLtP6qyW7nU0YAp0FFFQpKwoS7kHkyCd6zMIwk8gWtgbrUedfDpCQS4tW923obqRbEWuMKLYFRRAYKgYA6SpEgg89oPI6BukSsE712RRgJWRWNrXf",
"RoqqbR2wttNPk03uOr16vNPn6qBUdoSVrNZ7dySnlKSRCpeqAyyCiARgUeFqynlfDUlULP90plo2UEAA8AsZrEYCebg2BiWSeqYSbP0uolJZnxIdE22tVK8hPYBZWLEf",
"dBGiR8CkE6oYTtyON7Y4pVkyRs79KWYwSpk4EpqTuFqw9RdRkTwyLRgsW2bNCUmfdG7UQKPLZQGKeLoko75XcRrsRWTzeUqtURqErCCQGS30OLsEennWEAyzUAZFYLof",
"HTqYdUiA8YxmQOOMJTCMxw2kCI4YervnY2RqwqsBpLRLKpuQn4yeRqYB1gbGtUyfDvxSZ1N700FSQHSFpFszUYebRUyERdsr4BeDWlmmQxHXKFp4PsUD7QsUGEpRW4Ef",
"bsrq28toOxNuS9nlyvTvw497FOo8nZDpqYF942F7OW4oLNIoSNJDPZpARVUAUAQfdI5xJvmxZMK16CWREAzXqPgbgBzh9JxFr7FzHmmmmMG5B8EAqrhyNOJTUegeeVif",
"eCGy8y7m7oorovjMiuMuyMFwLquxSkZE3NZ0rSNnoRW8kQNnqOw8BpLUo2ZAqn0fd2GG1OMP3pp9nFg88uxih2b9qeFeq0zVwCrvGuIQNrXRt9hgzk0mxxlrgqsIcgef",
"sX5YAyZn4knS1Mm5nxIwzJUo8zIKpVZuwL1pFk44ttAUunkGnH8E9VptEu4SUuNfcMGYIrI1Y1u8n6gqKkuUBRbsbsEsxvC5LN5MTMiWJwbRkSA4wuxNnnLEsSY6qLqf",
"5JrqgXm3C1LWZh5RGCGnHrPkUn0ro0CFootWUoqowwUse86pCAXqkhowSoFww13fhurwHY146kllMNFkySlSdssbYNvxmZGAYrDrr7KH5sETr8lSWoMS7pk9eLYREpcf",
"CvnTRH5uvU4xG1Xsne3mcZksoHTsA2hkWFHOWLkULo9k5hCUA4qLiw8UAMyUQKHfc3vokwKLEQxl5zFpnQRUNegJzeU5iGgdo3RoyzYWEEXpFvnuZrZQLEkFJwQBrFQf",
"cnJeJGxCC4mhz0JIse5R4hRqVn5W5MZFep54UZxk4W8rgok885hzDCkkK7q4F3NfdmG6S4wInpGMMl4Ks293RdFHvD0OnR6YrU6i7wK6NGl9opU1TySwV7KpJSwkY3Nf",
"cxSF7HJ7GFErMuNYR9TQupJUI5rYZCLlNvHNpkC6ESNQ3iwxOzOoUsEyQlLSYQMf5mYnuQlmMxjxMZ6qZqWUBsnCIJGisiuSoUyUyulHlkhXNmw7wMZk9kOTmCqL4EDf",
"IUZGtxHFpCLN0o9UqGrHmHyAANFROrmmm1NMJOs94Mm3DnMH3ppdFGrt48S8Yw0fckWSwoQxu0xvhFAhTLBJwZmJC67Dxh6nLHnM3ZrIorqkuFE8lCsSmlxmORP1wYDf",
"mNi9XIykvq0Z774hrmTrjOY9SK0TwmjmCHmNnQw3wmIr5IkNvlqFZOFeOLpS41wfiFkZ1mHmmjxGSWsqcDMMmMHzHuHiixJ78or3LHvewtQTFuwZuLTNNwmG17WUAZRf",
"f!!@@@@@@@!!@!!@!f!!@!@!@!!!@!f!@@!!!@!@@!@!@!@!!!@@!!@@@@@@@@!ff@@!!!!f@!@!@@!!@@!@!f@@@!!@!!@@@!@@!!@@!@@!@@@!!@@!!!@!@@!@@@@f",
"bbaabaaaadabaabGbbbdbbaaabdcdabjaddbaababebgabcaaaaaaabeebbbdaabdaaabebbbaabbaaabbaaaaaaabbdabdfaaaaaaaaaaaababaabbaaadgaaaaaaab",
"YtR5G2RnxJNx7mvHONm0GirzzvmAy0MfHmxWwmmxvmmukm5i0IkTXQTYi976BkUvNDJmMjrQJJYynSTMIXbk3xMHKsvxOorfRrTOGQrCrxp7mvcUzwmkRllvN00w6E6S",
"eEAeqyDmjGmOImvJmx36RKDNIm5yOvMf5mTBmOHMm3O3jvy4nJyTS1C82YM2Yel5IummjmByvzrYmwKTsbs7OxHcR3xHWrXfiHOkIOZIHiZmDDRhwx3E6xMJZwoERFYn",
"BoHhCEexvOQSyxGrBryspNJrxBrvjjOfcvxmmNvGT3pOM64I6qeAPHk4v1oRs7mxJmmjHKlNzqN3sqXqbAGNQkHEW3mtSyofcNmHwiSQrWGJJIer5DWo1xnsYnCE8yCR",
"kKB7GJCOC5Gr5vo41CpkkmrDCYqmMJxfcxlxIy7IpkQ4HJeskFD63E4pFL9ZHJFrUlmGLZKJ9w3UUdAR7YvOcUsq2mHpqxNfixMNpH7HiKIrEEgrqAQNmrCkMrA16JAq",
"piqIyqRIjJHO0ChUCcC8qRdLAgDd48JfGGsJxrCMHDvvwLenpcKRAWUEkTQqeg2WomnQhnJrRek62YYEpXAoWz6pYTNQwYsfxuz2r9FSJ3HxvMOisTGHHLzw8gqEPU2Y",
"neFURKwxvHmHQkgo1iRgbWAgyyIYIHmfDY6NMJGvTSwW2FReABqUREgEn2BUWgVwGNMTqoR6ey8WYpqgELPiw6FR2wSrd9jf5xKUw3NQr7HsrYhR6wmxH44WURpRVPEK",
"OIzsdonjJ0Ipt1BegRbbR3Hv7Nruxxvfcixxx4A2dkc8ZsqEbqwsbgdN5UqgbBz6rzxBsKeqCnp5rUUEyoN7v4LoVQwRvmm!MO0xPOml5wlsyZhKeG7oVVqsLkL44OHm",
"pse8E0xxOwqE6kVGWBdBQUWQyCeJxNGfe6OxxWLbggAhHqggdBgdgsz994egdgCWslMnNkErAwS3VkKF6S4B0S4AV6t785x!GoIMH5xHxOhutE2Np0ErE6Tk6peU9FLw",
"BUAEnmHHy7coC3pei61ieQviUVulzwefDMmvhL9WgFqzebbWdwYibssWKCgeAplvrm59syl4Z4xrO3AWFn6NpdRgRkJ6pHm!I3n4FmK5XW64oOOCBAWAHBB2gqSMTpFN",
"6owrMvCI7nCk46o5yGrTyN5nWLRXUvSfx7xpTgggE8AWdghE7XYhRBYp3kRWFvQxjj3JkKS2lly0uwUUMorzbgEwkooFrzv!5ruyxlYqSwyLXeGKeg3FAUsEgAikLEHT",
"Y4yHQX66rThkqo3rvQHJcJvsp8Wto6HfjmMZLgRUbEgcRstRARRgbRnH2ReK1lGTJvlCKyzGMhNwwJU3WpAbgYEES07lwmmfDnvmvEWQGNrvkC60RUWCTiUAbkzwq008",
"BXJMsrkyC2YW4SlHtwkpRpiYRIzvOFFfDCOnAFzbRgd9yFRZBpwAgY9pytgiMJrIHZCBCZuw8YNu0oVyMqA2wVkZmSQOmOwfIZv7FHOIy4eVSYstyRnzLUV8tF5kSpwu",
"AzzChEBo4TUAwZGlHCI6F0pFnodLH7Kfdr22bKoAgXseEAgXggebgeW1U9UERR8Bk3wvknMNlFo2kp2P2EgOrQmmmuQ3y3QfemmxHvEULkk2A1QWsE4YgAAgA05zgCsL",
"QriCn8SBqzBRupumHrg0PSFYA8J3TYqfcK4sRXUgtWKczpTqdAWbeFNhYqRsoWELH3mYwNHZSEKo4Z8B2EuNwMxxlZ7QMQvfgJvN8UwAnW9RMnUcRgLzbgW1oIMwqu8F",
"HqqEqUCgRzhWkNMSLXuFWPAFnnwr1GkfcotUgkY9FuyB8gqqggEuELRERsgWARLXpCTYZlnoRS0nLE6AVMxmMjm3upOkmkpfcmHEgRkFUt4zSdKRRXRgboN0QMGRXBwN",
"DecXsBspw40484kukVbF8VtzxIN2zPnfdeWU0zAt44dFtqF4hUREA6Rg3qbggU70XwQ3xHS2plFPmQApSymvHOHiSJrviNOfsIuUbkMQpLorsVe8RRbgUwmJM3eY7U90",
"XEeEgeq22t3USFA1wUASkLE10mGClNXfgCeyydA9Kgo47yFdRbAW7egVuU2hZmzk60mmm7tQ1k27xFSuBvj7HvVAo82wVYnfD0tRoNrotwwkgoEkqqUWy7TDr24EhYiT",
"UdA8sLqRoup2VEYUpLggK7kNP4SvJqQfCU8Wq9qpkWWn066ggR9FTREu4W9Pmx7rmmmmOIFnu1uml0YBNMxphWEuwFQxtoDfcEEVP0Q03ZkAAWSeUYgGZLpnbqVWseqy",
"dRdw0438UQq7wZwzWE4QOA24kPpUnOkfCLgsRAVtRRsuuUdeeS46KRAKpn0vMw3ynWwlQUzomMMGSnllMM0SedSvpSr32Z0fJupk3I6wPoqggtLPgoqKzncEqUR8Eycg",
"sszW1tKF1XkUi4EFkU0SsU4qKRwMmvMfcoRrhhqebAQvw4RtrCFCgAwNk0vMvr8kk03HNZuxvkuHu0Hovk0tgVZNF3vtL3NfvmmxHwCHRYggEEyzLEK7rEEespGsWyRC",
"sU240SLLdg8Fk2PwLZNS1k643I3wxtyfgEEqReUUWk1U8bggt4hbeCss9L4LRwwI3Hzmi0NHQFnqolpLMOULeqH2n2EeRumfdNi5zAHUEAg2w0zn1uso8LelOcEEe3eh",
"UEeU9EUVeAS8kVYUlGQYo7RQSqu0pEhfdwn3dR72HpkwAEeb1gbRqYpeU6krsSSCBYLmGlJ8wSopY896yFYAgGFtddVewHUf5mmnivI9RREyzvutFokAWV4iDtKR0no2",
"9eqtq41egFY8p41vxn1pKg1YSkZ6cSSfs6ogbWwAYAqtbgA99bKRRrX4V23MU5CqAUGmOxMQoZE0wegGq8pqsERVtREA6UifDZrGczloRXY0nkqqYw64QSiJBIC0Q7oq",
"qqpAoAEE81oLk8MTMF8w0UV2L1SyvpBfd4EAAsSWFEEdggpsk8szFBkAtCmJQxWgtQmmJxGY14qUUtIhX0ABes6Kgd92lImfD0ywvx76u4k27EWTn4ll2Qx4GTqFZnFR",
"A6804K3nzyWSwQQFA481LppKS03zFEgfbbgALq9A2tERkN1dB899oowZwwoLUsEwGHIXGBg6EoYcY7rFKqWdqreAEDukrSTfDoMOHQpA2i4ZoFowz1Z28mONuwwNp4pE",
"X6EwpQPAK2LQ40FtAqolY3HHoNoSt2EfsUS2tL8PUgRwSFLZIU44wxN7gmxQRsrNUMC8YEgdEvtsSHiy1FYEtKEepv7Z7lmfIMmrTFAqYvny0lyn70S317MHFwSpEY1n",
"tYXQwqQ0NnuvwKTXyuyyBkpL72ZkoFqfepYL0IQH4K2pUyyqIX7mmmZF7xJl640SUlPCODZxw6o3QWUUkYFLEqRRhG9HwMNfmmZNINHnQTNmoQY31QN0MmxstTkNLoZA",
"yW48EsyHl3ZuL0mwH0FNOvSZW17964EfbkQmM0498PL0NSrmTommmHB233mGKO7GnOGCGrMrrCIk4sUUoPkq8YYDZs7HmO6f5HZr6mG7y6xCM0pVQv1MyJH234tYqnNU",
"UqLLBYM60uCSXv1InsWG5E89w03o338f5oT4zeUkZ6unrZ73Z3xGIUROxmOWxm7GOxzijvmGJi5AAys7Q7Y8k1QNiOHQlwvfDHQ0vipFoIqtpwpG1pZNMZxm7mvyHOTd",
"41lNv7xQQMw4lwknSmoy6WFUmle4SzlfenLwIEx0NL3jMZlxNmmOeY4IMjJmmmmmm3wmjIHNiGAE0xI5OOrr3xMGmMlGv3qfDwHHypMGmy3ylQiQ93lxvmGCSlSHmxMQ",
"@!!!!@@!!!@@!@@@@@@@@!!@!@@@@!!ff!@ff!f!@@!!@@!!@!!!!@@@!f!f@!!!@@!!!@@!!f!!!!!f!!@!!!@@@!!!@@@ff@!!!!f!!!!@!!@!!!f!!f!@!!!!!!f@",
"aaaagbbaaadabbccRdabbbbdbdscdbaaaaaadbaaaaabddac5caaaddecbbbabdfbaabcddbaaaaaeababaaabaedbbbbbbbbababaaaaaaebaaaaabdbaaaaaadaaaj",
"eMSliovhcmN1HrQZvmrmQJHnMQk8uAA788OmB3o78mnvxIIxGunIHrMjmxmx6jMfJJHON5xde17zxdEywRzmIQlZQvMUOk7qoHInGOJW4JrcEKLQvxvvvSZyGmiD3wrf",
"ehJSvNDrHJIMmJmmmZlMGmGmmiw8Fl33QHH5vuHwOI1HmSM5lQi5MmmjrM0imIIfDMJmwjioHmmmCSRpZUQwYq4xMmk3C9eiuHHMImT8okGeUEhvCXmxMlSuHM23yCQf",
"dKCoTJ5wonnmHmM7q8BSQmrqRVpumwr9dEEqEznmHT3xxm5hNXJJHMNvvIxOHvmfDmHNmhOJxGHpMs8seRAFdRUvmHwkpImxMImco4teEZb8lrvNJMmrFwdiHdgkWKJf",
"DGCVD5XqKhvMvM23iO7N5CR5yLVuvLE6gLF1LlvMXNxmmHAMNIyGJCG1SzyJMGrfDnFU3Uyyrz7pYqRRSSe6tknQmUkpFlv0TpVRWpTGUsA4MHhFqmM1nL83XdB0Avvf",
"d87FprhwpvmvIRYYungCzUPnePk0Y21R4MHOl7SX6GJyvbgFmTGy5YTFFCOSiR8fh3g1iV3rW6AbUARdksRRWwJmOFAs0xyP8KJ0kr8oIR3wkgX7mvhPHK6Ats7HKvMf",
"cMzA2yqYvMnIDBYoIJvQNtLLAF4vA6nSY3v7MopEv0pEHzkZOCmJp7KkEE8USuufdNqqkqhtSAbRgbg2RZtUKvjxHQeYkHEPKHTSS3EkRio0q0yw79HJUu8gdTXX8ODf",
"DqRbR870NQZLAn6wSyAKL3pkFPUtULXVkxinFYNxvpF3iRLOHD0sdK812ikHMwnfdyUYe3eAVdbAbAEVZpgpp6o8xkqZYpvCKCrhsHHT3nEpk0olvHkkwLeA29CHImrf",
"dqEdQYW4SnV9k19WgWtYvLELCVEkOonup0rQFMoHpZgk1xH3vyKnooo2LJ7CF86fDnq2GL9EbgUWtRP4kEWLFZH7nPoSg1t8UuvEuJ44XrywpoVSvtqS4RgeoyJNHIHf",
"c7R4JoJ5vruNwkA9oWkG2WF428pwkooAKSZ3FSS3QrEon4onWA5Ws8cERS0voZ7fdhRTXp49k9qRE2Tkp8twU1xmmvpRewcFGyNpKAYndEpqqeZM37LZEhURyWiY66yf",
"bY83n7neJkkFoSWS0Sv2EF4yZkQnYWRg2oqSYKonU7yoHoZk37SgWKeqqZTMzTkfck9qIEYR8EL84P0KAK02kmmTNQREgFG6KRt6Ww8RgUgbR8xHr0z6E2ARNWQQQGIf",
"dCGVuWRhQ0oAFUeoPwHZw0FnNYYEYAL4Y4W4Knvnn8RCuQ1xCnSRE4A2yNx0JQvfD0YzCqUwrEpZBpo6onuoN0n1qgAk4UGWKK4kxreUgLKs2L7wpL9tBAgKrWW4YCNf",
"eceY9eNv3V4VAEWvQOZtkPULuFRWqKtFO030MHF0EKn2Zu7nUued1WFwkQOJC3kfeLwB3p9oRKnoKyWZ1Zl71xYYdqkAtqUeFsAlML28gtoStYF2VW7ogK8wrwFNNHOf",
"ckVYLZmwv0pB3O7xS84WYoB122dF2oFKQK4SN3i98p0UY7yrmzPeD6kZHOvo6zZfeZ73sRRWgAWSLFwkZw01Xk8goHZ6FwoYQApwZWbdgetAb6lQU4U2AVEFNp8PNvOf",
"b8RquQ17Z09JFo7JL34kEp2sSpLCo8gmH3Qy0kSIJZW4Z0vUwQYokovxvxveeQkfe9rERgRAE2oFp4UNwoZpp6WpNSUCKnAcK4znWAbg2REgp7oS9o9AtALoN82ZmIJf",
"gLCV7vInDr8ZNMZuWkAUYFAFEbRbzPkoxwFkUnQZBwCyZrQKXkLoPoGyPZGy0ICfgyMBgWet9Wkw7tovvyFw44bE7QOxpFon3opRWdRpt88H7iBY3VF8ggEKRV81Hqtf",
"R4OMl5UyFOr1wQ6oukAWZtKEREAUAqMmNKMpNmM7URCS37qKMFu3nQD1ou4cGtRfCoQdgegdYYZk94M1SooyqUgTm3Sn4LRFwPdLgERVbKkoKRPSFSEbbb6yw2xOD41f",
"iNrXS8I53lKkKu7HZ6u7opW4SoRASST7oSQ7ov03zUr8AY0FrRzEqpnQ80q9AHkfe71UssskBO37xONP37nttSOxJ4OhYRsXKAtRRVE6gRR92oe4SgRbbSneRwzEteEf",
"DYwH5tpUQnTnPKoo1uu8AVu4QeWtwNyKWQQkkuZngcEgmwwnFiF2K3qAVRgRqIRfRi2sU0Wxm7FQNS9WHKykkNm1NMvkd4R4YRbVE2AEbUeCRAeVs22gg2EqAE46Lu0f",
"huqirIkvNw0QAFoQzW2EVZoUEtgyGo2WXiCHHZMFksLuXgA76CoZqLtKk9W8Wgg!ck41WEFNlEPlvkxm0Q86YHZlNlG7ukYWRRRdTKqeRUKbS8pFLV9AgbFASS4GB7Zf",
"5WyeUApN7zo8EK76W4q4oP42dt3Zpp3ozrrM9LCel9p0RSNZzX0RRze6gLRA2tEfCn2vL21xu2l000z71SXWQTII1QpprLRSqFzF88qVERASH4AetUAggF8Nnw75CnTf",
"hJUK0kNGvxMoQ3mM34FVRF2tPFt97odVxMUOxmln7gRAL8IUrSbq4kgg4oRE1kFfDzJpnvNG1I6YoO19yEtpv7X107MlPYp998A24ERzRqyYeRbRdeWRtLgt8YFJ2pmf",
"ctG3uNmmNJyICHktRRpAe9tAgLowkEbNG1lxxok3EgR8e1qRzAhLE8YW3A89TqNfHxwvxxmMnYEwMkEkWUV6F6kJCwx6SVE2EgEWAEWtEAMWEAggkWRggd91oZGcYznf",
"5xHUtMxuxTUIiw4kEKe89WUVW6LEkHTlrOxJSZo6RUse7okQJWYpgWKCA9EtUz5fDQOmIy6YYkk7rtVkV8PFOMrmM6pFK8qbae1zEEww87NWEusWntgR8ZQT1C2RCOmf",
"e5yBwx0vmvMrcW9pp6tEBSSEw66SnEzO1MYZnpU3zSWqS9FBegXWk9Y4UEsA00mfIMSkIukH5kspEpE82t9o0w3GLuoSbtAgEVYPEU4FP06swUti2VtgL4qo1IdwNXyf",
"5kH377mjmzYyDtki6uqqZ33F4866kHz0J03M9kkpq6sAr3o7F718FNkt90Y6vIvfcrUvz4FIpqsspFEF1307F0Cy8I8dRLggqSrqRAwt6ewV74Ut4WWtLLcU5tt70Hif",
"DkxoImmmMZJynqepLkKryNJczzqUIwMmmmxoO4LRkqAq4Q0E4uwymnOu10UrUYmfH7mOE2ohR2R4NA8BNoYLW0sELFLWoREEE6YodUEhrlFoA9REFe8lRkzMXPQvn0Cf",
"cjHGpmxvnJMCNeVKCRRoXnRKEFoUoehQYXq1xuwEyXEsR4PpLlwNHYo8YeowZmHfc7hws8ZhXwK2422u7N7oSUWYWLZQHEe6BqEZqAyN6y19K8FpL7CoqnMdFo8FL7wf",
"JmwkmGvv5ImnD66F4VQ3uRceogg8tzOMro3uOTuzBBsdEdLokSNxZUo8kuTuGJxfcJQqwQmHoY0xJz1MIvzFUkCzYhXmIi1FXknyYImMNCqFy6uwPlODeMh6uARlHwlf",
"55uvJvmNwm5kyzqSwMxnRn8USFRQkmvMlJxNIqSpxSCNUQl0HuxxNhgLqkX3A3Yf5m5cUxHiqLOth2Q7mpK70NrIOImvMkcgRn0oeHiWUJcrBSWqKHv8cvThkpnMZ7vf",
"eTmnmmvGmHYyrNdDovJiqLBR46EojvmlOmHvAXicMNMQ3mjjmxHN4ss8kTrDQnNfG3zrmxDCCMRxOoOxSS00vM3XMmmMJycUYFFWczqQ3uoekxoHOmDouZNF4QOvH0If",
"f@!!!!@@!!!!!@!!!!!@!@!!f!!!!ff@@@@@@@@@!@@@!!!!!@@!!!@@@@!!@!@f!!@!!f@!!!@!!@@!!!@!!!!@!!!@@!!@@@@!!!@@!@!@@!!@@f@@@@!@@!@@!!!f",
"baaabbcdaadaaaaaaadaabbaaaabaabfagbadeD5RR55cabadbaaaaabaabababaabebbaaaacababbbaaaaaaaaaabbaaajaaaaaaaaaaaaaddbaaaaabaaaabcabbb",
"GmIMmmmrxjH6porEgmsAS0I17MGNJSof5UFH5Ox7lmmxJOS1uAVwRACJUCuZpTrp3MHHxMIRAo2Vlx3HOj3x57hquzCGvMyfesSLpPyOZJU1ZHm44OmmlnxZ3CYwGZxM",
"TvHHJTCsMCSwCnFeRDW8umQoCWYH8AZfDxjMMmrmvmNJQV49CUVR8yXzy4p29CDrMOJHDHd7ExTHJwmDHJ9zIOe8C0DxI4Vfdt3NlwNO1M1xOMplMOTkqZQFOHNzJmHG",
"mrmYZt2FQSq29nERXeFkW3i63kqyL8nfDmM3KXnxmrm3ELk0WkSkq2pY644reNIuM6mmmIwRHEnE6H6lv6lpnUdwMGxcXkFfbQHeEFwvxMmGNv03rr909rlOHX4QHumz",
"Ni72lyeSF24kAWERCbcT6bI8FU44WvmfHHw8WOMvymxqRS70UtU8WQJCQ0wtsOCHHxmJixRweoz7MpZIF19nWR2EDyWoqApfcYdo7OJOzxnJ0Y7TwSWe84mGH90kpQiF",
"wUrM46PLuWnOwW5eREWKUqASFKtREJHfIv7qGMNG0vnEYuI4gPUAE5WXV6ok6rN7kNhmsidFwDw7X7FeMXAWbUDCmdA8ziifD9nnMARRWTLQRCNYwlekYmC4JgE4s9oI",
"9OmxXtZZZ0v4W0egRKEXegYt7qb4Sn3feIp2kS5Kmzup3Qwg26A2FZY7CCl0XOxHqHm88pKB784YFi8CI8F8AwYHbATYHv5fdmvHzWyrwIp9zQU758dwN0uMU6PFeN3y",
"1M0VWZlvHOCKKnr8hoT6CFWFUgbknlufGZF0C6l00U7NU37AtRY4wW0MHOY3Xwr37HNgqw64zYY8vZ33CByVd1HiEZpyMrRfvCHSKZJwULCQniZKeoi49PYC9gAQZLp6",
"30FF0HxmNuzFgEyqRSTY2pQ4FRywr7Mf5xkQlOoFwSqnzoEbEptutkMMxuZo0lDBFBcyU66MoNRnMJ4wSEeA03nuxSKxhJ5f5vIxmx5EeRNJySyquk2kSpSq8Ep6kww2",
"lmyOr0kKQlukLFAEE73BepkEcx6MCQ3f5JpperqZTUklkKtdA4Ltwmm1uoVZrCI3G3UKzy78FsgHxP0wNN9YVXkzAWCqBGxfehBhcGyBdNHioEdoWVA4E221e371uwwl",
"xM0OJ7uCGKRUg2RUZZqRAUgeOlQkWTNfDKrSlnx7BnM4RRbgqPoNMMx7gtopFllGyBK8OpKAnLivi0BN7kR9gEDWRCiyF5TfD7woJzDAGN3ygtkLRYYY4wmvYoAKF99o",
"GpotSEuo5WpebgV1GEbbARnYHk2W0OmfDrIQwOZkHk86YtEtWZkNQu2dSMJYwZItEK1r8W2QzpvhrFB41WRgdqzgzGHrYNIfeykiCRqTq2w2ds8EA473SwkEeKLpo8YN",
"PL4npuy5FqqRRcOKRgbdeInvnpup4Mwf5LiHFkNpw3Z999gYNwrukU9LwSNNvirE8nZkkZY60LC7AYS7wnUdeszpMTq4Pr5fc0vGDr5KdUigWsXckQn0NJEUp2PzKFQQ",
"ZZxQEYEozYEAqOmFkWUqYSkrKne7vHnfDyoHJvnV2SpLWkOZ7JZNSP8uF4PZq69gA3lLAER6NNxgeq8Yk8gAgGmmG8CmT5Jf5JWqpdgRErAdUwwHH42w224HZtPtESv1",
"Z7wBVAzpEtoqpQMt8VpFg4ZSN0TooomfmmmZr1ypY4s6wmqOHxmHuVW3u0MpWAwzgyAAyohSvPTRi8gEE9AsCHMJHGiGNAhfvGnJd4DU1tgYw2Hw82wy1K03F3RUSpOZ",
"ZmOYVQceEdCYWJ1ozN39svZxcVwZ0jxf5Rq28LEL24v0ZNYvMSJ4qku3Om0qbSZtdXeCFFrz9oVtEbdTqFYqrMIzrnMq57NfeegR2cRRRUsGS5CywxS7Ek4wLFA2tP3S",
"vQP81MQ2Es74Qr14zS7EAQzyiBZlHyMf5VM5Gq0YNpMwQ63MFyQ6Yv0wxSLtRZWqzKe0hyOT3psAbEqd0WCvMJrvQrM1hqcfcGCEszFeZKnJp0MiNSQ6WYkVwosq8kpZ",
"Q2oP36RRWTlxkzpop6Wp4ukcMDNikmmfDvMwhrYSoMwwXKwwvvS1M8Vvn8ggpNx5Uy70n0QBw622nZXWzKWxxMsESGYsb3HfDEBv4LCZrGuSlnOQoE93OZNvEgFdRnux",
"9EA2ZFWexGuQeFVYUF3SonlwHlMyxvzfcmnHUGHMxQSoEK0SS0q0k01uKUE9oyninHZoo7yMpys3vKegrCZHMZQlyCT3QGJfeJmxcuIxXQSo8IlrqplxZHxFERWUpn3l",
"EooknwexNzIEWPlZ0xkP1unkOO0MSHQfc3BpwN1Gxk0ops10QMK3oWtWkFWF4zMB3uyS1JvTXoheQ87lMrDmjppP1SMIvH3fdiRUsMMrnOkYoZNF4wvQZk6Rg62gow0y",
"0L10x1MTloEsCL3lO6pkr7pxv0NOSwPfDmWE1Qmmi6onEZzlHNKrI79URq6PyoEYZ0wqJrMkyUyhHn9yC3vzoRoCKNWh5CEfbKbRWUcFN6V8qBSy8yBku38RgAYoUYS8",
"xvHmO0LZoprxkF7OuS8Ox3Ixmjjlxv6fd8Hl78IkSSFVX1ZHrUw7ySR6Q7FLw7nlmX5wcKyJZXsPeXF5HYyNABRCRsoJ4EWfezDGCUyOCYUkzNGLWzOMrngL8SSQoJZx",
"8QmM7NxNpwXwyw3Nnowl1wxxmH7N0NUjc1WXJMV4OLEew0jmh0A6OU8nlISLnC0IwGU227H00KFBXlycInyCU2WbRgERRUpfdBi5WJY7zEWzmlsAYT7N092UeKNpnQr1",
"mmQQuwEWe378S6iIkwtx8k0ZJluJvr0fb8EnvUiISqqnQmMyFIQPI6F3MpA70oqnmIKYFzGn6ZZCJr0MM5ukAEKAgLUou0pfgiIhdFHI8sSMjnR3JyTo44tyuLmmxMmM",
"I7Hwop4FnRtNJl3Bx3owEHxmMZyN53qfeMCQMQr3ICyOmJQnG7lkQFWSP2olQ1NwIuZxnJipSNm3UxHHCPebdkbgYYCNtwYfbXqXynNJtnvmtWLXwk9Vwq8tqOmQvNx0",
"0U1V27k6YQQZ0SZpOryOQMvykn8YwYkfc8OGTWS0pK6Zm3NoAwzwNq1S0NG49gLurL34LSMN0xngXHTl3kR6sAF7g82vH3qfbFz8R0NTVZksS6LLt8NO7QY4n67NuN7x",
"1S9KJwWMMu31k0v0okvOmMk94eoqqqZfdGMCAL4AKkvmHU2XZIloqQF7y9kg28T5ASZ0JOGmmNsiMH6wp8VUsnqzmvCCJrdfdIbAwwmXwZl9KkFE3RuYqAEFVMNZFn8F",
"EoooM8Z7pvnM3rQo6vvOxrSQT6kZG0SfdnvUhkQwvJm0Qu18rCyZvZInt4AVTOM4UvvsEkNNG6oMvMN7ZYyo6Hekdt6xCTCfeYnXNmyxCyZ46WWeZMMXIYO3OJ7p1NHu",
"yyvOHZywxZNoQQ7SpxQxmZlZ70pNNNOfIxYyn0vr7zrxQ82NHXG1pCYoqyt6Nv4y7MmBcimvoZH0wCnnQkus8WRdY68KxFEfDVoJm57o7Q74YD3nZNlwkzeqZ063Sx3k",
"81wZYFoMSmLym773nMxM3iqo1kmxM7kfsyMmmQmmxlMmnZNxh0Ml7TlpEWxmJ7JMlMMuSmrOGY7rwSqPS46Et9UQ0pnNuVRfDJmxHGIQvp0YYoe7rkBXhqrZHqNmZMyo",
"l3OQwnnFQOQxKLnk8QlmM0DYCzSJN1hfcMmx1mxGF7jGU0Hh7HJrxB1Aw7L85mmmIHMQvrmNSQZZLO7h4F4KApuY4uCPSesfcmm3ymqnSXuRqpCL6wmNrHlvNkypHHO2",
"@@!@@@@!@@@!@@@@@@@!@!@@@@@@@@!ff!!!@!!@@@!@!f!!!!@!!!!!f!!!!!!@@@@@!@!@!@@@!!!@@!!@!@@!@@@@@!!ff!!@@!@@!!!@!!@@@@@@@@!!!@!!!@!@",
};
