/* XPM */
static char *image[] = {
"128 128 64 1",
"a c #8b5e04",
"b c #9a6d0e",
"c c #b28618",
"d c #b4891a",
"e c #ad821a",
"f c #b08317",
"g c #a0720e",
"h c #9b7415",
"i c #ab7f17",
"j c #a47914",
"k c #a97c16",
"l c #b78b1d",
"m c #ad820f",
"n c #aa7f0c",
"o c #a47710",
"p c #895a05",
"q c #9c700a",
"r c #a1740d",
"s c #8e6105",
"t c #956708",
"u c #9a6d02",
"v c #986c02",
"w c #906405",
"x c #956702",
"y c #7a5104",
"z c #815804",
"A c #5c420b",
"B c #221c10",
"C c #a87c0b",
"D c #a57b16",
"E c #996d05",
"F c #9c7002",
"G c #926605",
"H c #976a08",
"I c #9d7309",
"J c #966c0b",
"K c #8a6407",
"L c #9c710c",
"M c #a1760e",
"N c #a67b08",
"O c #8d6607",
"P c #966c02",
"Q c #966a02",
"R c #9d7202",
"S c #9f7302",
"T c #7b5704",
"U c #815c04",
"V c #2a2417",
"W c #171104",
"X c #916902",
"Y c #886104",
"Z c #906a0e",
"0 c #987008",
"1 c #a37804",
"2 c #a17603",
"3 c #a07402",
"4 c #9c7102",
"5 c #835f06",
"6 c #1c1609",
"7 c #a47907",
"8 c #ba8e1f",
"9 c #c09422",
"! c #a27603",
"@ c #100b02",
"abbcdeefghifhjkkldlmgfnkopqrsptuvasuwwuuuwxuuuxxxxxaayxypzyypzABzsxsytypppsppbysgelcorCkfDobEEupppaxxsxpxuuxaxFuGaspHtbsIbojJwKB",
"yGLMmjimjhkiedceDkbmnnnnNOIHHpGPaxQGpvaRusFRRRFRFSwxzsuzzzzTUyVWzFXYpsJZgDhZbZnohkkCmififkjjnb00ItEHGE12QF23aEE4QpsItaHI11I0OZVV",
"yYTUzU5OKhDeeDhhDeZhMejJJKOOzUyyyyYYyYYYYUYYYXYzY5YUYYUyyyyyyy6Wazyyy5hZhhhZZT5ZOOOOXOJZhhDhhZzKYOYYUKOJKUYYzzUYUyUYYYYYY5UUTyVV",
"aYT5YYOKZeiDeeeeheDDhhhLZI0KysyzXPXXPXXXPXXXXXPXXwXzYYTYzTyyyy66aYTTzKMMDhhehbZZZqHtXOI0ohDhhOOKJOGYYY00YKXPwzXXXsXPXYPXwXYYUTVV",
"za5YXK7rbee8eejhhD8lcehoJMKpGGwaQ4PQvPPRGF4vX4PwFXYsQQFayzyyyA66azy55KLnjheehe8bjM7qI07Nnkd8iMtHHrHtEGFPawPXPXPQPu44PPuFXXXUUTVV",
"pQzPEINnfle8ldDcmk9988kMMMnttQR2vPsPuFPvvaPQ33uRzsxzXzzpapyyyyB6pzOZhjnfe8lcbj8iir7q0rmfcl99efCIIN7qJtEwsw333FPQPuFRFPww4XzYYTVV",
"zvYYII7nmfed8l88docck9co7rCN712223SF3uQG4a3PRwPpszzaaszwspzyUUB6xPJjlhnmflccef9dcC7INNml9888dlogqtJqEtRS3!2123SF3RQvuxxvRRPXYUVV",
"pszKE77mmcdeejdfnmmfl9dCrCnCN73FE11FFvR!!32u2vaupazpGppazzp55UBBazOLeeijlk8989DliLLnCCiel88e8djMLN7rI71N!1F41RFR3wza311R3RPY5UVB",
"pXYE1rnmodl8le8mnrmc9ddmCmnCN7qES24!S3R!13uuS1v3RPwGauGpQpGKYTVBxXOhee8d889898f8dnMrnmfDD8ecdfckoCnnqqI1!!R334uu14aQ3FR!4PPwYyVB",
"xQKEI7Nmjjcl9l9ffmfm8conmnnNNIN1RI3w!11R1GQR41RuQFQQsQwwspHJKYVBxPOZhk99899988999dlfmCfcdee9cfignmgkMnI7NN1!31R!SFa3313uussXYUVB",
"xRUKq7777gqgc9dl9dej8fnnCCnNNHNv1HsvF!1234Fp3FspuQwS443a3EEGOUVVxFYtroijl8ed88ic998ldmcc8cmccmogLkCnoq70EHEFF!Fu!!QRF3RQS4XUYTVB",
"ps5O7N!7nCMrmcicl8lc9cnCno7IN7FR3as!N71!!xR2uFuasv4aQRwauaEXYUVVsXXXpZZomlcfieec89d8lfld98cdfmr0qmgDjr77HI7RvQ!3R3xF!!F!RSPsYyVV",
"xG5YIIINNCnLCmjii899dmCncnJHIN42asa3v!11SQsF43FuaQwuuvaaFPXPYTVVaXYPRwsrrmfdmmoLcl9c89989emfcn7rbLMdjM7r7I!Ixx11R!Fu1!1!24Ps5UVV",
"pEYORIIrCMnmnrbkjhk99lfffMngnN2EwE21!1!HQawvu2u3vu1SapxQxzaKUUVVsQYwPHtqrnjmmmonooel99d9leeefcCnooMkkCH217N7xG!3EwuRuv334QQwUUVV",
"QSXYHr7omCnCCNNnbmf99dmmmCttN7RES!EESQ33GsFRQR13u!1SRFw4SzaYYTVBxuYwGHsww77JomMLoLMi99f998kiionNMggogMHxtINN1N11R11!vaxF3PPXUyVB",
"SSKP1I7mmocm7CnCrmi98dmnfkCq7NN!F1t2!333RSpvaS4Q23!u4GFQFRXXYUVVx4YPFIwwIINnNmggrojd89l999eldkmnmonrI7EQEqNNNI2EE12S4xpavRPYUyVB",
"EEYYHHNCmmCgqICmmcl99fgCdmC77CC71H7R!sx!F2sxv43!R!R3RaGF13XYzTVVxSXPPQQEGwNCNmMMdked8ll999l9de8mcioMNqEEqN21!2ESN13R3QwPGXXwUTVV",
"SPKKILmmbmoorCLCmhf8dljmllmIro777N2SQxauwQuFQ32R2v!1vFR1FRPXYyVVzFYwPGaps7nmmmmDl98iD8ll99889998difkgLqrN77N7CHH71S13!3FvxQXYyVV",
"tSYGHCcogmoLrrqnmboclemj89jJJZst7qNN3azppxxxRR2Fvaw1!S!14RPsUyVVaRXXPvQaw7Noofcdl89cj8dcel99ldjjmoooILrq!INNCm7!2S313v3uQQXXTyVV",
"7EY07fmmmmnnLgmgkekldedfd9DgffbttZCN!4QwwpF11F3R!Qu2S3!12SRwUTVVx2YPQuaatr7nnde8llicdc9lddc99cggnnCCNLLrNNNNngqI1qS32RS!Q4XYUTVV",
"qIOObmmnnomnCgcjhld9feed98efl8nIswqt71!uSQv3vavF4svF3F!R23XXUyVVxRXwvsGPE7NIInoim8kjd9l9l8c9cjLMINqNCCCCMnnnI7IN!q11ExQ3FuPYUTVV",
"tIYKLg7CmmmcmmdDe99fhl89898l8DM7NI7!RE141u3uaQFsxvEE!113FuPXOUVBaazXuSS117NNICmke9doCd98f98ifonq7qHNn7LgqNC7qqInNE1R24RvFPXUYyVV",
"tsKYoCtgLMfkcfecd9lch99d898l98CMNN32231!xGa4wFvxa3!1!3F1RuaYYUVBssUwvu4F1IEqHIrmm98Moc8fcl8kjL0q11QtCqqrINNNIIN7I1R31QSQF3YYYTVV",
"b2XKbgqCCnde998898dcDickkl9llekr7nN771!uaPQPFx4v!Ps!4P1QvPPYUTVBQwYY4QvaRIqHI7Cmieimjd9dideiooqHEtqNIJLLCIN7qrCnE7!4F1x3PEuszUVV",
"tIUOLbrLCi9eijfdcccdfmcbfe8ecddDjmrM7MN1EPvGwsPS!u3F1S424XYTYTVVswTUXP4!FEI7Hqrnc8fed88cjf8eMbHtt0EJqgggbb7INCnC7HRuR132SRX5YUVB",
"bIOZMLItml9dhnoJnilckCochZjecelDkdgCnCI270RRxXuvFvSS4EES2XXYYTVVssU5PFRPPEGGtLLbmd8dif9lfdlkLJHG3PPRHH7LMLJHqbCnMq1RuQPSPsXXyyVB",
"E0KOZIJLmefDejMbLilkkokcDZid8cjMMMLrMIG40IEXXuwXYwRR0GI04XXTTTVVzPT5PwPv44EEIIMLMk8ece8djkeeJGQPXssXYGGIJMIIIIIJIM704PPpaTUyyyVV",
"JP55KKKLhDDiDhMjZDiZbMhDDhl8deLZOLLZtYYG0XXXYYXYsXXXPPEXKXXUATVVaXUYzzYXXXXXXI000heleeededeeb0XXXYXKYKOt0MJ0000I0ZJGsXYYTzUyyAVB",
"sOU5K5ZJhhDDDDDehhDZhZhheehDDhZZO5OKUyKOKYYUyyYU5UKYYYYYYY5yyyVVzYyyyyYUUKOKOKOJbhDheehhhDhhZKKK5TzT5OOOOOJZZzYJOOKKOYYUTzyyyyVV",
"KKTTyTKZhZhhDDhZZhhZhhZhhhhhhK5U555U5UyyTUTyyyyTUTUyy5yUTTyyyAVVyUAyTyTTTUU555UKZhhZhhhZZZZZ5U5UTTUT5K5K5KKK5TT55KK5UTzTTTyTyyVV",
"ZVBBBBBB666WWWWWWWW6BBBBVVB666WWWWWWWW@@WW@@@@WWWWWWWWWWWWWWWWVVA6WWWWW666BVVVVVVVVVVVVBB6B6BBVVVVBBBBVVVVVVBBB66666666B666B666V",
"B66BBB66WWWW@@@@@@W66W66BB66WW@@@@@@@@@@@@@@@@@@@@@@@@@@@@@@@@@6@@@@@W@WWW6BBBBVVVVBBBBB666666BBBBB66BVBVVBBBB66WWWWW66666WWWWW@",
"xuuuFpHbptptqtHprobhDhgsssyyyyyWJasGFFFxpusauusaxusxszayvxxxszzxQya33u3vEwstbqgbbtbgeejlkeZihypWZyppppGFwtEHFuxFuFuxwxxwppuxxasp",
"4S37NCOZKbjDcicfkDhhhkbZbDZK5z6@hhGGHHS32spPS2vxF3QRGwasGuRRXpzuSpG1NNCMMoMLomjfiiiDekdlcdeijKB6yhzKbKGsII2EI77IqEPvRuvwXuPRQPXF",
"UYUY5OOZZhZZZhhhhKZZhhZhhhZTyAW@bhTTTUYYXXXOXYYUYzYXYXUTyYYUzYUYUyyYY5YOKXYYOZJhDehDhjDeDlhZK56WpZyUK5yK5KZJMhJZGKO5J0JK5OXYYYYY",
"XwaPaO0MDiDZhhhihbZZZehZhhhZyTW@hhTKzYYXPXPXPPXPXYXXXPPXzwYYwwwYXXXwPvXXGKEOMjbheeeehDe8eeDhhh66ZDUKKJKOZzJLbjLJ0tIOOMI0G0KPYYYX",
"XXwXs0ICdcjZjDDDhDll8hZbhhh5yyW@dc5XswGPFPPPRPv4PPv44Xvvv4FXXXspE44XQR2HHINCkjMhieeddddcclDheZB6bjO0JbJJ0KgZhooMILMCrZJHHqXRvsQR",
"XswGtLbjdjibbjhbhDlDeDhbkhhZyyW@ikYXGGGw2R1RQuRuPQ3RFSPuRu4SuRQQPv2uSIIHHbrCrMoj8Dd89ccff8eeDhBWgiK5tb0CCZOObZgonnCCINI0EG2S2uP2",
"QsxQErgmeDchZbhDDeDdjkDbZhZ5yyW@kezKG01EEQ2IF13!vGuQRvxPR2SPu3Fwv4F11JIIHqqqqCmf9c9d8899i88DZh6WbiZOzrtZCZE7oohmnI7N777qH3Qwxx!3",
"SQG3qLoeeeenjZkfch88DhhhbZhhTyW@oD5OOt7ER172S!ExEQQQ3uQuR3!F!FS4Q3!N7nnILC7rbmm99f9f9l9djDkhbhBWofJZpgbkdorrJmmmoCNNIrnN7IEtQxRx",
"QERILCc988lMmmoCkd8lDl8lfbZD5yW@giOOttE2R111NERwEFF3231!!1SuS!Fvu31ENononromfdd98flmfc9mmnoMJhBWjmhZZbh8kZZZOmcmIrNInonogCEEuv34",
"!Eqrmkd9989elc88l98c99ld8DDDh5W@j8YKHHEFH3!F77!F313R!RR!uSRuR1RE4!7nnnCgmmmkf98el99nfmCMMIJJKZB6ejehe9l8Dhgobldjr7INofcmmnqEHERR",
"2IqMMkddllkd9enCklcd8lmmhhDDh5W@ofYaGwGRuxvQ13!4!QuuSuR13QF1F!2322NCnINMmmmd99oDhi9mmnC77GOt5566gChhhlDDejbkfdcmIEHromnmrgqqIE72",
"nNNMmjccdinjmdCNnfm89licmdehZTW@gDOXsEP3QQuS1!R33RFF4aF4xRuux!FFxNq7gqI7mmmc99jmk8emnI7NqEGKK566oZhDDgficld88cjfg7qHmm7nmmC7NINq",
"nCrmnmfiimnCnoN7mniedkfnoiih55W@EjYYw333QQ!!!33FQ3vuxsapsFSFF3NNNqIgCqJqCmml98joci9coCrn0JO0O566oohjDbcc8l9998dimNI77mNmmkr7nr7C",
"GICnCobmckMmnN11NtHnlmmmiiMZ5TW@GCYXXRRRFwSQ!F3aG3vsuQxQuQFFuFQR21N7qq2NCk889foocec8CrNNEtJJJKB6kihjJofmlkcd9efmmnrnCCnmmicomqG7",
"22IrnCJZCo7CN1S4E217mnCnmoq0TyW@xqUPFwR!3Qu3F33u3Qsvs3331RsvFwauF31EEv!EImkl9cooofc8frr7HrM0OK66ooZjjbonfi88edmmnC7In72NNCimoqtQ",
"N77rCmkcC722IEFxF2NEgodcdDnZ5zW@s7XPPxx!!!xR!F13!4xusFRFFFsFuQpvS!1HEE2E7mdl9ckkjie8coLqHLo0J56WkiLoLgmmmc9cccLLHJHr7qENIocjLI77",
"nCbmmmNmNC1EEEQQGHENmmceeeMJZK6@xLOPvu3Ru4SR1SFSS1Iwp2F3F3RQx3FS4!!!SEFqnmd98cfe89lddngIqrMJZK6WijLMCC7qJe9kmmCnqq7NH2RN7rbmoCb7",
"CMLMfmomNNqEH7qIJINImmd8ldbLK5W@ErYXQS4GuuF3F1RFFEEpaFGQSQuvu4!!!!31!EqIInm99lcl8dooCMjmgILZJ56WiohJnMZMclkemoqnqN7w077rnm7CnonC",
"7gooDkmmN2EHE2qHH7IrCCnCihJJK5W@EMYXF3x3xSvxRR2EvF3asFvxvsQS!33uxQFQ2q2Iqmmkk8l9dcionficmLMZKZ6WDkjLCbfl98kfn70JI0!HI1EqIqINNNnN",
"7LroDjooN77RQESGG1FNrnNnmhjZOzW@sIYUQ333!1Fv!!1vEasp4aGsvuS3S!3RxxG41N77rorkDjj8998kjfffmMJZK56WkmLILDl88ekcCrrqJ7NHHINCNH7nnNHC",
"IJgogmnCNIEv33vGxxQNC77IobOK5yW@xIXPvu3FFQ!uS17R!EFGFFwsG3SS33NF!QvS21QEEqqgbCoeccfdeeehLqtZhZ6WbMMJneleliomCCbnLHnq0qCCnrNCrqIq",
"HrLooogC7C12F!FFQQ2qoL7qHgsY5yW@Q7KXFxFFQsuS4RSFsExuwpEQau2uv4!u1xu3EH!HI72EqL7jCmjce8iioJgJbZ66rnbKgeihjDimjobnq7nrqmnmMLngbJqI",
"EqmgrLE7qHEx3!uwRR32N7tatMKOzyW@x0YysFFxspFEQQQvpwapGa!EspQ!FwF3Q4!uG2R1EEQFHrErnqMk888fkCjbZZB6qCjZbhhhiomccMgLrgrMMmmkCrnIq!3E",
"HCCoonNNHHtQv1QPx1EImn7IsC0YOUW@xIXzzwaxpavuExsapaapwx3uuw!SR3u333uF4QE1SEQ1I7N7CrrjildeinohZhVBHnhZZeeoDDlDiledmfmomccifkn7NRIE",
"LmfllmCo7IvGGQFvx1RInCn7qn5KK5W@aIOEPzzwxPvSPFpawGEpzGxwxQFFR4!!FvvRRQEExxQqPqqC7ggicejijghZZZVBqLLZjedmmelekedciDmjkcidddmCIHqH",
"ce8limrq77GGwPSRSR17gn770ZZZZZW@zqOO0apXppsuQszpHwazpGuuvuPPRPuFwwsu4sX24w0GStG0qJLiel8eDDbZZ5VBaChhjdDhikdeDe8lDDghkkjkeiDkLgMj",
"kdfDJq20IGPXPPPuXEPIM0I0IDZhZTW@wJZK0OspsXzPsaGGOpKzapGPPXuXX4PYaXsX4aY4QE4susXsPGJLhjDDeehhZZVBaMZDe8jkDDeDbjeehkbjehbgMhhMoDki",
"ZbZZO0XXHPXXXXswYzw000IOOLhhKT6WpO5KO0YUYYYXwsKzzzK5zOGOPYXYXXXYYzXXXYXXYsKzYUUYYOOZZbhDDDeDh5VBaLZDelhDiDeDDDDDZhZbDhZJZMLMLLhb",
"KK55OO5YOK5YUzTUzyyUOOUT5ZKKTA6Wz5yy555yyUYYYY5yyTTT5UYYUKzzz5YzzYYYYUzY5TTUU5TUU5K5KZZhhhhhZZBBpJZheDhhjDehhhZhZKZhZZZK5ZZJOKKZ",
"55555z5Y55UUUyyTyTyY5TTT55TyyAWWzyAyyyyyyyyUyUTyyyyyyyTUUUTyTUTyyUTUUUUUUyyTyyTTTyTT5ZZhhhhhZZB6zZhhhhZhhhhhZ555KTKZhKTT5T5TTTTT",
"VBBBBVVVVVVVVVBBBB6WWWWWWWWW@W@@y6WWWWWW@@WWWW@@@@@@@@@WWWWWWWWWWWWWWWWW66666666BBBB66666BVVVVV6UVVVVVVVVBVVVVVVVVVVVVVVVVVVVBBB",
"BBBBBBBBBBBBBB6666WW@@@@@@@@@@@@W@@@@@@@@@@@@@@@@@@@@@@@@@@@@@@@@@@@@@@@WWWW66W666666WWW6BBVVVVBBVVVVVBB6BBBBBBVVVVVVVBBVVVVVBBB",
"bzptb7HtbqHttxFapFuEgHgbgbHsswaGEuuxppxxsypuuFQxuyyyyxpxuusaazy6yyyyuvxwHof88Dmbbfolkg7q!HHqqLbbZsZsggbbbZhDjZpqrgEH7qEqggobpwyB",
"yjZZonrmnnNNLbwt7bLMjjnobkfcjgJtGIEFGpavx4uRR4awwppzzuuuQQXwYTVWyazE0IIIqCCCjcCmmjDDfiimmojoCniikihbhjhhhhhfiifbbn7MmMbMCMMI0KVW",
"zZZZZZZ0JbJZLZO5OZKKZUYTzUzOOUzzTzUXYYTYYUYYOXOK5yOU5OYYYKU5TA6WyzyUUUYUYYYYYYXU55KKKLLbJbhDhDbhZehZLhDhhZ5ZJJOOO0ZZOZYOYZO55ZB6",
"aZhDhIIJIJ00jjLZLLLZZOOXPY5PPXUPXwXXYYXPPYPXsPEzzOYX00EPOX5UyA6WyTyUYwXXXwsXPYYYaJJ0JLojDbZeeiMjjDeje8ddjM0ZMoIILbIJLZOKJLJZZZB6",
"tbelDo7IrrIrIimihnMqJJEXFGwwuvsXFvXXXvPssawswRRHtw0SIREGGwYzyA66ysUYwXQPQPQGEPXQIMMMqokjkkLcdigij88l88cmoM0IiknCLiINJb0IIobhhhB6",
"tgedlfN7no0CnikiejMLNHqEPwEFGFXSu2RRvPGFuPxGE12EEHE02EE43vwzyAB6aGYwXPP2u4wI!12RHMMLMnmmkmki98dkl8d8leoMCrMoigCCgeknLgnMnCDDehV6",
"Hned8emMkmnmn88e8ekmnnN0Qxu3SGxuuF2uSSSuGxP33!II71StGIIEPvYz5TB6QQYPF32F3FSN17NJtgMZMnC7Mdced9lfklcldjgCmrrgijCnkhkmmgbomiheehV6",
"gDDldl8e8emcl989l9kmCLqqFxRSQxGx3!S32FxR3FR24!E!P4S!ww13QPQwYUVBy4YYv4FFFI7tGNCLgkicmmonmkkl998dd999988ffMgmeiCfmciimgommieeeZVB",
"iihjcifil99dd9ke8llmbMHHFxx3RuQvGR313FQ3x!3G4PFQ!Q1!asPFRGPYOUVBxXYPFR121N7bbomieelimCnfcik999899lldd9ccDimkl9dedlcfdkocicdehZVB",
"lkJMjnonfl89lebcil9cCq1GQQx31xQxxQuR!Fu3GxwxwxxGvQv!vx2uvFwP5UVVxFYPER71NNCCcckd9lelfcffcfe988l8likod8fmoijc889lkcdcCommfceeh5VB",
"jmJhjkccidldmoofd8lcq7!G!wwQ3FxQxQxRF12!vvQQxvNF!QE23u!3SRPXY5VVsSOPw2!7IICmdlkflDk988mmfdd999flDedcclicmcjc88dcmcfjnmmCMmceb5VB",
"bkJbkklfiicifmmff8fcgNE3!3wuuSxuvxFxQ3QuQwxxQS11IF2xxxFFRSPw5UVVQRXXHIN7nCni99ohjl9f88kmjkd99d9dkjic9elledllfcmmmiogkkkifl8eJ5VB",
"odJJjocdcfcficcdflnmqqv11vvwQuxxEwQR!RxQR2v4xGQtHEFxQR1SaFXPXzVVxuZZqr2Cnnmdl8ndme8m9ccmjdlleDiccrCmide8ie98dmmmmjkkoidcl8Dh5yB6",
"gcKIrnmkdceldd8989nN!FQQ34R1vPFxExxQxQuFu3xxQwEHH!1EEQ2Q34QXO5VVESL0q7nCMMncDlkjklDd9dmood9eikjkcmComkd98l98mmnoofkii989fiL55yV6",
"gdJZjmMd9d998l9l8fC!3F!!!uS3FGF4xxG1QxxxQ2usxFH1EQ!434EuwRXwK5VBuRJOI77EHNCobkoomjdlcmC7Mnfifocc8cmjrMi8d898mnCMMigDjl9l9cbOyyB6",
"blJMMncj9c99988ilcH132RvwvuR2QQwGSS!32vxxR1!R4!H33FwF1vaFQzyOyBBavX0777HHrbLtZogomkcMnIrgielifdedfckgj8l8899ccnookkie98fdciZ5yBW",
"oeZMMmmncmdld8e8dmq711svpp24RQQGwuuRQ!SQ33QF33u13QwvG3FaFGPXzyBBpuYX2I!7HNLnJtbrJcdmCCIHqMiedl9l8lljjeke8l999imjflcd998llfoZTyBW",
"DlOJINnmmncid9fmmobIN!Fvx4uR3RwQxxQx!Ru2QFxxwvRxGQQxv1FR2F4XKUB6xSOOEE11qrnogbtZgnkmCn7NrDk8dfl8ded88lekiDl9988li999leDedkfLZy6W",
"iiZJMCjfi888komNngnII3pS1RvRwxFRvxvS1Ru!QFFuQFPwxxx3uS233u4YYUB6suYPuR3!t7IqIMZboCConCItCofdl99999l8e8Doomcdclfcd898eDjhl8leh56W",
"kcjDmkldklcjoMrqnonqpSx1FuGxQQR3uEExRQ!4FGGFvFPvGxQGQS!FS4PXzTB6waYPPES2rnI72nLCMCrmCnIHqorc89l9l998iegMonnmffke9llDDjbZD8ehhZ6W",
"kfhef8eDdl8fkcCConIpGuFu1uxxGQ1HEtIGEEExuG3!R!!wwwQxGQQvPv4YUyB6xGYXXRv3!7N2N!NoMLCm77N0MCLcdcilm8l9ekLooCnMnCle8lhDDbJbZjhhhZ6W",
"kkjDd8cfkmmjbbCmZJIGEaaS2!uSFQFESEEE1QEQSQwPxQxvFPQx4vQwQQFXTy6WxPzXFFR1772!!77ItI2NISIEqojcmckfmc998ijnrr7nCjeDDeleDbZZrihhZZ6@",
"gMDec9fCnC7IHtsaaspaaQ31RwxGxFEErE7q!3HEvxxGRvGP3QFxSQxQGX4YzU6@xvYPRu4SIt34N!I17133!GQSHrCdkffjCmcdijgrIq!NqkbgDe9DkZtJbbZhhZW@",
"hLDeelMmCLCCCIwGasap4vFRGxxxxQI!1t22E2R2!RxGvxGF!31S3!RQssYUYUW@sFYYPEFE7ER31E11!111F4HEqbjDicfogmkjcmnoC21IqffhhllDhbZbZhZhhZW@",
"ZgeiDdecnNIIIHHEapauwuSvGwuuGQPx2Pqvv3431vQxxxxu3P2E!Rv44PXzUUW@wv5YGwPEF!!S1ER14342QQGHHJJCoffMLLg7morkg7NCnmohhhDhjjZJKbZhZZW@",
"bCDdee8limNI0rIREpPpwvRvQQXuQXau3RGwsuRQsxuwPswwwH1II4uvYaszTTW@aszswwXPERFXXGP3SwE127HtHIrLgnCHJLq27Commr77nmjhDDDjoLorJZZZZZW@",
"bMZheemhioqIJI4EXPzwaP4QXPPaEaGGRE4EGQEYwaXwsPsQwaQPGEwvXPYYUTW@psTTzYXXFXYasassPwXRPXwGE0rL00GwGOsEEqMDoJIrMhLZhhhhM700JJJKZ5W@",
"tMZbhDMLLZKKX0XwYYwzYwXYXwYYYKOYOK0H0PKHGXYOYUXYUXPX0XYYOXYUUyW@aXyTUzYXXXzYYYYUYXXYXPOOH0JJKYYYXwOXX00jjL00JKZZZhKZZIHO0IO5yyW@",
"KZKZZZZJZO5OYOOUYUyyUYTUz5TzzTUzUOOKOKK5OK5KU5UzTzY5YO5zY5UTTyW@zUyTUYYYYUTzUzUzzYOzU5KKXOKKTTTy5UUYOOOZJJZZZ5T5ZhZZK55TYZK5TTW@",
"y55K55KK5KTU5UUUUyyyTTTUUTyyyyyyUU5555555T5T5T5TUyTUUTUUTUyyyAW@y5yyTTTUUTTTTTTyyTTTUTT5TyTyyyyyTTyUUTU55K5TTyy5ZZZKTyyyU5UTTyW@",
"AB66BVVVVVVVVVVVVVVVVVVVVBB666WWWWWWW6WWWWWWWWWWWWWWWWWWWWWWWWV@y6W66BBVVVVVVVVVVVVVBBVVVB6666WWWWWWWWWWWWW6WWWWWWWWWW66666W66B@",
"WWWW6BBVVVBBVVVVVVBB6BB66WWWWW@@@@@@@@@@@@@@@@@@@@@@@@@@@@@@@@@6W@@WW666VVVVVVVVVBVB66VVBB666W@@@@@@@@@@@@@@@@@@@@@@@WWWWW@W@WW6",
"spttboro8f8lek8eijsswxpxupyzpzyWZyzypuuSuxuQupQuuuuwuuuppapatssqgbrrqwESEptbtkgCokkebpspppZZpKZVpZppppbhhhkkogstsoZZoeljejooqasz",
"gmMfiidcccfjbgnCgggq2QFGGPpYOU6@yhTzpR2F32Fs2FuRSR2!QF32FXxw2GPG4SRE22R117wrLCnCjnkbbZsOKZZZhhVWaZhhZbbbhbbjiibkkdjhkfkbkcedkjJg",
"Y5KbZhhjhbOTyTYYYUTUUzTYUYUyyyW@ATyyTKXOYYXXOXOYXYYYXXYTUUzTXzzYXYXYYYYOUYUTUK5YKXOOz55TzzyTyA6WaOTyyyyyT5TKKOz5KZzTyTzYOOKYYOYT",
"wOJbbbjoMMZYUYXXXYUYXYYPXXY5UTW@yzyyywXXYwKPEEXUssPXYUXYwYYYYXYXYXXXXXsYXwXKYEXXYPItJZK5KOTTyA6WaGzyTTyzOK5OOKzYGK5yUaOYPPYYPXwX",
"QI0LkMbCogJGGPFFuXXQXaQPPXwOUTW@yzyyUPQQQvasERXFRsXXF4XwusXXsasPXFXF4P4EGFHIwFPFPPPwHJJtLqzUyA6WxHUyzzsKKa0GKEaGIoJOGGGQPGRPPGsQ",
"SEIgioLMMCI0EE3FSRuEGQXPFPXXYTW@aEyTPXGGwREPXRSuSwxs3SQPGuPGxswuwQwQQ44awE!CS32SasEIqLnJKKzYYy6WxIUYpGtJZwEIItpEw7oNHaszwEHIIFG2",
"22ICcmnMHbqIIIu4QuxQRGQFRvPXyyW@zsyzXFGxGQ!x3!!RRGRvuu3S4RQGxuwSaaFQ1EE7E7I7NqGEEQP1ILnMZZKK5y6WxIYwzwO7oI7rJRQ3E27I2IEQQvEQHIIq",
"7qMgcfmkbrLrIq33312StGw43FPYyyW@GIyPXvxxGxSF3S1QQQuSQ1S1QRuFs4xvxQG2EqtNCINNNNIQEtsHtMoCoZLOUy6WaIYGaptMnnnIHwt1IrnN7I2EEqa1qtI7",
"rmfccimkDjCMNL7Su!7N7RQ31vuwYUW@p0zXPuG3FFv4R!G!FF3Ru!!3F3!SvPwxwux17NCCCnm7wC1tGEwwLfmckioLOz6WzJyKEttCn77IGwtINn7CCrrHtstI7rg7",
"ocd88ddlijjikmNnIN2q7NN712EX5TW@zKywXvR!u!uu3QwxS33FR1SR!u4u!xSQ3!2F1CmnnccmrIt7NntqC898deMMJ5B6wk5KJHqrNIEtGGt7nCnoCr7HqtwIrnmC",
"cel989ddcfkcfdooC72RI77n7r0wzTW@sZyzaF3Sv3v1FxvuP!R!SRR1v41F3Q33S13EI7nmmmmnIws207trm9dm8eDLZ5B6wmZKHI!I!21wu2IqI7omMCN7IIwsCmbk",
"fcjd9999dl99llcjcCnCNNNnrgbKzTW@hZywu31!FS4FSuR4vFx331Q3Su13SFS31331twJMbmCCCrqNmmrCfckChcejhZB6toYOHHR!SIESxI!11oLocCnL7LtJmDjk",
"onfl89898cddddc8imNCCnmMCnMhOTW@kjyzF43vQR4QR3!2GGQGSRF31!Ru3uF3w222IwqJCmrnnn7mmkod9MnnCklDZU6WtoYwPE3xw3EwIR!N2nNNCmmnrtJbkmkC",
"gf89999ciicflce88ljnJmnCCgCLKzW@hbyGs2FRQRasQ!!1xsxxxSFv!vux!3!uxvw7CHtgnnnnnoZZmle8cgCklieDZ5BWgmOzppwRHEsEHtI7NM7C7mmmJgohmnCC",
"Mccl899ffldchfkl8llmCdmcmMLMJKW@ijYXp333FEQsQ3QuRxRQxuFF!vxSx3FasH3N0swbCmmmnmtLfeedcnMlceiLOU6WwoYzpspapaF!3EE!7n!77qCNImmigIN7",
"k89edccddccfMooDcj889lfdfmbbb5W@ZkzzzEHHpEvv41vxwxvQsR!!RQxR3!RuFERH7rJcmfmnd8hhh88DMZj88cbJO56WomUzszppwp4177EPI73!Er7C7nmdkomm",
"i9ld8dd88lfcmCkfmofe89le8lkbZTW@th5tH77IEwRRRF2vxSFx42uRu3xR!RuFREqHCbh89lc88l898d9kbbbf8cLO5T6@hiYzsasEps7!7qGawH3FEHn77oCCMmmi",
"kkoMjl888l8lknoccfldll8ldinZ55W@shyGzE2EEwFuv1F1GF32uxRvFQxGv2xvaassICmfd8998cllfocjZqgllmNI5y6WbiXXzaG3EtINI!sGwpH7EICnI7NNqmnj",
"qqHrree8ldfi9d999efikckiCCI05TW@kbYXaFPaw3!Pu3uSxFQFR2!F4QuvPuaQptttrNnbl998c899df8fbJhehjq05yW@lkYswQu11I0qI3xFwGawHN7II11EIqNH",
"GQSEqMclddkf989dllmmgmoCN70OTyW@lmzYpwzua3SSxvxuRQ3QF33!SR!u!GpxwERabCnoh88Del8eldekbbDDkmtZ5UW@ldYTGwu!1!qHEGaasaaswII7I7!!Rq!E",
"GGv4qonmfdcccecl9lDnCbnr7IEOyyW@hbyTzxu4GxsRQ1S!211ux4Q3S3SFRQwQx1!GCINgjeeehldkdlfbZj8hmiCLZ5W@eeYXPGvSuEFRFQaappauFIn7EN143Q!Q",
"GG31nLLnmffelll9lciknLI23F0HyyW@DZyyappR!Sa!3xF33vGwGu1S2GxRSvpQsF3ENoMbheDeleeDekbbZj9fkkCZh5W@eDUzXEFFFvRRR4suxx1!F7nNNqqGQv3F",
"xxQE1IroCorMj8e9lcforI1!uFEOyyW@kJTyzGvs3RF133E!3vvuv23!RFu41uppaawSIIIbbheDl8deekZZhcl9mCIMbZW@DDYYpERw3!wxQwwQvvuPFEN!E7Euuwuu",
"u3FGEINnjkgjiei9lekkCNI7ESGYzTW@kLYzaPuuxpsx!43!v3F2u!v4RQS4u2ppzppaHtgkbhjd9cldkhbZjil8fnZJJKW@hhYXs4uF!uppzppwQFGFEI7!23uRRv3w",
"RxsGIqIroDDDceildijiMCCIqE4KyyW@kmOYFwFupvu333F3xR3wvuP2P!uvQSxQsPpssKbbjk8dlfliDDhbjnk8eiMKZzW@kiYYsGsI2apazpsGu3FR2I2QR!uFQXuG",
"vQGGI0tbjDk8leellikkMkhbLHH5yyW@eiUXwPXasQxRRGuXXS3apzwF4uuXwSw24GzppsJCjdlfimfidDogZZZje8ehZ5W@oDYYzz0wEszwappwRFRRSwwwPQvQPvQw",
"wwXGwsPEIjDDeiDeiiijMhbI00wOzyW@hoUYYzzYpXPPaswF44PPpsXvuQXaPX44PXzypGHNml8ijikijgZobKZhdDDZDZW@phKYwKwpGwzpzaXPsXsYswwwYXPPwPwX",
"YK5GYXsO0LheeDDeeDDhDZZLLOYUyAW@hMUYYYYYYwsXKwPXYYXPXYYXPXXXXXXOOYyzK0JMjeejhMLLhZZJLLZ5bZZZDZW@zDUYOYY5YzyyT5YXYUw5sYYXYYUsYYUU",
"TUYz55OYYKhDDhhhDehhhZhh55yyyAW@hhTUYTUYYTYY5yzYzYUYYYUYYTyYYK5Uz5yy5OJ0ZehZZZhZZJZKOZLZZZZZh5W@pZ55YzUzTyyyyTy5UzzzYTzzYYUUTTUz",
"yTTTTyT55ZZhZZZhhhZhhhhZK5yAAAW@hZyTTTyTTyUTUyAyTTATUUUUUyyUUyTTTyyyU55KKhZZZ5ZTyU5UKKKKZZZZZyW@yZTyUTTTyyyyTyyUTyTTTyyTTTTTyTyy",
"WWWW6BBBBBBBBBBBVVVVVVVVVVVBBB@@ZVW6WWWWWWWWWW@@WWWWWWWWWWWWWWWW@@@WWWWWWW666BBVVVVVVVVVVVVVVVW@KVBB6666666666666WWWWWWWWWWWWWWW",
"@@@WW66666666666BVBVVVBBVVBBBB6@BWWW@@@@@@@@@@@@@@@@@@@@@@@@@@@@@@@@@@@@@@W6W6BBVVVBBVVVVVVVVB6@B66666WWWWWWWWWWW@@@@@@@@@@@@@@@",
};
