/* XPM */
static char *image[] = {
"128 128 64 1",
"a c #dbbdaf",
"b c #c59c8b",
"c c #a06965",
"d c #845452",
"e c #764d4b",
"f c #6a4845",
"g c #805452",
"h c #865654",
"i c #805654",
"j c #865856",
"k c #855b58",
"l c #845856",
"m c #895c59",
"n c #935f5d",
"o c #78514e",
"p c #734b49",
"q c #644743",
"r c #7d5552",
"s c #6f4a48",
"t c #74514e",
"u c #7d5754",
"v c #885a58",
"w c #7b5250",
"x c #734e4b",
"y c #7c5451",
"z c #845654",
"A c #925c5b",
"B c #8e5b59",
"C c #885756",
"D c #7b504e",
"E c #744f4c",
"F c #7d5b55",
"G c #6c4c49",
"H c #654b46",
"I c #905c5a",
"J c #8f5f5c",
"K c #7a5451",
"L c #815855",
"M c #8c5a58",
"N c #785450",
"O c #8e645e",
"P c #765651",
"Q c #704d4a",
"R c #845755",
"S c #78504d",
"T c #6e4846",
"U c #7e514f",
"V c #865f5a",
"W c #97605e",
"X c #78524f",
"Y c #56403a",
"Z c #8a5756",
"0 c #805553",
"1 c #76504d",
"2 c #8c5c5a",
"3 c #6d514b",
"4 c #8c5857",
"5 c #794d4c",
"6 c #7e5452",
"7 c #815754",
"8 c #825351",
"9 c #805250",
"! c #7b4f4e",
"@ c #2b2820",
"aaabbbaaabaaaaaaaaaaaaabaabbaabaababaaabbbaaabaaabaaabaaaabaaabcabbabbbaabbaaabaaaaaaaaaaaaaaaabaaaaabaaaaaaaaaaaaaabaaabbaaaaac",
"bdefeghijklmndeohpqrstmuvwxylzABCDEFGqHGnvIJDpKLLMNOPtJmQRzSQesFcTKpEtsppUMJJuLfvGrpNVmnUzDWBXTsRYDDqqKkDIZz0x1vj0fqqLVtwvCe2f13",
"bdADCJ22cUcW4AAlADnhWkWm2ronlmR5d1rG6P7kWxJNqGN1cnilPnVJ2WXw1tW3bmqPvHqyXBSkLLpnLEnmV6whWIJ6A5poTLNsqRFCj2W4Uoml7sxfrFtNiKqJ5qIH",
"bgIeB2WIAcA2c8B4iidhzJZuvjozWCzgtUzEzNpn9Jv6emLJPNfJIPktcpZf7LQFbqMlENQL6JAwKfLJkOJW8EcW4WI4x8exQp1QtmOMWWc9SpupfsqlvWknJ6gz022H",
"bACAWB2ncmlcchgRLXpMWjwweXvzwxREdnv2pyJ6XkvNymcuuXVnWPkRXhB8lFxFbylp1Efpv2IAzXvdBjW74cnvcWd6hmXtNe1xKNmmW2I!CJk7elcnlRv4U0jzyBJH",
"bs8dMviWWRm2DLi2g0IWWpeur6w1E2opMjMyXnn6ncyusLn2NcmuOkL3nuwjgsEHa!UjOsdWj0KMg4u2InW2JnMvCxIIlymiDiLMtKLlWGDMenWLjR654jvs2xG52hwY",
"bZnWnWhWnyMDRDss1D0dzUe!ssxDKxx2m2RjAWWC6CeeFPWLnMCmLi1uq0fe6rnYbzhBMIMdz0R4phLnwBWMLlBIivWA0C1fTDDSw2Jzz7lh7AJEBIJnDsT9I7zIQjt3",
"bcBSdzMJW2IALgrLKuVLCxTd1SpwxquLLn2JmLBcMdmNcJBx67jjxxtxS6H3LLiHcd48gI98zRMTDhcdRnJr7jjljvkhIxGtlkA4Mkow7IW5W2cMdBdUfR2WnTDeTeQq",
"bWWWmpWjMncyExelElkKXDfqpDNzrolW2JnM0WW4yzlW2lgt2giuDQgsFXQmmxt3bIUUnvyhzr9jUWCkRklWKU2MnN6DTwSfCesUWCeAgmWWWm4IZUhdhIZDsQeqwwjY",
"bAM0SWcWc2BStkkUSD6ypTfeirmj0knudzB8w2Ap6kLQvxv7iwukfvkssDumPewHbf1s85!fS4vZCMMnJnc2LJuI2uyz2zKnn842IhhdmWWWWWiC9Csz9Ax9poXEXkkO",
"bAZWBccAvmzwutQrU1lD5dZDBmcl1mnuThDxBBgpyS6LJrslepLwRw3yqiNLt1QYcg1XhpMg84CdMIcWW2JmOOWWmwkcZkWjdC4nd8BnZncncZXdLQhf5y5geRxxrLlF",
"bUvcccWBWAD6LgjEznBC55UhckUR62BIDkiyndC44JmMWyx19W22yBlTGltSKxyFbxfqD!!eT4z48nAIcWckIMWlkLkwwlh9C9AxhmWlncccA4dz1tseuz5lhXLBIWWH",
"bcncOJvRzMyo7R9fWW5z5SBnWIUAJXB8dIdhBMM8AZ0mWEzQ7uR7zzgUrkFkeIe3bQyv!4hUChUWBmnWICmWnWwRkoEw8Sd4v65ekuz4cnj0QDXrksp5!pw9!wn02vAH",
"bcmWWyLLmXrvWuvBm1s8XkK94TQKE1RUh4B4WMW2!CWWh0p9xKzll452imklWoC3bpCgUZ0nBWMLvjJr8JOWAAJl57wwI6llN6ZIkuAA2tMKNgjGxGfUD8dC8zvWC48F",
"acrlnkwvKPmIM240UU84y66ytwtEQErehgnn1!d9nAi2cUdIWmJKrioL2mni9MAHbnv89iJ2nwDmJJr9C2WIWVwtxjRWnlnnZIIW2x7zfEM4pUg1Gfep8hmM!4WIMJWH",
"bcnL2DjBViBwMM40UUzzjddhKqtytQ3iiKmz1InWlymrGMzBWWmq5DilvkJJCuCHb6Lp0kOk64ZZIv6cAccWBUeXDXk7M4wAnWBAVMvGEmX5f8Ae5qGQCIWU0WcWmyvY",
"bnymWJ7WkmBcIkXDxU6iE71pxrHQQGumolrEy7Jwy2yk2ACkcBUKuOJ2lnBr6Lj3biSIVWLLyWl2kyJAcWc4hWAvrnIc8zWkWWWc8EQSDwGS5z48swlyidMCmWMWmKnO",
"aIrmn!B7n7wochxfQKKPFNQNQttKPuVQXtyZlXN7uKuXdXeAc887DxvLkkJc6nJHbvxIVjvm2I7ggcInJWnMdBIiDBczxvW0rL2dDJIlKljphCIh4MBLLkmWJZmOn223",
"bl7JmIc7mlB2zgiLumuPutFxGLEiVKQKlieiwgKyXKQRDXnChp!yClWknVc9AAmFbrtHrPkkjvXCWWncWcdehCMzvkv0BIzm4wgR2WLlKiezMCCZLJSZBWWI!Bc2xR7Y",
"bRLlccnAcWorCwXtsQGuGHrXXu3uVrKLxsX9W1zSxNt2tuMAWdUwgmnWP2RACC!Pbi1LlXuElERLRmcWIlCUdA4UzJmugU4zkzKrWu8zgfEE8TxWJJWWlI2UCCISjlJY",
"bB1yn26McMIM1mNQsQX7iLKEkFxKNNNKyNhhn8jeo7LKlWmnZQU1lWWvj7c9vJTHb6hkojmBxxg2nngrZ8UDCMoum7S7i0lL7WiFwoXpw0g15knWWw0AWIddhndr7jv3",
"bS7lvWCWAZeq1GfqGHQss1iNGHKNkQqovnnkr0rRjMnIMCS5S712WWZ7wJnDL2APb95Md8!9UdnCU!7lICCdrAlWWy1lllNQRMuwkUqqQfswMuRjBuZ9d9Ch5RvnBWWH",
"bR4AIWnSU5EEo7EfQfGpNKuQtG3Qtxx7LvhAMvMUeIIh75s1wxp7CSjWckRIlmSPbhAxepfp8!B94CJW2WMgkBJmuPXSlGqlKEyopTqTqqsxZW2WI999U5pDhIWWnA8Y",
"bh9!ChgTzBXwiQYqQxfhKqrKKL3qtKQKwEh9Uz894mWBueeEM51LmCAWrvhW2zUYbn8goQeyd4ZkC4WAZ8s86WmL7utPveymEQ1fprGEqG0nWn4WXZDe5559W2WUh2lY",
"b0dZv8U8LyEwEqqtQqQEtqPuPtG3KktwgrZM4hjAJn2WUSxfSxAJ2m7nk6jCB8!Hbp9MD7gyAhBJzWJKzutMzkWCJ7kPTp3QuG1sopE7HEnvd6nj0KGDgh7AkXM6RmyH",
"b8X0m6sUooLiErfNQNQEqtuNKGGEuoKNKXmMMIn0wg474ChCd27z07tw0Ahdhy83brdw5BZlzz5e594rXh!0WB7nEsffq1eu3GGE9!Kqq7lxtJSNKXfywi6kii7MjzK3",
"b9dhWejKpkLffo3NHrQqLGtPtHELJmKlk7QeIAK4BjMC!X5BcnnAwivl25gnd65Hbdd0rwRAWDf!84rh61nMQvO5otXpSEJFGE7KDirtm7Sy0sdxEt0DJmu7TwQDEXp3",
"bh5I9Us6ryfNwHfftutJlKmiuGgLwqQLirhAI9TurWBhWRhjhSU1D6rLMdMMI9!YbT8Rgmid8j!p58A6MW2E2c4qq3sxE2jozP6G13L7p5pWhhlXUXlzJg4Ce7Xi7QSH",
"b9MCh!DExrLKqtQKurtQtLQu1rxlXrLSGe5U4hBkBi5S9MBppKs4vji0gSvCI55HceLxXEQq5pqpSdv2wAWvvIDEfHG0lSw3KtGKz7EsehCMUf8C4phmlC!hfCLlLuUq",
"bvUxLTQNKuuQGNruKsGfTGxvmxXLfxqqfg!e95LIkfqdZdp8xl9C2!UnC2zn4Dd3bNJKwzQfuSeSjrJ6xl658!qpx7orfi30msGfx9HtihRw6BnApMBMqxfqG24gjwd3",
"ceSC6Q0XskQxxoLKGYGQYQLKuLQQtqYqMepU99dd6f1B4!zeeUi6yGi2xv4RWhdYb28DrqffqqpSKLmv05sqfe5NfHpQ7seQixG10qfPyv!GCCde0B9559fQy0iuJNMY",
"H@Y@@Y@@@@@@@@@@@Y@@@@@@@@Y@@Y3@@@@@Y@@@@Y@@@@@@Y@@@@@@@Y@@@@@@PH@@Y@Y@Y@@@@@@@@@@@@YY@@@@Y@@Y@@@@@@@@@@@@@@@@@Y@@@@@Y@@@@Y@@@@3",
"aaaaaaaaaaabaabbabbbabaaaabbaaaVabbaaabaabababbaaabaabbaabaaaaabaaaaababaaabaaabaaaaababaaaaaabVaaabaabaabaabbaaabbaaaabaabaaabb",
"72WWDInDpU!etqqGqGq3fXQXNsfOQQfHcTsmwqqqsqqx7YQzeQXhMUMLXlojZ4vp8AsfqY11pUM0gtxfTrO8DYqxJlGqx3t3c8pqGG1DSsBUqe7nwhe4JSQxQHQjlmB6",
"nnJBJRKTY4s1fqfqYqoyFttGfqixGEsPbTIipdxfqXG1Yey01oCUuKUvlLsW4mUigzqTYfrtelKEq6yUkWLssqxkktqGjgPFcsHtpEDeQv8TI7nghp9cKqfxtKXJm0iS",
"wM5BhAN!IQK1rfxtXX3LNGQrquPGYYfHb8sssCEkt6yGQiLHtlZjjpKLszwnLUpTSqqqoKxEvuDpz7wkcmsxsyQWJQYmKv6Yb8fp3lNQ1ieh592DEhWZdsokNtNkLrXk",
"irl9!!SUMXKNXsrP1uKKtYXNuuuYGGfYbTUU4rjSLKxjxemPji9uX2jyvmJhDtMikeqCvXWUvwyIMnJJygTp7lkPvqtPrTe3cqqotGexz6wZW4Wznn15p8l0fK2XrGJL",
"u1w88WW8fpGQtirPXtNLNLlLWVQcrtsPc1L1qwET!ofxgL2tiXhnJAvJlo9nJcA2le8x899jckA4AjCj0RjRklrKJrQ1ilkFb6KkPmLwxDUf5spdzppU9AjXvnkukLLR",
"1zwCLMCe5eTEGNWXXxLPV7mJyzQXfqqFb47TqxSQKy0MlCmjvyZiJnOJi2mAnc2osQpSM6Ol2zlRyr2JLjjEX0lW2tiKWrq3bxurtg5Q6DsBDiKChUsf8ikkLkuJmkvk",
"Tp7Z2M9fxwHPVtNmkkFOkwQT1fPwTffHbK5pqlJmJBCzUlRBJM6JVOVGNIMWcCCMUy!rzN7krX0EeLMvDyH1slLyFoimHYf3bQSsRGsegtSvwozyA!ggmmkkmwLnB5Dq",
"zAWMW!TTe0NFPrmGNuuX1llSQNkGTD9Fb6sfpzCWcnvNpBWcLIWWJLtkJAIcWm9CBps9UiF1kXi320Mgt3iidim2Vlm6PiQHbi6w1Ds5fEdwJV2ph92gRie7rL2ICMBh",
"Z4BLDq!UzDzXttNLGXGEuxsUK21eMZ4qbsfpSI2JcZACIccAmd4hWLKu0Ccm2zGQUp!kvwGKwCqtphnLK3i1jWOcJje7NsfPbwXkvf7yZJBj6xsxyWjWeABWnuXpDhIU",
"Ad8Dff05UDgyLXEq1xQDg8dylRlzvsC3bxs6GJcnnBcMWW779hiwJritS7JilTDpTq8xyttLGfStwzAmfNG7cO2KKgXjxufHbgzrqQviZZZmyuE6IngCWCiMJmdZMW9D",
"XCCe!wU8!UDjr7XGqHqTC55WC2IWoKsHbqfU0VLmOnnhIZWWWc2WWkSQvmJNtGp1pQDDuQGsfPSzQ1vEzl2cOLJW1xGfXsq3bCfqQmve!5XsCiRSm4Zd9hWnchgDnddL",
"7U!e4g78dAB2k0Usvtw4WhziJdC5GKwqbKSo264nJcJA0wvU0vynWrkL6kWXfpQpEyw73xtx7rQwXRLtpjnlGLtSfr1spE7PbX5yRsesh7jLiABW9I9wAAcnnKQdjyXD",
"j66ZzJv0B8Blhde5feeRg17vCCWMsGuHci2kWMrnc4IAjJWhJ2LJnBlHiLLurWuyNGtft3fGGrLvvjvujncG3Sffqyxx06sHbTTGxH2lkh4nch9CC4MRcW2cc1Q0n8Ik",
"eUdEXvhzAi6Ih40fedWXBgilWA9DwLrHblCmWwJWWcMz6yx02klVkCHX7kk7Klj0xEfjxpQ3rVl40oLwnnzDtGYfEGg1GQsYb6xQ7lKm02nW59hhWcW7cOmwgsfDCdI0",
"e6MCB79WnhhjC5TC4hzBktVK194CttXYbXmAcCkLiwjMMkIWnBjwPtu2WjnmLuL6wtriwSDR2016LFuLJsTqYYfwyLsofjRHbTxmOn7Ll2R4ZBhWI0IccrpGeTEnhdd!",
"DL1tyzLMhMdBIIBzBAWvLknreUSWRgNYcVvBUAnWWAcCnvdZC1nLuMJJxLJLJusEGtsoT10kjDK0qHJX6XfQpQsyzpGpufxHb1r2W7s17mg6WWlAWBcnu3qEqxuwQmzE",
"XluvkrrRvJzBhBACZIkKLlnt1pi155N3bgWgBccIWc4Wdh4Jvcm4GLVuwnA6Dq6EKDTTqDmQSul1sjlylsYSfpvnR7LrLLPPb6JnzEi0JKzROBIChhzyEQ1EEmjuwyxQ",
"PkBKr07JIhMn2cLy4WcWix1x2BKpUB93bBAmCAnZMnWdSvjJcWB0DnVXvnl0ffHGqqqqqw4wzgwqx1RyETf6oJnDgjGf2ilHbLJ2uUeo6w6Wnm4WAAnQ3NtEn2ljvr0E",
"KLFXSMwAMUA9wXKRWWBESmmK7uvWhpzHbIJlWWkmcnA68mnI2y7RrmkjUwxseNSKG7tHG2iyqes1KoE1GTxrmO0pPwkN2gDOb0Ng0Q0NkuvccJlInC6NzxEuRiirlQwF",
"rrwPNkyiClAA1kJvBzSym2mvJn0pTSDHbMnS1RvBcnU5UBJLowy62JtQKDfGHQLi0DgqSE1fHP1SgDQXDg1j2LDwvUQkmwgVbpTfxDKsLWcOJk6uLm1QGjLNrRGLrSLx",
"w1kv6CzWnWnlzAAdnd9hUjR7oQUwsnWYbcnkmlMAWd7klcnmJlNOW0CLFPu7u3yGGHGqS1fsQr3mrQv2segkv7pIwmkJVgeHa4MLyFflkOcIt1tw8ECiPKkQp6R7B6Iw",
"iPnCmW2nWcjLKAAA5U9CC1JUl4hDZWIFbB9g2J6I!7hgWWWOw2WABBd2mzrGyQSNLwzYosxltNR7lvl6w7lFJ1l2WVJu0pL3ceeSwGtvkWnrtsumg1j2LkLQwk9l564j",
"kLv2kvQWnABvBZ85TCdIAc6u0CSrIdz3bIlccB4W2WmJccWmlW6WA8KLkkSGwQiLigHqTqpe3GkQUJmQR00kljk22OkBklrHbzI7LtQ0W72GGKFPr1kLxj1S7exS9dM2",
"n2RW2JJnk6444l!5pgM682mBRwywsijHb4WccW4BjWkccc4BCZ4hwZCOvSqTsTvJkTqqsqSux2vll2f8yDmvn2grkV7kxxTHb8g0SswlyjwuG2v11LQQj5fj8hlAdhAv",
"JBJ1u4s1ywnhd8D7ktr64lClzw1UMVOYbJcWWAJJInOW4xDW8z44NSzxi6gurm2xfsstStm7kR2ijwoXrvlcJHmVmS6NS6iHb4p1ExLkvB0EyLMox1SuRssshZ4dZuBW",
"ZnIXl9KJljnDZhdmuk0!Cd5QzU70VkmPcJl2lWBLlWWt04MUpKiZheSwWfs1ml11uszvvInkvfJj1pewyuv2vKnvtstQQfqFbepLXlIu7eSEepUSywjGxSTxCSCBkk0E",
"LK4!0lt85!ZehIeh1gdZBgrlULXXKyJ3bjiI88Ds4MICByCl5oSqff87gfQUlvx6XsESxuXfSzKSfNKigKuuW7WFtEPqETQPcfgQSQp8eEeqiDBw8QeXfq1nJSitn6Ek",
"KnMkkKye99CC2UThG!vsfT6EmQGRNKvYbjDpxdjJAjMd5CzT98ssq!BmDXpDvsoxtqQ96is6oEe6zP3NCurPPtiSGLHsfE63b1xwRqt1yyquHtNvQQwqDQxm6l2mJSQl",
"llrjtGTNXwZDgp8shWjxQuk7KGy1tSkYcMBBjJnyUv4DXhzxe8qtsIWxSTSnsqGGffGSqGTxTQxlLwKxwwguro1xysqGQRQYbSx1EuutKe7u3trGwKtfG1QqyqstpsGL",
"vEQfGQTSDsBLpyoSwsKxKm7MfGmjX7sYb8Wzgvp8UM6Yed5spppslvC5UYkqffqYTGSff6sxgx7LGqf5TsQ3XffSqfsUsSjHcGHGrPTSqLGGEEwGKXfqxYGNgxK!TTqD",
"@@@@@@@@@Y@@Y@@@@@@@@Y@@Y@@@@@YFH@@YY@YY@@@@@@@Y@Y@@@@@@YY@q@Y@@@@YY@@@@@YYY@@@YY@@@@Y@@@Y@@@@@3H@@@@YHY@@@@@Y@@@@Y@@H@@@@@@@YH@",
"aaaabbaaabaabbbaaabaaaaaabbbaaabaaaabaaaaaabbbabbbaabbaabbaaabbcaaaabaabaaabbbaaabaaaaababbbbbbbbaaaaaaaaaabaaaaaabbabaaaaabaabc",
"cpKwSweuNpogGUg!xTSqQEoXpUlWwk2d2moqcyl6Lq95p9!p9yEsT!sfq!peIq5PcsxpQyqWltGUfVk3UFwfxeDXGEquSXUutUDXjQGkRd7WulPQqqssGU31tfRLooG3",
"cusr5Q2XQQtpqQfTsyxGwq7fTWikjx9Z8xx7E6Qrp1g9f4!uU1Q5Tffqv594Tt6HcpxeoqmKSYqqMPktE7Xit2js5fuSyLIwyDGs1fX06R9VwFNG1NYTsxh8SwmrvGsH",
"bylL4hLrr0tq1fsdvmvo8pJvWWK4fyBWcWJLJMzTs6oTfqlvQGTp95DS9UUUQGf3cqtLfcsTq5emePuLWnnnJ2Kefeowj1fTTDq2KLLiLEc7GSHUssfwt3JiocnrJLG3",
"bwhkM4M2JlpGUUIzrsw!22nyjLv6sLvBcIM1NQQek!5qfQkeQfEU8B9g4B4xxSxYbwtk72wSERzLt2Jkrtu0WroQfilBlfGgz2lcv7DSgW2vsGuuKqGX1mIjuWBonQx3",
"bLUrjnCo2fqpDWCzwznNI22yvvC9inK2I!SfsoNlBde7QOJiftQDe0zlMhSKjcvVcNmtLJUtJinWunOLRmFk235qxymkGfMukPQQR4iiwn9y0WN1qQKPxJIPJ2wsipfY",
"bfKlLIJmGEXe4ICRwMDS9nvJJAB!WR6CnhewqNr2!UznwLLUeEfp60i02nm2w0rYbHtlul3vrVcVcccNFE22rQqfpxj3w1LLNpttLKv7JyR12ErrQPGSL62kci0JlpjH",
"bNLJJngg1doiJ4MwZBnjMZBMIIIWIC4WZpjwiiUqSKvtkJKfGSQvkRLKm46sQ66HbN7Kv1KmVWOJWJkFG2Vll7KKsiiGtPsrltxyNsqwx0lPrx8HQHXKyLWWLmh1Gfi3",
"bNLmDBWBChWWiDnnmnWBEWWAUnn8!d8ZMdzECTzxM1W7KfGHqtPUutKFjgXw6mlYbtkjSLimcJvkkn7ltFFuLQsQtNDtkxmjiXqJxSRLygXtilvXH27rLWOLgXgGxtsF",
"bEJiDAeUp8ddgAWW7L49WnAnvkzd6vCWIZX6zjwz!8W7El6xvIpPkLKJJ6Dsr1d3cPVjrilnuvvcOmS0CunrBzqqfs0VuQKtH3xryWjXJJzmLWEqt3uDv2vmwJgl0lNF",
"b2v0UyCB!CRMyBIBh75WWB4gdr8dAmWWWi2jmlCCvwzPsNQRoDXkPluvlQwQKXi3bRvmDmAWmJIMKi1KJlGulYqwHxJLFuHN1jFtir2WWkWJWmfSw6uu2v2VGmxDSow3",
"bgtLwmJrED7WzAWjIdedZdZKQI4nvWAC4iMA75Q89lWNG1EqQENOFk2ltxp1EeUPbwMtKjkCzW7E0uiPPD31G1Gzl2OrumQl3NPifgJPkjMmkuXX3PkLNkO4rvjLJvQP",
"bjWlkkeT6nmkmJ2sUpSWlv7i4BcWBWnZsE6!5pM8WjwuXoxStDm20lP06HqDmwlHbMhzguvNWvd7kyk6tSsx3TNuWAyFVMLL7lFQGuFtOVrykXr2kJ1KkPkNw0zxEE!3",
"bzvjjtq6!DMl1sh5gnlW472r2JcCvzCv6B4CQy8Lkiwmi9Sxfwl70tXGqGqyL60Hb98wrkJLWmktPBNNS3SGtrNV6ToXy6XXSmNDQFVWcNkkOwGSvuPuk2WkEKJjpEQP",
"b2Jv6GEzQUl5zKwDk8MlWIWIZAnXlIWpU9E0SRg559WWSGxuXGkNrteseqGuFQK3bIDLWOJJOACvijmH3Ntu1N2ReXPoKXLrKRGxLncnmBmLKGyjB3lkk2mi1L2EqDKY",
"bJjlySGxUzkxEqwNBlcWCMnlAccc6B4B5hvBBh5yl6Kx11QuXCrPigDzlyttx0rYbiprWmlVJmBwEmyTfULr0kWLxHqp1tKwQXuLLVFuVJksGGulQk7kWWmknmI9QtJP",
"biExxzLx6peUUUBzK4JndnAnnIWvnm5pUieZ8p5wlm8hwyMjGNXwp16SrXjkrkkPclQ2OWVnvlQirkTgjXyKvWn5q67DN72iwiuPFl2VOyuP7PNrNvFccOu7z2fsPyNY",
"cwikimHqxQiijdSEX7hSzij4h6cnrRUSzr88d58EhuSBJi6y3L6vvi1QuGl2Jyt3bDXLBRv7Kx6SqsxLw6Uv2CQqsKpyjmlllnmOJ2LKVmmmkRmPKOOcciG2WiykknFP",
"bKtDymjNSwDEjA8i8d8Wm2dBDAWBgD0MIU!hzz86JvkcqKiUroKLtKjJkWWWuNFYb7BJjd2qfErSxiuJsvErKxq0pGQunPJllWckv2FuJmPtFknml2BWnPJrLmPrJrGY",
"c6mNuewx1iwDmBz9MAAWWS4JWWcz5RWIod0xDz5hdvZ9vJmDXCyGuu2llm2jvnWqbjzXWWIS9BupslsfQEjB6xDxQxSwQ0NlFnklxvPFVuXOXlljkKjJkVKLtgL1K1wH",
"b2wuuL7feQwrJzDIWMIICIBlWc88ChhCXQofulwAUA6hWI!X96tmmXMIWBJV2BnHb7msvIdfXLeQxwtwGN0nwSxQXS73UumtLNNgLkLJ7kkNpu2WnumVnKXGw6gEK6LP",
"bSRtwxQxqqfteDpezBkWciMWMBJASM2AqfrqqqEDzvccCAeBEgJRviVc2jVmoj0HbDqv8QsGQQRLupwmtnkrfQy6E8TGuKuLllFmyJVKWnX0LkOVJkuWJiOukLtGIis3",
"bJixyQqqex159pdCmJ4WW2WIcjCBuJJexwxqftygAn2zADkJZAjjmAvFX2L2r2eHcQrffpff6z2tfuF7Jkk7utgGytpi0LFPIWmIVmumkVeju2WmlLWVOJvNLGeiiXwF",
"bTDvJpp8TSA5EjAMJvWWMWBWJk42NsQG1psQw6NLk6RA9iz9QM0IWWMlJmJ2mhDHbE5pgu7LrtNX32PukLuNfQGTEMRvvv2ccP37vkPtKSevJtiMQnOJkKx1S67FNHfF",
"br6r4DdTTspouk2MvCcWzrgngCMhxkLfRTiEoL2yorjWh66i2WznBAhrmmL2USqFcpCI8hAso0FtmNmvBLIXQ1EEk4ZZWWWWVKujmL7iixz2GtLxkkVFlvtu8QJQxlXY",
"cIdR8dqYq0vxNurCCz4Z898CAAkyuftw5UwsriNylzMMSdDSMQ8MWUKWmzDz5yT3bjneKAWezmrPum2l06G6REwyBDJkAvcWkl3vlkx2vkttQuuFk2k23Km7SnktU0wH",
"bveRgqqqpwEKQPLjCKZ8dU98hhlvGEfqfqsXQKPKNkMIC9gvnzhZs8pXwgz8BMTPbCs9JjM2kmLN5JvvQNPvuQkAvlBjhmnk4KlzvBn8xG7RuPkFlFPQFtKTK7SetXKP",
"bqSgrqfTS8G1f7V7yn2hhXWrIMjvi2LxKLu3fKyKxoR4njABI!y5SM4AjACZ5T!PbU0BcBd7rrKmvIvwzGQ31rlirKt!pAWI7Nm9JA85w1EkivltL3ryRSTlXNKlKNy3",
"bfBNq0p59Uqwuru7jAxTUW8uKLOvLtGq0EGEf3tXQylJAkvhdiepyAvm7d9gxpTHbd8IzxTx6iGswNdfoQLjNK0vyKyqxUNL0y6h4xfpsXuM6rw1rQskWsXi0nFxxNE3",
"b4UDd5pEzpgXDwlw6fTELELrNKmouqxGGGqXxLtNqweQBe5exzqe5Mn470XEAhBHb5BnkpQXRKGJPkSeTijxHqSGfQYxpy0vk!8hLphA4swDM0RulQx22sxElXxpHQqF",
"brq1qffef!l1xQ28XTsjukLkivJtYpqHfqQHLNGNfTfQxqqqTQD9WvBMBSxdUh!YchWUqTN61qJGGPxp6yStqfxSfTYsD0MzdhhBvXCp1EMvjpz9pTBgwUewKGQsf1pH",
"Y@Y@Y@@@YY@Y@@@@@@@@Y@@@Y@@@YYY@@@@@@@Y@Y@@@@@Y@@@@@@@@@@@Y@@@@FYY@YYY@@YY@Y@@@@@Y@@@@@@YY@@@YY@@@@@@Y@@@@@@@Y@@@Y@@@@@@@@@@Y@@P",
"aaaaaabaaaaaaaaaabbaaaaaaaaaaabOabbaaababbbbaaaabbaaaaaaaaaabbbaaaaaaaaaaaaaabbbaaaaaabaabaaaaacaaaaaaaabaaaaabaabaaaabbaabaabbb",
"EqSGTff0qqEtwiynmqJmLDSGXGNGKX7HcurqxqqSpffq15hUdcWU2nZsC18Sg88wU5!5fxUmOilkpGSQqqgp3xuuXi8DUsZ3bA!Alrd5dXjzSfsAvQTfGNs9zdK8owT5",
"UGexUkrmxKNtzXynjLNrXfttXmLELnEHcqYGQflfsTxExJlBAWWcndRjgNg2WhZwpe85CecZJsITGXq7Q62txHNKXELpdJAFbA95G69CM1hespB9TxyjC1DlfHDCSexh",
"flfRyWJiQK2LkzmI7KNgzylXttkwmvxPcQ1Nkw6ffmqRnjySWBBBIIRZCuNxM!pr5MTTf8hcsO0kPGKHQPQKt7u3TSsvCikPb5!ClBzQq9qUUD91d62QlSXpfwL9U1e4",
"B0oIEz2XyLl0nlBIwJ09Un7kLF7LkGqPbSXCW!pp4f5Bny9MAWWuc8DR9dykjpjp5pf9CeWzmkkwqtxXRDXGNFKNw4mjiJrYbnv7f59!Z5h8wZ9CijmkviQyTMSZ61lA",
"hI9sjiL7EuQ5KLDLWMB4AIWrijWOlDE3bxzkwee89UiWA16Zc0vcB42vWCg0KKf109n5AAnZZrXQKoKJswNFWuQQqm2PU983bWUEsW2cWDi8WhUnoGIuisKLEmJvml7d",
"v9T5zv651xqimDvnW7BzWWvmojOI49wYb0AMj9DBTmgn8!dJmAcAAX7dZd5EwpqeiUfIBBBWdMZLm3lDER0Lky0smmE6TepHbfxezvywSsjlX8RwUF2RSywGlNuR21wy",
"d5znmDDDUee6tzdMRr!gXLmKLcc0SSdFbXkzDM9DD2hDR68WWWAndmUf5541v1oSpT1WhKlrgijRsQye1drvJo5ZnD7gTDk3bzsKUp564AyfESxvmLtljLui7Jnw1Krv",
"DUZvwGTf86CiJu1lJreL27Qlm2Rzod53bfz99srv6yR64iBcchW0WB555yUzSxyRNRLU0lreUDJ8fei1KvvngUdrprXqKwxPcp8fsf8CWJfSK7tuQtk1Kv6mBVu47Z0J",
"sTK!5o6I9!9jCZLJn1fukiXV2pAfIUdHbgBMA0IgDk05yvncWLBWwpfzzrI5xrqsf17KxxQLZkmesl1DxDAIACKKLkGttKfFbCh2AhCmWpTliLWhklFu2jk8k6GgydUx",
"GfS5eh6U!ZWBkILMQE4Jk7kkeU8lvg5qb4dC9dpXvSGv2VnWWBzep55dnclzNHqG6L0XfjmkUADTzozpSyWCcA6RAeQ1Xl7qb8XdphzB5U06mlt2WlPmv8qQwXJjjlI6",
"wrLACWh1D4MWcmvDp4cWkm1xUjnAEpT3b4d9U8QKHznZinVnjhiXUBnWZTDlQxfuJ6tUkkmE67pKSUZhhvI2J7y2Uss9Cw9Hb0jdgjh9hkXL2mNVlrS1CwKnmRJACLKT",
"vmMziCZS4vAcWrf0nccIB5dfSChBZ8iPcBme4hxNtS6M2kcMxKog6k2uU0eee6S7ixorrwz0KmDxI98w4dzJJB7KsdBICz1Pb9p6oU!CWzDJnkyjXQy1QDLkvvrBlLxU",
"hEe9j4Br42nIIDfNMjnzIdIwJiW85dZ3bUt!9eoLkrPuJrpSDpSQuiLKLBj1g7I2n1pM2lkKEGflh4InCWWWWEfqhMepSwDFb!M4AcJmmUWWrwyD!AmwtlksDWAJnCp8",
"6zdMnJgzkWhjBxeIMWC7cIdZ!Dw0Iyq3bs5EygZlluiN0sifGqqxXLiw3SsuWOvyJEvuj36xf712SMWn2An4dTpp9EgU5763b!8pWk9j7kcBMBpMMnyyrjS6vzckjC9w",
"wsQvmxKvBvDBWShzzewmuDSTvn0Z9q53b2nJWWJB2vpeQQuffXS6mNtDpf1PO3DvFGjHKtxXLlMk2JW5CMzM!fTw9EpBoDT3ancAMKnWcMIxhxd9CpiDryMrjWWnJvwg",
"sDRByGxvJ4RJ!8hAzy6Jv!DwxU5UdzDVbWeC8nwvDifgEPyfl6QiPq63fivkVEijSt7E3yqXgiuk2vXuoMZpTTxTd9p8CBw3bdzkMDzA8I8QuQfd5hQi7l0Lw0lk7t6x",
"KnrB6gkJlU55zZM46uWRLd7ofXpy0fs3bpxjkwi1CpyXXjGXGG3GHklpyPOJtQqH61sQwGGkwKPtfQGrSCCfqp4J650lc9sFbIrQ44g9U5oupw5D4WkKGHGfnVvmV3Qf",
"LILmXl2nT5hUm4WZmL6jZZ5SsEf9p5I3bTdUAKgpTElg7jUENwNGXGD6LmVutGQQGqGrKGyfNQL3qNrkXgUsTo15zdw5UU9HbsfSnd5e4Dzwu1GSJ4es1xfvkJJJmDwx",
"k0Kj8ZBfU7eB2i5EDfK7Zo8XsfDfheQ3bzCl48oUeLtrujQExfrXrjvJLtVrtzqXx33CUGfxNooNG2XfqQ9qfjB4zSe!5fE3bCJmvpphdsMu6EflC8s8z0LccnIJU0Q0",
"ELXD5d5h!ov7gBUQeRMhSdjexKUe6DyHbfnm08TTyCiKnoypSxiQDt22nmtPyNPu3xojGosNXux6qQuEUqpjvWBCMs7Zh8M3bJJkR2lz5AWLuKXtLd68g9nccnAZnB42",
"Tesq5dMD67tqUrDpt7v9p8!pTqqsTsLHbJDDgvy7ShCvBZQsK4yxtXmLf1KP3Sepptq6w4UxxtutNiwpsh9!mymdvLhCMIkHbNoD0Ntpd62u0GQ27yTp8CWkLiu!zSde",
"I!Ted5p!LgwXXXESoIdQdCp5pw4DwEuVcgkm15nLpjm2rUqq6wJkfvmExHlme3GGo1til5sSEr3yoGez9UC6uFlWccvAnICHbrwU0Q8xCnBzq1uniSd5ovJkk7QMd!8D",
"qqo!lXWmJgZn6KwxlXvplw1xD9g9QLyYbLm!UWCDwJL6EqpiC!1Bel4wGKn1QKzEqDjRdDE1lX1oE7955U7NFVrJO77XzwdHb4EykEpQliMTqX2Upw9yACnxwrqp5efe",
"5De440kAhIne!xtLshBC25Tfe8i!zKlPcGrD!Dde1wNfYXGS6wszGCnhlJysXyQGewEspxUlXsqXjp59ZiJcO3OWkmu12X83b62d4SxpmdspvLlC8jIvCWWJrpe95xe9",
"D2MWWSvLMUQ967XEQd9exsEoCdli6irPbix8IWlEPFkDqGGXkQy6EI6885tuiJirtmozztT1STKWd!dShZWjiuLXFrLf!d4qbrhvASpdA8Cizu4nIuQpD97KX2CD6Q9e",
"h9nB!iWepy8DdtEx6heeTehjiW7m4uS3btsCWLBJrtqqwu2uyGeUW9rNzkuOFVUKJ6UQDeSqq9nDp5I4CvuLLxKXq1i5U8WYbSnWdhs4ZU9MiZAWhWwvMmnMJpUe7gvZ",
"2jC8TADdj5U55DX7l5sf!dwUdRyGQGX3bNxnhKSSfSTQ1iS2wkvrQ9dKJNVFGTsluHft2ipsD6Zf5pdUzMXKkGv0JV7pgCWYbvdSeqvsC08llAWW6ffjUlfUfDhgdxeC",
"C65DUhdC5hd4Zdwy7sQpT8eChEwQpfpHbskrD6Q6xwwswvJUQmSjjkn0mvkLQfiN3qTguEqsXx5dCzzdURKkN2WnuiK7p8A3budpqh9hSDzWIh6UxxxNzkVW1QkDde8Z",
"Idh8ABzegTL8shdo1Tsedl21xZfqfo73bgfqppTTf5TqxzG5VEqDtwetFFqYfhSeEfeXwTSfsjdddoICwrrLJBlo1NQeylA3bEfsDUUfDv8BZhI96tXGyzs9EWDfS!B4",
"eCTDrUd8ST!svCCMlEGTeUzKgwEe1ttYbEqpEqTDi9qeCSe2xqEtqliJNtKlrfpE3wfwTrYGgpU9Zsdj6rrlJK6zvKyizWAYbffSRfmeR70n2ChBLiqfKGxqSy6jU9eI",
"@@@@@@@Y@@@Y@@@@@@@@@@@@@@@@@@@FH@@@@Y@@@@@@YY@@@@@@Y@@@Y@@@YYY@@@@@Y@@@@@@@@@@@@@Y@@@@Y@@@@@@@VY@Y@@Y@@@Y@@Y@@@@YYY@@@Y@@@@@YY@",
};
