/* XPM */
static char * image_xpm[] = {
"128 128 64 1",
"A c #91745a",
"B c #684833",
"C c #705039",
"D c #4f3a2a",
"E c #503825",
"F c #5a402c",
"G c #755740",
"H c #5c412e",
"I c #4f3d2d",
"J c #452d1f",
"K c #63412e",
"L c #3a2a1e",
"M c #563827",
"N c #7c583f",
"O c #83664c",
"P c #6d4d37",
"Q c #50382a",
"R c #664935",
"S c #755039",
"T c #443326",
"U c #523a2a",
"V c #634936",
"W c #5c3c29",
"X c #4b3829",
"Y c #5a3e2c",
"Z c #563c28",
"a c #5a4432",
"b c #775e48",
"c c #483425",
"d c #523c2c",
"e c #4f3525",
"f c #634631",
"g c #5f4633",
"h c #563f30",
"i c #473123",
"j c #664e3a",
"k c #815f45",
"l c #694c37",
"m c #4b3425",
"n c #5f4432",
"o c #5f442e",
"p c #664631",
"q c #563e2d",
"r c #5a4331",
"s c #563c2c",
"t c #6b5643",
"u c #6a4833",
"v c #4b3b2d",
"w c #624d3b",
"x c #634832",
"y c #574130",
"z c #523e2e",
"0 c #604936",
"1 c #5f3e2c",
"2 c #6f4933",
"3 c #563e2a",
"4 c #715640",
"5 c #6d513a",
"6 c #634430",
"7 c #5e412e",
"8 c #6a503b",
"9 c #5a4635",
"! c #5a4130",
"$ c #57402c",
"ABCDEFGHIJEBKLMNONPQRASTUVOBWFXKYZPabcdeXKFPfgONhiPjCkGljNmnJoTMpiqjrJMZstuivwGoiTvJHsxCyGjxZsMZzV0NuONMGDzwgJuuk1Lq234eWtr4qJXO",
"HnsLoPaypXf52DY6Nnh46Dci7gOOtN1Yms0kkfe6LOgjPAk8y19ZpDRdPBWOc46LNAKDLjECQ50mP38GeXb!h5PykNNbnkplmxzzBO86QaZI0JASkOemmryd$mVrlBse",
"HLc3mCRsX0HxK6rl$og2aie!ttz8wStqyCEwS0jWOX4nbTvNSU3Cj1Rrb47RCHnc2NLs!4NvKAiGG5DfjzyGUlYbkt2M9UcVXnQiG!zMc9zOABCzOJ7mdaMERDSxCRdX",
"HvPlKLPc!C6TRXErPhVzVEPstuTq!s4mxoeN0x4HZZFxBLl5!djXYnPNt2rfAoq7bZL!jqGlY4pe6T6f9yY4SgNBh6jHoRuLRNHy5bPJg4SeHnsRHebKkS1scZW6$sWr",
"OXqYyUs!PP!8r8sf8d!xHqL388DCOd$w0eiU14tR7XI4HpHiU5FdSCCXKzxY!kZPmNNB3GaEEgVXsg4cSvdTGE01lBXEt3hG0tN8pXSSsN4LHLixyJ89ZaJZrnpEPXss",
"Xw0UBC3Ehrh9vOxUw0!8afbvpQrzmng11JbVvQF33bkOrZL8XvawUzV3Y4wXz!P8p5Z!kuoFnO5PpJU6ken4do07HiewodSHkac10jQo$npWXvadPZJ8HXM6mW9YCpU0",
"e7yBK0sKlCgmxV5PCRka6nxv1nuiZeRng7aKDLJcyRAqmmIP1hh$ZS!D85wmCnksHYRfSAxCDFggBFcgNErnY3ilL8XsXwIOD2XplHSreb3qhq9klL1NwwONR7lGgY0P",
"y$syqN4pTI0n3VlCj7kv7xYUrhlWqUDpg!AcFG2e2wW0!DMDPUW4gloaB9ypmubIpeeeHAwkBb2OUinPiWHrvNBqzP1hQ$XbLA9b7Rn$u0$xNdvW!6KPWW2POomozRhC",
"wlSl9jaRnstVY1PDGCanlLxL8qCqhqfsp8JNNjn26thw11J3YiP5gwSC8ZoFFw3IgFYRASTUVOAOe6FM$eMkVGG9SObEnjXC3tJNYyjKa1U7t68J6bmse6eZZUCHo7Gj",
"9H1i9xsYOsVz8wXHBuPgiyZRCXoxNdmPHy5Mko7G3OVIB2macaSKCQRYSPo7cf7sVP6UDci7gbuWESrETvsGjfnlgU3OK9V!0NnwntgnlYqRloTqde1ksOEoJConxwCG",
"3Ep24Ugzsd4Tnp$cFrE1olnG7Iqjt6nrXeeeenfOl3XVkemm3i2u9ThajHOLGHp!mIy5Me!ttz03oycr5UD$3GPyuT0GJYgqGtS!K5XhxlP4vBniiYpMALQsJ4iwXP0y",
"ejELzurS50rKNhNxcaSNkn1hpvzPkyTaQUdi5G!zdrxs69hkZ8Pqbu38w5s0yOQMKxZLMZstuTCLDhGpaZ3WH4Y!cV4r8NYvhLwS!LZV$n66a1BJeMfWEyNMzE7RDHg7",
"G4bL!fQbW2l!lzfzmmgLMM!uWGsKV99ibRTYfuUPdHThNuONMGpkoOlG0F6r$Rhj84LxECQ50T3TUGrddPeXT9tRFqX989Bub89SGCWlnlXaXXXIFM5LfGeEqV6JHjYX",
"kEqitpOwUgU4N5BlY!pXZjajxJr8U6RXPm8QfaB2ZqMwzBO86Q6Y0$U0Odpa4Hlc71PeNvK4b9aG0aHn4q7UIYjOnumFzTyfClkGlg4Y1l3GKs9k6dTsRkRpzZxB2hsk",
"NUAkX9TTygEt35pqYUPWAeeRjdrlc8UdSKaseZLqByIhLG!zMcUc9vXD8O7SwPdCLq8dWnJbn6!ihHvIZa!YHnR!GLmExVtgbzM5dPooTnE2DQR4n10EhR5tOi5PPrKj",
"MDg!btyef7ncbXalyGbNz24y2LdCS9nKLJQWbO6mjIPgCujPJgbT4CpFnGoPCmYhgy5Q5MgfVcdP$nr0aS4msYYEs1jEbN5Zqcx5rbbkaIJlglyt86b!KX5M$eFRxiK5",
"y6sCoKhLGgSya7qoZ8HnhbAO3mjdYH7ATUQ8dqk3Pn1suEjONsN6Gw8gOkNo3dNU5yuc7aX4p1YX4ppKYdBUcF4nY2VKblZG84rKrwJvHoGa$qgGsZrWVOr8EHHBpXOc",
"m5PvwcvWUZmAjiT2mwQkZRMUncFdS6zO0bLXhDchnSxPEW0GBYiI5zt8PEDMwx6JyVG7!dNzQxPuBpxJP4XCkyGNq24ZrhzBfmrKGXLslnO8R8qRl6mFG!Eh7GnPHU5w",
"LTi4bU7LdScACgvzW7oO37pTP4owIV2wCsk6RdQY!P!xds9tlOmKbFE!OHFbKEDEAasJ0GDhL1UU9VYnnn63qAN0VktvKYF0Ury1HRw4CjxbRG5iqyKpDoYLY8CVdB64",
"Epo!GHk6SoMPH1Dl!Sl2oYEVG8y$X8mRZ24O7CkusPpnyNpoL5H$D5K7cQG3MMLenB!rPdNC2JX3HwePGEvCg60yldV9iDMk!x8aDoVaUubpxslwAUk4mVF3yB8CkFXG",
"Z6Z8qPYlHwFUndHgEwxjMDBqXjCgI8hwYWcTlJeE9prnCtkZhAnRyAkNQTC9b8PxeCeuhHXfuWSVPiRfypP28hC2sMmAKuDmCcztIBEQY0gGcVjwYdo7Px!snnR$pgBd",
"P2DpHcneovBH8OtqZTjcQU$umjAgFAVIB2L7WFIcu93tShcvdAkklgxkhueFY5GMP!sQyXjErM2irB7pcS7xsdnVfqc!WSGU7TpGc7HdWlVcBr!IPyHAdSGpRlIC6ptQ",
"w2ONfJumwOqd9OK4snX0zYeXGHlsxNXVkemm7YkX0OZ!ntDHwXtytV7t1dLu1i9!XkjRfiTG$nEM34CUdHVgBh8VYaMsSpAPPZzWrlORz5nVcMdh87Gku$m7y!U4CAvi",
"nmCsVJAPHIhahFHrOFIUeYu8nB6PQPxs69hkZs4$9lEdkW0AOtIb0bAR!XYYPmBmEUnMKYzYsVRmEIk1u$8PJLguga!zBt2WR2EzhRclGwu624qg7WYOgiObb8mchgbG",
"8klsHppOGdCn!yMyhuMe1RM5hLY8Y03hNuONMGDzwgs0GJ!kUHqhnjMnRUn0TiQcNKMgw2D!eHbC5bNOjQfKXJggzdYIl5HsifTeNRqn4EEWbAOkrCf8micvpGjY8PPZ",
"6nM3FxxAwNgVoaCfFpWRnSlUKXKqlhxwzBO86QaZI0M2r8qNE$YprDk1pCNr2LLWA0RXgckHqqGqkbnj7!USoJgfPwGnSqZVZo5618n7PMURRMUXPVHqKjLbfrxzjOqp",
"9kcUHOjpTUe3RXRGyMsl0yU7gIbdqSFlLG!zMc9zOA!S98aGa8Ol232MeyXTWXUAMGpkzTEl!rgXxxnqbKvUsJHr8a1MWLslOpFG8XXSZP4UOpTVVfDXOmLylrffTwOR",
"loCkDkhYi73S!v0I3mJRG86Jmrg$d1VbkujPJg4SeHnYFzTyXRAGRZsZDu6RQDG2NeHSHJRggqjB6cW1ZCSgD8aGNZ!IMmsXp3pocmNbMJkwCEVtGOOiUK25ZMfJXnGo",
"oR8LiZRd!ttez5bg3vLCRyCUPnL!yBCPZEjONsN4LHLmExVtg0ICf8I2eGO7Ckpay2XgS2tSklb9KQfyb5HNkRC9rNonJvmgjZ!Emdk9u94jfBqT5!fGfpJt!1EmROkN",
"Mb1uMa!Zstum00VFM7!hIFGyFoqDx824PW0GBYi2WXvgEbN5ZqwbgpCoPBTlJesOb3U2ASWslxqlB$OgP5zj5N5yDaRqPb0plproHHkGOhkajGumohysoiTvJHsxZPED",
"bKpYAIQ0Q50D!0vlRxGhObyyZlCNpMsIYs9tlOmSqhqnKblZG8DpPRJKbjYWFITdjGNANWQDLOGHSOrOy0eC$1lqZ!bqnOw6N3V4l4Fk2K8MkHLmHXD5ieXb!h5PwOHF",
"3M2Ln01s14b9!qku70fjp!1WrxJQvHLM8NpoL5H$xNd9ZrhzBfojYpURRKE7YkX00FpnS2nCs$sPGUM8byQz3aT94X2XIG5WgbVOlbmkGLi4o41jgKK0FozyGUlxkXQG",
"9b8xrJMZFbn6!XZBeeQn!SMYfw4LVsMjntkZhAnRjt68mKYF0UrNns5UOpYZs4$9$eHEkQLjZedr$kJaxhxa!AzAQhyYgftEXb5zl3O7CWoJoD2Vpzg0bTVY4SIb5bTC",
"FY5OLjECfFVcdPnVUHZQsYsk20$sCHcHbacvdAkklkyTqEDMkp!LOcgwCEVMGDzwgJuuk1LSm0iTwcsEVF0kDG5NRiU4pyM1fO8W!0bAlmEJVM64ZLXq5xuUTGmR$pBe",
"u1i9sDNvKw71YXnAGRBXP7unzd2048cYB2XHwXtytta9iipDmlhOmMZwfBq6QaZI0JASkOeE5!cyxXcilUPhjdl89oC0PkGqm1DOl4!lLb75!FLtvKQXNDdmLL6$3aDL",
"YPmBmEWnJfNxP20XgX94mnRyC$XFBIjBzl9AOtIb0bAwJeM4U7UwPP4ajGumc9zOABCzOJ7mqHKTtwI0g5vmGaBUnqZpCZ7VheoTWX94MXIWbWMx9iDMmBdKj2bh!AcY",
"0TiQcNKMgB26UUCf03blXUSTQUSn$C4UDan!xoxCGjMpG1M9PPBQJnk7kHLmg4SeHnsRHebKkSp24pwah7lmefxW3K2eYSN9h1r6tmFzSPCs7ep3AKuDPsSRPRpjTkCn",
"r2LLWA0RXlEMXHKhxoxnRUfwqZNg3cd7veX3ozo8RDk1KQ16ERmMJHGUB41jzN4LHLixyJ89ZaeLz1iXfyzMUVlOSZbmQQ6GPLMbC6ExNlNPVSSLGWSGU77MVRIdqOHC",
"TWXUAMGpkd0ML6DTn!sH6JvmPB3xjZSjjmpQJp6VI32Me0GDLJcsPw0HRD2V6i2WXvadPZJ8HXmL!!dnx8HQWaGE665yfytOmDYMPhEknZwmPkCYoPp6PPg8GYBDlBCp",
"DQDG2NeHSHKKdrIgoDlpZRb0pPuuNQ9WOI!U!HDKhssZDSxBZi1GN7g7bU24ZcSqhq9klL1Nwwk$0ZdTJz8pms8DPpc69T8dg$yNdpKlr!C7f2yAF3dYWR4GNUhsM9m0",
"eCkpay2XgS4l1lD17R3E1EOw6kAG7k3DioDIAPZ4O8I2ee7tDgRXGSYXFDOtvK$xNdvW!6KPWW2hcwx4n2bRB937gjhxmOGzL92AkNEFZEQMnXPJ8gPaci!4p642dbS0",
"ZJesOb3U2ACieptTZVZBmTG5WyGa1GYfYMDYkcqbnJCo24yPMZ2Uzb0go2qV9iDjt68J6bmse6eHhuimoCEgLPKXU5VUlnU$00S1N0P79NR8Le3mHMx3zb$wlOSF6O5u",
"lFITdjGNANWXg6DRV!1GKK0tEX0kzXgyq$!CxROG2cJKbAObeLz6stGng5DZAKulkyTqde1ksOEoe!K8ln7pc2ubCVUXUgnHJB8YOejDD6us4MYTsSd5X36NwVGz01DO",
"0dkX00FpnS2upeEXsZUHerAK1fNx7rnY3U6IRqmEbnURRMU3OZ4DdxV3K7xbbWStta9iiYpMALQsJ0!MCVVPWoqbuaPUls4nnbtsNEwTzhqfrlnbXjHE!L1audmnBeoT",
"C94$9$eHEkQJY235XMj41TTOfm1XnH3dWYk8k8beGGCUOpT0GJMqgUUcl!5x1Dz8bAwJeMfWEyNMzhsY07FsjpkoOTV3HywzGw47iWnHvv!1QorunSHF7o5lRFOQo1r6",
"IG!zwgJuuk1Lqurz1nkD2Vi8rheozHRXsfnX5fVrBVBwCEV4r8NQyZEKPjcYP$yzg1pG1M7iNGeEMh1miIG826Y0$u8yH0sUfIbB$eM5tTuHSC1ncdWVXX7xrFYEkiMn",
"eenZI0JASkOemmoMEcYU24EgOh1rHGXToXySrDXPEuCjfBqX989nMEno390RXEpN9YZKQ16iPbBeiK7KOXPn6Ec9vh9yYKVEynnngvsGMjlZs$bqQTNSlip5I0fMxuYW",
"SlDzOABCzOJ7mda1sy0yOtvBBKLMV9iRmrTUhqSUNm74jGumFzTy1sS9YRdl2eiUg1le0GDLeaLfAajcTm2triT4CMafD284IU4lGdDPlT1yZdLpuaDrz4tc!J!bI7yN",
"kP1SeHnsRHebKkSHKUnSHV9R52DY2UJSp7YJSIVLBdFRkHLmExVtFZ0U$btHUIbVvqPgkxBZJwcZPPd7U83v7anktEKJye19i8GGP4bP6QimDHEUMXzZ$GcM7oI1xP2A",
"NdY8LHLixyJ89ZaJZ0ngxZAxxK6yNdJlYT!09U6rXC5P541jEbN5Z6iVf5Kl3HaKD3eFY7tDihdB0jCIObGOH9MJqi1olGRDVHOOPSSuqa3m!mB7m5e3KcimP!GsNqP1",
"unG!MXvadPZJ8HXM6sUPzbbZluu2AksqFEslzRn1kBjoxI2VKblZGNRyVGqfVQAcFaLu1XPM3Ok4sxq4OfaNhzG1lPNkr4P$Kgggp1sD$13ECVyhK4bdEEXMt7yMLrEc",
"MhQsWhq9klL1NwwONRFUB3nbYAcS1kvMYIEHyu6VYRxZh9u4ZrhzBKOCsHvSidJNNzYYPmteLjA8Wy0058GGzdg3JgLW80TXiUlbaItSG5dQD$LCMm9BWg8mBrTnScQW",
"mgUYWGdvW!6KPWW2POSUgejEiAR4YOef7UAYtholglgvd4ktvKYF0vZKrHYEM35M6pl0TMlOZcnB3bwPEPTYWKgJ6pXltFpzsxYqOqoUKlerT9zNJvmSpOjHNdegPQgT",
"ih0UpJu8J6bmse6eZZQ2$YHSZX9tsNErAitVxtAQ9haHwcDV9iDMkdJ8bYMlmEeercOr29yMJM6yngH!fhRHZkOaDleV5j$xW25XGnCq$TmYc52URb0pP5uVOBEg!Ei!",
"Ov6zHLOTqde1ksOEoJnJdWIVzBqt7iWHhlt3jjGFd3!AOt5ZAKuDmjJDleEd234ieXQTWVu8fNeYnr9OukGRzzGzXmWBilgMTEDbGNo$CmKCUMT0mOw6N3wruAmh5TUF",
"swQn0L43iiYpMALQsJJegRFh6gVXT$eMk5tuiGt7ZgXjp$vt4WSGU7zCK7olmry3PJPRQPgE49n5GenUUBFmQV58OMuhlmesE4qXDDMb!rsmvcSIlk5WgbIg5TxgG!!y",
"wgAUiaInmeMfWEyNMzugD5Vvx46V9TvsGLehsSHsDU7gjWmcUkpAPPuX5m95daMEf!sxCo6InTyFVsgM20FOq7qG8oV7WhOV4c7F3FbKpQD8SCVRfztEXbGIl1$Pr7k7",
"rAbPUMaOazp7iNGeEMQHqjPtTZsn95UD$eitNp4fyi!BgK615N5KW4tTfi!8kS1szjQZJD5xgVtgbOjd2Xg7TFtgu5rniNa0BQEC!G3M2LISjxiwRm21fO8W1RNqNUs3",
"AUAACrVpgeC6iPbBeiuPgCe6bVcsGpZ3WGdg90DopwzgjkpgMQsx4AHZYaFaZaJZ$un!FheHxi5ZqCsQYQTD0yURt3Go85ZOtV9EzC9b8xr$sZoCtb8fm1DOlhM7cE$a",
"A4JAh!V!SMBdLeaLfA$78ROT76nJtIpesOtwIT7gLKVbBoU4eJpPVnGUyKoI6XM6m!p9rTR4MTUG8UMBaR0S4z019zGlS7O9H9831eFY5OLjrzxlgA68heoTMDzLYp6O",
"GEOlX!mhYsoTZJwcZPqak772tOyL6DgFPfgONheOCByGCkkGHDGZxzXeMKNiFwONR4zlAGfw5nzBfg8phVfjN8RQi2DqjfW425V3dLu1i9sDNz8i9bR5r1r6LXa7Wf8E",
"Vnb8pDKxMug$UihdB0E!XDWbTyhvXeVPwPAk8yf9NPTbk0o6OmR0PaL7QxGQKW2POCS!6gMJiZq0U4ieX74$lhrrR7IxyBefyMXBKYYPmBmEW1kbnOywoLMncZgpV6NV",
"wt9taNl4Ll!lT3Ok4srp7ngLG2kgN1EIdbTvNSUZ4qFnYlH!6msM!3BsEVSCB6eZZJ9QeiYlzleknrFozRaxFwLDqPEkyX68G1xdhn0TiQcNKfFKKHbn8DYWetm7yGfR",
"CFnALsw1PmKJsrjA8Wll80tJnp98z7ZxYsLl5!dwOmO2npVp!l0sRWcSKdz3jtEoJcriXlgkUlqmjybTVgiCm5o0nPQlTol0dJldSCr2LLWA0RX9yZ9d0dyNNck2p!7y",
"kWqNOsqU80VIPUcnBsGQ$gEia75AmeewL!lHiU5HXx9BbwF1xgE0ThCNHjnrxiQsJxAvU69jpyI17z5xub6rlDn1AJ$Yqn8gg!HwIOTWXUAMGpkIm2SbL02Akzlp894h",
"SEI41cKHq2mJO2VdVP2zM1WKVDMiwpLqPmKL8Xvapu5xiBGGpgp$VOXn0FPoSTNMz3dtlEEwqfWxPzNDdMwu8BHPnbXd2DyUm3syXbRQDG2NeHS7E2NYtz71kvMmNty3",
"dWv3ZKEB1VzLsnIlG$yV9fWzwqJZT0LH80VIP1hzx7ZTru8OOtYXRZbFYQVC!U2EMVs!oea0AGUgDBQBdK0!ds2m0NPjRzgAhUsD!xCCkpay2XgS4iPsiQPYOefscvla",
"xesZCT4A3ye5bYPby3Uh0ocyoLPllAP6lpuGxloiQq$NRrnz8GU09jEb9FohScPeipU9DpDEX4zyDMKsSRP0NsEMqAuaAGogsg1szkBJesOb3U2AxOT8OCfzNErA7R9j",
"fXlTbpd4SCGspaJloJsyseEiw00GYDV$OANNrj0OBoRGblpTCLZgH5OEtG4X8hPRAYmlUzK6AQPpDehQoyqOOKlmENab5CKHRzJZzZsFITdjGNANWeINATwNiWHheGyf",
"1xPOABdhCNqrIMJRyPQeCj0GXbE5jb2ACHNCtj0UWodsE4HT3TEPP3ZGyCRoDsxfRzKdydartevpJLWbeQO5k1!23rywyySpgXM6mM!7kX00FpnS27RmilYyoeMkkWez",
"gHpvvNHyXsbN6RHYYRn39GLwX5cnlk26fb9vrO$u8qraql!zaGtKlryVxZzNql3s!zz94Jl!9tl1HsyanCHanRomrHggn5OhSo!NR58N4$9$eHEkQJeLJQEPmI!GLEgG",
"lYwz9WZZyV6tJnp8E1CKA$w05vjJn3XxbPlnE6w6zWllkT0$!iFHkHPA$1axRRFn1laH29XECtAbp4HruqkFcxNdamcV$NXW$r8QOdRNDzwgJuuk1Lq7Q9LiYkAq!5U9",
"0djjnzzgMc3r1mIt$1C!Fh11kedObdAUGbODoBvZ8$FgmtzcgP$tKUSaPNpQIV684CYS0ooRCa!hK4MfVYYFbjykSr!8raqYlAu7ZXsl9ZI0JASkOemml0JL5hbg71E8",
"YuO1QGBkG8$jfsXyJUoyZNngCvSa$3G6EbXiw2R77gzssiQ!1XEtx6plujsS9sJNgcItZlxu$sxC1IvR6rUSlUTZai7gyzWE0jUlJ8bzBzOABCzOJ7mdas!Mw2!N18yk",
"GdRGmbInCvZvpr4GLl8kUsPN4CGlOZAgikbGnmtKemoPyOCfC2eirzV7yRpmZP9wnxJzNB8abK5DULpbnbcQvyPHXMu$fio78I9DFDlePSeHnsRHebKkSW$Hc9LOGHgG",
"mXp!zfIgFdgX0GDYp2YPyhzh$lgUljOID1PZ8kBjBY44xATwCUIbV5GjVCXaKygmnZnVcRfhDJ!754LgBF66OO4wwONBiy8UenPyICKXG4LHLixyJ89ZaJgBzCs$s6x$",
"ObtVHZgVPypLzPKZHs6YM3Nf5fI8k$5kdGRp6nM3bU$lhilYy3HaKEjlDcyxPnZHmZqx1y4VoJ3hGmifCxVUsznmW2POaf0!LnB05HjYW2WXvadPZJ8HXM4yjIZedfZW",
"cvH!GYamIQmPGSbMtCLnpqpnzQCP4rw4RNyAbkcUh7kKpJQEPiQAcFXkdpl5Xzd93EzKEvT6PapdzuRa!tlZFnEJ6eZZTCdp!TPyg7KUdSqhq9klL1NwwONuvRm0iTMi",
"LbaZTJmpxxnUnQ5iBs1fxEuyhL1Z6rClYd1FAGn2Rf5x1!9LiddJNNosxlfCebX6FY6Oy7ryz84p!fQZ4d9E5lzhOEoJ8tUeVQUwwqNQ1$xNdvW!6KPWW2P8c05!cyhQ",
"LyBiYphq9LMsGlc5NdT9gaG8N2JXU8G5qtX!2JOnXXhCxl0JL535Mk7Kj$fJXLf7qdI0p8F8annHapOwrHJdhQ5kJQsJDle3DPxOwYpcJ6jt68J6bmse6eZdAsjHKTtz",
"25Z0zrfYAvPHRDXiOBjqWbz!ySWSVCzqgLtD!1bxOSXRnGs!MwoeeEg9llEmoJga968$XoJltalpX9TTyHZgT81x4BMzCK7UZsLCUdpTnmqkyTqde1ksOEoPIacZp24m",
"Jt!sQqfzlAkyOHBkuAE5yvU!3EM2iRH$bEn!ThWW1TWanxK$Hc9fiRUXulsxsJHlbfTsXkBI8ggG6OyefDmUcenkGEZ5uGVEg!XL14sMhZ!nc9iiYpMALQs2W1W0ELzu",
"cvJHAy8fhpNoXQG35TlCLThd4VnEM3qjL0djNp2WSBLgO0WgBzC7mHlltm5PD8z10V9iI7OUlRG4ZWhLG$PGBN2VNen4unFPBNZHdOFWWiFzLLJeMfWPdNMmOlRObL!f",
"O4!hNOCDM!YFbTC9G1t9XJg5bbJlmEMQtzJAjGFtodLBBKEOyjI4lgdeCWlxkR7oci0J1XdSIbGmETvWUUABNnTOKe0CCHHPaqJBse2JvmnmmWCEH7pY5semTMpiqitp",
"TjGUlkY6c8Ku6BeFYnN4oJg!zoLq234eiQ!nGCaNF88f52d5uvR8lCalmdzb5VG!ipWv3LmGmPeg5t7LdSVyPOrt88LKlZsgcHYZvTaRb0pETnEmY6y1GksG6LNAWkX9",
"ye4SIRtT4jI8UdLu1DtPWJHPLFJmmryyOCfllAXOtf!lxKP3wc0lCCLEsGiR$13FlRWzHgTL6$ETbAy6SoyV!bdbxqoJNF5pUe!nHnSrOw6lIdGCnDLQU7AJnc2NHkbt",
"hLGGmD7Sw7TSKXYYPshPdYRSo5AmdaM5ATwCAtzT0X68puubIAs8nJXJ4xU$3aTtjl9zy3y2bhsjdtPPHwbSzVb5gGdnu8j9o$!HK$KUG5WgRVVaC5ZJw1EcWebLk5uK",
"vWUL6$n1ELKLJQn0TjDfGvsvqeKokS1EilYynj!8ZwAkmAc4GIaclmoJg7H0!AccHrlVP6uP5gXIgO4QovD7bklZ65zL1D5yz4QkDzMiFtEXgl$$tKpMqgX1NNckEStc",
"7LdSbhqFXIATUQNr2HNDn5RW48syZaJmJQEPm8HbG9wdLARC8W1W!xsJHrlZTkCetqNuD46Axa5RC$ZswAX7FPo5D8atw3$atMIjaZZpmu1fqH!Plcyb!lq9bkzlxqUQ",
"k6SoH55ybkO0bLXThmdHFNMryoraHXMUQ9LiYkAcHAkObv9$DOlRGPD8aAUn7A9k0kYpVxbzNCwrEUk4X9tXafnlZhXUfzhURE5n9zYQqT1CN43ivYzGnlQtUkvMmUlC",
"QlHwtQ!ZRAwCsk6R!q8$YUZzMEfKwwO6R0JL5hbg5gw3DAqtoTMpxxkRAA86i3PnOmOSYnaH9vrHHFJMaV9mv3TzqupnzByvVHGB4kKfxwsNGBz6pMWaXulFeOefsyxJ",
"Leovb2aSwWRZ24O7GGq2YMn6KszgzW2fks!Mw2!N1PieVfVXz6LC3b5OUGDJRBttdyAkLD6Y$nEo0!qdE9zchUveq9UCXzqg4gdSN45xp1MJ69G6gpWKHv2MuNErAlw4",
"emwAXwBothwYWcTuYOTurd7JcZzCz6egsK$Hc9LOGi0D6oKV9nc3ER$1fSuZ!y5j5IFAtF96zUoBzy4NBuWXggyIqyrFMcP8kHUFF27waW1Obzo39zxh7Eno7iWHhe9$",
"xVX9tXHwOVIB2L7Wp7qGFLlYLPm9eNEHKWgBzCs$sgmnv9Pn953Du$3aTz38Yg3otX!2ZM0HHdw2Dk5BMgT8suRFtfOfDun0uhHqTSqh3EOjLFLTuBJTXEFaG$eMkkq2",
"ePaV9movtXVkemm7oTiTscCYMw2FMQIZS7OyjIZedrHbeOlOGpZ3jh!AcchRPqF8LtD!70XPJnIUVaPV1b3RPE1srGgPXDAS8tS07$xNdVlAL4hBzKugY03p6TvsGLsr",
"O039zcwAXxs69hkZm30d3eWxHc9LuUPHpS5uvRm0iTwIv4EntIpesyUkCetZBdf0En!T!nEHy3GNXsCtD8Dildlt0jhzill80n906Rjt68LbTi6KiQqFuDJVd5UD$ewB",
"LcvuWXX9tXhNuONMzQWjNCvoBzCsYey!T53wc05!cyxLplmF1IgFP$p2Vk0kgjRW0djNYUAYth9YJX26PJ8uLRlOpqwi82rf4x9T7T7kyTxU3Me5Xy8ImTTxGpZ3WGd9",
"ciP9T8qV9mwzBO86amsKAkVtyjIZmQs!o8tIAsjHKTt4Le!GgZVPw4gAhy4t3HV$qJAjGitVxbFsqhslm1NgG06CEV4hxY61GPooekGN09imcPB5gUoxiwVoXmpesOtw",
"Nhi83RB9zchLG!zMkPP41k!5uvRm0mC50OmSIacZp24micVSDnmIQY6uXnjGn3OYN!nGCCt30FvXrKcCZKPWHkx6BqX98gmGrM4Mnw4UHBJM4OAzYe37WYIPaigFPfgO",
"8y1V3iluWXgCujPJTYQbYOy3wc05!cyobx8pW1W0ELzuRaY6DKuxYsQPGgNxMECHsRllAetuLiITVnEUSN7ejDNtGumFzyGglsHUYqbNYCdfAed9E1RB1vhKj$VPwPAk",
"NSU3BuLjT8suEjONBGkhsNxbIAsjHKTtq3TXOlRObL!fQZ4T4j04L!luCCgdgaflSNCAtzmhLatD9X6EQ6esOEokHLmEx7SlxuBBvTbPmVMCCp6XrqSKKMoaxamIdbTv",
"5!djdhG83RPEW0GBYPnuliWtGIacZp24PvEtTMpiqitpOwrSw7w1PmK89Co4xEWygpynj!8tN8GbRZtxyt7DLQZB41jEbQDUatlCwOAuFaQw686JQsT3CrcMQXKxYsLl",
"iU5FdSHk3ilds9tlOGAD!$eZ8W1W0ELzPa5e6LNAWkX9TTy1ELKL80GUG4ACjq6ubGCm8Hbz90c0ya8xT8qFFm$ND2VKbVgKa4b9yvvXEfso5QhZfpMmbOae0pM4L!lH",
"8XvawIODuuLRNpoL5H0LtTvsDOlRObL!fQ3znc2NHkbtyefFXIATs25tIqMGpgNzsIqnkAco9T75j1UXLwzr8$npU24ZrhRk0Y64gX9TEqZYrC8FHZs0!$aH4!G8PmKL",
"P1hh$XbLAhG0tkZhAnRVH5UDpTMpiqitpOwYWebLk5uKhLGybkO0bQVuU2lLyBh!UxVbhbg!ooekRAWmTX$rBhHbYOtvKYFCYzzSV115hnQBfpsGxK!N8NtPILYz80VI",
"XkPGuEX3txHkacvdAkkVQpZ3W7LNAWkX9TTsPNckEStcvWUZRAwCsssnDOtdv7kx!9QPK!Nh4MnwOWpaXVVJPuYw3qV9iDMNqqGYgNYx6lxazGOcWClCXFZ02M8P6GeC",
"jrjFK3uy8!OD2XHwXtyttmpesFc2NHkbtyef8kzlxqUQ7LdSwWRZ2HLz2qV9HQnX15JLZLOGbUYqbSnAcDTyRll2eDZAKuDEGPYvPOlB6qxjVBzZ3KRCGM2gdO8JAsYp",
"GX0KC8ozfXbLA9AOtIb0bA7FPfebLk5uKhLGckvMmUlCk6SothwYWPKsPDZACqRmU8$KBs$7EbvTbajNSMatyEG4ygbbWSGU4$PSK4L5FXQRpqR!XRwdsg$67vKxwNES",
"mcihsGPBWpC3tJG05kCGjMpPwPNckEStcvWUMOefsyxJQlHwOVIB2sccTBbbYck8jeZ27Ps3OEwOAAOWPUYEO!T9naOBWpAPGwHRVqf6qCGRZnZrt8p5pQMS39eJbTX4",
"Yg0LDbzD8GG0NnwCAY8RDk1IdbzzlxqUQ7LdSNErAlw4LeovtXVkemz8fNm7eH!xqBpd6XH6ZGyvvVxpg7AWSQDdigOOtI2Wx5JD8OR9k5RAyG2TEbnZNBPfbhLmxwKC",
"DPvunG6iURCGtS!FosVI32MrYsmvMmUlCk6SoiWHhe9$emwAXxs69hhAsesRq66w0gN1SchyrVxX92Onp0WU5MB8m1z8GmE!iVzFnGoloCGeIljY1n!U2gU99XX!mI3D",
"Hu6QCYwy8Y7zLwS!8jKhssZDL!yefsyxJQlHw$eMkkq2xVX9tXhNuOabhenq38fgnPBe4TpqlA$11EYmq!m1JOfQX6TCLdAG9TzxOkNoR8LSwUwc2DCnAl$d8Rxi9cG0",
"nAb4REV2imB!w9SGsBGO8I2ePm83rAlw4Leo0XvsGLsrePaV9mwzBOVIniSThmjyrbbkKvzWRaPNhXXBksGSpbXy9$Q3TcnAjWn6PEDMb1uMo8!5EMixhmQ4Ws42ht8D",
"W03Gfn1VEIvDCkGljNmnJCo2V0NgHhe9$emhzMUD$ewBO039zchLG!zqlZCheRDNrwJvCxl!ShujZemp6KkU6TiP4MmaGtsab4kyOHFbKpYAXE5$Q2RSLMgROCnNbx$B",
"BsqCXfdoWXITrM5dPBWOcJKbAOVcMkkq2xVVh1m3WGd9LcvuWXgCujPKntZBIgc8tXLDJmVEwx!kmCEz5YquPhRm19W!iFlk8PNoXQG3M2Ln0Wd5HojzLLfVhPaEYqgD",
"8h6y5PKuqhq9k55rbbkmMURRMUdnsGLsrePIKLMesOtwciP9T8suEjOyn1hpGaT2sRw2JHVZTjXN1kWbjViJDiAsTD4dP$ywImYFbTC9b8xrJQbPR5SQsmhVX6fW1i9v",
"lS25Cq8HxNdvWy2rwJvPP4UOpT08D$ewBO032DYWPfgONhi83RPEW0Gkx7Exdty0Xobchw03nXiJpLkYWXEJnEd8lHyYXEpN0uKu6BeFY5OLjECYnUMGBOv6Vs6IPm4r",
"zGm43OxBjt68J6GtXLDJnkwCEV4ryWGd9LcXK6yN0PAk8y1V3ilds9tnSQ8V58d43BIhxpg67UC1ZcPee3bL65LbrSNu2eiUCKI8UdLu1i9sDNvKZeSuXswQnn5QTmkI",
"VH1G9u7dtkyTqderRw2JHbjfBqX9!sOtwciPsu2AbbTvNSU3BuLRNpoinbOnbzltO2R7ZkYXCX5up3zUjoxp22lz6H!!UIbVv2TSKXYYPmBmEWnJt0H6SwgAUkZY2LJn",
"VSP9HQh5lfj9iiYEobchw0ajGumFqPfgONhiAcS1kqLl5!djdhG0tkZmokwkNm605mtKeeskk9LNXBCPx!sHsl15EKER3HaKD$KLJQn0TiQcNKMgfV6Gm!AbP4TmWXUn",
"kunkkqtKgHR8JeMoBIhxpg7kHLmEPwPAk8yZAR4YOelHiU5FdSHkacvGSRYtRwVwjkBjBfKjN9TOoROdSGpRCLlt$1jq6QAcFjATUQNr2LLWA0RX4pRnmd7AACzVQDGY",
"!glAo7Xokw4YB1Mw2R7ZkYXB41jE0dbTvNSFH9tsNEKL8XvawIOD2XHw6BLIbyjI27M3bUK5MDk4yjku$m7y!1fXJU8WUdJNNBk0bLXTWXUAMGpkzQBNkX5JAh!VCkpa",
"b3MouozemlmEaQ1ymtKeeskkD2VKwYsLl5!dAqt7iWYIP1hh$XbLA9AOtnPN9uvRm0cUh7k3i2q$ySOgiObb8T9bLlJqe35MkmVCsk6RQDG2NeHSHL1VRn4OlX!mJesO",
"jGSkQ74nU7!g2$GVkBjBfKjNU24ZsL!lHiURYlXT$eMxd$VLRqC3tJG05k5jxwc05!CkRfSAxCDwimMmicvpGjqxp2zjfEeenHYZ24O7Ckpay2XgS2JXDi!b8pDKFITd",
"0FKkJn!EPG0SmRxB7M3bUK5MDOtvKPmKL8XXOfV9TvsGL!g9SWV0NnwCAY83iIAsjH8LieHAwkBldhQKjLbfrxGsHs6h134isBuYWcTlJesOb3U2ASWSVIewtaNlokX0",
"$eHkeKEyUG0fEE7tDcUh7k3i2qV9iD0VIP1hCXn95UD$etpj4XOVtS!FosVIlGIacZpuMRASTU0GSgzOmLylrflpRCLSKry3PleB2L7WFITdjGNANWM2iUmsALsw14$9",
"gJumnEo0zHVrhexPM7kRfSAxCDZAKu!ufYVkWjRSpZ3WGd9TcvZ8LwS!8jKh68W1W0EYAUDci7Do7rmUK25ZMfLny!1fHUMEfKCkemm7YkX00FpnS2nEM3caVksqU8zw",
"0JAu9I4XzS6Oh1rGeLiieHAwkBbbWSHnm0rAwgVlTpesOtwciPllw9SGsBGO8DOlRObLn0Me!tt6UKBfpJt!1Em6b8TaTI1sz6169hkZs4$9$eHEkQJlmE7O5xH9XpZI"
};
