/* XPM */
static char * image_xpm[] = {
"128 128 64 1",
"A c #4a453e",
"B c #746c63",
"C c #6e665d",
"D c #726a61",
"E c #5b554d",
"F c #9d9286",
"G c #686058",
"H c #514c44",
"I c #554f48",
"J c #4d4841",
"K c #555048",
"L c #544f47",
"M c #7c7369",
"N c #504b43",
"O c #4e4942",
"P c #504a43",
"Q c #524c45",
"R c #696259",
"S c #524d45",
"T c #5e584f",
"U c #81786e",
"V c #5c564e",
"W c #665f56",
"X c #575149",
"Y c #5d574f",
"Z c #49433d",
"a c #45403a",
"b c #544e47",
"c c #575249",
"d c #645d54",
"e c #565048",
"f c #5f5950",
"g c #6b645b",
"h c #625c53",
"i c #58524a",
"j c #615b52",
"k c #4c4740",
"l c #59544b",
"m c #605a51",
"n c #565049",
"o c #534e46",
"p c #59534b",
"q c #565148",
"r c #655e55",
"s c #58534a",
"t c #776f65",
"u c #4f4a42",
"v c #5a544c",
"w c #898075",
"x c #47423c",
"y c #6c655c",
"z c #625b53",
"0 c #5a544b",
"1 c #70685f",
"2 c #5a554c",
"3 c #5b564d",
"4 c #4f4942",
"5 c #4b463f",
"6 c #585249",
"7 c #4b453f",
"8 c #5f5a50",
"9 c #565047",
"! c #5d584e",
"$ c #544d46",
"ABCDEFGHIJKLMLNOPQMRSTUVWXPYZWabcTdeMbZPfGcghijkigGFUDflWWmTCOPZGngKmgXohUOpSEJqTfernOJZdYsjPtFGnDutRdHpRGDhVvHqOHGMCgRGmTPXkddw",
"xWGrVyffbFuXDccAKFLXvmzCkbeOLSRZWWi0KPk1RwKZ2vTEQPWrRzYdYTL3AJezMDvOCqasDg0dV4IeQEpbO5IT03EDZdoI4GFRQKOGFCQobAhVibUPiGTzz4ka4EMB",
"AURfVEddwQudimeRqJOOeU5ALJeeqECP5WepoodUV36b0oIRZe3jZQAeGVkoiSWyCBMIOQjpdYDhIldhmGTVxuiVh6TQPheLVRWZZogGRYqYdefWFrPJHvv4jXbJOV5Z",
"ydByGRpYNkDtOH5nWuQUYLOeNiERqtbZ2RTJhbMiESDVvKLqYevixQcoCLyrRyR5YWPoONXEoT1tBZp4TktiVhKtGeMmlGgqjyIxADN1PPm6K6XBwzx5PvWoJHPiedMX",
"hymYvCVTHSNoHdTDvdWdMwVZTX7ELiQdTK5e2hpfaudOLf6tL3GJVeQNiFREHCm5ZaQ4EoSCLvfkIpSW38poyopMlg6dnRUMGtUbttHwNXQSXSoRGQxE0ObkNYNbIRMg",
"zvppiIiVbxuiQEHdFMLlyQkp9pubsmdkkRiUbjkWdBNVmWmqbvEcWmmemXjoVWrVb!HuOrVVJxJovNq05YL9MkCa3XTEcyedbjKOPrOTzFueNeqYOxZiUKOSnOBI!MQY",
"VfnIp$Jkb5NEj1CKYOYmgMTCgr6!khVvNdbZuoDAVZiU1wwm0BedwdZdjb55VfViLTqgh5RkWSkTuTmG0vQWWCdDVVPAVwHgolTQVy0nwA5zxdMZ4He0tFlwmcXOr1Di",
"pvVS4uJAOuAjjbR!zW6KWWiCrmoDpcERrVvDJOAJvBOB2shC0Fyo3iieWcoivm0ETRbOL9T0oYHmQgb1XAprHd3fwqTGfOxiTDqfQkS55RKKimGRxWZvZJOimd3dtwRO",
"EQOxOyOPOoiSKXWcyE00igrEVOhMRLLcDTPNVgQJH15xNOTLMTEnWDUyFXyHtXxuvPNgROHeJNMFxgkVUdAgt1DhXdwPhVKfUAb5jhISo2bQKorQCQ0UdDtkqVGVWDJx",
"RIPAvPVYA6YTgcPGtBRfGWdYkLVcQYyXDiNmjRWSnTiOtLKEwtBxrY8CpSMbMYHQAGVfM5nGo$xOhVZ51woBpwEyUFjPEOJICSlrCCUiJJ0pUHqAG1CR4ogWdTvNxJak",
"mdx5rFkQGfvYEGg5XobNWiGsc3SgkimNXRNImidWPbMJYUw1wDSwD$iSpMKCQQqhHWQPZmX0m3hPWdRLSO6ANV1yDGazXvZHihHhwnKBJEvlWGNilQbbukpSdz5CAuee",
"kiXeePxHm2Ttf0UkhjGMt6kqDNimVp0NPagJkcWZOvXNgwMMwRUFBVa9sEBdCfedObbSonc0i6IAB40viXvRwBIttfVfTvYxUwSSakuZJKiXdZVIvLCwm6HcDLhBVNPe",
"SVVtomZVRMvQEWeAiQK0CBwRONmDQd5okWHJPKbbXGLk1FwwMtBUj1QIrhMCwlTPxXlbCgpq01OXJpCbcVXe1wU1XGvdbkxkDPAYVTSN7tPeXVTDmoLXPWTMwruEdbEk",
"V0EZhFC$ZVw5RRYAvCosXUjxar3R4KoJeSIbeWHMubSm1MBMtttt1zEHcWCtQ0TjhrJACV2tvTLNggHiTzjEuwTRRzGYpZaaNnObfMJRo2QedhQQbCEZICWeOYLoCrdQ",
"FmTbmSjFBCaaDICiCzTPqmQQMjfQycibgWVCYGoWeuhMUt1MMgC1EjeROdMwVkvKMwUDoqOgEb$HmVCEtwXlXPrGWdmiXHYAdUXsvQRE5mmeVRpdmFE4Qe9sNgzCGDEm",
"Ahf11dlHQEVLuxikkZvHvubueKXMOBdcctEXfOwCFWtFwBUM1zjCjuKLSeYkAtvkOVbdiQTTt9VBupMMtpGw4ubjfipbPvVHMFoFJQLdIHrtFMG5tki5HXhPQHHuvpHP",
"OVNDRXaUPx5lpSWWksYVKVemvbDDkVXGVQqTWsnVEKMGWDRRttByznVdVVL0wRbaNeTPjqHRHHPm9LFbCOtOPjDYnooCNxZZAZuaPrRgXiuBSHXrofCvvdTUgvoQ5uZn",
"fbV6mzCOxHNfYNBraCWoVEVVvREZQdboQXnVkYm1wpZwbTVbCBDRYpvpMY3QOEZAHQPxP1dbOHmzJqGdGkHkHNSTPbbhxuxjqNVQjFYGejuwyeGPiBFtiemWKf7XEju5",
"bIMJMSNQfJVhmDVzoaRio0BdEuVoStXzpnQoQVibNIpzvt1dCyRzfXktdiRcQAkcsLRePvWVf5bYWcqWHNjLYsehUOwZZQSYfbWVMFzIx7NFFJECTGVfKmmw10mtSqk4",
"NVQPXkhaAPVmRkqOQy0EcpeGWQDGmPcdlbKUU1wVK1TiVyZRgRrrUoLWNbttgGQlSoxVbERY4JcIaKLTrVjio21ISHBQNeStWeguT5jimaJhGKIMRDWQRYWjiimFiomV",
"wMuHuCTuPhWPpLDT3RXJrXvcCLkwvI!fDMHwvdPAewwtpRURRhYdYntwbEb0mPB6vvOFlkKVJMXzkTrCdRVchMbDc5JAQSQtwrnbPHOxyAX1XitUwmhBwMIcg0FMpAKG",
"C5bKxb2NH1oVotqmDTtcuHudVtZAZH0vVRgmWkJih1DwGwYddGi7AQNbOBXLNNiJKtOMGmcOSZujxKToBC1iVglNHMQkk6YyCf4ObfGAAoiM1mwUWvV1cheTegKEZNJE",
"kAWHoZPzSvaCxTVEEgUVAvXJZSeZsd1TuvXZEVJWRmRG1DdvNXOozF5SbYCzQVSCiWHIEL2ygVZhuBxNi1mibeplTpUUVVtZ4HZZSuAXEJfDErJvERwrKCsfSBFhndEv",
"sSuEbJJdmC6rlVrLMoEZTJkL5ukHBtvmYHKLPbkddbYttYziXuQbFDiTevE4qdhDUAiUzVbrlN6Tg3RV0eHkCTHbVRMBmIhSoZZUELtwJKtv1vOEpWCNGVVlCleeYRvR",
"RHV1hLBYkS4mtqXbkUwMGAViOGwAJiXcDcXhpYqupeYXo4iaxNQeLPAdRoklsErQBvFFFkjoHRXLiWJTQQgUFQkLaFCGaYQLCxaDRpiiLosGUIevTMEW1VTt1dQwRXWc",
"FQF1bpMTbd1CGRDUlwBvXPZASiOOq1uo3jgiJmhBKiUdbndO5WwfYtYuioCVXTiAXCFtCn5oTrviTAviOvriiXV0UjdOJxVpXEGMKRLLLc1g1fwTBUUDYtwvLOdwJVbm",
"1HVfyTPHuMgRG1BXXvwVPZJBSAlV0yJVfkV2XDwiJeyGjFFCCDrhKy4uparr0JLHYUREiPx3zxBd1TCrmtiGEvibGoAQVrwoXir1EtteVTRgjCrVmCRD81fYbK1GovjS",
"NocWWmfUURfmdRWYLopAa54kfoFYwFEOeEboWeJiXVqUEBMRMRXvwWOHcS1CYoQZZbnXJOZMCXm0kiMSApJt1SXlZbch1iIVeidm1Db1UEmRDNC0V0G1rstqmGwFEWVj",
"EXdwwQcFCfzdmfodFHHXevDCEgWftvvVVTaomsfWW1fDDRjRzemPdbZopcWhQpc6vFQ57AJWYFUoTvV!XLqFtyb0EmCwVEtUQhFdVHeGDTVD2VEhHcgtM1vfriFFpi!1",
"FWWtJOYDvdWIjpO5ZPz5TQOQrueGpkKy1EiiVT5weejgtdVfpGdakZSJwLtzCmAfUIxLpSckbZAkLEBVBoEhEYHVoG1FUtBzBywHniWrsRCfYYmp08RwfTQTWwwyEpdg",
"W6HuEnuiMvTeIpbPPmnFAEJvkAUwdPHGhxbp1pX7ubWYGGTIEYkaWOANOuDYRuVlBpk0UCkWqeULHKtp5PkRBVJoVG1UCDTWdxZQRLDKIMrqmCUgvTpWVRphFyBYXNVD",
"6dtb1wJlEY$QYOOAynVVkSRIFPvdZnNShpkTCGccseqgRyWzWWWI51tOM1XibLogxRiTFCrMRXuuCfkZOqMDQhDlBPAzRDvVoOZhCMBiXpRMmYVLBLBDYUUVFU1gEtto",
"5puwbMOPvPokJxa5rrQIOPgVKSFkkEVqqhhVcwviGevKpgnfEminxnmSdiOtZfLbZMhwDMR1UpxNrmbWEbkBCFYxiRyzrYiHYUVpRCv1MdfMwMQiTgftmwDK1TnAYwGP",
"rMZ5SgvdpI5xoO5PpHXkeIVVIZkq5SmPgMSrmyniEroAkfkAHJEQPcYViLKNkhWt1iDTCBrmWvOS1IXLEcteEnPeFOdvijvjpYoICVIFM1wNFgOYvXRCbXdyHeoAGDnx",
"BEYZQenRbN5vkkZXia5AKODdbOSdppBZiuTOrddmOoiuJ5xAQk4kOtWYhXPYFPeZPmUwCGdgEnjiddHioXW4ooOoXPQHPZx7ERDbDSmKfvbPXmpUZJQiss1wSVhisbZY",
"zYJk3vDTZqYZkOJFiJoSipPOaH1pQBV1IWfNVWOUZjdzVZPZbOPKBVJ5uzz14NWZbtUCGMEtvnxgzp5kVJLUHQadZaCEA4PfYrvgWO6GbZbQKhebpTNCkdBWJKwGdddd",
"4JZ$UNORHNTAsK4PakBiGmAaANNiJgrSuLQEzJOBkcfuukJNJoUWFmJQSbubQtPeqRDMC$jfpkVf1rQPPLhmdboiyakpHvXkQhFUQPu1Nrv4YTVglRGRUmOXecpWlDvO",
"wk4AJF5RyhApcjMa5Hm3iE5XNeSLEvjStmdVDdskVfTmvaOOQpGhVuLbycPVfYEPot7tViYIAAiWjIJxZEVkt6GGbLbrtwGbhFFBnIUgRV4oHvTvzYKUUfooIiiEv1oJ",
"OxAEQHmjXNAGbmgAOeAkwFD7vZpQi!WwGNGLDxFQROkSJmBsXuaZhCMyBPSW6ZTXeWo5TA5aHYXVnX4AtbWTUc0zVsvNYrVqTMtdTkpywSyhlMGmVMihwGfWMYq05mDH",
"wiNbeHKcAjeHNvpSSKpxQdjJMIuRhyNPnpLvHHkxHYQYSQfgNgmSbh3jropVVCpGGhVLx5xaZznnO5AZkYju55V0RYjVF2edtRQmbJIQgjl1hDEgWRRQscjWzVUVROSK",
"Jkp0dpNLbaEJOeVCPhQQkvt4kSwRvSummtNvmCfjooxTHOoxDjZitvtFr5mHd3plUmFGujbkkgbaJ5JJJjSSB1fNNBdsrmLgMUlTGGSvq3dFFpmmGU0LfUwThGbfDXSX",
"dMgkth12m6H5jSKuTdeklhsANqYxkeSXMYoGyChWJwesZLiOvCmlvDgiPJcEKDNJvDIVTmTOXHYxo55Jf1cHgzcjmVwufTipRg3mfUWUfwwGHZbcMyfoFRFrfzzUHK0D",
"dCNKegXrjChPH0LXiSYYNUCXCNHdAbEPBdqwoFV0GGkkkewb0UbAMMvtxSihXiqestDBkeWNWwkmhm1OIkJlRXrktjuC2fwjVw!ETwimGiaAghDLKZbSiRFgbPOyZ5V5",
"EnYpOvDooJtZGEpgmo2WwBtPQhNWwdkuveTOKeLicJJPY04xSkhwFrgzPaQbVoIXKVH7AqH108GNCACZiPJEjGkwDbkUFYSqqvc4aUbcYekCdtDGQO!DGYiXVbpRjhJa",
"OUOQVt5idiNP7yWCbZfeQwJHe6IFfZBJpNQodWderWLPWWMTibHwtUdEZIABMJoKWLaVwBMx1CkLJMHvIpaTdrDgyOaFdzUYiYimdjakjgfXezMBrnXiMBTXWvH11VeP",
"UOJQgdVmH0LJ3VFWvdiIbmYZkdHWNOHuvpOHWOdAwAoTrM1YhgAO4fmoaONduHipfIchtR5QAIVbIdPEjRXZQgGYXUowC5OLWmz3BWeT3yWJwwUTWgbVeMrSXmlCWVie",
"hQ4erNeV2brbWpepJ1fkSLZa7m1HgAiZrhvK7NTBEAQp2CL2fjVNQNaZdITidATQRDSUCJefgXvJGQ6eSryVVpWnkVnOnxmDUfSmbHXGhMnrXCtgEVIPTiKWeYTSgfHO",
"ZPaGfoqCgH0jWKtdsKgdcc1yuIEo2rquvdHRDaAbGfT11LMiWhiSlckk1AJgvaiJShcR15emgRVEOuTHRQqVkLecoIQBOxUGxfEFtokdr5tCRMWmnESOwkKih1H6TiJm",
"ubmmriT3cJSGCKt6ltLibFvzeYkSkNNZeQkU1SKVdHvGvdWyg1LCPTerJAwn5SHTJovYE4JwrFXXxvVVkYbqmJb1x0VAirakZT3pzJuETFOCgByvXQHxA5PTCIAmbiDH",
"Q0YSHtUKVSm1TLGRiRWTDvTJIwiAmfbQL3QjbtgpjtutD0DFrDYoLNqpLjoSER5DoaNssCvwTEpTmiYXHh3mOJktubLe!KkOoNqfIMRGQhGwV1vmPXOZH5mTdYojTW5k",
"K5WeZXmOx59qZAMGFwwVwRiGRSTQfS3aUU1uedfVsJ5CilhMbrhASYuDWEbTdHfsZkCijFUWWPKguZFiopGpNeoWxIJdFONCbkUThIdoHfdmizXkpYfa5SvRtcDeMbVB",
"TdwoOidAumO25k1FDGjJMGmnymRGdo0mwVMOWMdRvrpQoYDwwnEHEeijrIVWy4grf9Wrxr5KPLw7XkkrmtmkZspXS3VXvxbfSQEYZoBY5pOJfb7bnpNOJjbwHuMMFjim",
"RtkkdUZuL1tQIFFttMWr1dIoRtXblqAHwRbdwrEgTFdBkyFwgVI5Wvfqtt7QGEFbiBvNExOaAWDUZqCR!RTSqmmMwxo5PQpvrU6eLkiZPiY6JZfVHvnk3i9kn7oVgovC",
"WDdDxkaQeQ5NByEUBzrrCWXXLGpmVbiJVpOwyptpGtGfZtyCviHqVRY3QRxJmyHkjRffxoreSWiMY5QNBGpEVjdZZHbupkuQOBmlTVTwDVZWbRvvVEL3kTspkBiiHX2Y",
"1Via5pai0HQwMUMtM1MtBWzQIFWlfGVo55vbiMwUMtWjVQnOYmvegtiTXJHW1wCdCYynSwMU5obixjbRTYgLewuLOgFSXVeVIdjvcQlMgPnHoWxp1pRQVWXdefTOrTmm",
"WAb2Q5XYRertnUUttBMDd1fZoUs1wt1hdOrDFwMtBDB1pAAoI6BiFFpG6N52tFDWdmfVPyCVxQYfQk3KHVjfeJemLiZZXWRCd1bvmeebyJZhfUaIBQf4gEdLelmJSBwF",
"5JkxRAiSmNsKVDEBtrtCtRzdInEVFNCu1NO5wUBrBDBrvpSuNIaRVNiYyh0hBdURWTXLQWfvOOtiZA1LPYBCiHmyJXi03dgbBVoPwiSlkan0kRxLaQJfmdUG5LeIXVbk",
"J5vixKoZNjGMeUtCg11frg1vMLtBbutrYPwyVCrvBBgVjTWuNUwRfgUeTRRDrrgWjCTrPIJPaYdaVmrXOXCWHm1OeldzxVbm6uRMwCktAO1fWGPHodCtUWMVZqUdGoMG",
"e4PkpemWmQhLVgfGGhyEEdSvoMD1CLof6ptBvjvd1rdpEmfTBzdWd1EiLAECUgtGjBRZZAMkQbPmbwdqoyfbHD2feGWg3mJbLbedPnAUnJRjuHCXTEg0XW1JQTuRhOHK",
"PLZHMjrwXLDmTEfYjUVvNIVIOwRrmtRJMlfXwgQpf$TYvvIo6!NwKdqKXPUrizfBnnTaQhppjXbrbOseUcVzpMb5HiFesObmESRvDv0HaouRIReckKTdZN1nJlwzjA5S",
"mLYRjTipwuVQqevIQYEEQzKOHTC1iwghrhMtQokHPmf3NomRoLKRDTk5GnYhCXTVOb7aPAAgTOdfhATTUNUCWPBaHNJjPkrU1QSNl8ohVNRXSkkIeXSBMFQaQMrnZSiC",
"tKqFMekAWNj1fWgwnfLKvnFNCLj1U1ULBCDBUOOPoXrdQhCMBTwih0QeMczVbPOfIbo5vHRLCZNHXXRSoJPsevQZgDr6RdyizIpgTWfibbmuspvWEXOdPkkewBtVkKCE",
"RLBtBfZgNuYivUfrbopn1QYHfjdFF1WUFFEMzdlEvYwv0Udrl1rHEqTKKeU1fpFwVQcFE1pSQrxJGk3YjmHhSMEHvA5YTwpngoHBWisPBkJZSbCwkeZlSINjBUbwbori",
"wGyYrYXvmQHuWgELCbwWp9yiRCCFtdUMU1mivEJoIu4QWhibUtBReIzqWYtVbeqfufIYzC0voxxNiufbHCmhAkBUMrphGNounRKpDReQJa$mzciGb5vYdnDrtWZQabTy",
"oRDujENpRBFI1dRShtIGiVCyRhFUBdMt1rLpGdXVtZkQCtwHwDmrbcUv1WKdbCYEKwwfmwwc1QeOSCSJBmPRSIQwtPSh5mUJjhbA0Vb0hJYOCdcaGRiD!FWOVooJAC6M",
"fWZJOYUEtgLoWVbvLiDgviMMp1BMECryEVuwgcfjDgEIRtwfD1DPNmyYLg2sshdktDd7kDGQzyN5hiG5mTgVoSHWVHQPXV0kCpEcHHoeGPbSWHN6JAvFfOpYOxJOT0Vi",
"Vz6cVUVUE0lVMbfmpbLUEBel1CrChQGzYf1iqICMFGCEeNtm1iVHGyeiGdtWeobw1Wxx6YZVRVpwxbZYvjfQiON5oxXpoLHJVoQmVSphVEoT0ZoTbLqbx5APiOcIbImO",
"dCbHLfHGJb1voHVddhYvvLSwUJPYpRYiVmft1BhFvoCYggvYv1wg0LsuccCEpFwNP1iLWKIWuNUFOSNMFtVQyuiOouIivgbNbwALmSiGEZtAHLVPpbXbvehuJSfGYC10",
"r1Ar1OKBTSi13bvBtkYUCLTAOQOWcC1ehttCUGoRXVjfwnsjpbiddTuYteE!NdBiWqQMikuyosnyPH5wwBjfwrSgxpISSBgLSbVwEZHekhezMxvhj2R1CuCAMbuvkUFB",
"SQkiWwVDtETV!VTpaHDwmBjqJjqQbMGMdwCEggvRwhEPbVjSVqELBHvXLqEbTVrbY1miYG4TUJdkxd6zrCVvYxZZJOSAGTeYLtURXZNddJoCIXDosYdVWO5PSeciDFyY",
"OxvZUX1fjos1nRG!fTqudtvjW5d5QtXBUtFM3YdGyVWEHFDYU1spyhWMwSNqi!sl3hmE1jDcMbqLYUWifOkBrWYdmeroSCQHPUG$yapTRouEBRRdnvDiVU1bYbuJMwGV",
"QrxMwBiwvUOUoDdditoX0lcEBOobVGOMwwwGk5HcVYAEertmKFmoOOoczZLsAtDVdCpgYGRGnpuM1RgcknJwhJZYmPeLdmovW$RVQaJ3DTaFdvPQyf6eJKNcwVyQWWVv",
"m5Jw1MEX0EKpbLMHRWRX1FWVsidJ1wdCt1wXijUcijsEKDMvhhpoBV1iRvhKVyOqDkJFYBYYNfuPNSeczT5AORB3dvwQRKvPwtoQ4oLLoLKPaa5kImQVfMd02QtZYrYZ",
"5nmMG4VvVhnsMEvJrMy3RURUTcdKgwMDMhrvVRFWglVyM155TUzCThtgTeQTV5akdBkiDCgURn7OGSZMiRpeYrmWooPeS6ZHiRadSFnfVeiLdZaPPMdOUiMg2EYaZuap",
"xwDZZmOH1W2!W1LjhhEEWw1!c0v1DMM1yW1NnWwSwmbK1EAHlvrKTXRLdKAFHQpEaUQHVCjkX3QJ0mOOMXeNiwhYemiGiOJsS1QpNrQpEWPqybQKFTjVtBWaIokvoiJa",
"NDOZTHpDdPgMmeiGqeCUUrvGCVcjwBDVrEEoHSyvTTEsWdlzjvb1gdNQf0SjbLXJSVHvikwdjbnwEpEoH0qdweBvweyfXHmufqmbd5ZseeZBAurRpbRwGQZSVKrRQtfD",
"CehwQriAeXFUErtdKEf01yjhUdmUFCUmbV5WQC1bBdLsNiDvbKcQgrNkTYi1Wht5Gstw4f$ZObOQhbrVVbsoihNzMFkdhpKDvTeeVvNeRWtJPydQT11KhGSUVwvMhBmm",
"ieiZeRQV0dtUVCtshwjMmFMFTWfFkgzTvQ5bcbQWeqHTidCXJWSfcGmiPd3FQHAKFwQYoeOmA5kbICPolUhJowUtOO5EsEooEvjOW2eD4iogBU1FUTAvJdGPdUEGbPTZ",
"wmTNbkkBzUTVVTVtmgFTBMgbmGyv1GYiV15gmWpymHvHpStuJfRZPypWAKRAFAdcRWkXSPJvSothE3KVLRM0OCYaZiW5EK1bdgy0CkovjSpHRbpEEWpQvodtgrGdvPEk",
"QK0gDOTBwiVYIoM1tqhS3YGe2T3jhqvoxE5YhHpR1VYDHiCHlp3wnycP5VSEauooJfpddSmDTFmREiCm5RoPXeBrnXBJwtvpvgdgYoVRt0XUFFziYkkBTkUjWjITIkeJ",
"c2VCBqsRVI0RrLwrvrHEivvF1nTYmpbOUOPzRb1efAl0iSDKJ1HZQqmrk5SkkRuKTsmRWQJfjHuTc3dbpeVGwtCwIJOJZKoMSoIgGN90GoyDvtjMdrnQZNUUzWnhYHAN",
"DOmRWRtVZcsBF1rgVmUVQmFBbTBmYwTuLAuiXwKjveTEBQmJyjiV0Yu6EhjPiDPfveQRTwGVO0NCeEiDOow1BVDR9JXaLdJVJyLbPwYQbufF1mFUyYmZ0IhREzzdRmoz",
"EbWEewwjofTWN5dwlRyodmDGhvhzSvhrvAUyelVpPG2zJPmt5lGySVuBmYvQQNpYRoMLpwDZH3lB2hWrswFwvmfmEPExASMEMMWoiiMEObeGLUUBRfV0YQ5Gdvmbmvhz",
"pIfTRiUDoew5$id1vRCmLeJoITywRFzMKlhvrKReNUDfZSrWd1BIxDNtvrDDHk3RubvdhBOZchNOpFvn1TGmVVVfpinuTyoFFBhnYQYmUJseYbfifmBkOJVwzKAmfnJd",
"GBdTwFM1KwtuNIzkpdTmVmliWpXsQGQDhBCiLYbKGtMnpDYMr0JNV9cJGzGSAN0L1BmFTXiQiywehZoY1BzDXhfIXnP4NXRwUBvbzfFbLFpnXKfu1fFPpcQuHx5JPndr",
"mwCE3MG7aSNvRoFfd1UNDVCzLWvmhXih3DgWXGVLWmIZau1mpdZeZ1QYVRkXJupQdrhkOOhWRbQj3Re5y1rfrdEVHWGnkywDfzYnLpbMbxQJjTNndGUHSmdtkdixZDIi",
"JRhioQxZxdOMFbwGqwFriflplBBBwMYGMQfLLcNtrPAYkwMiZecLXYNgAMV5fHGJL0pSSGGw1QZCtCZUzwnijvvfnRLdEFwDpTsj1DDEvSAvSvNcpDXkGytWPv2umTET",
"TmcdfZaYS1M11vI5bCgvCXlGCfBgMWFMmZNJdyUMZ5ktiUzOZkXQGVKbkkCEtbhOHSSqjBAWObGQIH5eqSropYPRWRppIDtmfQ1TwMVIcHHHuWGDcVzkTfnQLSiUf1BG",
"OjHGrHkJenjXEceY61NJJbgBqwvdyDmiRURo1pOa7ZQaZupnAKJfmaJ0AoNxkVYEDPzeyZaePRBVT4HdxCOQUm4CUCNDvdzkhLthwAVxVOYdxIQiD1mdBwiiYcLPorWo",
"vL1RTCscmeReHhDbeUtWEUDQtfzUrYMXYFFGsylOOJFasikRPmGGfRRk5egtoQnQdkFQL1uZBRw1pIpPNDXzGaPYGWzGuepbGoCYVTAaJiYjitDQh1MCjGhfgHtGLF2H",
"HVtEgFiRmYU0oVUZb1WMLjfqXwttEkkkmv3ERD5A9YmVidXStB1BvSVHNVdwpemJ4kkuEhhFwtgRvJuhIBR14wNpTmzfmbiBGoBXrAUobqFUbjYnbwMDoWBwnPmyfbeg",
"hidiiUo1fsLNuJ6uoqTrTpvtTDCWYxmRHiLVGRoRhYiMVoCNwjnpOouobcFUJfZkoNavhvQFwREiQuQvQhpwvaaaiXEWmehVEWS4RDIj11wPumiSTfXUHtiDAbgWEoJe",
"emTemkZWGgN2mavfVkkDgCUzOjj45kemBiqIdLcgSKFwYAsYkbSizf5tOY4XkTvrc5SOTkRBDVdw1Zfb$aodzhNwiwCDvGoVNXcOSMHRW1jAuueWqiSFgdXQuRwGJnpf",
"dgeWNPVVuHV4SHGgLikeRwbxVinn4uAWVPTgeSonGqUrOxwrTVSeKoOzhZGhXrbdtsPQVoNPAxVQi5hdiPNmVqH0DQtWY5eMCGStovVRSIYobfYCLG3TtehwAkNT6LcM",
"7btodJZcK1wRuuzdbJcKpJkNSvbTV26vhSqdHJuJEWfvHxHgVNXumkOk6eoDTuJhM2b61ETOAOooKJhdue6VNkmk3pgGroyhtebDMESTWQIQXHDdmivookp5NAFTH0vT",
"IJkifWpmNAgJ0rOTUekMbodJhVXXSCSglfJ5RYmGaAZAvxiYHbUwuACAtFQGmzb5u5OPYjLKhKoYCfR5DSgG7pWeMjIREqr2OXgTMgomfNK9GRuovVGU5AGJrBxNwSbk",
"vH3wRAOpUbZu3ESctGFUTJgLC6uloWbnIRbEI1heRqSkEWKbMteBuipvDwZoMIZVoQQVJmkmFykWRgbeXUOdilwoMzUgtgieiTeCtgHECSSXdGYHLeEFXoMiyVeJNd0e",
"Bz5DOk5EVYqTkJoibQ1LaKmTKWhfvVHKtWLoQkUZdRuLmiGSSogBlGIiemXLAJEZEWbHHHkWwfORJwGPRwhSSttTeDtFXfqeRtRtRYAEBCIW!KUJJR1BmBFUZNeALGCX",
"HESZ5AOTNepvxeKYTKOnUkdWzwRSb0NRO12YroilYT2fQVUmEqERbWB4VHhiAuNGiMNNoQstPkhaeHQYdKoIXemWCKFWhOkEiVQFCXmMtWpFk6PPSbQvSFMtvZob6AJc",
"tnOHdbZWOZGvHA0oMpydoR1KTONhimbHmCvCe2Tt5OgSmhZkhEWJWNZ5NHjVYnM7WmUHQNHVVR5xAoPWg!KWm2WVETDdnAxJVBpGpowRTtQmOHKetdcYPDWHnPifV1GU",
"qsPiwOLWAq0oONHUFCX3RbouQAuDVRWoL1GCUYbUlaGwtCgETmRbwV6Lo0uKLWRTgvCAtJpkMyQZNvJBW1dRwvbsGbOZx7WrTLPvkdBYDWyGPAdMmHTtFwmzOA50pR1p",
"dUwfidby1Vk0mnTVBPkoYCHbbmOMkCVoMFrgWfAXXkkXomvuBX10wCaTuROFilUMZiZOTTZHDxHoKpbpZLXwdoheiLuZxvCtJyvFbSoYovDgnOFFdHUbttnAZkHppveQ",
"MCr455ORdSJqSIBTaSYmWdHTmYOJ0cvpDjzgmOO5rLbPktXQoE6RDvQwkwIZaCFDVYZuoHtHmuYXbwhmrFmGdtfWzvYeYdtnXES5kNmakpGzogUBYoNVwdXQQOqazExw",
"1vIx5ONHQgq06dmPKR5BpOITGNJCWSLUOdHekOAkdciSJonoMWKVNxx9pZalPtCfEIZJEOVSeyBWcQteUFVZv6OvDS5OUJtMYrYtTTJZOmp5ZwYYPXSvbslisv6Eb5Mw",
"mEaARvclDX6LNe1OGRoggErfSrCSMqVNPFZvkbOSownk0HroRgnxDQrHkSCbmQVnVP5rbTcJL0GbJK1XwWHZMMRSS2GvifGPYTZnJJAmCLeSSGOxUbmlWrWxC9rZYwXG",
"jkJavvGoDApuBmkQ0oVeDovpKGkcfceQimabshCv6zdkr2VKTBXWzipY6cZkVLaIPX4bfWgU6g1fhWxomk5jroCWvOThwRdvYVnoQepdKr6grPAN54xSWyWDHAmb9zbQ",
"OiaawUWAXSoimTSmqJkZHoDbEIERovLSTDse0TrXyOZHj0oIrLlbSKEfHoKCTSka5GWwEB0RF1GZDtkKxJGjJiNudFQEGmCEYoHZEjSeGlvjPTeKSOoVYdfSzSfd7u5Z",
"G5ZWUMzZJbuZRH0ouo9hMmxaPiATtwGVzJuklSuueosSgdvWOq1DBQ4lQJPYCMoNYWnHCOSDBRQNdaZuLwbjGfWvEbeGWiYQjiZNQoKFOuuOsY6uBo3WddxUuVuTC6eN",
"JNQLWCiZGrh5TrGXJuTP1m0iyGbEgUHbWPPVpjN1D1HOkRebS3VHyBVEdmvBdEeoEQSjhVTRjmEkZupfLPAkdFUJt0TBBezEvAkVYbV5WyKyKViYHPQbWEaHgOOrY6oe",
"TqLHvbkOAeHTvmRuIffVkWwxpkeVvxuPXOewI1uettCaCXftTYeHdyVhpWJVGQ03daoVFCiPkJaAOVp2ldLiQwgxswCUiNbnnpvQIpblEKLPrdmJhoGZ0TJwIwPzANf4",
"UQg5Ek5MBLgblTS5xMpOmMUaKXQAPCCkVRxpQAugFwWaAXcANuUS5pqokdIsEvwQ1glgFgItjaLZfmfwowISsOaIUtDRUvofidXN4ASfiEp2mdcevhPX5VYZyYJUwaXX",
"dwdRvwXhGsdgCutbWLUXaw5xAUxGtRv55WbDT5cFUGWPkHy3iVTuLkhwktbVkkNfPRRwSSQegkRtBtL1bQuICMvtttRymtZJOiBYi5TgEbWYwfV9s0YSXWi5FxmQkZpV",
"vDOohQ5N3eSmQ6GGpdO5uZShAZnPjRHJxYVjgSQYjGdZaNMheqAduEqbaXHSbiepkTubeIeD5HdPrAwbZcKpREFIMttRpEBkPu5wGfaoGqsdCkRYE2LzSoczZ5uuPQwZ",
"QQPa51FrV3IgELyXzdFJQuuPJMAkQHaaZbEYlgUHkEZHOqCmQzCpbVIdJDKTmXici5MZTdGVbSAtbmCfKt15mCydM1yjdVOayvFMuW1UeS2UuODYXYdCeRVISoYSI4OY",
"NxZk1JVjGOoRLksg4pYHSdZGefSSZxHb0JWXeQdfOOxbeSfyVvBO5q5BDpHsehGuPpW5JmhRb1tFt1TiJgBkeWGtCdrdfnOdpabXSU5EeGUeLiOisRBSKoOzm3BN2PCf",
"5YHDJqTDVk$EhSeCERleeNDiSN0Wvb3gTNTDJbVLePbqwMOVfdLKNabQOETgdrRCNN0i0kdqcqFwDGYJeCjX5EgDrGpWGPKAaaVjMaZ9fLuLYmmjRfivHVLWKftIhHi1",
"1fSOHTM5mCjfRYGR5j6KDhHV0YJdvaPdYRKzvudvDDUsnkyfmCOhVvhjoeQ3LkuJvMeopw4KzU1MjrbPknmXDGgRRRzGgJaPPikGaPtHS1W0XAnfvt0ndg0JVH5ZxNVL",
"J1UNoIOLAwWk5XYebwifEiJ02RuaaYVvhGVQSiJvHFwkTouogwXNfgnRPgPfvK4xbdTbQSLoHXEqpVpRNtmSmggGmgrWfWakOjEAZuLIjEo6ekJPtDJeLCNdNmSYSZVv",
"PXJOetoMwDVIAvJLOmGjp1slofWWBtNDdibLq0kUYPZllrLLqdejhWLVZWgO7fuO3RgHHLo1dLO7x4EpZXRAUgGRjYWVmYZ5ZNTfCAKmzqmMOoHNSCbXfpGBZgiKWDuO",
"mKuPDL5TWGbuJGxscmbQT5VIqNvgtpyyYtxKhINVTiKDeivilMw5RrvVEmoOiGdVmmheJA2fjt5dxAxZhkiGo1TfhvjbZ5OnImRkBZLVCWkRwJ5esi4bdcbHQ0TPbgrr",
"FCANdeLLAxZAEfqo6Uoy2qTCdJwXVmWnvaaomLfR0LYwROuKL1AVvhCtwMGLVyrawwOhTZs0t4IHuifwojaYLYvdEdnzIJPPmJaJeZKlIzklkNdGDwaVfO6sDmHeVgRm",
"BYXRegEufbennCf2HGtTTwFUbImROLoppxSYkiDaJHhFz7OjSUTyrLEkkbkRQiBwMvSMNdEVakmkdVWtAFU5uWFBxPifnotSvKGWPM3YVTIXNWYO5znMYhWhwHEDuViG",
"7aoWMnLMGZdmSfGqmihfHMHyVbXeiGoCmaDQWRjVJLFCnnmJOIWwevXMjZitppC1kTtzAVabLsig2VdxuvvmciWXoaUOPSqdSEpWdBwQSLmseW1YsBGdoybPdUvUmbLS",
"YH9ormNGPZJCuv56cGTR6oOZaVxKmPPZZaZpym5VpzEbZawPJOArIuYgGABBTioPODHPkFuGdEkTS6bo8VrGVDiOHZpmB300dHd3FfrvTVzFobekcYfpgWMgGbbQieKT",
"vbYQEiLWYHiEN0tl0LqwBTZkZAmVPUkokk5VMkuTqGSnxZHabmNDEJfHOgTrhLkzipbAmiaGxVTTEL0P0Q3FFUbkod1tttyWbfphReZfGyZCnuVvOKAmFwwQCvMGLKtR",
"ZzJWmmQfVcWutmjz6ccwbpORtLdzHx4GGHkpHkcbmurKZjdpEKSzeasPyAriib3mTfXfEZSm6PmeHdVwqhRwCRbZBkfw1rkitYfBO20CGAVJxUTUcnvkwUM1yYGINK3R",
"1AWQMWwO0h5VyHPFUUulNvOBGfypM4xeT5b3D6JWgKbecEpfKKuYVLWyx0ihWRfiCWoOhHoWw3QmbeTVpdMgmXJAJqrCGbOiMmIEVYTtJJH5PcfmsAHMDMd1yRYvbLe1",
"SkUhFC!OpSOXhViwBbWBbJFUCDUJH9T2Zb60Yw50HQJLfPiLRo1FFVRuCWQdFwwZfoKIC1HTJHfTbPb0rPGGEWOZTrSkwiQUMhpiMwAfKpVwYieTRkwMB1gWWiphuNYJ"
};
