/* XPM */
static char * image_xpm[] = {
"128 128 64 1",
"A c #645e6c",
"B c #847984",
"C c #6c6977",
"D c #5f5d70",
"E c #5c5a6c",
"F c #6c6470",
"G c #5a586a",
"H c #716675",
"I c #756b78",
"J c #7c717e",
"K c #8a7982",
"L c #807883",
"M c #77717d",
"N c #4b4e65",
"O c #2f3853",
"P c #776e79",
"Q c #525163",
"R c #786c7a",
"S c #81737e",
"T c #9e8c8e",
"U c #7e7380",
"V c #78707d",
"W c #6a6170",
"X c #7a7381",
"Y c #746c79",
"Z c #716b75",
"a c #746e78",
"b c #6d6674",
"c c #7a737d",
"d c #897e87",
"e c #7a707d",
"f c #8e848b",
"g c #857d87",
"h c #7f7683",
"i c #7c7481",
"j c #827a85",
"k c #746e7c",
"l c #7c7680",
"m c #716b7a",
"n c #978589",
"o c #676474",
"p c #716877",
"q c #666171",
"r c #b29a97",
"s c #867983",
"t c #464a60",
"u c #42455b",
"v c #646171",
"w c #75707c",
"x c #565568",
"y c #6a6675",
"z c #8f7f86",
"0 c #6c6475",
"1 c #756c7a",
"2 c #7d7881",
"3 c #776e7d",
"4 c #827d85",
"5 c #78737b",
"6 c #827783",
"7 c #78737f",
"8 c #6e6977",
"9 c #222c48",
"! c #39415b",
"$ c #756876",
"ABCDADEFGHIJKLMNOEPQFKQFRSTUVEWXYZabccaAdeHHXfggXchPiLjckbhlgLddmPAEnknYgfopSnqCTTrbkPWJsSsKnQNtOOPAuOKAmcQCEHPGVvPuqndljZwgPfWJ",
"CqvoxtQxOEtEpmfyPPGrezuKI01AAUgLHFX2yWaMPh113jhfLgjVljXh4fV5gijHFFksRu6Sqf7i6jNKGf5GyPIn86TTxNO9QxuZ9KrxrlxtnzcGZmyqTfoLafgkpWe1",
"V0CtO!tWQQtPgCjoqrvraYGW$EcGFHhFpbcFZxAI3SXkd2L44fgiVPijVjViwg8bbVP6NIncZ5hL8GJOTaaWSKslEzfot1mqPZOrNSnTTUEPrT6ETyGkCcallLkeebWb",
"mxxEAx5zPWtZ!vmknODOf!uNToT$bF1mjFpZUK6S6pkaaF524dhiFcZpcjJgllbv8bvqSZFZjc2kCoRIRbALbzAQ6hGyz6w!Q9rrLANrSYPATyktZvFsryb4waAV1JIE",
"GyNWAZFWquxPnWvCnOxPEyn0nEgCDkqCgqbMh1mGAkWplLc54cXppkVihZVXhjwLc3sglw2McalZYT8XJdofBZtSzb768!t!cSdfmKSnCLSbs5mvgN0PCd22Awp3iJMm",
"XrndvsKstKSG0Q$xNutEeTCQoE2EoDb7kEwkfmqvADykij7LgigkQl8Xaehehi2bpp35pc2aglcwBbqnoGmC7igfdhJvDt!!sr5rtdOTqKSNOlLMfNPdmfdX$pHJYc8n",
"4oooDvGEEdAS$QvDESEbSUzTxAuziafiVUCny30mFDxoDyMygim0Qflcww5lXhMiZYpo3aLcLLMlc7hDA$hEnjS3hXpv8ENr5rrXz!8TfHzNyEDk9unknP8RJGAeZyMx",
"S7LvEGxGGQuEINP8TnSAcfNNNOFrEXEP4eTxMdsG3Yhokbao1mz$NPlW5cXXjVqYaQGAUkVmyZMAgX3CqCATse11pkkvCCfrrlEbP9snIvtuEzTND!TGLmflodUG7o4O",
"d63mEDOFyPKbS$SFxEzPyGUxdSrzYbc6gdXgBiBm0b0EvqQavxp7usJoc8wMVvJopJ0vyim7aacFi33DXB0KS031HmGvp6zT8gfvpOzrDQGEESA9OTUTemjwppmCksDu",
"zdm8vFxFZ2PaszskQZJKP8nt6rqDZE5lSjbL3x8pDxNuI$vGJsz1NrQf8DG8mkHkmmWkvQEFjcY80k3h3HRH31XH00b1gdT77wLDvWnroxGPPn!GnTnT06yWFHISV31h",
"hCDxxtEfZfFDlnGvnSrrz3Vp!!WxbAGIMmmotEKpuxTZTHKSfXZkEIcJ0vEm8D0PVbvxGqEAfhCFm6gX1F$Hhe1A3WWHUdBGpgZFxznTmvb6PNAQQ0hddSBYYFpRHXgd",
"iyAEuFQPTS5L!NFFQTGvvoNvGuG9OFbDNCoqdnsWDSz4UbF$rzh0xuWbowxTD7eJFyPbytAs58w1RXeVjVjppPmh3Xp3eiDvSPEZwvnodymIR$9rpujToSWWbZkipwLD",
"LCmkWE$z5Ms1EzRSFSDFeokGv!Q9AK4GardAzf6EH54ZCAznn8ZevOKKDOovxPVe$13IGsAzyPaki7edhj3X3PlXhHFXJmvnhjXgncdxUE6ASTTsGxszTghcA5XMkmkT",
"wx8A$ATQczJKeTGdPdn1km0FDzHE5sMbflxolkvbd45E6SXhsLrmGo8KkNENz8Jg8g1mRVps7PsYdXIcXgX6hbww8Wpppm8L6fXpcwvU6tICkInXwZTvAeca5aAjJ7Js",
"hNCTKdbTnbodCUSn75shUGn6TUTtcF275nsdz7odjytfwmdsdf8NdoneKDESPJnvfgjmfsIsceULjXiLVhjh1mmqZpmImkkVz11LXlXJXDox7NAvm7nrU3c4421Ah8d6",
"IGPzgXFkqieKjfSJLPc7zntm7z3e6AmD7wXhVC6tTVnmfTgTbEigvmrknjozqRz1gJYhLa8lUcfiiw1ilLjgcoAbJllPaUmsVhgLa2MekyPTkKBGwuN!RGCFlAxYe8oi",
"A3nwjykZSRRz6VDYm62id3prhRfdgqnTl5XijXdfibDUXUBfCkv!NNCuGkx3onIb6U3hVikbcXXg0lLYbVVfjEHVPw77jhPjjjLcljjp5PBZds3k!tJ6zNEmb8HiiydV",
"epYL8ca1DxxvFGFtAcPlBskjfmdgkj4fTd5GxNTzx8JPMU2hgovO!mNtOPgKqz6bKc4ghXh$7MjVFhbVkjgdX8mnLi4ah1B3iaY3Xk3HiE2CfkhCvWTK3SzTGukadkUE",
"eWelVgiobQWDRmU0eZLdhjhRo3ooida4ayqxGfrvCcdjlgb7vpEDoQqqzbKU1WAZhhjggmVYJBXfcdh3m1jjabZfmlbahLVL5lwimIp1IveaZZod7xzmES3SESEDmv6E",
"VPPVZGHmG0SyFW0poA64X2e1phgddfL2W8WcgzT8V5jbZeAk7DEG!EPKz2KPYVMYhi4liXijYLDdZykmBHlZ2aZAxmU3kbbZclgcib3pFwP2AFff7AsoWH6keGRycQTQ",
"z6hYiHYdjn5l7hPoFggLPLgsXIZVFeoNC5kmClcaVFdlZFV3VDoBTmrdf8gUViPIhyl4gXX3qygmDwQ$ogfZMZmEnnRsqmcwjcj4PaWbpIPPdZdmwqbQg6U0D0vv5mj8",
"UYXpihjjjghUm8SjmghhfghHZAm33YxS5cdg45ggZL5aY30XpVfdTNTfTXUJoUih3lHhJ3mDDDkim6yRkv5gVZbcB30uAPYljVihg1mi1Yi2VfXPymRG6Fkyq0LgTLKR",
"3AWpgXXdX7hmXfpp6mUiLX8m8VR1ppDfdgfgggPa5PjcaWbbH11djDghBmSvvSXfihkVhh8gwmy3KUYbVsV8YZqFEtG6S6hjcjil5j3igLiXXjX6LSPe7hkzdszfByTI",
"WV0pXhLcXhXm7D6RX3j7kkMwkWFApplggdgL84ZZbq6LmFMbXo8L7iAzdECxtzghk0mJim8w8GRaf7SaL2MkiaAF8C8ndSHZwl2LicVghjmMjj7gXL8B7koKeyffgBgK",
"AIpiHVjiVjkmDTUnjgiBZkdyF8HJHpL7ggi33aZZ86JbZX73k1iVC5FSsGCNc7dmmpCD0xDONOqndvfzlaMhLjComjpfxndvk07bXYIZbIhlgigMblwdlgcVChff18$b",
"peiV32ljlgGGnTgfgliXX8dvBoKvimjLV5gi1YPaWJpVp1YmeS1L3scxxQJvV4ygmhmxtGtObrnTTl5bBacXjXEznzOKSxxQP1Rphpa5iV3MifgM4255cVco3kXKpHSm",
"6bb3h1XZlaGBzsfgL7gihcjPyzbWMCBkwXZF1AZ2HpH3kiZvNx1laiEVQx!hBfM2moWEBtNTrTKAqLc445wYywCDNNHNWQEtRYJhiYbcliFVjdgmd42abp7XfSf3SPv1",
"WAppbhehFp1nomzX2gVViyk8UbUXUw6ZLB1HPaZ8H38vDEo!Eencg0bbxANTfTznmovvbuQTnKZYAxf2cak3kxEGPb!AquEQuAPpYZw5Lbpa1ihdgZlJl2iLfdFZLbRe",
"eJphpgLi7VJPKihgcjjmb57ZCLsyZ7cZp1X63YJ1eADU0QuWsnljjWZ88nTrmo4jNxmDxuPrnga7PIJW8wpCgfTDtGXtPv$Fv16$L3agLXjwdhBhymgiYVeVj427LXip",
"1my83jghVYcUVMaPXiXk25ievdMcL74mq3XH1kVmjoTNeNtTPh1VYVIDvxPz24CxEX8kFFrdnlZPpMmLvLpJe3pD6foRrvyoWSngU4gggL4Vd1DmgLShi4hjhgmy8whh",
"LmFajwcLiLMBUa227P85wI0m3sqcy74jM7IpFXBo8m1BVvrYdSV1c5XsCToEiO8DD9uxnATnzn3FXbUCo6Up11kifTUDUbANRTKshYjgjhgiVCmxesM3LZibZFLm6dBY",
"ZkAEl74iFlgc31c7ZFA5ygymHYvgaoigbY3A0bhj$Di1yftKdLkqbv28tDKttGG9x9S$nrKfKghZLhbZIImpUhvhenmvoZFF1snBjcVggiMDUoWWpBhUmmbjykmXhjgm",
"hVGoeUXhiVLcLV4wlcbZFBbHjFcLbBjeKBippmKVkNXbg4LzooGfXuMufFmxSzNPH$KTrTThhVjhIewb2RYIipA$BjmhZoTzPKsUiawL2jfPDxkKmF00mDho8hoddddv",
"LDtw8ofRjUVJg2ac7byYUmB8Z8AqjkYhfpmmAXVyo0RVPIcvgvda4ENaxTmdy9NxDEKzSbfih73VjVVJSb1ImEk6ejXhkD8EysSIhmhg55LvQ!6cVvcxWqZAvxP1fnXf",
"DPcSmTma5g7CXllLcVa7wdBSA486RJiBgi3bm8dmLBoYL8oZmDxDo7aTrMQ!9nExrrz$ef52151ceVh8ip3Yb3XRUp0qEZ2KTzzmod3YjZko0NIvn7SQPsmmAGLg6Pfg",
"vyh!cbPZRkhimmgji38V5MFE2GGmmhaUhVVZkTywmoLTgynfB0N!!!t4v7ESTrNrrKHUUcbyEZ13immUPb1qEDhdhej8kwS42Wk3bfkgj30JBuWZGyA2glGWQQzZko5g",
"ozCZDuSFvbfmpYcVmAXvbmawo8Gd1hXhiHJgcnmwyqAIP7kwsoGQuOuxW99O9O!!sKRRL4CkgVJo3jXI87wmvkjg3ih7Z2BljAVVliLLhCipNoZaxcqx2g6zxnPKsVVw",
"rkmhEuNE6KKGpmRfyRX31UbEavbCBnggzXmjg37VCWJ15bAoOOONW9t9OOWTGrrTrJCXgfvjgjsM3ihJ3lxDyLchm3heXV2YL76kHC2fXjh1x2xtFbDuutNQqWki1DRN",
"nohkDEKnKBqY3pzhfmX1FRIcavQHRwLhgkBhTdvoxWzK4ZEuNOrrNtNGffsu$rvNNJfofkwsj1Xoz1Yii7iEuffh301X3M5ii7HWWjd7kk63pz5trTFAATT6NdnEDnGB",
"k75ehsznNGbFYWShXp6gppZb5ClTd5gsgfgdgjNAQtQrsZDNO!999N6TatuxrTDMlvDvd5lYl7X0gfXLXLdbzTSUI10bY2lPwZwA1l7CmnXkHp5ATTvlYSZ!TGu0z!xz",
"mLko$GmqOFFbhgD6FX63ph2bLZVsd2lpXggiXmmdpWP7TttOKNKTPd!SrxxDkZZaQthvvAxd6cyCFaZFwokxlxokjXW0jkmEuoAV3FkDCI0UA17IoDNO!QDGQntTs0Ev",
"gg287VkQWA$amj37LRVhiLll2Ljfdl2XPj3gjyUCnSpI1EuxxknznKQF9ur2lgsxTKOOTaZZkivc5vby7MLlfiwR1U3b1m3h8dcPEUxGGUHembyNtG9FtAAKNNnP8mQl",
"drkEbUQNAGGvndLgjPX0VwZ2akvy55FlYVX3qRRi8dTJDrBaTTyzNOGtnQAEN5k4rEtZaKWFwFpANMlyva8Z2ymKvdwhp7mk3djLZTGRIRxRAA8xvsoKWrOzKINpSjm5",
"ELENo9T!TAz4gd8hdiybcZVmwllZbF5aFVVep0vqKNTz6DbTP!dr!QAtrkEVLECtM9xFAcb8wdhDxFEolZFd5ibSXsWpXom37iMjg8P0Res$KSbyEZ9ON9QA!FTtwQon",
"uNmDkEsr3LsTnkEMh7bhLIZDjvDnLLaaI3RHjCS0q0oqC3HdmVrD!sTOdEQZfP!TtauPRS0WpR3DxP5ZP3LscLXcVIYqcwDhnjdhLAJ10z$SIDPxv6OOEet9unNnnDqd",
"NxFktP1NuJSNE!oov83JEBMC2gsLdldakwLXMl$dxnnJ3s3gYmrvCdfDQeTCH!9!!tJIySG0qSWqQM8dGCPda524gjLLjvkdBhPhamLeKRipkJEyuWx9uG9$QHQr8xuN",
"J9TD!n$OOtO9NOTGzeHA3Hc44fjgM4Xlih0Voq838kgmdK3SdynmkrzTNrOt99ur7uBhXvNH$SRmpWP6mSBgFFcL2iZ7diTnfdoXXqbpGWQ6NRqMDOG9tAzu$HrKNuvG",
"99PN!zRO9NtuO9FTnoHvWZsP3kpgjjg1IXWBEv$JbGcXPjYdpi37Xnx!!TNx9zrrnxnpDoERWF0iZCJmfkna2ZEw5cYJi2jalLWI8DNENDyIuUxN9!AOTSsurWn8EABF",
"9n9!O999uANQPAKrwrkwf2DkmhDlkJ3iWVHpbsUkBaFg6cYbVmAJoEIzr!GmW!StNNdxzeNSHb1h3Vkpnv1niFl6bYXXHw5gg7EzN!EOnUTmAv!u9F9P$5PTSzPex$it",
"F9!P9uQ9uAuGTFncumzNuDAg5ADWdD3Up1pkYiicPcFlba1HwFhjhEszNKmK9!9!rkznzgtS$J$he3jiTETLpZLXiHiwVF2lPWImQDRPTlDu8EPt9AFrfTrATsrTXf!O",
"99OuFAAAQSnTrrr9TOoWCdraj2yQhkq01I3XjaZXl8AaZAbY8bjXw0emTvONOO9SYyemmkmzRWdLFlVeAJBRmWh3elX1bmAZYm8xEAArsZAPX3QGO9Tr8rKSrDhN!OOO",
"!$GQuFK$TrSTzS9Qr9QTJTXVnvqZvvo$HV1pUCLV78acjcPaZgwmhd10xxO999zrKTdbkgUHse6oiHZylPVWpiZZYlcZPaybhlLeDPQAqZqzLmNvxAKKfmEt!OO!QG$u",
"r!ntPrnTnBTrfSurytKvlvUhY7vmJeEzexBqCvykLM27gbkgdiBfSp3Rp1WO99$K5BZhwPZleh87MJiWe6igVhiXcl47CDcVIpiMmaNlK6CBigooDr$rjpEOO9!!OEq9",
"KZEKsK1TTfdTfyTs9ArsxZdhwwEj3xEoDSG1zKD3Mlfgj80Yihggc3p3VJQO9uA99bPzEYcP1V73ggjVS0UXXip12bablonggfhLd!mnSGEeffD!pTkKXCouQ9SQO$On",
"rTTTeArTrG4fagPtNTnvqPa2PawCyxEIp3h0bs3CXlggq8mc7ddi3JIkm6N99K9u$rsJbeIU0g1XggjmmJ61X1jehby46d73g3MwN42TszTzs7QKzKIdVGGq!xOAS99r",
"TszjwBrrv7xN!y5!xrCYGXlaZ7k!GQbqhnX1g8$Hg85vk6Mq8LhVkW7hWevO9Q9$!I$zhU6L7fifhhImHjiX3V3WJw7kGIwmUiAzyfwTdd442DuTJSSTxtExtOtnT!SZ",
"n2dnSnrCCKkFdTuQ5TmMvlTf45u$QZRJKqTBi8Bj7ETyjomPWLLUVpXW2Vm9N99QFKzVJlj7beheppmmUXVjXXgvwjLbAi3igpibgpBfTcw2gDeTjBnNb$ZsNOQWzHzs",
"PTrjifKGtLXJbDo5Z5bcDM24fE9AZUBUn6sjW1oIkTgEmmDhmBLikmlwJGCxxOutnTo6jjg4j2weAARd3jX1LjVsd8jGGSh31R363kUf3cblhkT2P33PSz3OurAKrnSn",
"27fndg0DRGHEQQu6fdCEAZ2zwtQSprgSrNDPrQ9A47Ozd!SVbndeiUi8W18IS59OFOSsVLw4cjjbpWSYy1MAX3XiZ8oBWxZ4EYYM3m6h645lbe6bI0HI600xTAKEAuon",
"8L8hM8PmcnKApIHnfk7kaB2laQ3IbT8xdnTz!GrfnZA2AQTkTmoGEZAJZmc7QAoOGPKn742PwgVWpqAmwVlYJUjjXEYqdL!NxMmMUo3F0bAcbv1dobqpAYDnnqxEtxTf",
"gCECoXLkxPpE$sgKzVhJcdCoqpySCzGTpDzDbrt4VxSUy!FRtDc6oWExyb78xsZQOKseD44244ghhj1UAPY17UVXohEnHoyTJPdlcL$033M7i6JmWXH0x3kSJoueANSf",
"kPv2lLhxonTtSbBiPVBRg8Hm3zGWIr6kZi7KzCELisykCNSBWZ7oAhAvqCVhCvNrgDTnrL44ggaii1XjgdFhihZgchSJJXynoZ2fmhVjjxmUjX33W1C0eKmpo8fxKrff",
"taZ5yjEt0fkUUUhLeeiJVVsv$zonrfChqgvLlvClvx6PkxnCExeCootbAMvI9urggjTjTT5l4gjg4gLLLYVZ3JYk3MiPLj42t!fjy7jIXRf63eijfi3Uvyyi3URzzTD!",
"sqgzNGzTRi1tDbXFbPV3HvnnLpDaTamH2D5flcZgMf4g7Dnf8qoCDAQypWNK9rIajgfSf5lZF5g1jc42gcjcMhiVZZcVLCmNtS4xnfhhWihghidlekYhobRf0SKnJXDE",
"szcDzHWHxSqoKsLghRhVmmXsLmozi41EQk45y1Sfd2PUoD7rx78x$GQxFyArGvCLkyikddl44w4gi5jl2LPPjl3hbpYgH!jD!TTTzj$EUh3gXjYVpXepEe$XfdHX1WvS",
"SiqcySVkEjhFcclijiWLXLELlaZc7PoA8mo5HzMfh2dmodGfkwQDuut9OtuKJGdj88BmZ2c4j45gLPcjlg5Z7pXX8m3ovuk!rzTnXFN$sb13XiZbiY03jPMYUe7jhEFe",
"UjigfcqQylcA4fghhipZZlyzYmSWbpAAvoEAAlgW42l8dszGD5QGNOQA$9zrtTZLU37abf2i54liVZ42ggdVibkpGYvxettLrajNQoGsq7LmmZVhHFAMZZ2l7hpmvDq$",
"eX8XCYQGAfwg44fLjYckZmoSS2YWmW8NyQFe68ZL5wXwM78kvx$ttuESOu9!qny8CvZwaobYF5YLLMb2g2jhmhh8YFGQG8TrtGNcrxcNPsXcFZYVeYqbF5a5ca7ymAiq",
"nAZX7DtQbIo8l2jgh5LhR8NSVAoHvmGtoYbsLkPL7MVmoeexDrAExtnG9GtzGw1kxoZPmBhRAPjljgii44ihXUmGbWGznsT!tzS6$GPnopjLMX1c7YHdcZ2acLCoGq16",
"o0CfoxOQKP0h07ldXhjVmm3nfBhlihIxSSGdKwvj8jmvCmxGXtu!HGG9trFAz6gkskBGksB3kjXlidXgiijh7VpA5aJTYCvGbSRCqNPc8dpjii7A83Ihivlf24oyCmkd",
"xxAPoxOtxm0I3C47Lgghj7fzXUJfJLaCVxIIljovykqvmoNmENQtO!x9uIQu!ovSkvSXzhAvjqjjgg1XilYwab11bTfODPTfbHDEAnKvTSigl45PWVXpXCj5la7ljdTr",
"vE$VDq!APSCDhmgLgXjg63zTbb36YYvDMcHSVavCyqGIyNoE!txx$!OOru99FrKJCynSiSLfUCUimidjLlZhiF7WhkD5kCkeUbExEGAGYiLj5L5ZFmp3oxblZbxhM2rT",
"btnjxetGqH8HR3Zdg718NDXm73vhe18sg2eHRPxBoKetOuO9!!tsAtTJC9QQA5CCvgccpJzoIIbJmijgXXi3FZYZFvdkDfTfxGGttGRKTsg7iZbp7hiamtv1vwfSVvfx",
"ebT!SzxeEPSGvbnJ7CvNDdf4XNRnVVPZFwZ3HhbzfjDtuh!tAurTIKKn3!OSKYdWbKgVSJQeyxQBmXffhhHp1ZXe3vyL3Xn!ueA!ZsrHCHX7lYGv1HPJD!NGZj4LGs5x",
"gqTNTB1vtrWEtWI6yDuNPZsn3CzkiZ2aZjYlsXarJtuAIQtOtTTneO9SEOASZFbIPoedWvvvAtyUUghg3hpiib1lFDeUj6nOSS$rSE8FXjmEoGDz366VNOTOTCIYlLvz",
"oy6HDdqxWdoxPdsmGtOzZ8fAZ8SqP2w8ZjkmpYmCMlfnFG9$TnrzOO$!NOPSAFWzIP1MFWOv0WAWv24hjXWpZaFZMClmJCzO$sszCA$e3LmDExae660Nbf!nrZ6JieZj",
"RGW8qlD8GFsKFr8DtFOx5KzPPeqhSYwaLgmU08IY8XCm!OPnrnE!!$AOPQK!uKrfakb3i!vGxdscycffgj0XLZ1ZVV6de3SxzjDvvJSUjNCm8Srfmiv3VuTrKMioe8m6",
"RDvEZLyYPvrTDbtGNtQSzdv7v1hXsXmldhjfmmR0pyTxxSnrU!QNNuATF!$QDKFVzV3wqflGzq8kST2gjihYY2MlLwhhdzItUfxWtDIzVxx!qTBLCmo0YofrN4hJV8mY",
"DAxKAxtDD8fdMGxmD!AKKTMmds3CBUHcgioRHV$bEYeNzBfDuS$VqSrFGWEAHTTZ8IW8g24Fs0mzfPm5cpjgh5ghih6dJXhvmcvNN$APXY88nrUE7fogNrrON5d30CBh",
"vnbK782HfrTgCumoWEFSznDxn331Do0wahdV1R0Exb5SSovTTrzT6KntxSZFqKb6dXGwLMcvsSKiSV8P11Hijjh2LdU010qmFKq$AoNPskFY8kyLPm0mTCOOKcnmD1sm",
"o8mUD6DnnnCfNA5nutLKnTGJAzVvoz6gVdhfHbtNC5q8kut!O!xDGEvuAONFKzGmdZ5iffLtxd1shmv8hhXgIY11jjh6SPFJS6SKzNPrvvorToQf4Mk1nOuF0vnR6g6H",
"U6TefBuvrXo7!AFPuKsnfXLzRscjkxVhHJ13hmwePfxyO!NNtSTnQuGGGuPGrzLTgdcigfGDzWd2vxDKyWF1IjheYYihPPZp3Xsh3nTwo!mCvyNyCvOp99!NWsorULLX",
"i0ligZa2cTkTuxut!OPrPZSLpgp!hxkfB3AXZFyDoClD8zzTqxUIOuv$oN$Azzbe8JFYLLCXRSsL0XTQ6EG8PlcY1LWvHPAAW$eXomjxgkNUVVxlv!99Kut!GrESh2gb",
"AVb5lZaI5vd9zbFNAnKfgCll65ELNq6B7jg228G!GNvDFbRmfQ6CFZ!EAxpqrKsTFPFcamh60TqPwol6PqcYCww8mYWIFbWHWZpvDlabZQEt8DoKNF!PWGAuFGmzYw7i",
"lLVgg42km6NbsLfqKlVBP7c7VGxCEKzasjVhL2DbzdYmBdR6nDebbK9NTzpCTjgoLZlZckhiRHP6PFPvyEmAl7wRJVyqHjkCdE0!szlMEssWN!umGPxPAxJAuKnhnZAY",
"4k81VLmE6dtbSyEmRFymscmZhqHxzTnVfFXFhoEx7TffoBfsPzLvOP9rOGI8NsVUfw4LVUUj6eIqHVvx8xFSjiKUj7xYXcYIB1ouKEGoxzWetutDq9!tQt!vqQmffmA5",
"5yYibvDacktTnPSdRkkXn8KFEFigfPfzdz1mbqoFTdffdhgBumof!Tr1dNpH1e0Xj5laihhgfjgcymyQCfK7uDDfmXBcCoyoq03nTaFEyK8ctIWKmSEuOOFexTnfdLZZ",
"FAZPwbAbsztT$UXmGIyhHeWvyjjfg5dmoGbUpkmSScjc2lsxeySNrTOxDVbq0i2giM27pH3hXgUMdAoTvFttArQucAQZ8gDtupkNCwaZZ8koonund!NtAt!Kn$Tjlgd2",
"Pp65mbZRzJ9F$hkNS1wmXI0gHghkggjV0YzbXXdjFh7XiBov0mBos!SD1xqxS8YX2wL2Yh1jUBjhyPSoUqJTr9QSXxo783oCFPxdS2524c1YoKSmNDGTQPnSvKnT7aZM",
"FE0ih1FWRJUKovq1Zev6FbZsVim7d2ah11jh31iV2lMph0XfmWKvOnKmDAySFEfg2LZ5ahibgXi77AA$hkVToxQnnChd8m!EPETo9ya55aim0$xNGRD$N$ASErnmhXe6",
"bRBI6iWFi8s1tnXSZhDQJHUgcX2bg4flCmjhjiVYaaYhdh3khROonT8256Ix5Th4g5lZlWiLghhiMwBPUZYpGuTJSTdzLx0TNTE!5aA88ycJb7zEWIK3KGFnrnsVvvkF",
"apmKBXZZpVXy3sd33kDESF3IwhlZwggo7cpYVZlbi5Ih3im1DQSBCm725PwcFsndM45ZYZhVfj4klf4iFAqXNvAfzFxyHh8NKz99QZoYZdACWHPobFzNNQnrPzxyvZQa",
"UXzCH3h1LpXdhSmD33hRZdjLEP8FkkimDkLXi4lcVihhXWkvDGzGpsnndECxTTTBw5L5Ap3Vi3MmgB$kI0R1oHSPNCxEACxRSOOQ$6irnEqchVp3QFnxoEnTRkF8Fszf",
"8ExnjjMLXhLhjidXke3hfLgiwkYMm78wXdFmjgwg7X3VLc836nKrKXXwhFvnnKfhj5PWwhghd7vz3shoMo8dJ3EEZNx82NOKuO999EqDoCgLhh3RDSTDQ3flCClgch2P",
"kmzJhiLMLYc4CBsz0RJIj2wViC8okmksVPpmYaLjeXVPibYRKaADDeXowdqPrhXheVYb8VgifXdjwZqXcmdoXtOKkyQtOOF9O!OGAE9NEvSi3HkJ0PsdvniiijVdlcpp",
"modmU2l7cgl44cd36XdVYejM0V6q6mnjsXhPXZ2biWpbPF0qQEbnfMjabWjnm36SJWbqYqiXkXLdqyoUkmoECOOlUZ!9tOQOS9AGt9tt!!!p7pLg4AEWU1F0kg4cfLyA",
"jsvXsLc5g5a57fpmn1kmgkxyv8oZSBAdm3BBjjZXhjVh77hiesIkkmhDkTh03ghJhiXkm3oGkLhDNqBs8hvxxOEdEGxO99uxWu!99QGOQ!Ar8EqHDhdTLFpcdjgj2dap",
"lZa8GZlZFL5jVj3egLXgdfVTCDwaYLKpJL1jX52lgpak7m8VPZbwB5menfXDzsmjPPpyWqWqDvtXEoEDxmCQQ9QN!9999KOuG999QAFu!QZOxEDCosL8bHoFPggaF1Xd",
"bcJkZUGZcLofjhVbhgC3Dok2y2cdLWReYY7Z22aL7iVGP6voEvt!bTiDgBphBokgMbYVm3oxONfT6DrxNGptuxQu9O9On!uQ9999utQT9nzuQ2sAl6HFFvRMW2jMlgml",
"5GD8YfBigjofMwYhXhpdTsdf8aqYvzqxAWL7b2aL6LYbeXflFDxKrskwPLxeIJl2cZimUD!Dx6TT3UTXv0FFtGQu!9tOPOF99999OQ95uW9tttQ1UMXakbJIPl4pvo2a",
"fYdk3SqXhkkvhPJ3kD!!!QvkoyfSTmDvDZLDAMi0eiYkCfhlysZPYcjapGDfhDZ2pmmViEGu0Kzzvwdwis$tuQQOnOO$F$Q$OuAuG!9999PTnzzT6pwwZhiPMLPZ6TgL",
"mg1TnI66YlCVfJgXy!O!QuEGDY1y0EQHPmDuuC7ggghy!mCdVqoseXkaZ8rVL4f5w2GPMNDtRrnJAZddL!OFQDZZntOQWu9FuKGuQTAutnrrTfznULVigh13pwwMhofT",
"gkXk8hhpXyogjCC7mDNNNqQFIm8xD88oovtGNWhmXBjNNMDDXAsg3iYmo44g5225ZamLqNDOAWGmESZnCieADAGEJnQQS9Stu$$9nQu9tZZZnAfeKidVf1ZWMFJiCyTf",
"ympdhJPPjbU3voyMjwNO!Qtt9t8uNuG0P8xZEnnohzqOPqYE$HWqV3C$2LMVaA52aAwfEuxKTzKSnsHPFknHoxOuZ9!FTOrOA$xFK9ZOu!OGcndglqmghVVFpegXVkhX",
"Udm3ghV3X1ecAsZykv!tKQu9OO9G!O9CdsxFnr!p8!OHzP6ntoEqNHxqDodk2452EcSAPy6vrNutP3mbaQo8RlbOxKW$GGxFFuK!E9FGQ!FATPdfLLfj1FIVcPVVh00Y",
"gcdJz3jiXYLpC6cCsENPxSK9AQGAuOnrT0oxKxvtGtTfSWSOuz38TqXbALZZal4vLh6C7EzxwOFW0m0UXEqEDQQxrNT!NHFFxQtQzKu!n9KTrrovkvYX3aYlLdggYlip",
"sUdsXpZl7kXXy2w2dCOnQSK9FxAPGzSTdoZzEqpnnTreGO!sKB3WU8ESPWBL52l7c7migZStN9DxJgz8DoNxQ!Gu!xr!z$OzsxxGATQO$SrTvo3XJhoGoAJgfhhj2XmB",
"q1JggWiZlhwXk255dE6TEPQEuAPWEPnTNxqWk6DuQtOuuSTnKPPskjxL4cJhZc7cmaqojwso!tSPTOXxJ6tJOtQlQ6ftEKPnpu$PSnOQSrrFnrt!t!Gmnd44ilL4YVbb",
"R1XghhFVlligllVcYhJNbFveHSzWbSrTEOtG!!XhS6ISTTagSFMhCD5TTAmhlXpvdChoTXjdGEEn3miOebouQuTNGL!zxKHrm8ezbSxQ$TTSffE6qHFbm4bkw4FPwVpj",
"hihIhYZV3h13gcZWjBmltuW8ulW$KnniPAJTyhdm3zSsdd75XX2582dBXI0ghXmNNekjSEfo9OrrDSOJ6XNoNWz9KQQT0RJt85dXzs8x$zsz8NvJqzzsndIjgc4PiXe3",
"XjhbZPbbhX1gZ7FcjLcbGb44VBHTK$JbDhWKEB6Eo0koVLL4Bp54c5lYjX6fdmNN86DJzmoCxQrO0K!KdOENOut!ZAATmIhWkLhNZKSRWSfdkQkVEAPSeshL45cZwheX",
"XYjLbFFhVApV3Y5bcwyGaba2SZznzzsqIFvnqkTTPSJoz3h3mgYZcPZh1LidCEtQxuATfEnoxrOFDPuc!AO!9SFtATnsqSSFhkYNrksEeBRko0IFsAIzzemhjMZalF3A",
"0eg1LVi3YpXj3Aa8a3SZ5AcbVTKShVPGAcumfsfJB08p$hXXd27l2PVwjhXeYexEezDoUnz0SOtQF6umO!!tnKbGPTKSzhGxo7R1mzR6pJnqyg6ssAnTdmzJB1X3iie0",
"hYhXalYVbpXHYLM1mpbaZfshKzR33kb1VFaAPoVPq7pid3XkiLXaw4hLhIimJ0ER8uNJT8DpEFncaAOWPZTSZPDPzrJSdkod2D!gXk8bihCovf6dcZpEbUipi13VjXph",
"hihjLgZilIi3iiVbFZ8ZFli13U30XJ3YMAaAcSLmddw0113X4Z3VliheVWpIE$oJJPUKb!z!ArNZQAFAKGrPESPSrzla5yngfdkf6ozssV8gTXzlckDQSTj3pkmphYFP",
"HVaZh5jgaWvb3VJw8y7aepPmeYmUImq3wVD55acL22hIV0XZVWFpYVVphH1qp0jDxGCDGTr9AnREaPQSQNzHvnTKrGqyFxt5xDVBdfKqoWhVhllkwp!zK8AmLh13pXcl",
"1epZg5LcjbqeHXk0iLlYbhLhA3H3hPFI2W2g7jhF2Xh1VpbWYbe17Yjjhh1WEE!xxqJndrOQ0uzC6vQsGEnKTTrK6FmgD8vwWDsbxNoAVs3LV7DDNGEskDoggghk77HY",
"Vl0YccagVIXbdkpm0Emwb8ihm8Xi1bo0ooal2VXWaMHhb3WV31eZ33pX33kyvDB5cSrkvpNrhJsaDNAZ!rdfTfoT4cEoi9SfKtf8b8Zanm0UhiwZvATd8CC6Xn3XLFZZ",
"lWb7jgah21ked8qmDEoPAKh70phdWvNxy5xQ4Lij4gbppYHhehI1FZiVbYYciZ45TddtlytTozoztN9NrzhTTLQTkkdkN!lExRD6dZfzuE0J3clZtoSgCkdgikhjl2l2",
"aZb3s8johVVH1EoEQWCPovvSvwYixt!u!O8EDjjca4aYpZii03HMZ5ahViwchjL5ko!NTczs!qJf!N5TrxgOzvrk8dhjDxQNxtdnBvVQ8zRHMaXmdtT0cif3Sd3hj2c5",
"aWYb37yXooXi18e5zEtEDhXDETLmLD!u!SzqDcX5lcVacgVHHYV1pcgUI3hgWVyDNvTLrgYm!eJTxnPrTOOQz7vhxdfIvEGrzKrruVuxv6eBlgXqoh6eC3njJ1VIi2a4",
"WYSKhjXCDJBgmbZkPExK$YvXsfm2YZOtTTGExvoMqqI7aZ5Y110YpF1Xh7Ih7WoofnVrTeyy!JKSTe5sFurIrG8GDL4fOAGPnfcNut9!FPebYmAElfTd0XjV6edcX2al",
"PUCmXimDUfBjbFbbvtAYGPsnTwL7C2DxZfPdDrrTDUmk525eWH01lXH3hLii8pXSfTPfePbx!A0N9uxEbzOrEvNGVTdwAAQlADXEA!NQnSUAAcvhPPzEE8XXgiecMaLl",
"7EmymDEdsz46XlhvxEGFsTfVgXjUdd47PWTfTTIoPqp1YY7VZwi11i7m03o8cFhj1eJ!QFWtxaPxs!EQvG9eOQIzz6TIfZSS8NvtOOTzzUvDxD7UbSvEVmIfgiMXYLML",
"XmHpsErxooXDDqhQtGNxAmD708p1vBLChVrmEJfbjZbPjkLi3iLLXjhh3hmLw3h3PAIzHx5mmZrnufFu8B9EoZFTkrgoGqqKDNxotOOGNGE!xndIvNpA83nBjV2V1jwM",
"JsnyGrEtooEExAKxN9pEG0KsmhRyVYgZez066fX5c7LPgfdPjL2gjgiV3m18YdLUjlom6vogxqTCxtcBBr!NwSzYJCoyEoIp!u9!NOOPKyDfNTh8GTg7DGTihdVXMimm",
"B30dnGbDMAWgbeJy!9OqD9!oR0XdBA6hhVhvgl75bXhi7aiif5cijL5cmARsRgfIwbqKKLtTmdk2vdfSrONrsSY6yJDooKstxO!9OxzJAV06CTRvsfxwxCTSBgkg7oFd",
"hpdDXCmuAZcsRIw9!O!QOTuSvSI3$Rb6ZwPmvklg7YhXFcjLjj25LXi2yygihLhXmxKm$f!njnmVod6rOar5agEq$myCzKSGx!99F99HdFW3sKp8J8PvWrgcdjjlYA63"
};
