/* XPM */
static char * image_xpm[] = {
"128 128 64 1",
"A c #62bcc4",
"B c #71c7d0",
"C c #79dfe9",
"D c #7bcfd8",
"E c #93deeb",
"F c #a3e2f1",
"G c #93d0df",
"H c #80bfcb",
"I c #a0d4e5",
"J c #86c7d4",
"K c #92cad9",
"L c #74bdc6",
"M c #ffffff",
"N c #f4feff",
"O c #c9ebf5",
"P c #aad8ea",
"Q c #a0dbea",
"R c #80b9c7",
"S c #71a6b5",
"T c #6a96a5",
"U c #6a9dac",
"V c #70a2b1",
"W c #7babbb",
"X c #498c93",
"Y c #588f9a",
"Z c #5e9da8",
"a c #64a5b0",
"b c #7fb5c4",
"c c #7eb1c1",
"d c #94c0d0",
"e c #9ec7d8",
"f c #a5cedf",
"g c #b2daea",
"h c #85adbd",
"i c #7ba4b5",
"j c #769eae",
"k c #9cc0cf",
"l c #92baca",
"m c #8fb4c3",
"n c #7497a7",
"o c #698f9e",
"p c #88b3c4",
"q c #89bacb",
"r c #8ac0d0",
"s c #afe8f9",
"t c #5c8995",
"u c #5f96a1",
"v c #3b7278",
"w c #3e7e84",
"x c #71acba",
"y c #71b3bf",
"z c #64b0b8",
"0 c #5aaab1",
"1 c #4aa9af",
"2 c #d7fbfe",
"3 c #9ccede",
"4 c #83a7b7",
"5 c #577e8a",
"6 c #4f99a1",
"7 c #3f999e",
"8 c #92c5d6",
"9 c #b3e2f4",
"! c #388b90",
"$ c #b1f3fd",
"ABCDBDEDDDDEFGHIJJKHHBAAABCBABDDLJDGGEEGHMNHOIGPQGRSTUVWWUXYHZaaCDRbcbdefgfhijjhkfjhlmminleopWjVqPIcpqrGQsIrqOdhotuXvwwwxyyLDBzA",
"BBCDBDEDDDDEFGHLyMOLz0110ACABBDDDDDJGGGJGM2NMKK33RSUxbcVutYYHxyECzaaUSccWpfgminnn4fnmlllhnlnhhiVSIPrqqrGFQKRpmkn555YXvvw6azzBDAA",
"DDCBAzQEDBDEEzzHHGLBA671171AADDBBLLLHHJHNMMMQRaycVUUcrqV55YuYZaCAzaSSSWWiihfgklmjjehplhhm4TohWSUW3PI8888IIr8dlj5v5555X116azzABBD",
"ABAL0zz9DL6LB6tUyGJDBAAA171CBBAAz00zHKJL9MM29JaUZuTWccSYY5tu6ZBBzyxSVWpqphhdP99PekPilliWphTTWUUWq3P9M2O9FPPNfm5ntv5vwvYACAAA001A",
"F16N6yGyDG0Z0YtYZHJDDBCMA1ACCA00Z6!!HLGJHMNQQK2RSUUSSSUYuuXY6zCzzzzxbqqeedkeffdmkfmnmm4hhhiijTcq8QQNMMMO9QPMgoj4n5v5tvwaLCBA11$2",
"NB707zGGaLDLyby6aHGGDDCEBBDCCCQxy!!!yLJJJEQFQOMMqcSWxSUYXYXXaCxzyyyyybRqqqdefkhTTTniplmhp4jTTuVc8PPOMMMN9IPMf54jt555vvY6zLBC17A2",
"167776JKaz3XxJDLADGGDDNEBBBBC$MNcY6ZKLybKQFFG3OOqcWWxSUXYYY0DxxUyyyyxxSSVSheffhnjjoipmmph4jj4WSUcIPP9sNM9K3Nfotot55wXb3OXX!7C111",
"z167770LZyZtZX6ABDDBLDN2BBBAB$MMGbQJHGHHJKIIGHySaSSSSauYZuDESiiSaazyyxybRqWhfgmojnTjhpmhiii4nhdqVdIP99sMs8r9lj4lm4vvZxcawX!w1CCA",
"7!!777106D6x6!AFzDDLLDBBBLAzzFMN$$3GM2IFrRKGIKLyBDGDHyuYZCEUViixaaayByybqrpjegknnnojohmh44hioohdqV3s9s$NNKrPhen4mnjvZNJwuZ!6MCCC",
"C17!!7110BXZ!!!MKzLBDDBBB2L0yHN222$JMHs$$EF$$$$BDDDDEECLCCYuViixSaaazLxcqqqWpffmihffeo4hhhppjTVr8WcOMOs2M3ffihkTnnn5YLZwuXw77ACN",
"CCME7!770AX767!!Nz60zLLyzHMaycINM2$E$E$$$GGs$NNFLHLHDDCEEZXYUVSSSaaZaALxxpqSieffeegkkko4hpppqpqKrcV8M992MN9dije5wt4TYuXvX!A!!XCC",
"CCAA1110AzXA$7w!!w!!6aza6XzPLegNs$$F$CDEFJJF$EONLyHJGEEyBCZXYuVSaZZaZ0CKqVWVWkkeekegffnj4plM2qqrRWUqO9POMMfpijpo5viVZZYwvw3X0zAC",
"CC10z00ABZX6z066w!X!!Zaz6XX3J8POIDDBECCC$GGF$$FN$EEEEbYuuDB6XYuZuZ6ZYaDEGSTuWdlmlh4lkk4oohgMMMbxSUc89Ie9NglWiiheYwouuuZ66wXZzzzB",
"EA77100zgM366Na6wZ6!wYabSgXXgHLDFCA0zzZZ2xRGFGI9K8e3IQ8uXXAAZZaaaZZ66xH$QbUUplmplhjnnnnh4TpqOfcSSMI9gfffelp4WiWkl5wwwXXXXv6azz22",
"117!!!700XOPaMMX66wdMOaSSya6MDyALC06LJaVHH3FMGQKcdPPecVcKcaBBLJJEGJyybJFsKcWdddkeljoooommiUVqedcqO9P9999dhhhWplmk5jWYwwwwXZzzD77",
"7AA71A07!XX6X!vvNZVxSSxSSRHyPJLLBC7wYGFFQQFGKM3UfMP8ijuYSKJSBDEGJKKPQKKG$GHrKffgff4onno4phWVWdIaLP$$MI2MeWhlO2M84impZ6rXaYYyy2!!",
"7CA7NMN7X6XwX!v6aaSccRbRbcbLyJDDDC7wYZQFssGKKQxSNMfhTVWSSHQRZLEFHMMNIsIGFEHrIO9fkfjonjnj4iVUcd8yzEEEGJPNdpdNMMM8n4m4XOJ!aXXyQ677",
"1C17OMM6!Z6wwv6uYUUVWcccRRHyHyJLDCBXXYHQFs$sIxT2NNPioWN9KKQGxuH$C9MMQG$QF$$$2M22$$WWi2MjiVWre3EzADCDDK93defIeddkjTT5zDDwXwXz07AA",
"7AA77B10666XvXXYuuTuViSiWcxLzyKHBCDHySRKGrRxZuuZUrPlp3sssFQQRUiGEEOMSr$N$JRJQMM22IVW3N2FEJqeIIJ0MMQAHGfdP$OPdqqftotYJDLvvXv6!701",
"7AA6!71B0wXwwYXXYYuuTuTUUZaHHrrJLDDLyyWd8RxagNSVR39gg99PFsFIriW38G$EDE$$$sIIQ2M29PeRG2sFFFE$$sSp9QDzDIqes9Oflel5oT5cKJLwvYwv!!76",
"A11!77zDz!vwXXXXXtwww5w5XSZ6ZxbyDA00yyxrJHxayRxyrKgffPIP9sFKpThIGQF$$Frr8PsssO22gdt4hmPO22sEFDF$$rZ7L2qf$P9qemtjnoY2GJL6Yvwv!0AM",
"D7Az16BGDz6vXXYXvvvvvvwUfZ6XwXYUDz76zLyyyLxZZSZIrKPPP99$9P3f4o4PI9$$2GrqqrKP99PffhonlmmggdWWG$$2$FUYRMRIOO8kmtonjtW3KFM6zYXXZzzG",
"A1CB71BGDDz6wYXvuO3GXXYabHyz!vw6Ez!!70aaa6ZuuZZ$axP33PPK8bWkmoigIIPF$rr3I3e333e8kmiTojpgfioojpP22$$r8QrM99gkoooooTIHHGGXzbxaaZ0B",
"7DNB16zDNMEJ3wwXgMNfXxHKQGBBZw6ZAME1!XXw6RJqSZZxI3Sg8dqcqdTTfnnPeql3GqrPs$9999OOekePg9O9hinnihmM$2$F3Kqe9ggmhfIdVTKHbJGZSrcZuaAA",
"!72D7!7MMDz0LyZyyXZLJyHHH0XMLwZx0MDD0zLaRG2FKyyQNOMOQdcWp9knjeieepdIK3M9sOOOMO2Mgpmf9gOOWhMlh4WE$$$$98dpkegOIergpTxIHEJubKyuZyA1",
"71B01!!AD06!ZZZa!RRybHLZXXXzywX07MBDALRuRG2FFFFMcc8fOPedppkknnfePef$INMO3gP2MOO9dinojpPphiiOMlVW$$C$88Tnef99qqRKPqrFQEaZHKyaayz7",
"ABCDA71BA6MZzXvXLZYuuUxRcyHxZXv16G6ABJbuxGQsF9OUtTpjjplefekegiokfee293OWWlcWhcPOOggfkfP4ndjhbWizCCBCacSq29998de93pRKGyYSrKRSyHy0",
"DDCDL0zJxay6y6ZyZYvYTnVuUqWayaX1A1!XJGKcHrQN9PdtooTommhmhonmdghiPjTGl9cpO9e8ePPdmkeminonnTiTSULz6CCCH9HxRs9OONOmjtuqNyYyrKHbHJJB",
"DDEDEODQJ0XX6ZrRuYwtUjVutpJHHJ0BD11zLHr8IKr3NIhtYttimmlmnonlhiIWdehQpjg9MOO9fl4j4kgf4ooonicpU6zzZ0$$EDzZaPglhijnotttUcSaJ3bUSHDD",
"DDEA0DEFEDzZGQQ8pccqRbcUUcRzzJzBBALJZaL3K3RqPMPuYtTWmplmjjmlTipgOII8hhof999Ogflmkgh4fnooTlllVYZ66J$$BDLUWPhnnnnnnnTTc8rZrc5twzLL",
"azA!6BDDE2JHEJFIFQG8QFQI3rrLHa11zBJJ6ZyKMIIrrJcuYYimllllmeNqV8g3eNc9niin9fdWj4fgfmookk44ek9iVWa0yGQEBDLSettnnnjjnnnir3r2YuppwbLZ",
"LzC0zLzB2MGHGJFyyFGIssrbgr8rZX77ZLHH66zsMMIQxYttuimdkkddeg2ccI99dqKcninikfiTjilglOnnMNNgW4gjSKHMLz8$CC0rtvonnn4piThp33xXWhihuH62",
"EDE1LX!02MEJJJQaaHFQIKcO284u5516yyLH0!a9ONFGrtVjU4mldlddOM3SqQPeSWsr3in4nPnTn4kmk4hjhfflhlgVxKJzZzB$CCzxvvonj4eg2WNGQrUVmipUGafM",
"DEE1L6z!G$LGLyQJKEERcrNgptw5YZAzHyLDz!aqqr2MH5ihWimlleMMMeSWKrqVl8F$3n44ofTooohml44jhkkldKNSaDzL2z1A1DBwvv5tgkf9djqKKSVhlqxNZ6aB",
"66BF0By0007GEJEF$sIQN2eptvvtRBC0676ALyyWcWbRYuj44hlld338cc32cSqfgg29gjtoofTotool4innlfgPONM6aJZyD7711B0vvv55eeefMlMrbkVpbUMu6X66",
"Z0B6zDLD16zEEGGQFGr2bdhot5tex1A!6A3z6MRxUSSYYhdlmlqcW89sq3MPr3Igfg$fejn4eeoot4tnooolfNMNOrZ6zHLAA7171zwv55otefqphhlrcMuYZSaZXXZZ",
"ayDzDz0BDBDEFFEFI9LaRqUTnjfdZMCCCzA0zyUUUVSXSlmmlkegOUqgdq8c2gdgefPlkkkgehoootj4ttikiWWWSZ60OZyAz11176X55vt5mfphpppqWMuxbHyZX6Z6",
"0BB0zABMDCEEEGDBDM0yKKKKIFEE$F$ECC!0LaUxZa3Ylhm4mlek4UciqpeNf4hkPfskef99PmTToolMM2ITtTVVVzzzXYZz0A11!XYt5v55jhMppmqqRgNZZZYZX676",
"1CC00DA2BDCCDE21110LGFsKxuXkKF$CBAAxZ6aNZZOuemhhmkehiUie9MOflhhd99OPfg9PeePMMff2MMOTtuVSxyyQXYqQAB1!wXuTtt55oYTfMdrqbWcWgrJN67!7",
"ACCA1BEDABDDJH0az0axGGGSuYtrYAEs$AC0X6yHyzMSlmmmkOTUWlkPefmmmle99s$Ped9Pl4hmmleO2MOTuUSxxzOgX6MMFDLwwYUToTotwwwZyprrbhWT5ucg6677",
"CECz00LDBABHHLLaxLaO2JQKVtTxXHxFGEBz0aJJJHfcdlmlVUSVOgelhmmmkP99I2MMqqgemmkkmlMuTIWUUScyyLM6XuFPNMb5Tjiiji4juYYYafM3cj55w5Sy0060",
"2CA0660xHDDJHSHZLy000yKFIqc33gpPJGaaBCHJKbYSchhhucV3PPkmmkggOOs3IMMMMf3h4hlkffSoS3ZUxbcHq2xXXZx3riTjmmmphlm4TuUW2Olqbu5tvWRRLLAD",
"!!!7XX66Z6zJK8RL0000ZaRRRrOOOe9NtYyrECErrUYutimiTVc9fffPgggOOs9PF2FNMM2eONggfmVWPSUSbq88PqUYXuy8WjhkkmmhhmkmnoVbqihqcUtvXyLLLA61",
"!!!wwwX!!wwwXXa0N0z0ab8KqWWSqdnnnnor$$E$HxRruhepUUfgeegM9Oss9s$P92sphkfdkk4lPlS2rZUxbq88qWTuuVHcVp4mm44qmkkmmmcihlllhiiWcrLLHB1!",
"w!XXwwwwwwXtuY6$100zHKSoTb8W55o44j4OqQ$CEJG8UiedWpIPfef9OsP9$sNP9$PWpojiotjkPrgMUxWcqdeelWTtuRcWi44ml4WYWlkeffbpleeepTipOKLyyL1v",
"!w!XX!vwwwXuuY!Bz0yHGxtihiTTo5j4o5nqNVuaBEFaq3qqqeI3K8KQssP$9MeI2$QePioWkPggsNMOZyyyr838q4nniRcVnkhmmpXwaclekeqlkefehotUKDz0!7!X",
"!ww!!676YwXuu6wzDDMMNRYWppqht5nTwniohppfMMM2$IePP338K8KIss$$$$$$$I3I$yrgMNgbxWxaLJJLH338qiTjbcWuUijnjUgZZWcdOI8deff8iUUUaz00A66!",
"!wX6zDEDJKHY!!X!6zJNM9SUppdqtono5nlhjkklqre8GFFPI3QQ3KdK2s222sqePeke4e$2$KrccrbrJOxzyMMfqjncccpc4mhjjjUZUxcMMNekeff8TjSSazzCDz17",
"0Zy0zDDzLJLPQ0!!wXzFMQISWd8rYojT5Th4nklqqed4UWK$$FEFQKlr$N2$rWlgPdkhnnjlRDECJyUYtwXXUrNNrVccWr8ddeln5tUUVaafM9edfg93UTTiaDE$CLAz",
"zazaaNGyHBz0zDL!w6zDM8q2Zq8Rtn4jt5t5njjhqeliWRrGGM$$$FFEFMF8qqPg9hm4jnTicVSxGCD0aYwwXxKMKJbibKI3qldhtv5TSSWR8embK99PgTTcJF$CBAAB",
"yy066MGzAAaZ0ADHa0LHMWU3uWcZ5illj5vw55Tc8O8ddKO2OF$$EHqrQNN3dI99PpehjnnSxxWcxY5XACA7Xars$KWWq338RcWho55jbxbbdpijd999MScHE$$DB0AB",
"rPzXX2GyyzaZ6aLsGJGQMSubUSUYupkk45o5YUrKZqf33OGrryJFRUTb392Me9s$9PPhnnTuVSx6X555ZZ00BCE$Fqcq88rNOgOp4otuSbbbbWihg9FsMVcJF$EGL00y",
"HYXXXNKyLy0ZZabQ$FQIPUtVWq88okhknnijWu82UqdeKRUUr8xFSttW3IfOO9ss9ghTTnotTUuwwt55YZUazLFE8rP3KpWhWcgepjtXuxcRchhlePQFPUURF$FGHyRr",
"OcYtXZJxLyZaxRHQ$KageutT8gIehm4kom4jUqUQUehdrZaW8KRsT5tWrK8Is$9PfpTooottojjXwXYuXUSWcRJGrq2I3chmeOqbWxtwwYUcqbqpeIQQrVVJFFEGKK8M",
"ONjUoZJxS6YHxx8IKarIeVtU3PmtmmkhnTpegcbVgmmdVMWUbcFIj5ojq3KP$ssIqjUooootoipwwwYZXUTTicrrRcqK8W4hcrrRSSU5vvuilRhqqPFQrSxFOQFQQI3l",
"plp4jarWuXUXbJM22$9IIWuThloommkmiP2M9IrUfohdurrZyQ3U55nh39P3F$$IhVVbqqVuVhc6wwYXXot5ooqKrRccPp4WcqqcWyWitv5icrpiq9sQrxZJGFIII998",
"PPfdh8Ibuj5id3KG3IP9Mqotoon4lmonPlNOeWpjlmgTW3WcIqWUn5opgs93KI99ep8FQQFcWWb6wXYXTtw5mlj3GrrpVMppppccrgRk455Tcq4i8sFFrWVyHQOMII9g",
"fdmkf4USTTvod3KbWcIsMqooj4hionejfghUjjnld3cN3bUPhVbdjtoif99Pepp3PO9gFQQLxzyZXXtTT555kfm8IqcWThNeqpRbdkgPlnoTSillePIFbWrLGNR2rWe9",
"9efm4m4Y5v55YZGGbRrFMpoihhjmkejPgii4m4hd8SuIIgKmjcI9loti3P99PqWpPP99QFHzZaZZaY5t5h4ohmfVrVTooohqdMehhmkmmlTi4llkd3IQcbIGrccqpVVe",
"K9ghno544tmTqrYHNGJI3omkmjTVUgPd9jOgeiTiWYTf8gPdlIs$PnoiKQF9Q38qfP92FLyz016XXtt5m44n4hmfTi4otojjefhjomkmnlpPdpmdd3IIRrQ8cWbqWVcx",
"KPglot5on4gUqdbuZHQITmkk4gPU3MeeMWd9ehljWVVqSRPfP$$$sdj48I3IIGQQIQ3GLzz006!Hvv5444ojhhmlhjiooonidkn55o4mnmkgOejWdII3qrKHWqRiccrx",
"8e8Wo555mlTSdemqrWI2t4mjk2gSMM9epWr8p8iWOcUTYqPfP$$sFepld3K8JGQII3byzz600!6Zvvom4454kmlkknnoonoTel5v5mmmlkegOgdWI$sQrRGKJaWjfN2q",
"bppjottjjhVpeThleqWpooUWe932MMbP9UrqRMgSqWotoq9PPPQPNSjhlqcSSxbJGRZXLzZZ0fYvv5n445opkdkepUVVTjioem5v4mllkefPfff9ss$$rRIQSTTihmlp",
"rqhjjj4hhhVUIfihcWVuoWcSVWNMNrQP8URqbScpjnTVj3OeI3qfSiWiiihqgUZUVeYw6HbxHXvw55o4ntmkeWVVc3qVTnjokm5o4lMOgPPPfgf99ssssKEJUY4mphqR",
"cpdlpmpVoTTZNff99IVtYScUVWfMMRGGcSUcHqcUhWjjW9O3dliWhihefklpkVuZS3iTRIrRGwv5t5tjtolhdeWVrIccVTnnkmjl4kPM29fff3fPO$$$$GRxUto4mO8R",
"bqWVjjTUVVuU2P9sO9ViWVSijWhqWuURrKRxIQ3Wp8hiPOONcjTiphlglhmhdTuUR8WV83rHG6vvvvtjtYlpkeP3xxbqWVimkmkkmkf9g9NGd3FQ$FFFscrxUVj4hWxx",
"qqcWhOMM2bSSKsP3I8Shhciplip3IqWUa8rx3sGSefpqOOOIcp4j4pdgklldKVUUr8WW3IrrrLwvvvwu5mc8efIQHuaaZU4ekkklfggP9PdO3IRbOFGJ3USxxTWepRrr",
"brpijtttTONq3PqxxVbqWWWi3lWK3qVWxcRSIFGqP3VF$$9rcdfkmqlddmipgSaV83VW2GJGHLXXvwwwvuXcIGJLzuXXXTilekf2plfP99P9dgpK$F9RQUuYUU3fgcqH",
"ViWh4ojUtUcrKKrxRrbWbWWU8bVcVZWdKVRS8QGO8S3s$QdbWdfef8cWWjTUxSxarW5YbbHErRHOXvwwv0z06zA06667XU4lefILxqP9O9fdWp29FFKOscTYUUcfPhpc",
"SUiMNniYTirrKIsFs$22HSWTI8US9U8f9xOObQFGrGss$G88cqeffdWWciTuxxyxHUYYxLyLMQBHavwwwzz01777777!6zHyxx66zaPg9IrqqP9QGPssGrVxycWTTTpp",
"piUpjhjWWd8RRG$$2NN2$FHx$Ms2QWIf9cMMyF$$FF$$sKNMRcWhdbWRcStuxxxxrcXuSa66Z6LBHwYtXyA177!!!77!1AL07X0XgafPPPONPP3IIs9FFNKzaUVihhhp",
"pbn4llVkUUSxLJ$2222$$$$E$2$ELQ9sQKNMGs$$$2$$QKQFGcVipqcxr3hVyxSbGGxZzaYYa0!OOtutX1177777!!7!701!!77!!J9fP9$9999PPssIPaOO3qq8pipp",
"cjWedUVbIGHDEFF$$98SUbdbRBDLLEQIHJO8$sFs$$Os8rQsFRchee2q23dIJLRIFQyzxaXXXXZXZY6XX76111z17!77777v!!!wwR3gP33O992OsFPIPHSTTtjogeWc",
"VWgIqUVrFQDDLyJss3qcTipVxyQGyaSxaxyFsFF$$$$9WbrKJNIkkgNr3e3OFGF2QHaLZ6YUZYY77607!!!11017!777!7!!vvvvwZQF39fOFIOs9GGFGGbYtpmoU8Or",
"33NsO8KrGGHyxxRIQ8pcTjhURKN2GJGJarFsssF$$$NqVSSUuUefkgffeld3JGMMQSaZNyYUUZXX6700!X!6A11!10A177!!wvvwXXOQbfPQFFF9I8HLJrcYummop899",
"q8IIr3sGrHbSSSyrG8qqThlir8KMG8IJSF$FFsFs$3cSSVUTotpPfggfkl8RRGFFKaSZbQcYXwwX6!!1XXX6Az17AAA17!!!wvvXY0DDKKeGIsP9PPGBHHSYYmjq83qq",
"b8PP8KsFJHRRHcWVRd8rTpdqxyZMaSyLxFFFFFFsGbSWfNTt5tYQ9Pfkde8xyHQEHaaVIMqUVuvw!1A76!X6z071ABA1!!!vvv!XXzBQL6SHLMF9ssGHHRSutjTW88rq",
"qI22QGFFQIQFsssKxSWSVde8ZgbHJKHyJsFFsQHbxUSSxcVVYUZ8QefePNrxxREEGyVx3rTTcRXX!zCB776X7777zBA17!!N!!!!!BAgQ6606aJGsQHycdbYYYTxrKrb",
"8QOMGGGIFs$sI3IFFI3IQ3k8uMKGGQQsssQGHSuZxLyaUVSWORHyI3fI99JyxbIFsKccHW5tqHz67ACB176600771BCBA1!2!!Xv7BAAD011X!ANGGzaH3KStYOVrKqc",
"3FQ8cRRcK$PIIJHRJJ3I33Pdb8MgGFsFs$bUuYuxGGxZZUWWr$ERId8Q2sEJLqKs$F3rbjvtRyyL1BCB77161BA1ACCCN17w!7Xw0BBABA16X!70LG29RGrVugMUrIrq",
"3IRRWrcS8$P$3JJKMNGK3I9cbW9IGF$$sGSTuYcFFQaTiUrbEsKLQe3ss$$FJHJEs$sGWTvuRHyK9CCC1ACADBDO0z0y0176!Xw6ABBAB17X71ALAAzyLRRUTNSVq3dq",
"8qWcbqSc8sIKGJGNMMHKQ99KrIsO$$$$sGWhqr9sFJui4UOyEGHHIGQPF$2$EDLJF$sGRu5uRHLLBCCC10L07DBgzZuUbXBAwwXzLDDDD6!w71ADDDDKRaOIUVUWpdqq",
"qcWWRRbKKsIKJr8MMQLF33IF$99ss$s$FKq83P$$sxjhmUZzyLyyJJKI9s$$$EDGEQG2RuwYHCCCA0ADH7yz7DDAyUojrZ0116!60zELB0XX66zBBDHyZZYfVqbb83I8",
"cVWWcr92KOPIG8KPMsDGQ3Qss999OO2Qrpp39sFQcujhiVxzZZzxRJKQs9s$$$$FGGJHxXw1DByAyzLGxwZ06JJzRojh8p!XB6!!X6BDDHZ660000zz6Yu5hS33bpf9e",
"SSWpccxS8$F8r83PMFEKIss9s99s2O2MMWh89F3RutjhiSVUZZZayGGK8PFFssN$$EGGL6vwyyzyLLr3b!vw0JRX54mmetwX6AZZ6XLGJJa60zA0066XXutUS93ldPPq",
"VVVWWR8KQs$OOPIPMGG3sOF9999O9NMqhNMd38WUtTTjWWWUUUZZa88RePPIrJQGE$$FZwwYRHyLLHe3rwXf6bW5jikkfluNuA6ZZaJsEGZY0BBA006XYuVTq29fKI8b",
"VWppd3IPQgPP8dqKMJJK33g2OOOOMSuttYTWccOUtooonijTYuuYYgcRlllqRHJDBC$RuXYVPHLyLr33KXwwYcitojiomleb2ODRLHJMGEYXaDDAz0ZXYttTd9938KKc",
"bldppdre8ffeddqKMGJqlqh44llWY5wtXXuuTTTototttottXttYotujmlllHH2LBEEcTuSLLyJLyyHrrZvvZyh4kNdjmee3SxMM9HJ$GIYXaGEDDza6XtZTb3eeMQrW",
"jhphpppphqd33eQMNMgRhjnotnot55wvXwXtttnnooot55ttYXuj4t5ojhhxxyLzABGRcHrJHrNLyyRHRz6ZyJ9MNfeMpPfIqRsMMRyHFruYZRMMMJaYXYYScqIMNJRW",
"onjijiWiiWlK3NMQGOriTt555t5v5twvvwwYoojp4o5555tutXUjo555ooTuuuZZzBCJHrGKrcVayHJHyyHyKeggfNfUii8KrG$$GaxVSiTuZyLJLLLZXYUaxq2rcGHT",
"TTTnUjiiiiW83OGJJJZt5v55j4nvv5wvvvXuYYTmh555tt5OYuTt5555t5t555wwZADMJHKJcuYaQBBLLHHWIPg2MlUldqVxRKFEzRqhTUUZaRJJEFFyaVxaZSSWrN8V",
"inTnnji4WiWb8GKFMV5v555v54nwvw5vvvvXXYSWi5v5t5tYTTYttt5tt55wwvtwX1BBFOMOxuucGGHzLrlpckedWildlqWRcrJ2ySWWVT8xbKGEFEEQqSZYYUxW3$Iq",
"2hijjjihhiiWbRqrbo5v555v5njtvuY55vwvw6RhjonUuYuoouuYuTnot55vwviWX70zL8KrWSgIEGHaL8dlkfedjWr8qcSPSrRzZuVcibMHGssFsEMNsR6XUVVrP$93",
"Pgmiji4WhhhWhmlpUvv555555Tntvtw5wvvv!6bbhhlpijUoTTVucnjnot55wwVbS60ZyrrRcq2FQGz6yJqlef3diUqrRSVcSK8yeyr8xVRHGQGKJKKKJRyuUSq3Ps$P",
"fklm44ihhbchldkhtwvv555t2Uwvtwwvvvw!76SThpdlpWnojWxUYTooooot5wuRcZAZyrRWcrIQIQRayKlleIedWUcRSVVbHrIFGy8rxUaxRbgMyuuuuZ6VSp8IP92P",
"3kkdmhhpppcq88pU5v5v555jjmvvowwZvv!17ZUTh8qqcSTTVcWStooonnooX5YVxZAubJrccrKKK3dJrK8def3dcVUSSZZRGVG$$FccSaZZVMktTuZuYYYuOOqeP92s",
"ekkkphhpqpbR8JU555v55tjmUwwSxZYvvw71!yTYUccWfguugcrbtooonjjUYXYZZ6BZy9rcRr8Kdrdr3fe8ef3dpcWxSZZcKRxs$sGRSVVUOgojVUUaZ6uuTMNrI922",
"skkeNWcpqRcRJruXuVUVYTprUvvUYwwvv!1!!HVtuffSr2UTVc8htttooj4SOX6677C6aGJbIOGIIffIff8eff3dcWbqcVUyHOxBHG38bSVcPOlfcqRyaZuTTf2ceP$2",
"2kmmdppleqqb8RtthqdMVUgMuXvvvvZOw!1wXLbuuYxS3fiUUViTotooon4WM6X666C66yOHJIQF99P9P3dePP3rSVWqRxUcrGGDRxccWSNMeMcqPM2bauZUUUUcpeP2",
"$94jmdeeedq83W5oqK89UottXXXvvvwr!17!7zHVuYZHM8hiUTYtooooonj4MY6661C16yMGGQI2IIIP9Kr8II3qSSVbRWaRryLErbPfWNNMNVSr9NrxZYuUWUVdNpl$",
"$F5vjddmehh83V5U8KrUuouYYwXvvwv!1C!!66J2SZZaWVhl8WutYoooTnniOZ0Z11C00yGGGQMIKI8PN8ld3O8dqcpqrRyZySxEHONjijNMWccicbUUZYuTMdjihhmF",
"sJvv5meffdpdIbuOOJxYUVuXww!wvvv1CC!76XH9MbxZYtTdq3UuuYoTTnUicZ006ZCA0LDGGGM2PKWrQKd8PIrf99PIII3HaJyERWTjiOkSVccWWxUUZuU8di4hlkek",
"hRXv5me8rbbr3JMMJI2YU6XXX!!w!wACCA106XxHKQGSt55SqqRuuuYTTVSMSaz06ZACzLDDJLbJ9JWbGKddffP99O99g9ssrQyGcUTohScaSSWcqcVVUuffillmmkmk",
"otZvTfIqRaSbGGg2$McuULXXXY6XwBCCCy0z7!XZyQMbYttY3ceVuYuZaSWxyyz06azCzJGJJHyyKGbrG3dpmefP999999ssQRJJSUTTiWWSVUgcppSVUUUillh4h44m",
"otuad38cSyHI8KSUZwuVVaZwvvYZ0B$Cxy901766aGMIutoYS8d8VuuZUSbcyyz66axEaHGGGJyyHKGKFF8lhefgO9gP9OgI9PF8bVUVcxWVScNfhpWiUTTmm44hm4m4",
"nooUG$KJKQ8pWWTihuw6ZSwwtvwXAEJNMMMMD100ZG29xtoouRIKbaxZ0Scbyyz06aL$zyGEEGHyRHKKK3fe8f99999gOgdhqP2s23SxSSUNNSVNppWVUuTl44mh44mm",
"joopqebDEJbWcSimcpuvwYvwXv61AyHYYRzgs06A0G9c8VtttTRrgM26ZSxyyxyZaazCB0LGEGJLyaxbdfN2MepdOg9O9lplkd$9NM9K838323hMgqWijTjm44h4lkml",
"4jjdpkjuRHKrHyRJKJuwwX6wv!$A00zXYXX6yZ6zzEGSbdhinVWOMIaaaSxxyyyzzNHAC0yLJJHyaTnilNOggdTVNN9glmefgg2eP99s2MWPMpiWMm4jiimhh4helemm",
"hiikpeiucRrGGBDEFzX6X7zz771!!1gXZ!XZyZYaZJEypdpmpqRNFJyazzxxyyzzzHMLCzyybrryVVjjheeePljVxOsglfffggOggPIPgMPM3ciWkmjoimmmlkemhkll",
"h4ilpem4drrGEGJGEXYX!77M11A!!79NMO0yHSXYYUJJ38mdeKGOFEJxyz0zzyyR22MM2CLHHr8rpWij4mlePiVUU83ffkgPg2gffP3I9MMM8pWj4hno4lllmml2ellm",
"44ilmfIIIKKEEEHJrXww6z61AF90BM6EMMMEGyYYXu3cIF888HKQFEEL0z0Z00zaaOMMM$JJGGGK88Op4hlegcuTWI8fhmPfPN9ffgPf9PMNI8cVjhhihlpmhiikmhmh",
"hpheMQQQQIIQEJJ8cuYw0La!!7ww!wwGMMNFsJZYuu38eI$EyyHEFEGE000a00zHJ0ZMM$EEQFGG3IPphpldOPIe3Pfmjef3P29gggPQ9IOPg3butThkllplmhjlhmh4",
"kee3KKGQsQIJGzZSSTu60aZ6Z1!!wwwGMMGJKHa6VZIPe3K$$DBG$GBG2OLzAzLGFEzAMC$$$FEFFF3rrdqcbsIFF$8dI$Ns$29IIgPQIPP9sQxYtnohkkbdd3he4mhh",
"kkf3GGFFIEJHKaYZZZa666X667!ww762MMJGQy6ZZy93fd$JFGDE$EEEJJGGBLLJELHyQ$EEDDJGENOGKrHLJ$$$F$FbJs22222$qrGIQFss$srUtjjnkeqhdNedhmmk",
"kfPFFFQQGJHHKbZOMM06!!w!!77!!1077zJH20ZzZJ2rdrRHKFFOM2HxaxHGDBLLGLLJDEAzxxxSSVTotttttqgMgdeootVs2222$IKJJJQs$sscToonjkdldefmmmmk",
"J89FQQG9JJJJKGEMHa60NO67117!!7z1!0DHE0aaZQJyRHRJMFKJHyVVSazHDBBLEBJHCC0zyxVUtoo555oTojP9Mq9iottTN2$N29FGQGFssIFrW4nnnipdekdhhlhp",
"LKFGQFFsMGJJGEEJLZ6AMMME17!!677067DJEzZzyFrybbbrI3RSSUxcqHLBDDBBGJJzCBLLbxMT5oo5nntjjod99de9nt55sNMMN$9OMNFQsQFcikhnnj4emmjoThRR",
"MJQEFQQEGGGEEEEEJZ76ALOM17!6006!671GED67LFJHRHr398WSxr2MFFEEEGGGFGEB$JJJRWPlTtjotmoiiTifOPed9j5thNMMM293GKGGs$K8omdlhhmhhjtoiWbO",
"OEEQFQKGFEEEEFFFJ6610z0OM1760zz6!!!LGEy0JNMM2GIFQqWcKNOssEEEGDDGGEEE$GIKyddeggii4no4ijjjeO99Of4ifPNMMMsP3byRKGxuoihllinihTnhqcxG",
"GEQFGGEGFFFEEFEFH6Z1zzzABNOX00zz0670GEOGQJgMMMIqWVxJQFFsFFFDLzyyzyzCErcVVVkf9pOgppnh4i4h4ilffj4k9e2MM22FIyaSHRaYtniWcpijn44iRNxH",
"GEEQs9EEFFFEEFEEy6Z66zAAAA07!70zLLLJNJHKI3rSg9SVuUxKIIFEEEH06Y66666CZUToTiofdpMdlpnijn4pmhoikml9P8MMMMMNscZayyVutTSSxbVTjjjVbMxL",
"JGKGQFGGEFEEQEEBZY6NM60AAA0011!zLLLHHcSl38IrUuTUUWRKGJMKRa6YYZuuZaSCWhhiTnihWhggd4jniijhmho4e9OQI89e8I$2FyUUZZNOYuVWcqiUii4UbMyy",
"JHJrGFFDDEQQFFEJzuSrQz611AzAA0!60LJLyRxb3d8QbbNcrKGKJxMg6YYYuYZZZaLyhmkk4o4mhji4hh4ijjn4p4Te9$sK3K3sOOsFEMUazaZYYuSbbqinoviUcFHH",
"GJJJJJEEJEEINMNMOUSqFLLN1AAAA0!!7zDyyrWc3K83KrOrIFQGRax2YuYYuUUZazCchmkfenih44h4i4hmh4ihpWif2sFI33IsOI3II$MyaaZuuZVcbqWv5viUyGJG",
"M2JDLLLEEMNJ9M2QgZUxMLLB2C7117!!!1GyH3RcQ3KQIHbr3QFKbuYP8uYYYZaZZaCr8klefkinnjijnj4hmhmmphVds$ssQIPOIKKIIGF$JxUVSUUUUWv5wvxaLHEG",
"CNBAzzLDGNMDJGEELZuVLNLLDCA7!!7!6ANMQ29N2FFGGGKrKIQKWYwYMMMMPZaaayDrekffkegfflni4hpmhmpmlppi39$$s9$PqN93GKJKFDSSWVTTuv5wwtyzyLBD",
"DDDBAADGEEEEJGEEHxVxLsOBBCAAA00zDDJ2MMNHGGHgNFQK8KG8SXXYZrOMOZSSSEJr8ffeklmllfejnhplmm4nnjhpiq3P$OPqcp2rrRHr8GHxWiTuww5wvcJJBAAB",
"ADCBBBCEGEEEQKJKNrqHHJNFBBBAAABD$LJFNEEGKGMNNQIPQK8bUYYVWa6YzZaaHEJ8rKfgflm44hePlj4lmlhojhijpUWrIs3bhbrJGGGqrNqWcUt5vXtvxLLLDAzA"
};
