/* XPM */
static char * image_xpm[] = {
"128 128 64 1",
"A c #5e5862",
"B c #56525e",
"C c #4a4855",
"D c #665e67",
"E c #615a63",
"F c #635b63",
"G c #58545f",
"H c #56515a",
"I c #545059",
"J c #484651",
"K c #58525a",
"L c #5d565f",
"M c #645c63",
"N c #464450",
"O c #4f4c57",
"P c #524e58",
"Q c #3c3b45",
"R c #524c53",
"S c #60585f",
"T c #5a5258",
"U c #4a464e",
"V c #504b52",
"W c #4e484f",
"X c #46424b",
"Y c #484349",
"Z c #454148",
"a c #37353e",
"b c #413c43",
"c c #423e46",
"d c #31313b",
"e c #3e3b41",
"f c #3b3840",
"g c #443f44",
"h c #4c4851",
"i c #49454d",
"j c #5f565d",
"k c #514d57",
"l c #5b545b",
"m c #555058",
"n c #5c555d",
"o c #4d4a55",
"p c #44424c",
"q c #5e5559",
"r c #4e4a53",
"s c #6c636a",
"t c #5c5761",
"u c #52505c",
"v c #696066",
"w c #403f4a",
"x c #4a4751",
"y c #554e53",
"z c #383842",
"0 c #4a444a",
"1 c #514a4f",
"2 c #575056",
"3 c #665c62",
"4 c #74696f",
"5 c #595661",
"6 c #615c66",
"7 c #42414b",
"8 c #4c464c",
"9 c #595259",
"! c #3e3c46",
"$ c #4f4a52",
"ABACADEAFGGHIJKILIGLBGMDFGGFNOPHQJRNSTTUVWWXYZabcaddefdebfbggYgcYcabefbfafebfYgWRhXRiRjklmjnnkJkolKoOIopqrlKNPHjKlISMAsAEDttAuGv",
"uEEOAuuvBHFJCNoKJCoLBDDDOFBCJIjwxlSSjPmhRUyWcZzafddfgfdbeefgbaaefd0deebeebbdYb1yyWRRTqmrHKKPLOPOCmnkmkIh222mP3mlnlS4vFADBEOuNC5B",
"6sBFBuA5PMGPJlSIxknPLFBuutCNLvCwnrjlKkoJ7pU7cQ8fbafb00fYbgbgbaaaaefgfadffefegYbyi1Wypx9kPJjnlCNph3OIHPoNVlP9j9MojP3FDuAEEDBAJBBF",
"DEABFEMFOOuCIn3KJnolPGoNOPuEEBHPjP9nlCkprXRQU8zaafggYafbeffgfabddaadaabbbgfbeWYc!0$W22hmrjrONCNlSlmnCNQJhTTjSllKojMIHtMGBOuoHLMG",
"FtA4Es6BOklMLCH3ISooPJooJoIDIuFGJPOvlKoNlNUiw!zagbYeZag0YaaebYfaaaadfe0eYZbY080cc8RUUrplmoNklxoSjkrmk7PjHlSmjv3LomPLlLGuoOGOLHDA",
"ABvAtuGOuGEAOLLPNKCrKnPhKHIHMMnCom3COIkOjNx!zQzfce1c0bbgggb0gfffaaaaffefab8180Z0ZWiUU22h9NmnOorrmCkJmxyjr3SSvSCO7rFmvAOOOGEKHunF",
"MBs6GAtCLEIGBPolIjoNSmPOOno3MDtIPmlPPHPPJkz!QzQg!aZgbeggeeegebaadafagedeeg0Y810888YWUVrmhPPoOkNP7hPmOxlS3r3SMIICoPKvBBIHsSFnLLFF",
"tMvGvsBBBCnGOJSo3CCSnKmHFSv4ECOColInnoowQJz!!c8ccZcZQ8egebbbfabdagegfbdffYc0ZX1Y1XicW1jJxJJ2NkplkppJNrhmmmFKCONHKOjEPPkMGMvLEnu3",
"MMMDACBPOkLGoHnPPOmk9LllSsv3APIILHPLNONwV!wzYYzcbge8!YdeYbYffgaagbfeeddaY8WW10iW8ZY8WqRpUiy99hx9pRVhPJTSoKkSPkNOm3SvSnvss4AvADSD",
"tEAD6MGCGnSPBKSCokP3vj3vvvvOuPOEHHHOKJNVx7Q!!QYQZecc!QeYbbefdagabgdaddaf810y8WW8XyiRy12r22qNhrxRjrTqRS3jS3lCorIlss3LSL4sDs4DDvDG",
"BGFBEEoAOMMOGHIPCl3svsvvsEBOLKKGIPHP7mNPppa!cZ!!c!gcb!feadgaeeaaggdebdae8008T8W7y1TR$T3h2TRmRkyTSlvnSPHFKO3nNPjKs3FLvts4s5v4s6OB",
"MEts55BEu3LLCJHLnH3vFvssuGtsEIMICImoNpN7QwzXQQacdabeadebfabgbgbfeabfZaggfZ8yW1WR8TXiT2j2jk9P9llSvvvOSSPnkoLPjH3SvsDEss4st5455uuo",
"GtDvAtvFGPoLoIFSHMvvFMtssGBAAtJOOPNJmrNiUwiXzQzgabYcfbfagYcfcbbaeafbbadgggY1W7yURy2h$SjSHh939Fj3FMEvMPoljOSIllS444D4444s64s5uBCB",
"4EM5s5sDCPSSL3SSLKs4Ms4DEtBtnoPKNIPlkN9hX7XXQaaZfZZebafafeZeZgfbdaffeeeb01qRwWRq2qRT3jjjOO9SFvjnvlSPLHIjjSKKGL3FsDs444s466D6GGuD",
"usM4DvAtoPF3ELGSK4ss4t66u5uFPEKOFJIIpPJxwwZ7dfffYebdffdaebgZcc0bebfbafb081yXcWTjSljT39InlJOS3EBl3EInInlSvO3lvsLM4A444s4s6A4GBusA",
"G4sE44EsuH3EGuBKs4sBGsD6B5uCoCKIPPnJr777!zZzafac0ffaaaeaagYY0cZdgeadagb0T1i!WYRSlRkK3snKKmISOlJISHHIk3BLuBEM4Mts4444sDs5G66ABDD4",
"uDvssss5Av3vGnM3svBBDDDtuABHkkHOjLojxxpNzXzYeYbYfeaagbdabg08b8f0bffefb0yZ1QX01qylmjnHHKvkJPrlNoH3GSKHElvEMSv4sMA4sD4sD665Bs4uv44",
"ssADssOBBssFtvE4sEBstuG6AuBCMLHJSOxPONp7Xc0QYe1adfaeZbYaeg1eefeafffga8Z8ZZZZc1V2RPPHCoINCNorSjlLIFLokBAFAsv4sssssD4s444ss646D44A",
"sBtv46ts6DE45tMt4EsAOoMvCOHCLESCoNjklJJNzUc0ZczYeZY0Ybgeb8Y!aaafffgabfWccZfZWWXRrRPmNHNmNH9C3PoSLKICL4GMEsD4vv444s444s4ssD4s44D5",
"6Ds44DuBD55BFvEtDuuGtGtBuuGBCIOnoSn3Or$ppZXQQzbeeffb8gYce0cfeefbfbfefgfeYQ08ZQ8iQVwp29lHIKNJjmNKLoSC3AGFs444v4D44DssD445s66ss66D",
"644456GD6AEvD6BttDFBEtvGFAuOKPIjSI3SSokpUWpZZ!YcYegyc0ZaYefeadedbaebbbgfg88z!Q0XiXWyqrrOoOrSjOljPSP3SASF444Ds4s45444444ss6G4DsA4",
"4s55AD5D46655GDvvsAsFGGDtAFBOPFSSvSSIOJrN7wZZ801zY11bYeYffedddfddgagfafbfccQYYWW11R$yJmmOrhrHO3MLKLIMLsDv66D6As564s444466566A4su",
"DssusuAsBE6utADFD6t6OAttBGGIuKvSMGIv7JCxQ!Uiz0RZYgZ0!YYfaaedaeffeebffffgbYbc!W1yW1y2pyRPrO$lo3oKvSKLPEsssEsssss6464444DsuD55s4D5",
"sA6sDE4DsD6A5uEssOvDAvBuoEEPLSvFBDnJCINmNpViyWQ810y0Z1!8gbb0baaaaafaeefbec8YY8ZZUqqS2T9Pmm2PjoCHSPPK3EDFB5DA64s46ss4s456BAD4s6Bu",
"sBD5uAE4BBBABFED6Bs6BsuAutHAAvMGFuMPKKmxxUh82WYy2W0W00cZYf0aaffaaegeebefgZg801cW1yqmS2T2H9rJkOrlkkkNOEBB5GsusD6D6A46465u5554s656",
"6DAGusts6A6DBED46sDuMEBuLtvSvvFuGAGHGOwhPwRyRi2ic1UZ!cQcaYfaggfadgYeegdbecee8Zc81qyRrjrSrRNNr7rwNJCooPOIBot5456G66tsD6655uDB6BAv",
"6D6ABA655B6uGuEEA65EDDttAGtFvtBuBAAMnHJmohpjT$$wWi7zzZcZQzegfbafg0YaYffagf0ZYZcY1WyRTHPOok7NU2$NrNkRrOjIPOLEv5DEtts6su5utuA6susB",
"DuOtAtAACGBD5BFDvs6E6utOnMMLEttoAEuGIKmCNRq2r2xpVW!a!cZ08Zbbggg0g0bg8g0fabgYcY8W1pR2qPlrNhRx2RhxjrPhhONKSnMDvAB6BEAt6AuDuEBv5uAD",
"ABEDAAv5oGDsGuBE6DGENG5A5EBDGAtvGODFDOOCR3RjrjmxRwQzb80YYQcabb0Ye08ZWbcdfgYeZb8YXiyqHmSrRpiRTJRR$9rrrNrmFLGsAADAGGs6BCA5EtGED6As",
"CBuGGBtGBFsuuou5FDB6CGE5AtuvvFvvtEPvAoCOlSs3nJrJhiZccZZ0!cZY1WZcfbaaaedeb0aaecbYZZ2RlPmNQ$TlNTVRVTJ22mRlkLuEA6t5EEABG5uuD66v6EAE",
"uGJBtoBBBDBuNCnSEB55CBuLMGGsADGvvOLEtu3CvvsnJmN7iwW7z08c8b81RcbzeZeaee0aggadggbcbcRyPrJw!W2x9J9NRhR7phrrlKKAuEuGCAECOtuA55tGE6BC",
"BtCMGEGBuCJoOEPLOGEGEsGMAODsEsAvtuGAuuuMs3MPSJPJV7!zaccY!ZZ8Z!QcebafafcaaafggY0cYY2Trr77hUU9hRr7Vi7wpXQyV9PK3uPAt5uJBOuAAvOtOCNC",
"OIuuuBoAPIGGSuEOEvtAuMADutFFM64AEBOMOFOLsGnJKkOwzwQzcYYc8W01i7cZbebaaYbeaeegW8Zc11T2rRpRw1W2xPhx$hphhiVr9jkxCNOOOooCPNkPuPuCuBCP",
"CCwkJBkGkOHPNNCIKKLLGMtDBFMEDvttBBuOBCMICCOCJmQ7NwW8YYy00YXczQafecgbffebeY8g0Yz08WWyhhU$7URVrVh7RXW2i8T29rOrmJp7CwwzxOQNNGNNwkNo",
"ooKCHLlCColjPKPjSLEosGvBAvvsBDEuGOPGBoBNNIkpkNw2RWWZi1YW80YZZQagYZadgaYefggg81!cy81WXUhr$Jxh7hXUVxVjqUWQRx97rJwNNwpNhNhrmLJJoPJN",
"JJkoOoJNJllHPKlImnkSEBsBAGFEsDsGEBOIwSOpPKJN7Jw9rh7zY1X0ZYX8ZZe8aeagaeefebg8bZZy0cciZW77XwQpWhy$yVUTm2UXUz!wQNrrPrrpRrrrRCwNJKJC",
"HPkT3nHr9mmSPONKvjIEEGEBMEDDtEAAECNloKkKKwoJNppRlJQX1W71c8W0!babZceZY8gbbbeZZY8YZb18YWUiURWWyR$WUiTvmrpaw!iXyihRhpN2rqrxxJ7VJN7o",
"9xpPHmIlvOIPCom3vlLMnnEEF54D5D5BAOoKMKoPokk9J77$2772UU8i81ZzaQ0YZfYcgcaZYZ888bZZ8c8Z11QXWZqi2WhX2yqjOxN!YWci2qR7NQhxphRrJwiRx!2H",
"9xpm9mKKoPSCmkvsvsLL44uGLEABvDDGGutvnlkPommhiQR2wiU$i1i2WZ!cZeYfZ00fYeeY08Z8!b01YccW1X!1U2UUR$Wy222lkNxhU8ZZj$RhpiW$$RxrJNVNw$Tk",
"RhhV9mPIm3KP9H3E3tAv4AEFFE46EvAE5EvLukLOPKNrhxiVVpUpVR$WR7XQ8ccggZ0YbYcbZYzeY08zcQW1Tyyp2pqRVi2y2yTnPCN7$pWyWp77pU$hwhNJwU$XiUlJ",
"rxRR$2NK3looSS3LvG3sAuBtsDEE46GAtEutOBIHIoCQrXU$hR7yUWp$hwX11Z1ZfYcYYQc8W!eggYQc1cYyRWyWiTlhiW2UVjjHnKJRwiXi87!7ZUi$7wR2xqUp2VRR",
"VVRRRTRmnoOH3v44svsGDGuMs5A56u6DsEECuJOHl7wwRRUTxpWhRhWRWTX8ZX!zcZ8c!!0QQQY8Y8cYYZY8wUpUW2$UUR2Rxxm9CopJpX7z1XpiUpXU7X12NR2h2Rqy",
"hTy2mPkSKnoHjMMvDt5tBu5FsDDvAB4ssBOOoLHpJJrrxxRh2iWTxipThUpW7XZcd80acYaffYgYYcZacb8Z88Zq22RThyRixRqmKhwx$wUX88UiQU21iWW2TRPw2$kR",
"9rTVJ22v3FJ33EntBGAADBMssDDtt6sAvAowCIICoNx2yihyyhRyxy$TR$2WWwzaY0c!e0cbZgcZ8!c!QgYWiXyTi2hqJ2hRUqRlx7$z!hpZXYRcVUZi$T3TT9JRwNNh",
"2RhRml3vnIoKKL3OoAvuDFss4Ds5vAEvuNNJCkJNJQ97NVyhp$Rhyiy2JxU7izQ08ZbcZceZ8c8c0Qe081110TWThyymSVT$VhyPhR7w7wz71iWWWXU1jT2qjpP2rxh$",
"NRR7q3jllILSvvFsBLBuuODDsAuO5uut5uNuPoONx7h$yyyyUxNrix7h$VwQwaz0ZZ!!cc1c8YZZQZ0W8cYRTRyyTlqlrrNNyS22whQpXUR1yZyZ1yRyqhRh9r9m2Vyj",
"rixRjSKSnInSsnEOkLAtuF44A6CuFGAENJNHONkNxJ$phhyxiNXNV!WqqhpQXZZZ1QzZbY0cbZ8zfbYWb0WTqVy2mPIxJR9m9hjwh7iUV1RpUWU$W2WRx2lVTlPPmV29",
"JNh2qPjlCPjOIPOooLNOODvE66uF5ME5EEL3OwRr9ppRrRiw7wiRipUVxwQ71Z!beaZfYZcY00ZQe80Y8WZyypR$RRmwNwx2xrmQ7iUR2RiWi11W1$hpy$Rqkx9owJVl",
"xU2yrx9owmoooJoMKlCIvsA44Ev65sABECPNJQmVJ7iWUiQzQ!WRWXRVwz7WZiQ0Q8WQcgY8cZQccZ!8Y8ZiUT2$xhmNN2xRh9hp$UiVyRXQZZR2iXUi29p2h7JrJxlr",
"2Rl$Jq9IhmoPoHoKICL3MtE6DGsEAD6DuCCCwJpNVr$U!XQ!i1y2VThXwQRW7X!cW8ZZ11Y0ccZQY00ZZQYTq7XUVJxN$RVTPr!NipUU2Nxz8U2RV2$yW2wpJrJVhih9",
"hN9xw$RNjoxOOrkxpPKSISss6D6A6vBCCNJJPNNyRNxwUV7X!qqTqrN!iWwV71XWX1W11XYcec808Z8Y002W22RUU$72RRRhrwx7iiVRUxN7i88WXVxhq2NR$R$2ixT9",
"kpmrrVRJNNkkrkmxol3OKMDDAEA565CuOBPOPNxqrxQ!iUz8RyTRyrwp!dZwiX7W!ZiiZ18QZy88c8c1Wy1RUVhVhh2j2S9NpiQpUpiVXX!Wiiyi2$yqsS3l9hVRryyP",
"Jrhr$rUQpNRkJxxphjHKlLFDCBtuGCJOMGIKOohN7!2W1VURWyqqPrp!dZY0XWiiZWWU0i!X1Z0Y8Wc18cRi2UpT$i$yPOxQiURW$!VThi!X87Rqvq339q3lkllRyh2m",
"NNxpTp$w$W2r9RVhljjML3EButEuB5FBFPClKorNppVU$$yiTRSTJ77wcc88ciiQZzY08QzZZY1iXQXz!1W1yUpU772V77QJXUip7RU$7Xi$WXTjS9lkjjMSKlSp222p",
"R!$yTm!QQiyJU77yjlvvLnEFuuPOM5tAtCIKPJwNpy$WypVRqR3OhxxwzzzczYQQb0800cWc81c0QWZYWy1iXXi8712Xpw!z8XUi1yW7z1URhVTT9qkmmKMLKjHlrRJN",
"VpyqRNwQZW77qVVT3SSSnMsEMLnEFEuACIJNP7xhryqVUhqql$Rp7U7QcZY!f!c!WW0XiZ1W2V80RcX12R2iWVQXUWXXQaQX8iR2Th77RZUUwXyRqmorKnnKEuoNr2x$",
"x2qyx77w8ZUVqlx3vlSML4DM5uGsvBAAouCo7NNRPhrxxRjjPrRphVwX!za0Zcc0Z8!1cZZqWX18WXW8WyypXXicWXiQQz82iw1$xwQ17iUi7W22krOknjj3lSPJl9k9",
"ymyxRhNizcWV39Kv3vSvSMDGABtMGuuGJOCppxrrkmJpV2NkrhkSxxzQ!ZY8Zc0Yc8118iyWXTV2WZ8Ry1WpUXZiWwdzZWWp7i1i2wwZX1W!Q1qxyh2rS9llOkkoHmrJ",
"j2RhlR77WR1R3OmFvEMEMvuuG5tvFuMuAP7wyhRRlJRNVpNx!VNrNpzcz8ZcYQ0y1yR7W1yThRqhhyiyT78i8iwZQQ!YZZ8Z1W!ipwcU1c8!z1WTljhljHooNoolHCwx",
"RrrVjJyy2V8TRrRjvtOuMAutGuu5tMuGBNwrNRJpr2hx7$XwiR277azaYQcZcZ08WRR7R2R2yViiiXUi2y$Vw7!cz!Z8ZXY1qXXy8zZ1UV8QY8WRhkP9SnmKSjlHnPNr",
"7TN93PmVJRVR22jK3GCSMBCBvGSOEOPGuNNxrmRxhyVzUU7RU2pwizZzzzeceZ02TU8iVWT$VpRURXXRXhyUwZ!z!zZzz8ZRRiW1wZ8XWiUzcWWpRr2jHmoKPoKnjwpJ",
"RH9jjoRkppW2V2m9nNCKuCBOO7IkC7CJCzQ99H7!y7NwRTVRiyWXd!zzZfggaZYTXiW$iRh!X77!xU2pwiw!wzzQz0YabZYWhXUpXX8YcXQc81iUiNVRl3mknnxNCwhp",
"R92KkOJr9iSNRq$9CJNPPPGAGKFIoNoO7hrTo7wiV$pWT$2hTpRzzQQbbegzaY1!Z8RQWXi77!wii7VUXiUZZzZcYdfdbbc0Wiwi17822Ry1i1WUTRUySnmknCr9PJJh",
"R$PNpOR$2TyryJRRphJoNkLBHKkoImvKohxxwpipiV$2RiyhwXQdXYQ!cecfgbYcc1V$yWiW8U8Y7iZQXXXi87YZaeeacb81XQXWiX1WXU!i1UYWVwWVPC7prOolJpph",
"2yrhphPJT9qRTVRrRRNNlSHIojnoCIlIpr9rwQQVUT2NyRUw!pQzZbQgfeeaf00cb1T2RiRyX1WiX8X0i1R1$XZ!ceffgeYZzzZXiWWp87wXZXZXi2X2NPT3mKroNVVh",
"hTTrihhP9mmkpwNiRkhTmOomooCPPPKNwwxzz8i2WRNNxNVUUX!Z!8QQcZ8bYZWy1Ti$ix!hp2iUXW82iyWip7zQ!eafbg0YQZZ88Z71VXWXXZX8RiiRh$PrNxpNhppp",
"WVRxh7R2rmlNNRRU3x7RhkKPoOmnSIjN7pU7iXUWVhi$ppxVw7yXRczW80gY8812qW08hX8yWUXRqWiR$iwZ7ZWQ!ggebgegZY8cz8WW8Ry18RXyc7W2U!wwJ7wpw!QU",
"WRrpVXWTHhmN77hRTpmRmV9HPPoCOIOwpViii7UVVwwzX7$7z8URZX1211808yy2ZiTUhiw2UXqqWy2VhUwW!ZQYceffeYZ0gY8Wy1Rqh$XRTVXiX11RX222Rhh$!wyy",
"hV$URy$jHkpxwW2TVrTrRj9HOkP9SoPkRRNWpZiUiwz!cXRwc0y7U1iicZcZ1R11UyiXRXWXWTqRRUVWT7wZcZZQZZeecZcZY!q1R22TRpVT2pi8X87Uhyyry$hhQRy$",
"hVVRRVRVVpNip22x2SkJ2jHKlH93mKPJr9JrhW7WXwcX08Zz!1w!wQ1w80RR8T1i717UU1y1yVpr22V2NQX!YX80czbebZY001yWT2q2h2RRVUwwiq1yyThhRRxhQUyN",
"2qqTN22SxrR7Rx2lqTxkhmIjImlSIOoNrkpRiiWUiQY8ci0YcZ7cQcZXWYWRqq278VXXwXV$hw$URpJzzX708c1wcZZfb8W0ZqyRiVjr2xRTrwR8Z8RWTlNVp77!X2yy",
"2RRRyr2PPjS$hy2TkmRVj93nojkmPKoPlRrr2XiWWcYZ8Qiicyz!Z8QZz8yUyVRpZXciRyX$Ri$2NwwX7wZzzZWciZzcg0c8y21hR222SR$$pN2$W2qWqhRU$pp71ihW",
"TTSmljjPjn9pRT$jKPJP9qlIJJO9lJooNxhNpiU2$WWicYZwZQQ!1XQZ8yTRRRiiXZi88Qiy$RiNUzQXX7ZQ0Y01XZzbYYW23yR$1TjlSrhyh22yhRqRVRhpUWXQ1y2R",
"j9opl2m9jnHPPjmjONjm3jPpPkOmIIIKOlNphhRqhUW!azQcczQQfcZZ032yR2hNpRiqW7qWVwwipwVWQW8ii0yX1Qc0cyy3jTWq2vSjkOKrTS2pW$VNrrJh2R2hq3R2",
"JhmJ99Sj3PCmRTkkmxRjKJNrkhrmCjHHKSQiWVrrxN!!0ZbgfZz!Ze81Ry2R2RyUyy2WX8Ui77ihyWXVVWUWX1W8wYZZWyyqqTl$T3SHhkPjSjm22hRTTU2qylhhjRTR",
"9lrvjPjnKIkPPSOmxxjIOCNRkmljkloJkJ7VR7WRxwwcczdfeeag018yXWhTNmyqq2RwiWXiccW2UWVyWy2y$WWWyi00cR1TT$mrTqmHH3s3llo7rJq9h2393rNTjmN2",
"3lS3InlPCoNCKCmnNl99mJKr3IkjIrnOmIJpJ$$pwz7QQaaffab0Z0ZX1yy$222l2xQU7Xi78i8!ZUWVVVRUqhU1yWXZZ2qT2RTqR3PS3v3L3oKSOR3hR2lPlkxx2NVj",
"3SnxolKNok9INm9xmHv3mS39llhwxxkxON7hxpi$RVQZaczegebYg!02WWyV27NrxN7hR2Uci01iXT$RWVyq$xqWTXiX1yWTRSk9vkSmKS3E3HJn9llmJS3krhkJ9RV2",
"svKoHmlI9CmkKo7xkjFlljjJxwJx2NphNhJpwwhhypa!dYcZZbbabZ0R1wXTV7whxpXV!p7iX8yiwiUi$VrVq27XRw!i0qT2lmJ2SPsjS444vCn7jSoJPlKjRlNhSHl9",
"3SGnmOCkmKOhr7h2OmmInjHomI2hJQr2rmJ$hUy$7zzZYZZcbZbeefY8iRiWR!yhw7$WiXcZUWw8WRiiWiUhNNxwziq1y8TqjjO3mlISvLEE6uCIrkoo3nv3K3Klvnll",
"sstLIJml3KrjmR2RJrklnjCojHhR$hhRrVwRpihwXXzZ8080ZcafgZbY81XyRiUppWi7iw18!0UZi1iyV$2Ty7W$XURVhVqqSljSSmsssFA5tAPoxhknnjnvkEOn4SM3",
"vMuNkKPl3Ivjn9rNiikSKOoKKoNpwXyySxVrwyRiW7!WW0ZcYYcbZY0W1WXXQi8WWTyXUyTpi0W81T2WyqSRqTmRRTTVUR29HP3SSSlsEA44sEOOkmPPk3nvMKMM4MM3",
"vFLkKIIHlBClPnCp$T2lOoHK3OJVwT2TTxrQiy$Ui78iWZcZZced00W2iiX7VTRV2$2VyVh7XiiRWTyTq3Tl99y2yTSl$T92mKSHSFLSGstvuuD7Pnom3HSSEEH4sA4E",
"DtutGSKSLlkKkooxQ$lllljvICPphTqVORhVhUURhhy8!ZccZ!zYYY0cZ1!1UUVVUWyrXXUw11yTTTR2qjllrkhyUTjlSjVmkkkSSG3vsGDEDB5ON7w39nnPkBstvFDM",
"5BvGsHLlPlIKJoopQqSKkojHonSPjqml99rrXU2iwiZiiYccc!eb1088Y011WUV!$yU!XUrXV1qyV2$TRljPVmkxRSs3nnklm9kMKGMFADBvBFuuooxllnPILBvv5DFs",
"Ds5EuuonIKCPOCmCQqTrrjvnL3KLPll3SOx7wWyhhW2W8iX1W8cc!QY0yYWWWiUyV$i78WXWUR2jqlHlSvmx9lJ293FLSKCjmS3S3nEtDAE4sABOGoPrmmkKGKnIvFAA",
"FEACGAPCoPOoOKxkr2rT3333MLISSLv3Kmor$R2RyRhpURR1ccZ0zeYy8iX1hUXR7U77ZXX7!y2l99mS3OPpPPJP9vsv3BOsSvEnjvE5PsD46BuukKKorm3KKnSSGvEu",
"D5uBAtPIHK3jmoNN$H93FolMGoESLnPLGSoxJyjwpNxU2VUW!Z0cQgc1WX1X!V81QwQzzQ!iiy22mll3ONONPhVj3vvssAGvFSnGBMEBsvs4sBOoKOlom33433s4vAAt",
"5BuGOBCLHlOoON7w2RqnnjSEsGMGBLukHSOPw$77hXUx2yhwiz8ZYdgW8X!Q8iXXi8QzfY1ZyTTTmmmmHkrRl933nsvss5BGLGkLsBAvEs64s5GuFBOIP3sSsD4DAEBH",
"BGPNCNOINNHPNzQRqjSnSlHvtBuAMEoEAOINJRVXwiV2VUUQwZY!af1ycz!c01w!zcZZ82ZqTT3SSnH3vKSS3j3lIEsDDGuGnBv4DvEvvD646NBONICCoSIMLADDs46D",
"MuPOKSCPJo9ozpiV9SSF3vL33PHLDEOGkKnNpppQWyW2pipiiXzQYYYcZZc1WVQ!Q1R1T8RyVqv3KlI3MBFSvOjKjsMD5uGGADtDDtFMsDE6AACCCo7olnsDBGAsDstu",
"5oBKFKOJpHrOwNUTrhlKGOIPGPGuGGuLLkkoNrN$yWR2yRNU7!c80Q!c!YZY0XWQyRW1cyq3jmHPSHlsSGF4svvB4sLtEGCsGFFMAts4vDs5uCGColNxl3SvvsEssEOG",
"CEPGSLIwopJR7ViRxRrOlOojIBnESGEGSGHIx2ipRqyRT2$wX81Zc0bYfc0XYWWcWRWR2q3SSrPmHInnsGvs4DGMMGGE4AEs4AFDFD4Duv5BGENPkCOPv3SvAEFsD6tC",
"uGIHkKNNJVhhrVUihh2SoHIHJPILHEnEH3IFnxNT2Tmq$i$iyhXz!c0ZYg08W!zi1yqUVjSKOKjKKPMPvMs4sAGF4tDADCEs46t4vsD65AGuuBtJPPnsSEEDAtts5DOO",
"GPBN3O7xNhV9riNWqy2mOKKIOOSHSSEo3tonoorlyT29RRPr$w7zb8cZ000Zc!QY12$Uyq9mRrKoIlkjlEsss5DAMBDABvFss5ssD4suBDGNCFJHPKsEIELEFvv65Guu",
"sAO3SHPHNj9HhhWTTTR$xllIo33sEGCM3uGG7pNhrJkJRNxpQ7XzWczZZQcaYQZ0Y8RhjjP9kloPjIj3nDMvEDA5OADCLAtss644v4AuBuo5AEOoISlPlvstAGBEuDts",
"GFuvKEMlKoPlrrqyV2x2hSHPCPPlEGDsAtGnwk9NqrRx7xJpUXiZcQ800YY!YZ08yVhV22mlkmrrKmKI34D6Ds6uu4MPvED4v44ssDBuuBuFBuoIlLLLEFtFGPGvFDsD",
"BGMDsLEoHIFKrrT9R9xy9m9ljSlSoOPEBuoOorPPTR9VxxU$!7i7!8YYQcQebeQ11WW22$Prr9oP9kKS44sADDBODMEtOFLvsA66D55OGtoEB7JIOPSSSLtvOE4t45E6",
"BEsDstBPOHKmkqN9T9mqProkHHJSPIKBBtooIm7N9KrNRx2w!7ci80WY0808cZY0Tyyq23lPrvKPKHvssD6utt5uDFEtEM4D5DAsDGOCBBPPOOoKknjLnSEtMME46tuD",
"F46sFvuBIILCkJoPlISlO93SjKnICoSLkk7JON!h2pxJVQhpwZXzcX7c8ZZzab828WqqSnmSKlmO93sn3uuGBJutEvDFDMEsGAsDuuButCPoGJkKmmvSMGMsOMHEtGOA",
"D5D5svOtuCNPJPK9SFojJkHKOKHClKlCJNwOJQwJrRNwxXhpQczQQQ0Zcc!zeYc0WRTPPoISjokIlSsSBtEoCGtEs6DG55FGD4D5uAuuOuuKkomloH3sBSsMtEvBDGuC",
"BFBtvCGOtHHolj9llj3l7hxPKPCCxr7N77pJwrNUxr77wpXwXaz!eeQaQcaaaZYYXRNypmnxOPIK333vvPESBGPMEBvEs4E46sD6DtBCtGFHjKnSnjvMG4AGBPAtAGCM",
"ssAD6DuBBuOxH3In3P3INp9mkooNKwQz7ixTJrpRrNhw7W!wdQceeeeebzdaa0cZZ0XUwhlJNImojILvADEBskLEL4s444s5tMD66uuOu3ALvBSnIIv3GFAAGMGttEDO",
"MsA5EtuOGGLSFKPSLSNoNOkmjJNpww7hUw!hwhrVwVywZ!UU!cQdfeeeceefagfgZYQwQ7JNIkjnIvL3uGuGEOvELF4456ABDFOuA5FBPIGCLJCnvllFMs55tBvMsEuE",
"46BsEBBBtGMGFLSHSoCHNNjrINry!UiidQQ7QXVVR2R7XW1i!ZZ!ec0ffabafffZb!cYcy2xmmlmlKKBSAoLIBOHHv45AA6uAuGBt5tCHOCoJPl3II3SvFBPtMvsDGvD",
"AD5DDEADvMDsFunMLnLCHPPrPVhNN$xQQ88178RyURrUWW2i70Zcc0eabeffeg8YZ0yW8yyr3qSPvvKsDOLuEEKnSABuEBuD6BE5uGBuBLlKHKS3knEE3EuGvstG5vGD",
"4s4GuE5DBDE5uuvGALnCOOJrRrJ22NUQiRZWRq2Ri$iNiWyp87ycdefdaddafbggYy88WyVSHOKSsSFDtCCIISHCLBButuutAttCBtInoSkLKMlvLPv3sDuvEOFDs6AA",
"4sDAvBssuEDsEMESBIJoNIrJ2hrNV7UXWw71RyhhxUiWXXUpWXiaQbaafbefbaYy1Z0ZiXXyrNoCKJoPutMLkCIOHIvtCOPvDBOCMOIILuPIOPJIHKEBGMMtGE4F4ss4",
"4ssDD6st6u4DAtvBBNoOmmP2RrqR2Ry2UWWRRiRRV2r$Q7UUXQz!Ycafgeagee080zQZYcXWU2rmooKvHOBEuHoPlvAPNILABBAOkGFLGCIPOHoKCSLSFtsEs4s4ssvD",
"4sA5A6DAusvEu6BukoxKrCpmNhPJJhy2ryWWyUypWV7zXUiUpZzYQzfbbdaffgbZcZc11RWUQhRO9kmPPOvoBCSj3OIoH33MuCuGFLHFECHPlkKSHK3LMAsDs644sDs6",
"D46A56tDAG65uGMBuonONrVrxyVxq9rNTxzWXh7U$iQwWXRizcXQQ!zedbeZebggbbc8iWXwUyrrkJSClLkOLvnFGHKkSnBOGONELEBSEOLOOvPIk33FGDss444ss5sD",
"AsDDDss4usEAABtJkoJPO2m72h9RqC!m9Vwq2WRV7pQ0XiiQc8WzbbfafeafYebafbY1RypWiR2xQNhln3InLIoKLoKnPKJkCCIvtBuSOIHKPnSoSnss4444ss4466s4",
"A6DDsAD6CuE5uuuAwpPokPCRlrxSOxRjOm22rURww$wR81!c07zQ!f0egddgZfbeZgy1WX!WiiRpRhTPSjStLOnLLBPPvIkFCH3vuGBJClBCKIOnIv3svss46D4s6D4s",
"66sB5sOCNJBuutGoNkoPON7rx2xrpxSSPKmrrxz787zcWWWW0Z!ZQegeeab1YcfYbceQ!YXZyRqUqjS3I3BHCJoIBLkSnno3KjlCunGOllPCIKKjLsvEssv46444A446",
"D66AAvBAwkGEuLOuwJSOmhTPlrRNhrjlmKkr77XXXi0YWiQwX!caceeafbgebeaacezccZiRyT2hqqToKKKwwojKJKKOCPSKIPHMSoIOHIPQxooS3LDFs4444A444s65",
"D4tOs5OC7LGvMBLCJKlnPSjjjK22VRSlpNwwwpW2TRW8TUQ0QzcccfaYbeeeeaafgggc81iRy2VR22lmjKIN7lkCloKpljHoKoSOolPCoHNxJjvHvFGt44646Ds4D6ss",
"ssOu5AwCBnSEOGooMSKnvjKlSjKkNT2kxJwpx7iWVyxVZZ78ZZ8cdbegffffaffe0fege08X0Uh2y2hqkPwwkkmHKKoKSIKSnCPooOoNHPmPmv3KLMED4466s4D466s5",
"s6DBt5utFuMuOMGBllMlELOKSHOxHrmjPV$NwiiV2UXzwXw1zcZdagaefadaaebgbfagYgZyyq$7wNjKOxNphljjkJOKINomPoprrNOCooSmsjvHsS4444s444s4ss44",
"Du65tBGDu3GPSGGLMEEtnKlStHoCqmmk7p7NQi2R7!UwicZZ!YdefadeaadaffbeZfag00011iwiWyjSOCNV9mrJmOjSHHnkHOroJrh9olnmjmM3Pv4s4Ds4s4s6ss46",
"65uD5uBtuLEFuBAuJOOLCMLSPNCCrkRrwrwQRUR$i$Uz7X!cYzzfefeebedbgbgbedd0ab08iQ7iVTTxww!$TRmklo9jSnKIoJhKplHmrnKoF3nonFvs6A444sD4444s",
"A56DuGFsEtGAoAGoIIvuAGBANIoCPwrPkxpVRX1y7ZXQ1iZcbaYfefeefdaeaegadfgbf0c88!XWWWNpN77ThJJhmlnvFMkpOrHhhkP9omKO3ECnSsDDEs4DD444Dss6",
"uu4D54sDBtBuCGCJlLISSOoIClokHkjpPmNiX$WhiWi7WX!zdddddffdddaafaeeeegbe0y8cZ1ccWVVRxVyJNPTmnvLIHGolK7hNljl9nH7HBISSCBAA5s6D6B6uD66",
"u6DD5AuBOuBBIPLCjlSHGHESnSkN3KPTj97Xy7W$VZUX!7Qadfdeafdddabfbeafea0aggcYQZccc1yVNVRi2TH2SvjLOIPIOJhkVRknjjNN3lHnOoSAtEAD5s55D6sD",
"tBDu5uDtBuuNHMHOjIlnSALKloCnllol3JJJUXyViWi1zZacaaaefadaaebaeYYefg0bYgbebccc12WwiwphhSlqSSHIokGJCPxPVSORn7wOjMlGNSMLGuGD6ADs446D",
"5D5tOGAOtoPKIOHM3EEsSMnSvsnvPKjOJnN!!RWWUWwzzazcagbagafgeebgeg0ggbgcYadggzc0187pwViRR3SlnkHJN3nHoorOm9xjONw33SOJmvCSSDsD6D6AssAD",
"s665GutCAFCBCJCElsvsttvBDOKEKSHOKoNVURiUw!zzdzeegbfbefaaefeggf0efbaffaYgecfzdQZcW2yyxqkIHnkIKKFCNoPrjrhmhkl3SlNKlPI344vDvsEssss6",
"B65AtBBOvBJKoI3vn4vABLDAuHLMAGPpkr9x7ViUizZQ!ZeZZggaadadfegebgbbZfeefbbagbadafg1URyP2mOljIKjnvPNkjPSjClh9HkHnlLOoo9vEstD66A6D466",
"5sAuBEFEGCLIO3jSLEuFBGvDAMvHGoOOkNrhxUW7XYi8bYcbbaddfedbebYbegbbb0cfZZbfgefeg8y1y27ymkj3ISjj3HCP9HHKNlPhxr9rIPOKISHjFD5AtEDDs555"
};
