/* XPM */
static char * image_xpm[] = {
"128 128 64 1",
"A c #353530",
"B c #22221f",
"C c #0c0c0c",
"D c #0f0f0e",
"E c #1f1f1d",
"F c #5a5a55",
"G c #8a8a8b",
"H c #767676",
"I c #545455",
"J c #4f4f4d",
"K c #41413f",
"L c #636364",
"M c #71716f",
"N c #6d6d6a",
"O c #5e5e5e",
"P c #444442",
"Q c #383837",
"R c #2f2f2e",
"S c #353534",
"T c #4b4b48",
"U c #323231",
"V c #292929",
"W c #4b4b42",
"X c #abacac",
"Y c #44443c",
"Z c #55554b",
"a c #52524d",
"b c #32322d",
"c c #10100f",
"d c #141413",
"e c #3b3c3a",
"f c #828283",
"g c #696965",
"h c #7b7c7c",
"i c #1d1d1b",
"j c #161615",
"k c #232322",
"l c #3e3e3e",
"m c #3b3b35",
"n c #636357",
"o c #666662",
"p c #1a1a18",
"q c #111110",
"r c #484845",
"s c #262625",
"t c #1b1b1b",
"u c #181816",
"v c #131312",
"w c #3e3e38",
"x c #4e4e45",
"y c #959596",
"z c #575754",
"0 c #47473f",
"1 c #2c2c27",
"2 c #121211",
"3 c #0e0e0d",
"4 c #2c2c2b",
"5 c #41413a",
"6 c #2f2f2a",
"7 c #292925",
"8 c #383832",
"9 c #262622",
"! c #5e5e53",
"$ c #191917",
"ABCDEFGHIJKLMNOPQRSJTUVAWXPYWZaWbcdefMPURVPIOgNFHMMLhGfeiddjklOgTQmWnXNgNgonFWmpqjkIHLOOTQVBBVeILhNOrSstuvvqqqjSOeAwxMyHzzFZxx0w",
"12C3SMHJUsVRS44IggMOSEUrG5wPaZa06cdlhIRR7s7V44SKTFNHGXHPPRVSIHHaR8xgygNNNNgnZY9q2kJMrUUQKkFOFOaTPraIoMLOPSVBii4IrRmxXHxxxxaaxW0m",
"EC3tTHOURUVkEEkssJMJV45XWwYTaZZWbq2kHOsRYm8A677797RrHyXIHfMMhhISAxoXngNMNgo!x6cqtPNJ4A69BVrMMrURRRRRUSePTIzTJTzIUR5ynZxaZaWxW0wb",
"DCdeNLK4Sxmb17BtjVOT760F0KPWaZZWb2cjMSV6JfWxW0wA7B$sLyGgzONfyhK6wFy!ngNMNgnZ8vDqROJAmY08ijSMNVb500Y58b444RR4eTFa4650000xWW0ww881",
"CDsILlkRwGKQQ8Rt3ELJ74PWKKrxJZZ0R2CjNOs4YWxxZxx0AjdVMygmb4RrhhJs7YF!ngNNgn!Ypc2sIzQ8WGZ5pdRHMSAZynnnFx5Ywmb7kkPz4B91b6Amwwmm8b7j",
"C2PNFSsmXK5emeAtC$FIsbPK5Prrrxxw4c3kOIE15WxxWxWwB2uKNhP8YbBErMgVE6WFngggn!W9qqErzeS0NhZ5$2ENNS8Zn!non!n!!!Z57jsFei2cqq2djpiBkkuC",
"2VONPRb0N5PKweAECjJzVR5eKP0PP05m4cCEOPkkA5Y00Yw622kOfFS0ZW1uBQJOBBAZngon!W6q2uezlAYnyZZ0i2sgLQ8Znnnggn!nonnZbjuSJRd2dqqcc33333CC",
"keMIR4wyrrrKee8BCvPFs4wKlKPPPPKw4c3kFFkEs766617ucdSMNKmZXZ5BuVOfI995Znn!xm2qdUFeU5!X!!ZWE2BONQ8ZnnoNNgnogonZw$DsRITSPS4Vkipjv22v",
"eMMK7bOg0rP5wmSBC2lek7wPK5KaaTWY1c3kFO4jD33Dcccq2vTHz80!hZa8tvsLHKB7YZZxwuqdVJP4mZXH!!ZWE2EzgQ8FnnNMMgoogo!ZYtquOHhhhHNgIIJPVQUE",
"HhJR7SOYrx00wmABCcUtVk85rxxxxax5b23BFLQpd2cvvqvji4gIemZX!n!ZbppSNLSB1YW5Eq2krJS6WhG!!!Z0EqiJUQ8ZngMMNgoonn!Z0iquzgIQIOONIgMPeLNM",
"HXLRE6wKrrP0K8bECDRJ4E18wYWTx0556qCtFNzPSKEeQQSlrIHIAYnhnnn!W6$urHFVE1m9q2Elks7wnX!!!ZxYiqtrgQAZoNMoNonnn!FxwpqEOTUsVV4UQeKSrJFL",
"THfrEtU50Y5wSU7pCCiFkptk685YKmSREC3EFHMFHGKhNHMHHfhrbWNnngoo!W9$kIHTkiEq2pell48xXZFFZxYAuciINeAxngonnnn!!Zx08dqkIQ66641444VVVVB4",
"BIGNUts85wQAR7$CC24LKtqDvE6bAR49vCc4LhfHGGfhfHOhfGfr15!!ngggo!YEu4ONeEdqdUOT4AYXxxax0m7$cqBzMKbxnnnn!!FZZx0w123dJUbm05000Yw8SR7i",
"dVlGJki1mSS4EvCCqBrNgPkv33vEsV9tCCtTgFIazzIPrKlPzfyOVAZ!noogonZAp$kgFUppULzk18fF0YwbBdqc2jVLMPRW!n!!ZZax0581ic2srUb5aWxaZ!axW0mi",
"jueHHlti71stCC3j4rFIOgLlB233vtpCCvSLPRV446Rb61sEkOyPU75Z!nnoonZ01uiPzIRQOMlVbmw8bBjqq22uiUzHHP1mxZZZWYmb9idcccdUJRSZ0WZZ!ZzZaWY1",
"ictIGLVjd2DCCctQIPUssQILUsEq33CCcsFJ47USSmm5wmbpjQfQK91YZZnnn!ZW8EjkIIsFHNQBtiij2qq2jE4KJPHffIs7mY869p2DD3cccckTI4UYWxZFFFZFZxY8",
"6jd4NfTtq3C3dVrPe4ssEiESzoISEq33ErFSsb5oYWxoW5bu29ThOspi15xZ!Zx0mB2ueMIhJfFUpd22duE4lTFOPhGGyHAEiu2qcccq2jtkRKJNIV45WZZF!!!!Za0w",
"6dDpThHTUsBslOaissRUVkpEsQJzJSkkPLP745g5YWW0YmkcckOyhlidvj98YWYm6dc2KNerFhGHrtEkRKaOMlhhfyGGyyO9jvddutk4QPJIJMHGz49wWxZnn!!Za0Ym",
"pCciThGhHMOLNIR$7Uogm8U7EEBUPFFINI47AhwYW0008BDqjSJGMMJ4pdvji99iv22pOJ1B4PgfGgzLMHHHfhGgHHOOrffJR4UePaTONHHOHggNHSkb0xZ!ZJZZxW5b",
"3DuegMLTTTLHQet7UXFQew5K89EEjRrSMek4OFmYY55ApccjUOLGlJylKUEjv2q22dirIS881BRTNfGGGGhyhGHork97SMyGHHhhhHLHNOJQRR4QNIk1YxaaxxTxWw6j",
"ctegOPkkEEQHUeBVLTweKKKP05A7BpkTgUB7RRSA8A1dcD$QOHfNVkgfGLIespupE4TLKR5!0A7sRahfyXyGNJKA6bbBpsOyyyGfHLzPQRVEEt$iPNsESWxW0r5Yw123",
"ilLOKRssEcBLGTks8Q5YP0PPT0Y5bpd4oeEitB7s7EDD2iSOhUPQRE4lzHLQgTTIOgHHr78ZFZ0bBBKUGyhamAAm558uvshXfNIKeRkB99kBktcd4NKB75YWW0mA933q",
"KIQeRbUmk3jJGFss8ePP0r0P0rY0wB2tIJBdc3DcDC3vkPONLTSU81BE9eLhffHgQNGfL770Zn!x6$Ellygm8YWan0bqqRhfJQRVsV1bR6RBc3ciPHOsE6wYW5RECCcB",
"OJSRR5XY93qSfNRkAe5KK00W0rYW57cveUBkpdccc3j4JLHLKbA50w1p2kKGXGGINNPffr78Fnn!Ytd4Oyhe78Z!0m932efgSAmmm88bRpqDcdkrMGhltiV886pC32tE",
"sRU85Gz8123sUMSE4melKPrTTTxWm9D2UMMLIPUVBkeOMMzQR8Yfn8BDd4MyGhhXfXLGXMS10nn!ZbjtrGHOV9m058iCuRhaRm0fNA1p3C3dBlLfyXygRup97dC3d4JO",
"UUYxX5wmRuCtsHQEsSSe50rTWWW0AuDuPNOLNMMMOONHMzU6m0XFw6qciIfyHzNyXXXLXXF18Zn!Z5EjkLXfPB9AA6d3tFIU1wHwbicC3qvUFHfyyGhhOVjj2CD$UkJr",
"A0ZyWmQAVuCv4HIEtkRAm5Y00Y5w73ckJTSRR4KrIgHGNe1A0XFYAjcjQMXMPSNXXXXhXXGe65!!FW6jjRhyJRtiBEDcsLLU4m69dCC3tR4FJyGfOrQeLFs233tlOFlR",
"0NM5wm8U7jCcQHLVdcuk68wYYwwbj3dQIU6677BBBSOyHRBkA558Ec2VOyhTVkOXXyyyXXXO6bx!ZY6u2uIGGTBdqc33SNIs76jDD2$4rLNIygOPUssp4LIEjVTMFQ1A",
"gH5wwQA4ECC2sHhTkv3Dj9R8wA6E3cETeVm05mA7E$RNygUtEb87cqpTMHI7E4fXXXXfgyXGK7mxWbpcqtTfyhJktdquTMl$Bqq2$4lIgIGhTTSRbA4$uULzTLHPSs65",
"n0Ym8A1ECCckFJffFeE33cdBkkp33vRTRb0GaW051$$QHyo4$B7vcjQLGORBjUGHXXXOKLyXg47A12cvuSLGyXGNIlUkeIQEqvp4KgOJfhVTQ4UQwJA9jjRohfIEBsSf",
"Awm8SViCCDBJMhHfXfOktqC3C333qBTl4wnnxxW057utKhGOspjcd4Jhge9BuPyXXXyrbShGGKBp22dsPgfXGHNhfGMOheSiERTMgHyhgJsESm0Ffz8RiqjeNMVttiB7",
"p77R7pCCCkJMMOrJNfyIFs$2q22uEeIRR0GaZZZx059djshfaBd2kIhMrs9j$aPGXXI7wETfXg4jjEQIHGfhIl8erFNhyhTKzhGGXfMIQ4V8WFGn05mAkCD4MOPVuCD2",
"3cdpvCCcsJHNJ4EEVlOTyIFlQePrTRTVUW!ZF!!ZxWw7utTffTksPNhJ776ciOyXXXNAY$sOXGJ4SIMHGHOKS8A1ssRQgGOfyyXyfOlR4Um0Xnr0058b$CqQrHHMT4$q",
"i2DCC33tJhgrVkktujkSHGGfhHgOILes75aZF!!aZxx5BjkIGhzPHXJeB7B2kNyXXXFAWBpefygMHfXfNTwm5WWwA9EdRHOyXyGLSSbSwKGoPWWW05mVCCjTTSFHMMIS",
"Fstdq$SFGNPVk719pq24NyXfOlUVSOg49ma!n!nZZFZZwBusFhhhyhP6RJjv4HyXXyTA0buEzGyyGyHz5m5WnyJW0AkqjTGXMMTRbm5JGOeww5KPYm6jCcRrtBBRTOhI",
"ggKKUKLGgK7s4JzBqCdefXGOUssEueHRkRWZ!!n!Z!ZZZmiusPlyPVUAww2cRNyyGJlAW5tdUNyXGoKQmWaXhxWWwA9DcSffFe66wWGMx055weQSURkCCpVKkkkEBslF",
"UKOMRUHgPVs6gFBuCCkLyXlS1UUEqBOIVswx!!!nZFzFFxbtuRNIMlA5X1cdQhyyXMQ8WYB2EFyfaemWFhyzZxx0w6$32UHMl76mMoWWWx05KeSR4sdCDVr49U8bsBBk",
"BBVezMhJ41bPJsiC3$THXhPUmaY9qdPgSkAxZ!!nFZ!F!Z01j$PSrRm0xBqv4HGyygS5g5B2tzNIQmWaXMZZzZxxmE3ctTfJTj$pkm00xW0YYQS6VtCCjKQs4KFw5S4k",
"4Btt4IHrtsAP4Bv33sLXHJRmahYbdqkLTs10ZZz!!aZ!FZxm$vETJ4AZ8pciINGyyFAYg5i2BONKSxHyZZZFZx0wkCDuUNMHfORtdi6550YY58R1BcCDVTk7Af50KY0m",
"YABduVhOs$k79$CDtzrgIESWXxYmBcurJ4kAWxxxZZZZZaWmpqsLV7bmbj2EVPGyyJA0awdqsLLSmZGaZZZW0Ym93CjSgOSQPNHPEjjB1b667BEj3CC$llsR5oxW0rxa",
"Yw6uqkLhepupjC3jQNygS6YMnWYm62c4lKEBAm55YWWxxWWmEqEOrE1A722kLQIyGKmxxb22RMFUwZaZZZxYwAEDcjULIQ4ssKMhIVjvv2q33CCCCCcRJR78Grxx0aaT",
"05UE3vePLsv3CCjQNGMls45yWW5wbj3tJIs$djpB168ww55biDpISEBEpcvtHfhyhewx07cvQMTbYFJxaxxwAB3DjUOJU48AktRTMOSp2cqqcD2ddtVJKs4enxaZFaxW",
"0wRECCkLhJsCqjRLfFIsE1z550wm6t3veOQtvcD3ccduE97kdc$Tr4d2qDpEPHfXgSwxwEcuPMl65nWWW0YAECDjVFJR6wxxm9i9eKgPU44RRSQllTFOQB4KwxxZZaar",
"581d3cRMGGNTUeLhyMQiu$E7b8Ab9uCcUsPlQVE$vqccccqcc2tTOKRBdukVGfGJTbm0A$cuILRkmNYY55bECDjVOTU6mZXZxw7ppkIgOLLORSITTTrOlE750WxaZxW0",
"m6jCDtThhhhGrTfGGJlEvcq2utEBp3CCKOJNHMLJlUVBp2dvdiQOLOLOaTQHGNyGe4b6BDckOO478Qwm84iC32RJrS6mxy!Zxxwi2tJfNaeEs4VskkVFIkB6m0WxxWY5",
"At3DtPNhOllTHyygfyhVPVtd2cccCC2VIRlelPJFFoLzJkQUSrIrQSUPaFLHgRXGTBjqDc2RLQs9bAS86iC3qkTTkR8ayZZZxxwtciIfOkkV1V17kujeNetuB68wY5mm",
"E33uQLMIRsEkPfLGXyyIGhSPVjvccctTzSRs1V44RUePTILggFeR61676RUQrIhGQRtjjdkPSekpik17tCCdRIPUR8JyZZZZaxAccdFTPR8m55wm6$cBOOkdqvp7bA8A",
"33jUOhFU7VE2VhyJGyyXLXLfI4PRkpTLe4m55m8A6ksks4lLMKb8YW0Y5mA1kkUJHMzTrKePIF4jccjdCCvsUKk48xyZZF!ZaW732VSLRAWya0Wmbt3uKHFUtcD2uB9E",
"DdUFHIQVRA$csHQhFTINlGGyXGHNLOQPR8WyZZZxW5A6BjtFOQb0X!n!!!Zw7EpvSfGHIrQlrFOQucD3DjSOTtVAWGZZZF!ZxYBDdKgJUmaNW05mRp3uTJGHzeBd2c23",
"dRIGLs1A5apckFyLV864SPFNhfhfhfrRUWXgFZzFZa0wicEOLU8xFa!nnZx5U9dD4lGTRV7kt4PFJRtdiSlJ4VRrGxZzz!!ZxwdDtINrbYnaxWYm6qCqFhrhfhOKsjDq",
"QOHLK485XwtqtgGKUm564144QrOlIhlR5GoZ!!!!FaWmj2sLzRSZxxa!FTYeU9CcRHMS4A881BBVQ4IKULJR4A5fTxzzZ!FaWbcqsOLQAxGaaW501CcVONTlTLhGgVRV",
"NfMs480yWmicdgGgRAzY5mb19BsULMQA0yxZ!n!!ZZWbq24NSkwZxFzaJWYmAtCdQHz4AJoWY87BtsQJMFRsSxGrWazZZFZZ0kD2SgzRmZnaaWY8iCveNIU6sRKFNhNL",
"hHzsUWXo0mpcELhJRAWnxxxYAEvEONUATnxZF!!!FZW6c2RLR65gZZ!zxZx5RcCtJNQ45hZFZZxA9EtszTV1wXW0xZZZaZZZ5uDuPLrRw!ZZxW5bqC$Tgl4w6s9VSlgh",
"HLr48oMYY8pDiOfLRAWxWxxWmjDdM44mxxZZz!FZZxY73DSOS45xxZ!!Fz0wsC3sOeU4Pfz!ZZZx56ucSzViR550xaZaxxW0bccBTOe6YyZax0m7C3kIVs6xWmA1BBRI",
"OGr7bWx058u3iFhl4b0W0xW0A23VMaV8WxZZzzZax0wB32PIRk1mYxZZZa5AtC2Qza4UPnF!zF!zZwE2tJVEBAmY0WWWW05mBD2ROJURWHZxWYAiCqSLVs8ZZxx0ABuk",
"QGLk7YW5wAj3tzHOs6Y000051ccsgrBb5Y0xaaxWY5AdcvTTR$dt1w0aaW5RdCurgKsSzTzog!nFaYbdvSIViVSwwY5w8A1EcDjKTkVAxnWWW56cC2rLl65GZZZZWbjd",
"kghQ980051vDuIrTV1Amw5wAB3qSNlEBB7bmw0YYw893qkzgItp22t6wY58k33BIOR4KHxzog!n!ZxwE2taeiE6b649ij23Dc2BILl7b0Y00Y89C3BIFUAxGZFF!Wwiq",
"jTfJs7w86pDCdOMPVtpE76b1uDdKgPEdc32uE7bbb9qDdQgHhSltj2dE167pCcROT4RrzFnggnnnFx062vUJkuujDCCC3ccdujeUNKBp9A5wmbpCqULK18!oZZnZZx62",
"cRNa4Ekuqq2d4LHgSpcD3vuj3ctJILr4EdccDc2duqD2sFHhfGfRKkdqqutDCjKQlV8oxZngnnn!FxWmuctTQu333cqD$BVSKIPMhIVudp7bb9cCurOeV5faZnn!!Zw$",
"2tJHlEv222EUIHyfNrtiDcD3cuSLHyfHOTUkpdcD3D2EJoLMGyyyfLQi2D3CCqELt4wMWZoZz!nFaZxY72vRa4$tk4SPrIIFIarINhLQEdvpBpC3sIO4s5aW!F!FZZ0k",
"vqsHFVtBskrLNoOMffIeK4E$EeOPJrNhHfMLIKVt$uE4LJQeOfyyyGhFUdDCDuJJiR5TWz!J!nFzZzZY6dckIJIOONLOIKeSR61sVFhPIVjqq3C2QOas9bAwxxZZZa51",
"jqtOMQPONNLTKSbSeRgHHNJPENlRVVkPIoHHhhLklPrLzRV97KNfGyyfHI4EskIkVAnrxZxx!zZZaZaw9DckFHhhhOKU4VV4bAA7BsQQQLeE23cdrMJkjdjE7mY0x05b",
"pcjkOyhMOPSA888b1VRSPFg4NFRskV7VVsSKJOPMHMLTS686kB4SNGyyyhLOJHHU78ow5Y0WZZaxxZWbdDdQLNfGGI4VRbmY0W05bBEEQLMIREkUMfIPstdv2ji7A88b",
"$qjKMoJQSm5WZ!ZxY867tsROlsVUem5m8617V4UlPNfF4bYWm67kRrNyyyyyGyLiV8wSwwYY0xxxxWwkCcBJJJMyGMStkwHH!oxW089EBRJMNzFNMhGHMIesudq2dtB9",
"q2dJee8wWZ!oyhFZFZ0m1p$rHeVm!0xaZx05A1sEklMOR60FaxYb7EVJLyOyyyzssV1VbAbmwY000Ybc3jVrRslMyyL4pB8xZZZaaxYABEkKNyLrQlIIfGfFJ4ju222v",
"2jSFe90ZnyXhn!FFFZZ0bdvVLK4m5xZFFFZZa08BvsgNVbxZ!!zZY69kRQQJXfJsucc2dpB791AbbbiD2kTV7BEPGyyzsp7YZZzZZZZWmBdBzOr4s9i4lzNHhHOPRBu2",
"VRIr48ZXfnnn!!FZZZW0Avq4Ne48xa!!!!FFZa59DtzMSbx!!nn!!xm7EBSrHyO4$33D3DDDcDcvjdDqt4lVb6$BTGyGzki6WZZZZFZxYEDiloU4S8844R4QaIOhLFrR",
"IzNRU0XNnnnnnFZZZWWw12csLs48aZ!!!!n!!xY13jrHe1x!nnoon!am9ujkgGGgFlQVktpdd3cccc2jUPUR5Y9pkzfyfKBEbxxZZZZxw$cEOFRbF!Fx0mb64UlJzoeH",
"MhOS8ZM!nnn!!!ZWY86EdD2RgrBUaZF!!nnnZZW1DveHPRWnononnF0w1DD$LffXXGTHLFIQQj4sktBUTS6mZWwkpsFGyhPEEAWxZZZWAqqsLT48h!nn!nZWm61V4BJI",
"lgOV8aZZFFFx0Ym7pvq3Dq$eNlVRWxZ!nn!FFZWb2q4MTRY!nnn!FZ5ApC2SHLLFNMLNLSgMMNMLOFaOr78xyxaY9pVOGhHetEAWaxx0632UOR8xfnngggnn!x5A4k74",
"tTOR6YxxW0m6BuqcqqqdpslLNJs7mPx!n!Z!!ZW8ucsOP4wF!!FZx0ABC3EFIK4ss4RV4SPTJFFLNgHHsbYMNZFZ5BuVOGGOSiB8xWx5kDveOQAFfnogNgonn!Za08st",
"2SLR7mw87p2Dcq2duEVQTLMhfo4E40WJZz!!ZxWmpDtIJtAxxxW056ECCDelORE779kkBE9sssV4QPOIlVWfF!!!Z8EdpgGLORp95Y08pD$Qr4mFgnnoggnnnnZZa5bj",
"cVgUBku2q3D2dts4lJPgHHhhhfrEEmxaZ!!ZWWY8iDpTQ618b1kEjqCCqVsFMRBdviQR4144VskkEteHP6WF!!nn!abtptLhGOVE98wbvcEIr6wnZ!nnnnn!FFZaxw6v",
"DEzQtq2vjcERlJOLgNhNNLIrJMgSE70xaFzx0YYm9cjPO4ijqqcccccdVJghfIOU$qc$91888AR1$cVgKR0!!!nn!Z0btjeHGgz7tkb7D24Oe45ZxZZZ!!ZZxxW05A7d",
"ctar$tkUUPFLNMMHMLFTQU47BeHasEb0WaZxY5587cdQgeuddudcikseFMhfyfXfIpjcc$sAAUb1u3kLl40F!!!!!ZW51$iKPIgJkpBBcdQOR7w0YYY5Ymm8bb77BtuD",
"2tsUFFNhhThfHIOJKS4bb8S6$tJhPEBb5005mm86ED2ULFiQlrQUIlzgHfGyyLfGGNPE2Dvk4667dCdOlVwWaZFZZax0m9uEVVleTEujc$TO4k7ippjjdvqqcccDDD3c",
"k4LLfHyXyfNOTeU946A5WxxmidkII4tB7bb6779E2DdQzrMTLOIQKesLfyXGXXyXXXGLUuq2u9s9vCEzlsbmYxxxWW05mAEjE4hGhet22kOFVu22v2222222v22djj$i",
"FPHOGyXyHaQ7976b85x!n!xw1jdRIskdqcDCC33333dPRrKVQS6BEiEVfyGffyXXGXXyfIVdqquEqCiIeB7Rbw555mmAbb7pdEFhGhlt$SJlStBkBsVVsVVkUUelelTI",
"RNyXfXyyoekE7brHfO!ZZZW5ABd$KLPEd2D3qq22dEelQRbA8m5m1idRHyGLQMyGXXXXyyMlBDcc3CtzKEpdd$ppppiiEitpdvsOGyHrUSfJMOOggLooLeJLLLOINMMH",
"I4GGGyXXfFStddp7bmwWZx0w81jqkFNJesURRUURSPJSRm0xZZ!ZYBcvIGyTQRKIXXIyXyGIKSpcC3tQTj233333D3C3C3Dc3cjQFfXfHfyyXyGffhHHNJooOFeszTTT",
"kQfgINyXXXfz4p2v$9650Y5m6BccEKOLzzITTJTTzgIVb0Xhan!ZY6vcRffMVskRIfMXXlyyhhIVu2dzgKkstutttt$jddjjuppUOGGPOoyXyhLzJreKeS8SSURR47kk",
"jPfrURPgGXXXLJVuvvp9999BiqcdRLzQR7kR44Vs4FO410ZYaZ!aWAu3pIGGrk8BBUehyGXXXyGMTRQ4hfhHO4OPIaJrPPlr4TFLfhTB4RLXGIeA8AAA8mAmmm8AA67$",
"dlMQA4k6PoGyXPOr7uvcccccDcvsTJQSm8mm8A6p$lNQ7YZZxTrTKA72cUhyNVsPsEslLhJXyXXyHhehhIhhHHMgRNLSPONggHMGhPR47pSfyI6wxxaZZ!!!Fnzx0w4D",
"vrORAWA674KzMQIGgPstuqjjqqsTISA0Z!!ZZW5ivVOrVA0xZxxP55SpD$zyGPB454kEsPPGXXXXXXygPSSQQeleSQeUlPPP4OfXLRbYbvtIGNR70hnongHnnnNx0mB3",
"pTJRmMa0m6BseLfyOhLFrJKQrTFLebY!ynnn!Z09qtIzVsmrraZrKP8sccShyLskQ587kB4ThGyXXXfSUR64V447414skE$tBSONIRShAij4MGJ7AZnnnggonn!a0mi3",
"EIP4wNaxaw1E$VOyHGyfyGhMrHHJbwZXnnnonFWAddQLUkmr0Z!x05Q6u3tIyMlEVweQbsBkEzPXXyPQ8WP5wmwmQm8UA67t2VHfPR5!Y6jprGNU1Y!nggNggn!Z08jD",
"EFe4YZWWWYAjcEOGyyyXNOIIFHfPbWHnnogn!!aw$qkLlkAxa!Fa0rwUBDqUMLFkEUmSSA6BtBKMyyrmaXhPP0rWrPwmwm4cqUhhQbW!0mEdsLfasbZnooooo!Zx512c",
"sJU4wWWY057324HyyXXGJA7sUgMEbWgnoggnFaW5Bc$VJsVZnn!r0xYwVdDtFOHStB6646b6B$$RhhewZMWPPWWWWYwmmAkC2KhLU8xnxYAjjeHMS9w!nn!nnFa5bi3q",
"QzRB65Y55bvDuTfyyXXaAb1uiLfPSW!!nonFFax57DqSO4s0!naPrW0wABcqSHfzBujddduu$qDkgF4wgZxrrWWWWPe8SbpCjThIReZxWW5BdBFhPB6W!!FZFxY1p3D2",
"VlRti1m8bi3cVgGyXXhe8w62tFfrSxnnnnn!ZaxYUv3BzlsmZWKKYr0SR923ELfHQu333CCC3C24NeR5NYWWW00P05mSR1d3taMK4wnWW006djSgNUB60xxWWmkqDCdV",
"OMFsdpk793ctJNGyXfOm5o72iOHl8Z!z!nn!ZZx0mp3uTJs6YPeew5w6kp3CjTfGLesEt$ttd2kTLUR5awwY55555mAR19DDtsgS6YH00Y51jDBzhaktBbmA7d3DDtRJ",
"PIMOVjd$vcdULhMyfMew0H9qiOMs8ZzaJZ!n!Zx0mk3cSF4s858SR67EvCCDtThGlNNOFrzIPJzMz7VSR8SAb66R67kBi$CqskORR5xYYwAuc3EJgrkp2dpd33DuVrFJ",
"BsJHOVucqvkrHGGXylS5M5B2EFNEA0P0rTJFFZx0m1q3kIQB7A4kiv3CCCcjKMHOSTJKrerrrIFNaktudujvcccc33CCCC3deNJ765wmA92cqvQNLQKT7uqccddQTJQk",
"idkOfLekEsrHfyyyOS8Wy8i2EOgkVea0WrrWWr00mR$D$rPtptv3CCC3qvElNLTRVsVVsEkkkkslORDD3333CC33333DDcvkINlk18b1uDcdEtIhyGMfglktBVEzPRsk",
"kqdKfGHLFOgHGyhNKbw!wApqEFL478KPrrxxrW05m6p3DQFsq33c2diVRTLhfLRsbRbRURRVsEdtTa4BtEEtBjkkks4RR4eJMHQE91EcDqu4TlGhHgKLHhLIIgIQ466b",
"9cdefGXXGGGyyGLFRb8b61jc$VOV7mr0P0r0YYwA6E23q$QltjEVQrILLMhGGheE1hP5w5wmbkv2UgMTLLlJILOFIIgNgNNHyHetpd3DdklJNXILUSR4VOhfMTRRAwYg",
"BDuTfyGMgHLOyXyrspv2ddccEFzs7emw5Y55wA7E233c$QFLJJOgLOzOHMGyyyzkkUwewww8R1jcBOhOHhMMNOgNLOLLLLJLMHak2D22SzNfHMasAm89EVOfIRb5WfH8",
"pctILyHrUUKNGXyzVuujdv22sOzs9SmmQ8AR7p3C3cdBQOHGffLreR4eMGyyXIPRB45P55e8b4tDpTLJTlleQelQSURR44VVQgMPEpVJNhXHLKAm0Zx6jtafr4Y!yW08",
"jctOfGgU6kEkeyhGMITlSjvVPMOkB71147Ed3C3cjseJOOOHfOSskBpEIGyIXXMzkse55we8b6tDjPURV7ss7VV466R6VssEjUhhKJLfyXHJe8YZnyW12pIHKAWo0x08",
"2csUMGT4b6jdlIXXhXyNQTlOMfLVjc2vd3CCD2tVlIzTQR4afaV777jvUfyyXXyMUsS5KeQAU7p3qRt4m8RUS88we50W0mbBv$rfNGGXfMP4AW!yfZ012pTMe8WFax0b",
"3c4Ohfr9b7quryXXGNgNgJgIHGhQBjq3CCDdERTIaPSVskuUhO7kbSt3tOyGyXIyJsR55m8m4Bc3uKUV5H!mKrWNWWxxaWA1uqBFKyXfOeA8aoy!Zx092pJOQ80ZaxW6",
"DcSNGheVA$ckNyXOamARRVVRPSGhoTSktEVPR4llR44RA1dELHRB687cqSfXXXXXHRsmZx5b$CCC2re9A55YWWZWWWxxxW5AB22SNLHJA75ZXGZZZWmiqtJISb0axW57",
"3jKMfMS7bqj4fyIQmw8b4B$vskXfHHhNFOLLJR444850abduPHKk1SRu3tOyyhHXyrkSxY12D3dkPLPE7mwWxZ!WrWWWxWYm1ucBLHr46woyZZaxY8E22EzORV50W0mt",
"DtaHfL47B2ESQyfR80xY8B3qs4NJQSKFhfMTk778YxhM0m$vRNIk9A8BDqQfyXXJXNV9b$qqvtUJLHzti755W00YY0x0Y5wA1uDpzNUsbW00WWY8B2q2j4LLUB9855Au",
"cBFhfU77vdsTMyL8wZfwAjCjThFSVBtkIrMS7bmafMZxx0k2EzOV9AmA$DEIGfXhXGPEd2dt4rOzOFSQEERw55mYAmmAb7BtjDDpJMUt$E1A8AB2q2dESFMMKtji1A12",
"c$LHfTk7qEzGXfK8WG0w1C3kghPV64jdQfTVkRaa0xZZZxb2cUNQ9A5w9vvlOyGhXXL7uEUJOOSeARTTSE96611Bjv2cD3D33cqEIhTkd2vjj2q2dERJLNNhORijp9kD",
"c$HHhSBpdVHfyLSmaN58tCq4HTRsUSd3sgGQk1w50xz!Zx8jvVgr7AW0miqkNHhNXXJIrOHHoTS11isrIE$d2qqDc3Ccc2djutkegyMOesd222DESJOLFreTHhJEdju3",
"dlhfHRB2pPGXfl48Mwm1c3tJNPV4P6u3uIyg4smYWaZFZWmiqEIR41YWw9durfXXyGXyyThFeUbwmtuVglEjdju$tEksVjePTzOMGhhGGNTUtEeJLgFSSb1BQMhlsd2D",
"BOOGN4EjUhGHNR78886i32kQsR4whRBDqRhhQs80aZFZa08BcjPSRsAmA7j2VHyyfXXXyMTQSYZZW7vuTNSeePPlrIJOPFLNMMhLNPlPOhNOLLMHOr8Am58EEUOrFVj2",
"SMGygVjEFyyfPsEEB9kccpPgPRA0gmRjqVNfskb0WxxxWm6ucvQLlBiijdq2tzGhXXXfIKmeKxXHxwidsONMHNHOgLSLOlzIIFfyMQ4ksUPOgMHImAm0ZnxABEVIHORB",
"FfGyg4kQfyyyIVuvq22D2VOOQUYyY55EctzhFu7wYY5wbiqqq$QLI7jv22djEJMXXGLKQe5KfgZ!Z07v$rHHgLRVQKQUR47s9lhfORbb7BERLyNeAYZMXM!ZmkisJlgT",
"hfyXh4ohyyXGGgPsEuvviTNJUwxOYYY12dPHgtBAwA1u33qdtSFhHTVEsVtSPgGXGFl5xTXNPrZn!x62jlgTQUbsAR66417EdUhyORSow1jpTyNSbxXHnnnnZ59ijsHh",
"GyyXXXyyhgGyXXyhOrS4Kgge8WGYwWW8d2sNHlEB9v33D2tUJLMHHhMMMNzNHfyyHlQ!fyPPPW!onx6qjlOSA850W0YY5wAd3Rfyzsm!Y8udUhfl40noggNo!Z57jteH",
"fyyXyHOrQ4KINOGyyIhMHHFVmahaxZx5pDiIhIBu3CcjdQrOMNOFMGXhNLJIrLMXGl75!FFWTangnZ6cjPFR8ZMgNgnZWY6qv4fGeU0!Y5i2kNhJR5ngNNgon!Z5kuEP",
"IGHzPemwmA64R7PFgHffGhr60HzFFZx5kcvUHgtvcpVPk4SLFKURTyGOwAb114eyGL11WoNggooonx6cjPJRmZNnnnnZx573dKhNQAxMx572pJOOsm!NNNNgn!ZW8BjB",
"lHrmw0aF!a0wAA64RQPzffr4wYPTxFxY12qUNHQtkUgNNRkU479peGfrm5581p4MXGl7mnoNMNgo!x6DdPIRm!noggo!aY9DjrhrUbxMaYAdjlfOb6Zogggnn!x0m92u",
"TzQmZHHGHn!!zaY867kVJfaV1Sm5Wza0bjDkghIJhGMMaeURbABdQGhKmZHZ8p$KGygR70ngggonFW1cjlJR8!ngNgnnaYBcuTNNQw!nZW5uv4NHPRxnonnnFZY8k2q$",
"zORbWN!nonn!nFZa08BjVNNBES5xZZx5Ap3pIhXIfLPwS8wY05pdUMHlm!fZW7jEFyfSsbZ!nn!Fx57cjKJRw!noggo!Z5tcpJHLS5nHnFWEqEFNJ65!n!!!Z57jqqdB",
"4o4k6WZnoonnn!ZZZ01v$JHSt1waax0w6$3jrhNoJQA8YxZy!wudUUNww!nnZ5ijUMyNU98WZZxWYmBcjKJR8!noononZ5jDiIHIU5nnn!x12utFOR8Z!ZZ0b$cq2p4e",
"OrlBi8x!nnnno!nnnx8jvUHlk75YYYwA72c$JMJU6Uwx!yhZWmjvUNrewnnn!W1jtrhfakEB917117pquKTkA!noon!FxmdcEUMJb0nn!!ZmddSHgS60xY8iqq2usKIr",
"SRNlEBmZ!FFFn!Fnnx5EqEFgtB77979Ed3qsOJVVA5zyHZZaxwjv4Ogmwnon!ZwEdsOGM4tvqqcq22qq$Pa4m!nngn!Z0b2csONP6xh!!FZY$2VLNl788B2q23kEJJlU",
"$tSMQtB5xxZZzZZZaW593qeOKtqDDDD3cc$POUkRMH!WxZZZxmj2VNgRw!nn!Z01dueHfOVsE$ujddddkKSBmF!nnn!xY13cRgNlbxg!!!Z0EcEIhTk9j22uBSrIlUsB",
"ddRSFsp7wWWWxxxxW0wkDCsRIVpuuvjjjtUOVkE16bmwYxxx08j2VLgmm!nnFZ5BqdkNyGMNzJJrQSQSPLzkAaZ!!!FxY7DvQggSbxf!nFZW7qurhOsjvukeUlSUR417",
"EqcUOeki98ww50WY581tC3tJLOaJTlrPSrOlKEvq2jpB7AmwA1d2kOJQAZ!!ZY9qD$lMGfh4HHMNNLNNghI47wxaZZxW5kDv4NLsba!Z!FZ0bvdQHNeBs4SLSS4Am5wU",
"6$q$rgKijjpB1b88S1BCCqVONLTJIFIIaILHIVtjvc3332utEiqc7ggSAZZZY7q2uSoGMaPVeKQPKPTTzoNQE98Y000Y8i3urLOR6WZZZZxW8jquNhLIgHLKUAm0aGTA",
"U9dqkFgQt23Cc2jiip3C3ETJeR4kRR4V77SLLMFrQVEd2qc3CCC24ggSb0Ww922$SOHgPmwA888Ub4V7sRIFkuji7b886dctVMzV18YWxxW08uqvFfhHTJeQm0Zyha0m",
"m4p3dKMOrRtu2c3C3CCDBQlUsVU888b6s$tTHXyGfHLQlRkpd2cuSMNS1m8E2vp4OMOKex!n!FZx0wA6EuRoJkj2qvjpdcctkHzVE$p968mm6jqjJMNQs15WFHyzZa05",
"81jCdKHyMHgeeVEjqc2krJU4ASwWZZWY62veQGHLHLMhHNOTreSSIHH8kEj2dtQONze8xgXMgggnFxYAuvkJHIespd2c2q$SNHLRpvqq2dj$$cqEzOlUbYZNX!ZZxZ05"
};
