/* XPM */
static char * image_xpm[] = {
"128 128 64 1",
"A c #434048",
"B c #515053",
"C c #37363e",
"D c #201e1d",
"E c #100f10",
"F c #28262a",
"G c #efe5db",
"H c #efece5",
"I c #dfd4c8",
"J c #56525c",
"K c #565057",
"L c #4c4a55",
"M c #524e59",
"N c #3f3e49",
"O c #484652",
"P c #47444e",
"Q c #524c54",
"R c #5c545c",
"S c #685f66",
"T c #61585e",
"U c #5d5760",
"V c #625a62",
"W c #7c7274",
"X c #6b636b",
"Y c #5e5963",
"Z c #70666c",
"a c #635d66",
"b c #585460",
"c c #4b454c",
"d c #f4e8d3",
"e c #f3e6d1",
"f c #f6ebd7",
"g c #f6e9d4",
"h c #faecd9",
"i c #fbead9",
"j c #f9f1e1",
"k c #f8ead5",
"l c #f9ecd6",
"m c #efe4cf",
"n c #f7ead9",
"o c #faebd8",
"p c #f8e9d4",
"q c #f6e6d7",
"r c #f2e6d4",
"s c #f5e6d2",
"t c #f1e9e0",
"u c #faeeda",
"v c #efe1d0",
"w c #554e54",
"x c #504a51",
"y c #4c4850",
"z c #595259",
"0 c #5c565f",
"1 c #4f4c58",
"2 c #f6eedc",
"3 c #f3e4d0",
"4 c #f0e5d0",
"5 c #eae0d1",
"6 c #4e4a53",
"7 c #45424c",
"8 c #e8dccd",
"9 c #948d83",
"! c #f4e9d6",
"$ c #fbf6e8",
"ABBBBBBBBBBBBBBBBBBBBBBBBBBBBBBBBBBBBBBBBBBBBBBBBBBBBBBBBBBBBBBCDDDDDDDDDDDDDDDDDEDEDDEDDDDFFDDFFFFFFFFFFFFFDFFFFDFFFFFFFFFFFFFE",
"BGHHHHHHHHHHHHHHHHHHHHHHHHHHHHHHHHHHHHHHHHHHHHHHHHHHHHHHHHHHHHIDDJKLKLMLNNOPKONNCCAPANQRKSTSUJVUWXYYZWZWWWZYaXWXabZZXXZbaXWYWXcE",
"BHdefghiHjiggkkggflmneloehpqiorsqtHiHukkkmmufhhlvoiHkoIIiohkiGWDDwCCACANCCNCNCCNACCNAAcAwTxRywRTzywwKMMT0S0JMRRzL1KTzLJMRSO0M1FE",
"BHdgdkokH23qslllpl3pskkho3s2tjkpsqGipkgsp34dellggptkpt5HthgsvfWDD6cCNCCCCACANCANCCAccAczRwTwKRRQO6z6yLKzTaUMJzLO17zLOTzRTT011NFE",
"BHde4lg3pG5tH85HtqlfkhooHnhqpsspGGitipdddsvullhlss3j3si5jhvegh9DDQCCCCCANAAAAcAAACAwAcxTwzzwTKz6RKK6RRzZV00JTOJK0zzzLRKMUJMO7PFE",
"BHemg!38gspkokpspnHjn$$$tj$ogvds3sjfsss4vkgkuoksssvGvspHiplduf9DDPCCNcxAcxxcxNccNAccxwwxTRwRKywTwTKKTSSVRVRMJRTLTVzLL11KLKNOOzFE",
"BH8lfemme8kfgmdklplhqjihouHlogg!j!edjejuH5qIGjldspj4me3tnoll2u9DDNCNAxcccccx777c7A7cwKxQzTKRQzTLR6KKRXJTJO0JJSMTJzLQ6TL6OOOLQRFE",
"BH8dmmggdgldr88ejjklvp8lloot2kmvohlsj3kvHt$$rquukjdppkliuomdff9DDPCccxc7cxxNAAx777cQczzwKRKRz6TzMOzzTVJTaM00T0bMLOPQKRTL76PKRTFE",
"BHu!fjfudg8emdde$nhgmIllullll$o3hoog$5H$tsohi2iuluspkuhGtlvkuh9DD7Nccxw7cxxccccc7cx7KKwwzRRMMQMRORTzTRT1U0URTVJ7ROMzRKLOwQxR11FE",
"BHe4llflusggfdme!llfvmesmumll2$3ijis$uHI5toji2$$kpevsgoiviokf$9DDxccAAxxxxxycxwNAwyzTKwzVTRSzzK0zKzXVJRM0L1UJZbbJJK1RRMOzKzK6NFE",
"BHe44fhdf48!4udfjfdd4v4vrdmlos2qjHuu$itqpsonqiep$jeedhhojjpguu9DDTAAcx77yNyQwzQPwxKzTTwVTVRzK1TRTzS0JJJR1LVMVSJ01MLPRKMKPKOK7PFE",
"BHfdd44e4mdmeugdf$e4e4m84ge4vfjjH3iG$HipGHhH5Hs3$3jgmloiiolsu2WDDTAxc7wwwyzxQQywRQTxzTSTTS0VJSTUzX0SJOVLzVVTSYU1O7OOKOLO6RP7OKCE",
"BHm4mgdde84gduulljlm!8!svdm4dve$tjiiHokqGtqsstsmrdegkllIngspsl9DDTAwyxQxQQKTz6QRKzKRRSMVSSTSJSTTVVVbJKURJVVJVUSMLLR6TOK6yw77xKFE",
"BHmmvmge4mmdhku$ujuom8vImf4md432$GHij$jsIIIH3It3e2gplleiG3sush9DDRxc7cQwRRTSR6RQQSRSZTSZSSaUVXJRUU1UM1TVUX10VJUVLJMTz1zTLz7wzOFE",
"BHdedufldmm4ed$dd8jm88g8rdd4lpppij$$jojGH5IiopsrggklplkitkllklWDDSxywcRwSTVVKQSTSZXVSZSSSWbXUM0UVUVV001SaYVJVVVSLLJRM7RLzK6RQyFE",
"BH4dullldvemre$d8df$$5I4dd4eehoiii$j$jq55$iooo$Gegkkdggl$upgsgWDDzwRRzRTVSSSLRT0ZXVZZSZaWZaYMJMMVM0M1JSVU00UVJ1bLM0TLTK6TOQRQ6CE",
"BHgdulhfeemdgjueIddmmv4$glflpoonn$ijtG$$ouoooit$fn$d4gluhHkpgsWDFTQzxzTVSXVMMzSXSXSSYXSVZSSYJMU0S0aMbSJVM0MJU1TVVJJLKMKLQKQVMQFE",
"BHogg$uj$$2j$$elmlk!vmvHsgeoottGi$tGikh$$oohtttokem$vmluhj8GsgWDFSzzzTTVVURVTzSSSSVYaYaWZSXaSUXSSZbLV0UOzYU0OL0S0JMzK1RTTKTRO6FE",
"BHlu$g$$f$dm2pke$flg4gv4epskpGkpHjok$pplk$uuIhlll48d2slhluku8pWDF0wTTzTST0J0MUSZMMVaaaaYbZZZSWaYUJJJ0b1LTSJ1LOTROMRMRM0zUS0RRRFE",
"BHk$ssssm4ggjlujkdllehe4veksqnopHppp3$ldfs3j$34vv83m2$kl$g3p2p9DDVQzKRzTRLzM0VSJ1TSSYJaaZWZZXZbSb1J10MLO0JLLOLTLMOV0aJJSZSSSRLCE",
"BH$ii$$ked$2jj$8uleu!gd48dds3Htsgokkl$sueppGpjGv8v4ed$h$!3ekuG9DFXzRTRVMU0S0VSM1LV0SYaXZWWWWaaSXMJaVJMLzTRJOLzMRRJaSJRRSVXaU10CE",
"BHHijjvthItpopoohlglul4m44vvgpHHpsksdoum!hHiIHipeegghjg$smesstWDFXTTVRzSJSU1V1OLV0bbJSZWXZaabZaYYbbbYLMJ0M17LLOTRSVb0XaSWSSYV1CE",
"BHiikstHHHH5HtHvlhhlddhues48gokjqellljgdephni$sqkdggd$h$ksp83n9DFWTT1RVJJJbJMzUJTVUSaZXWXXZXaSbZabYSRM1R1PJNOyRzSRJUZZZZXZYXUJFE",
"BHttkpsqGqGqIpu8ophkdhfd4ev84soqpv4eupdfloI$I$i8kkkkktl$plhhsGWDFXTMJTMRVRbLSUUVXXUZWWWWZaYZXYZbaMUabbLRLLOOzRRRVSRVZWZbWSZ1bJFE",
"BHGqtHiHo$GGIGH8kiou!dgludd3guIogeulllllooHhjHiooookvun$hGHpst9DFWRTRUTRUJSV0J0VSaUZZWXWXbWaZXYMYSbS1bLOM1QzQRzVSbSUSXXaWZbbMUFE",
"BHnttiHGtinGuov3H$tg33ffggdgoitgllulIepooonG5n$$isghGG$$Iviqtj9DFZSJTLTUUSYZMJ0SVVaVaXYYZXZaXZYbYabbJLL16KTzTTT1SZSVYXbUSSYLMMCE",
"BHtt5iiGinopk23hjHqgs$ddd4deeiGhhuuhndslllpt8u$$hkkioiGo$GiiG$9DFZRTTVSU0XVSU0SSS0VVXaZaSZXaaaYbYaYYMLJJ1RTSMTTZZZb0VbVbaYL1LUFE",
"BHItHhHGtp888khkIG3euudgrdmmdl5pssukdeve2st5tuj$vskk2q5hqHH$tq9DFWSXXSX0R00Y1bU0J1JMSSaXYWb1aXYYb1abMSb0MVSSTZZXZSVVaVaXSLOJYbFE",
"BHHjHiorps8uouule3mse24emmvepo5sd44fd3r33t$tt5jo8du2tsqiHjHqppWDFaVSVZJSZUSUYXUbUYVSYSXaXXYYYYYLaaaZbXVJSVXSVZZSVZXJJXS0111b1LFE",
"BHjtG5GI8phmkdmIIv8842m4m8ggg!$ufreekppp3HuIoo3uh338qqk$$iq3Gp9DFZS0a0aZSaXZSSbaaLX0ZZYbaabaaXaYaWZbXaJXSWVZSZXYaXY1aaS0MM0J70FE",
"BHopikppdegdkh333gg4$mmmmmsu3Hoo2m8gssp$tilk$rpgspHqntit$th5ko9DFWZaZaZXaYbSaSZbMbSSSY0aYa1YXaYZXabaXYZbZXZXWWSbbYMJaZMJ11MNT1FE",
"BHksssdlsdjmeepkkkkf$dvs4d33oGih$mvm3pvIGokee$kkpkqi$iHIHGqtpo9DFWXVZaZYbYSXZXY1USUV00LSX1bXZJZZSXYaZSSbZZWWZZXYYbJLbYb0LJOLMLFE",
"BH$$$ssklf$4m3eggohlj4em4mpgkHjh5$issHoou$Igpjj$2kkvkqGGGGGnni9DFWYXZZXbSSYXXbabJVVbVJbVUY0XbYZaYaaZaSZXZSYWXZZa1M00YaY71OMLMLFE",
"BHuol$$22lh8geglkgddh$emvevkprIItnutipskoojoke4$r3khklvIHjiHHj9DFWbJSZYYXZSYMbJMVaVbYMSV0SSbYaSSbaaYYZZSaXYXSXJYJVY1Y1LOMOzRLOFE",
"BHggplugd8lkgdlodpdgd$4mm4eep858kfjjpgsgg$uh$3gt3$fgke8Hp35qHi9DFW0YYZaJXYYYb01aaXUVVJVJbbMbYYaabYXaSZZYXYXXXXbOOLL01LMOLOKO7CFE",
"BHkpdk4Ie48hgedkhe44Gdf$ee44ppqle4df2dhhoj$osjvl!jkdd3eIvqIIG$9DFZ0YZZaZXXabb1JSSSUJJbU111J10JJSYZaZWWZXSXWWXXMOOJLJ1JMLLLQP7NFE",
"BHrvdeeveemgeglopgde2mrjggd4kk84ddflj2g$jjllr4e2$$rkgmep8vkvv$9DFZ0SZaaSYbbaML0SZYL0b1JJMJ0M1aZXXYZaWWZaXZXaXY1M1JL1JPNLPOONNNFE",
"BH44spsmpsdgev!pkdh$n4$vshlm8vIe44mmd8nuuujudkgj$$kgemv3Ihlous9DFXSYaaaJMJUa11SZYbMMJJ7LJLLJOSVaSYbYXXWXaaWXXbaJY1M1LO1NNNCPNQFE",
"BH8gd38gkg!lg4fk2!p2djem4luul!3mg!4mId2lluudfd3$g$lugd3vegmukdWDFXSXSYXbSabaabVXbMJJNMPL7OLL0abZXJaZWWWWZWWaZaaM1OOJO6P7NAPAwxFE",
"BHmdlhhogsspemev2$n4ejfgdlf!ge4dulgdff2dlhle2gH!$3dgdm44!kgk88WDFWXYSaSYaMSSYSYab1YJLMQzKOKSVVa0UYZZZWWWWZZWXaYOO1ML7ON7y7PPyQFE",
"BHdffulgpouGdm42vjgddg$4edegl4edvfegjkfd!lddff4d$fgff4shgdkmmeWDF9baVWYSbYZaXMYSbYY0LLM0LzzTVSSaSaSZWZWXZWaXaY1LNL1LQNOy7NNywQFE",
"BHkhlulloHqIkdjvdmemfljd4fh444d48e!g4kkkdgeuddmjf$pfhdglhkedI5WDFaVbUSYYaZZZJabYJO00MMzzJ0RKRZSSXZZWZZZZXYbYYbOOLOM17Pz6yyywz6FE",
"BH3fhfpkjit3pg4m4ldemffdelgmgeg84e4kfgollkflkf!e$$egefgd4d4vedWDFaXaXWXaZSZbSJYbYOSM0J0RMJMzSWXSZSaZZXWXYYbaJOLOLLLLQw66P7cxy6FE",
"BH34m3vspGiGdg42edgm4eh$mlf44d48de4dgpokjhems4!e$fdem4ge4m4mId9DFWaSSXZaXSbUYYLJUUbUYJUJJMM0ZZXYZbXSZZWYb1abMOMLLJVJM17wPPAw6yFE",
"BHde44mvG3ipfju!dgdf43vt4uffdd4ddegfdghuufgemj$mge$vvmgdm5meIl9DFWYZXWaXXJaSbS10aZ1UMVJL1RTZZZZaJbXZZZabJOJMYJYaJYVJOOw6yy7wKPFE",
"BHesgpgp$tvu!evddI!8IlmHm!44gmke8djdlldpd!jfef84me4$s4vm44d8glWDFWabZYWbaUSXMM0aS0VJJUJLTTZZXZabaUWZXYbJ1OJL1abYaSaJ0M6zxPxTxzFE",
"BH3hppijihjqsdd88julf4medd4vdhgkl5edghkkfje4m45f8g4el8meesgdfl9DFZYZbZbYbbbbUaMZJXJbLS0JVZVZVSabZaXZYbaY1MMba1JXSaaV0LOK7yyxQPFE",
"BHttj$$G5vnoodkIj!4dm$m!fgg4ehkIgjdldkkujemrddmd4f8IeefmeegfmlWDFZbYaYYbJJbY1Yb1JbJ0MLMSXZVUYJYbaZYaab11Ob0VVVXaXaaUY7JQQNxyP7FE",
"BHj$jtHikGnhgldI$ddeugdfggegelos!kkkgoj2jlegem4gdek44kgeggspglWDFWabZSYZYYUYJSJVSUaabVVZXUaJbSYZYZbaYbYJb1JVbbYYaaaaL1L1KPwxxxFE",
"BHkupHHjtisv4vunjhd4jlgd!egklhhgdsmh$jklukmm4!dhded4dlfssvrGioWDFWaZbMZaYYSbSXYYaabMXSXaVYSbaaXSSXb1YYYbJJU01bJZSSMa11LR6yQwRyFE",
"BHudoeotlh3oi!$j84dd2hpfdsmsgoihpkhnhfluudd$$gdl4m4dllghpIsH3tWDFWSXSYYbLJJU1SbUUZaZZWaZSSaYYSSSXbYMaXbJ0VMJV0SaaMaaJJMV1QzKOQDE",
"BHe88v3tvk2uo$dI!r2!drhlde4pspkpsgs8r4dp$$$d4eg!d4mmeglgs83GsIZDFWXZMUbb1bYMJYYZZWXZWWXZXSbYXaXXbYbMYY111J0abVSZbaXYJ101LM1QNxFE",
"BHv8g3kHhjHf$k4v!mI!g4d888elsuppopgs48!$gedgdffe42mvmsgktGGpIISDCWWXJUYbJ0S10SXSZZYZXWYXaaZMSZaaYMJVUYJJJaLJaJSJYMM1UaLTLTLPQQFE",
"BH8vdg3itiujfdevm!rI4fmuefuslholhospdmIve4ddlfdff4d44pgit$HiqG9DF9XYJYJaUYMVYXSYaaXYaaYZXXZSXbabaJSabUJMJUSJUSUMUbJUJULbJSJLOzFE",
"BHkrmdg3HG$keeeemmm88vvr4eegfglktiksggefklulg!!jsdd4dlitiHiGtI9DCWXaYYYbVUSSSZYVSZZXXXZXSXZXbaYSbbMJbL00XVS0VYJJUOJ1J7bM0JJMK7FE",
"BHm45nv8$HHodeggI8md8454gd!es2$$$soskdgmj$j2j$d$$lfdghojGHpqnI9DF9XaabYSaYYYVaaYWWaZWZXZYaXXXbSYbMbJJ1JVVYJSVVJJ1J1MO0LLJMLM6PFE",
"BH$dde!jktHkkgggm!ddgeek!dg!e4dgk2$jlujje4dedesd$$udulhHpHiiHn9DF9JXbYba1JYJXYbXWZaWYYaYXYZYaJMYYYUbbR0SSab0bUUOV0MJ0JU0SJM1OPFE",
"BHl$!dgkeIhooul8gdgdhllgdemdddog8dll2uhudvddedukkt22flspjjHj8o9DCWabaYYSMbMXJSXZWXXYYaWaYZYS1SbL0YU0bUUUM1UYU1RVRZ0TTVVXVURLL6FE",
"BHeuggpvGoks3lk4hg4e8kkld44eddl8klkdfdehpmelg4fl!m!ufspkjHGIIfWDFWYYbabUbLVSSZZZSbSZSZYZXZaYZbYLaJOM1M0J000VL1MJS0VbUZaZYJ11MLFE",
"BHgd4dppHpeok8IIIIv8e8!f2e4g4e8edse3eedum5mrmekhgdsnjsspqjGG3I9DFWYabJbUJJZaXWZWbXXXXaZZaYXZSYMb0JJ1LJL0J0JJLJbUYUbJaSSVJJUTMLFE",
"BH4demmki8ddm4emsd8emmflh$4u!gelem3mv4mvue4m4m4uklfd$34pHjjnr89DFWXaYaZJYXaXZWYYSaZWXaZXbbZaYJY10VJL1RMT1JJLTJ0J0V0RSaVOJb0OP7FE",
"BHv4emllGtemm8v43mdmImfdfd$dgememessededeIddf!lfegg4f2vsspipg3WDF9ZXXaaSaZZWWWZXaaaaaZZ1aXYYYbJJJ0U1JRJJR111RSbMVJUUbaMOMbOOLOFE",
"BIWWWW99999WWWWWW9WW99W99999WWWW999W999WWWWWWWW999999999W9999WTDFRCCCCCCCCAACCCCCCCCCCCCCCCFCCCCFCCFFCCFFFFFCCCFCCFCCCFFFFFFFDDE",
"CDDDDDDDDDDDDDDDDDDDDDDDDDDDDDDDDDDDDDDDDDDDDDDDDDDDDDDDDDDDDDDDEEEEEEEEEEEEEEEEEEEEEEEEEEEEEEEEEEEEEEEEEEEEEEEEEEEEEEEEEEEEEEEE",
"DDDDDDDDDDDDDDDFDFDDDFDFFDFDFFFFFFFFDFFFDFDFFFFFDFFFFFFFFFFFFFFEABBBBBBBBByBBBBBBBBBBBBBBBBBBBBBBBBBBBBBBBBBBBBBBBBBBBBBBBBBBBBC",
"DRVQOQOww6wyzKKVVSaUMSa0ZXZWZWZZYZaZXYYbY11ZYbJYaYXWWZWaZWWWWWwEBGHHHHHHHHHHHIHHHHHHHHHHHHHHHHHHHHHHHHHHHHHHHHHHHHHHHHHHHHHHHHID",
"DMcNcNAAcAAA7AcxcQKyNwxwzxTVT6zRKTLVUM6LwOQQPPyQL7KUVLU0SVSXaXCEBHlgddgpi$ugvt5hhkugsd!gljlu2d8$22$$Glg$feehhl$qpkGghude4mdt4l9D",
"DMxxNc7Nc7AA7AxyRKyywRKzKRzzO7KLTMTVRLM1Q7767QwQ6ORz1JbVSYaSbbFEBHm4meke3He4uopkddg4Ikgmmejd224jpiGnGkg4$$edds$8hHI4mrsdd4d!ef9D",
"DJwyANCcAAcccAxQwwQwxzwKKRRQyQQQTKzKLLO6KyxyyxP6w6QORMMVbSU10LCEBH4vevIvmrm4fmked5ddnfglf!f$!m22sHiHpk2hjddvstpgf5I8s4mvefemeg9D",
"DJQP77Ac7CAAN7cwKPQOwzRXVSzOQKRSVRMN6zLzLQw6PwxR666yyOKJbJJY0JCEBHeem8m84Gme884u8gff!ddgj$j$r$$jkoHej$pjpsd5t!dmIfjeg88vmmmmm5WD",
"DSA77cNcCC7AcNzxyQwyKKTJTMLzKQ6STNOKR1ROPOK7wyzy6K7x6KQLJUJJOJFEBHde4mmIn!88evvI8mfuhd$2df4gfloohkohiqI$vH55gdf!8l$d!8vmmmee$29D",
"DV77yNy7AAcccccyy7yPQKOKOOOCKKKTJOzR7RKQwT6Qwzzw6P7z7PKR0MJ7LLFEBHgplldg!lkum3v8ulee$Hulk$dekluojk4tt4jesj3meemddl$d4d848m4d!49D",
"FMx7xQxxccwccc7ycAxwKK76KNyQTzz1KVLKyKR0KO6QRRz7NP67yw6zUMR1zMCEBHgkguggiolkIII52qjnpHtuh$pjjpohfhkHo2usGvvveveef4$fggfhgld44$9D",
"FUwycwyA7cAxyPQyAKKRQ6PwNOyVKzRT0LzKORVLLLKRR6K7NcyNyzKQK0VbMJFEBHsfkedkt2IGG3s3G$nHjij$j$HtjHtHjukHiuge8rgmfufdd!u8gfgf!!gj$4WD",
"DMPQzxyN7AxccNxPQcKwxQ76NzPKzKQ1KK1PQKR67Kzz01MCCyyyxxyzSS1JTLCEBHl3ksdqtkksg3sjfunn2it$HuuoookijkhHngI4!Ge4ghgedflk$gefdmg$4gWD",
"DJwwxwwPywyNCACx7TzPyyKwNxwQQTLM6L6OzRROQRKQQQQCxyzccPPTVJOR1JCEBHlph$$$jlhemkevd3oppoiipn$hs4dpn5Hpjd82rmvmddddlu4vGedfd44t8mWD",
"F1yQKxyPwPNANNAcwPw7yR66NwQwzNywOQ7QQQQKLKQKOzON7xQQPccRROKJ1RFEBHpkvin53$$kkkevvvghpppssjp2$esvojt$sm85eev4d4dd!fdveeedd!4tId9D",
"DOyR7yNyy7yyAA7xNcyyTw7QNyN76OyQzLQyRNK6OKNQK6Q7NwQQyyRwy76LLOFEBIGjrGvhokfdoos34gkllhkkged!hhd4keh$gedtI3ed44deefg4vmdeddrj2n9D",
"DUKQ6ycxxPcP7ANy7cxTxQy777yQxxKwKLyyQwyRKyKKQyyyN7xyPRyy67yQQMFEBHpspGoh834$eppspnGsdggu2eem$$e$$$hgdmv$mdevleguj$f44gukkddj$l9D",
"FZxPyxxyPccNAcNPcwRQR6OywQPRyKRzRLOTKQQTTO6Kww6NAQxwwyAwyywOyPFEBH3v3piheldk$$$HIIIs3v2geeu8vgd$!fgfgemfmekl2u2lllld4!kdlgul$l9D",
"FYcyxxyAQ7QNcNx7wxKzQzwyNywzyRzKO6zQPzzz6LKRKR7PxxQ7x7y7xyQ6RPFEBH3vepklddppp$tHv98o$jmrmdesm42l4$dddff4lkpe48hluufdgulkhs8gdu9D",
"Daw67PNxycyPyxccKxQRzQ77yKxzTzz66PyyN6Kz6zKzKMNNA7w777yy7PPyO6CEBH3dpkgsgsgk3iHjuGjj$$v4du8mdejfe$dm!!ggd3evgkvduuhdegkevjgllfWD",
"DazNAyxP7PyNxAxPQwKzxPPwwQzKTTOzz6QQywTzy6Q1MLON7cx7QcQwPPyK6wFEBH33lruollopvvojit5288G5mremfjgegej$gd4e4k33dlu88f4I8dfrjllgg!WD",
"FJNyy7cNAAAPyPcPPxTzQzQQzQTRS0QQTQwRTTTzKKKyyLOCAxQQAwPyPxTwTQFEBHv3ngdeukoo3kptiqquf$j82d4efjdlfpd2d4e43ppspulhdfrmm4dfevm4md9D",
"DMNyNyAcQP7NAcyc7zTyzzTyQTRRMRTLKzRSzTRTOQQNyNNPcxPAyPQQxKRQwPFEBH843jull8IppIviG2p5!vrd$m444gjgd33tmdvvvm3pivhfkde$ggmemev4rmWD",
"DM7cAyyxcwNANcNwzKQTQVy6zTMzTVJOKKzzVSUMRL6P7P7cy7AxNcTKzKQ7QQFEBH4djuklhko8I5q8Iq8uugd8Hm4!deg4mvs23vm3s$Gh$ldukhf2e!de4vvvm49D",
"DSA7xxccc7ANNcxKwzzRzQORRTMTUKzTO00V0VJ0MOyyyyy7x7c7cxxKwy7zK6FEBHvmf3gkoHtq5qGokj8oogej$2mmm4dgpsiijf33kohlonjggemu8488IIm4mmWD",
"DVN7P7Q6NwNAAQcwzK6zRLzzQVzRNz0LTRZVU0J7OPQPyx7QAcccAzQz6yyT6zCEBHmdrjuooHGliliHv8qGok8trtemdddloIjHHHIs3o3HHGHj$flfeeedd4ml4mWD",
"D7N77NN7NyA7NxQTKROTQQK1zMLJz1JzSJ0SJbLPL6MO7QycywQyCwQwyKzPKzFEBHd4$lddk$iinikstHuhoelfgdjffdkotu8GGIG3eo5jHiHhe$uld444pldgge9D",
"DOC77A7CxcCy7xxQxQVTROKKVOM7KLTSM0MRbMOPOROQQKKTQw7y7xzxyQyPKKCEBHe!$dgkloi25phktH8osklhfemd2$hottHokHHGGtHjiiu8kf3gsegddkefg4WD",
"DNAw7y7AcCAyycxyRxVy6zOLQMOwOTSV10J0a1OKKQz6KRRQwNNAwy66zKywVTCEBHgjekdlhhIHl5h5gp3otougdr8gv88piGIp83ptq8phktGjIg$pkplhfldge4WD",
"DTccxxwyycyyNxQzyKzOzyO6OO7KKKTLMOMVJOJzKRQOQRzKyN6PN7NPywKRwTCEBH2deefk$oi3Iniss3s5Hs3mm3mgdlgiqrGioovG3ekopGGIhis$okdgffgng4WD",
"DMccPxN77c7ANQwwQxO6zONP77KyQKJKOT0JL1M0JOzMQKRMP6NAAAcxQwTzTSAEBHjeedu!so3vpppIi8pqpIo3gvvm88385$oHI$opsg88IG8I$pkjoosduulIdgWD",
"DKCAcAPNANN7wKRQ7yzTwOxKyKwPyL6OzSMO1R1OJLzzzzRM77NNAccxxzKzS0CEBHge4u2mkoHHIqqIjtj5G8osmreI44spjjqp9qrtlp3Gq$HHlg$fgksmddllg4WD",
"DOcAN7ACcAcyzQwyQxTQQKRPzORKOQOTVJOzVL6RKVLO6zzONNQNNyxcQzKSZ1CEBHdmfknl3ijikseGiHiIH8lgmme!e4sdojiGlhoHIplnivhql$ds3mmd4fuuf89D",
"DPAcQcNcQxNxwcRQPTT6zz6KKzRzSzzTV0KT0JzVLLQO6LyCNxCN77yQyKSTR1CEBHmdpkmvhtiIGqGhIvItIoooseddddefoi3ighopInIIGt8oe$2pg484fkfufI9D",
"DzAAxAc7cAcwwRSQxzSKKRRQRS0RSMzSTPRTO0LO1OOyyNO77PCxwc7wwTSz1JCEBHuujlloliuiIGH5piIvuiiik8dllhgkhpsspk2$$juohkhpd!2$j4m8mfllgfWD",
"DLcccyNA7xTTRKSRVTSLRTTTRRJVTLVzRMTRz1MLO7RQNPRNCA7xwPzKzR6LM1FEBHo$kqti38iH8ttIi8$Hqin5le4fd!fkdgvgrgojsksklkgkre2uee485mdeefWD",
"D0Ncy77cwzTzTRSV0T0MTzRSMVJVSMMJ1LKR1KPOKyzNP6y7NxAzwxKyzQwKKMFEBHvjGtGtvrtoiII98IGGijGnke4mkdffddmmj$j8gggpd!egddl$e445vlg!flWD",
"DMxA7Nx7yxxxyVMTVSbVVSSRROSVMJO0JM617Oz6yyyONyxNAK7Qwy76QQzKRKCEBHhhkospq!sssiIIGpHHij8Idm4mee44ddu!ed$8dd44s4dflld42mmveeevdf9D",
"D1PNANx7AxwTRRzzV0VSS0V0L0Sb1JLJMLJOLzJOTQNQNQPQyyKyQ7wyPzOTQKFEBHlkge3s3sv888s3sj2tiIGH8Isgsdumrjmmf!j8hl!edddmlf!4Gemvmep34eWD",
"DzNCA7N77xRQRzKzLUJUbZ0LMSUbR17KOO6LzQQz1OQOPPwPxyz6V7P7y7R6Q7CEBHkddedggp3m4Id3sGIpq3ppn8Hi$jkf4mm4mf!jf4glfmmeelle!3e3skHGgdWD",
"DONNN7cAxxRzzRzKJMUZYSNVJM01LOLK7Pw6QMLQQO77y7yxwzwzPyw7xQT6OKFEBHfglgllf4eee88vsHtptqspksp$HGuqpde4m4fgj4lddeeglldgqjlpthiinqWD",
"DLA7xccwxxTKRR6KzXZSYUaJNMNLKLLK7TMO77PKQNQ7zPzPyxNwyxwQ7zVy7zFEBH8!4mefd4m4m!8mvGt583ohppd2pHiijos4eme8!eeeeGHjsqHHivIIkspiGtWD",
"D07yccyywTT6RQRMVSSaOUJOP101R1KKPKQNxOKQ7QyyRKwyyQyQPxzyQRS7yQFEBH!mmfffgd4re84fsssspkpioksfpHGjjHttsGdlk$kpjtGtHophlhhhjjegssWD",
"DLxANcxcwz6KTzVUVUJU1JOONR0VMMJO766NQQy7w6KzTzQ6wKyy6QzyTw6KKRFEBHrv8efuugf!eI!lds3esgppgppj3HGru$ijqGviG$GHHopll5!dfh$vdd$ummWD",
"DR7Nx77wwyQQKQRMLR0MbM7OOLL1LLPL667xN67PyKz6VOKKzKNxyyQRw6QROwFEBHmmg!!uvd!!f8rddIvdglfhfplljnj2ullk88iiHpkkpov8smI88p8Ifln$dvWD",
"F1ycAAycxyPQKz11R0JJbOLOLOzLLP7Q777yNxPNyQy6yOPyz7PNQcRzKKTTQ6FEBH42k8gerId4Ifes8Imgellhlde4upik!8pkoGiip$gopogvv4I2$kkmlllgkgWD",
"FJyccPNxAcyKKQQwzP0MUNLN6OyzNO7O7PNNNx7xyPxx7yQwwNKPNTTyzKT6N6FEBHe4lm4fmI4444em88vrkfdhlgkhgopgpIlko$$Ht2$$pj34m8mImvdu4hlekfWD",
"DXxw7x7ywyPKzRwRzO6LLO7QKyyKNO7Py7NNyAcNNPyyzyKR6LK7wxx7661QKOFEBHuse4d$dfeI84m8858mee3dhjokk3vuj$$$$uopspokjk$2!!$$mdlhgmddfu9D",
"FXxyQNcNwycRTOzKLQ7yKKQ766yQCyNx67NNcPcAAwxy66wzKOQ6NcxK6zO6KKFEBH2mdf8jgld4r!4med4memefkpit$HIpkllmvhl3kolk$!erv44l$Imll!vvgl9D",
"FXzzyA7AAcxK6ROLO66KzQKOPOPN7PwyPA7cNN7NxxNPyzK6PyNNNwyzy6zwQMFEBHlgdd!jrelgdIldmpf!degud3lnHItiuhlkp848ghkdjms4e44evjI5femehmWD",
"FXO6PNcxPwwwPwRMyP6KROPOK76yQ6QNC7cNN7xcxAAxzxyOPyPPyyPyyx6PKNFEBHlgghg8dgdfhf8dgeduggdkluotr5iHvhohp3ekoohhsj4gd4sld424Imfghl9D",
"FZRNQQzQcQyKxTzOOKTwQOQRzyzxyNyCC7ycNxNyyxNwwyKzzyzPzzQ77w7Q7PFEBHdllm$ddm!fvu8fldeedgghkqijstHiiphlp3koooolkl$ugsduerj4mIe88vWD",
"FYOOwz7QxPyzK6yyOzKK66OKQL7w7PAAAN7CA7NAxNPycywy6xPQyyyNxNyPyPFEBHslluIeemv!gklfggdmdrgoHGtmlsHHnollpemgkhoglkgdpseged$dlm4ggl9D",
"DbLOQzPzNycPNPyK6K777OP7NNN7N7CcNANAAN7A77QAAP7NPy7xQxywQyxxKxFEBHde284mg4fd4Iskdm4m4vmpijj33rIHtkptld4eglok34emgpgkl4!$dv8f48WD",
"Fa6zKKzK7xyy7PKPQwP6yy7QACCNNNNAANANNAAAAcxcNccyPyyy6x7QKywPxyFEBHs2eIm8I!ndsp888r8e44dghojtnIGhhoIjh8d8f8mmIIm4eegedd!2f44sme9D",
"DXMRLLQNOROK6AP6zONPy7CyANCNCNCCCACCNNCAQANNCcAc77P7N7NyyyyKP7FEBHt$483vvg88kokioogIe4glg3lollphollIo8hdId8mvu4ed4dglfvff$$$g!9D",
"FX1M1MyKTSKyyNwKyOCyPNNyANC7cNANCCCCCCCcxNCNANA7PN77C7yQP77P7wFEcIj$km8rmmepe3qqjkesvfmmepleglo3lhlg8HphsI8gh4emudl!mlklglges49D",
"FaMRzKLTQzQN7NA7yN7x7AANc7NNCcACNCCCCCCCAN7AAcNCCN7CCCNN7NN7PyFEBHnjpksI8pd33IGiGkogplkff4e4efgssskmgpkp4mIdggd!rI8gdlolkhe3hdWD",
"FbMzL61zRzO6CNccyxAPNNAAcCA7cNCCCCCCCACCACNAcCCNACCNCCAN7CAAcNFEBHttHiottGq3G8rHtrluhhu!dedgd4mgo3Ivkukmvf4lff!fe!ggkglhpokgk4WD",
"Faz000LMQPOP7NwzQ7NcwNyA7Nc77CNNCNNAAAAANCCCCCCcCCNACCxN7ccNxyFEBHIHjjtnHijviG5Gs34hhkpememmddgfkiiu8lem2segIu!!dfkfllkkulog43WD",
"FX0UMR1z167NPy7yyNA7PNNCANcCCNNFNCCCAACCCAcACCcAAAcANxxcNNAAcNFEBHHiHiG8irtuHvptpddpssogshemfgp8v$tk8kedgg3l!8fIgddselevdgpkpeWD",
"FWJRMMJ1wQyPyyxcPANcCAA7ccANCCCCFCCcACACCCCAACNCAcANAcACCCAyNNFEBHuopkIsIGlIiI9Ippkdgkkke4m4m!34poHi38pvggg4vervugugek8vd3pokp9D",
"FaM0MJOLK6O6xPz6AcAACCN7yx7CCCCCCCAAcAACCAACcNACCA7ccANCCAACAADEBHhtGvv3Ikk$qIuokgldlllsdgmmddkgpoHisIddeje44megdfdjmv88m3eohk9D",
"FX1R1J71LN66wKPy7PNAANAANCCCACCCCCAcACCCCACANCCcAAcCC7AAcACAxAFEBHH8vkklplg$tikulhfeeeegludeggg3uIIopIhlukkemmmd$$$vem3v5eskpdWD",
"FcCCFFFFFFFFFFFFFFFFFFFFFFDFDDDDDFFFDDDFFDFFFDDDFFDFFFDFFFFFFFDEBI99W999999999999999WWWWW9W9999W99W999999WW9WWW9WW99WWWWWWW99WTD",
"DEEEEEEEEEEEEEEEEEEEEEEEEEEEEEEEEEEEEEEEEEEEEEEEEEEEEEEEEEEEEEEECDDDDDDDDDDDDDDDDDDDDDDDDDDDDDDDDDDDDDDDDDDDDDDDDDDDDDDDDDDDDDDD"
};
