/* XPM */
static char * image_xpm[] = {
"128 128 64 1",
"A c #5a5e58",
"B c #6b726b",
"C c #848a84",
"D c #737670",
"E c #7d827c",
"F c #7a7e78",
"G c #61655f",
"H c #5e645d",
"I c #2e302d",
"J c #171817",
"K c #070707",
"L c #1c1e1c",
"M c #222321",
"N c #0b0c0b",
"O c #383b37",
"P c #6b7069",
"Q c #6e726c",
"R c #8d918c",
"S c #888b86",
"T c #666a64",
"U c #686e67",
"V c #535751",
"W c #7e857e",
"X c #818680",
"Y c #767974",
"Z c #767b75",
"a c #7d837c",
"b c #919891",
"c c #9ba39a",
"d c #7a807a",
"e c #70756e",
"f c #7d807c",
"g c #81847f",
"h c #70776f",
"i c #4a4e48",
"j c #5d625b",
"k c #333632",
"l c #4e534c",
"m c #454943",
"n c #282a27",
"o c #575d55",
"p c #898e88",
"q c #858c85",
"r c #747973",
"s c #636861",
"t c #7d8079",
"u c #555a53",
"v c #636a62",
"w c #676c65",
"x c #5c605a",
"y c #6a6d67",
"z c #787d77",
"0 c #858884",
"1 c #818881",
"2 c #899189",
"3 c #8e948e",
"4 c #111210",
"5 c #3f433d",
"6 c #848781",
"7 c #727972",
"8 c #6f746d",
"9 c #040404",
"! c #757d75",
"$ c #7a7c77",
"ABCDEFGHIJKJJLLLJJJJLJJLLLLLLMLLNOPQRSSPATUVWTXYZabbcdbefFfbRghHijkljHWAIMKMJJLJJLLLLJJLLLLMLLLLNmnmlioRBFeFCppqqrnAsHQagrpttpWY",
"rAGEXEhuIJKmjTsGvOllismlAiTUvwxnNMogPtPTeUyPzgFtp0p1b2pft30FXSGuxBGljwAVn4K5iOlilmsAlloGTjAAHjHkNJI55jhRSp3zQg6aRxTyHQtFYfF3gzte",
"wvzDGZROnNnUccRbSyDForXBcdccccSiLKmYe7UUW3Z0daEB3RSzERZE12bbg2q8oPsjvBHnJKLAzPWAtU1R1cccRppqq6f549MI5iTHYpFeZ6p13Qd8sjQ7TTFXz82e",
"A8CQbPVn4NiqSgFrhWXCdRF1WaYX8pSiINnIPZfQUXcdcF8FB6rX3rP62bpceaDdSRfTll5JNK5TTUZerYYP630qBXe7rbCxLKJkUV!WZ1p0YpTgXYr$gTyFBsFF$za8",
"ezyyYPkLKnhcpX0FZZ!EpDxfWQzEZCCTmMKOTEYptw8TdDUsB7d!ehFztaZRWsoex8imHVnJKLTzw7H7Pd3hSbbFzz1SU$SwIN9Lmsraj1dSzfaaYdUg0EZgyHgp32gX",
"bP6$Y5I4NiQz1SSDU6UfCg$Efdp16DpzT5NLlrdE2FdzGPuWArF1U8YDzD7FfUBowAOkOOM4K5oQsAZePZSSebEFX1ZWZzr7OLNJ5B8U76wdGQdfFvveQzXPxrT0B!V7",
"!Q133OJKnPcsZXXQZdXZ3aEUFFZ$SZZUzOL9kyRX1fRUGPjmuskHVlpYDjtFrPxPYfzZULJKnGhAQyQaBg3fF3PEgQGrpf7xmIJ9nlQZR0XWzgQTUAswQPDhghtCz2iW",
"eAyPin44lRtRPDCY76zS23dhswQYrRZjAmINLV3S01DPPFmkVOP1PVQgFPpgZTHzThSfmMNN5QyUPEZYZRgfFZsvAGUezirsu5MN4AZe6Rtrp8GHohHPjOes0WeDeGYo",
"HxS1IL9k8cCg2FgS$zS6cBwTdxlPEzHBPAmM9IPWpatoPPFFsBr8WTlGFgqzCjPPoYrdkJ9IdcZ6QS3prCt6wxPHu8vBPoxTGHOJ9nAW3p67wHsZ880pbkorXa0tQGzG",
"HGTmM44iqSbR!Yg76btbXoPPhGlBsBvWXpuk4J5H$pb!ZyCrGPDryswBVPzddWedhRFHM44ub0pZF7rZdCggfwqBwevPPeCBGPxnN4OP0BHGoHUZCg0S3dT81rFqWXul",
"HUQkM9IDc3RRqBZD1fPWPr88GxGssshxvyziM9n7aRssyFQWUBrV8G8wTtPg1dDgbesIL9IPbUZdp61!DQ0Ca3PdzGGxlCqZFXQ5L9njdUxjTloddZg36CsxHVAp30FA",
"lGOMN4u36XWb3bFYPFZDW$sTQx2VuuGjv8ZsO4JlWZjPFeZQpyr61PwPhP1b0!FhyDkMN4laePbBe11wQyYSXC78yHAjAuhWhrrin44IlwqEDxwpCwF06hsHxxssYPZl",
"jPIJ9O$brz0Ra1ZcFeGwEZPuHyWboCtZ6Z6jln9kUiVj$SPbppFUeBDdD7zfbppxsAn49nscfR337wxijFQYEUGhuUAPyQ2CQvXFmI9JIGp7BERjRzXR8ioPToxQeFZ8",
"Y5MNJxcSWHvBA!zW2ET!8HHTe8XbgErBeU6UuOJ4MimjrBQQ7z8rUGBxWQgqpCPhVkJNJ5wXPdpylVoHiBP7PjUWGov3hrPZyEA6j5J45Hap7zfzp7YRhTymuHuuwgUu",
"eIJ9kZc$aF8VA8GGGQFGFXAEDRrX6FZWXc2zZOL9LmuliQAyA6gSWajjoBzdZ8P$DOJ9k73hegADPHGmOi8eHQmVjAgpR7TWSrR3zlkKIoCtEWrt0FwrFe5jVVV7P3hp",
"5MNLAbRa0qQv7HuhE70fF8wFQPPZaYEC23RSoin4NmHsbTTAT$bbqTVGrvbfg3!pkMNLiWTeVZwso87wH5iUHsVispZ2t$ZzWBS3ds5L4OW3CFSXb$YYRE0d8rjByCRC",
"IJ9O1SfPyPZs7jGvbSwwDPFHT1$WDgSREc2W3$lnKnoers8pt2dQ3ollve3Xd02rI495ewxqfTsAUoP7UDUsojoj6d0pSFy6arbfC3GM9nPR6p36StDFXsabc3uQW6DP",
"MN4m2zRS1wVQTBxyzrdChezPdp$ttSgtccpg0pPOJNkoo7F171!CrTmTBvPR3pz5MNLVchjwPwsQ8lPdpZdesvrTZFEcw0$CdWzbbch5J4i$dFCR317vTsC3bcbdDYfO",
"J95dW8ZzP!wUrxovzZ8gf3$81Wt3bcp7EuZFd6d5n9MiHGGUyPQjxGoVT7W1rDsnJ9O82d1avAvrfUUhze8dGifRPZUTQuCETydaccmVIKnGbtfQ3!VVTPqqqzd8HwAn",
"NJizHwTyBCrHUOurw!dbW2cWEb33cbl5llUWfSexnJNOkIIkIOInnOnOIk55kOOMNLOdWtzSZGswUPQZE2WeDjQaX7BxuTvYEhHFqcpUOJN55OO55OILMIIkOIIkIIOn",
"9IBRQ18lEzP8Q1QSSYPphYSWd3ccwVki5iHG03prlMKMJ444J4444LLJJJLLJJJJK5e2p0wggQoGimtDD83qQPasWwHHHZjwvvwDcXZ0lIKMJJLLJJ4NNJ4JJLLLLLLJ",
"4OwFaTfYHsAswqZ1rEzSowGFWbcb2O5uB7oAEefelnNKNN99KKKKKNNNKNKNNKKKJmQFdZ0dtsuAOjuhtBYB2QUzZCHHPDQoyyqgybZf5n4NNNKNKNKK9KKKKKNNNNKK",
"9MxCcsOmsjTGPwt6bpDdxUzUzbccumH8BqvHDCYVnJ9OiiAGnIkO5mmVlliiimOn9MiE6!FrgwwGTDszhDxGdDXqSX7CE8Sze1aCdYpzIL9mVlViiVVi4II5OiViikmM",
"4NI!UiIInlorEDYSpthUDrQpwPTDCTuyDSesjf1mLNJsp0cRMdBEBWWtcc2zRbe5JJmjr6b3UUwAebAGWdp6DFq6p0WXabw0bXQtFQDOnNLG0cb3Xc6MOoXr6bpb3TBI",
"M9L5linseRjUBDF62W7zpSz2pppd7hyGhgwhmMOJ49OvcEb5vDXF6W32Sb30ZFFunKnldDx7P2hweTGsUdpHdAEX!QUPCEwYdqWWdg7nJ9IyRrSFjzaMmsjj6zq28W1m",
"IJKnkkkoolVmArS3C!XqS1RFprC6bctvPghbLOMJKJlcU3qBXD7d1ZQbCE31hgbVI4NOrJmxQs8fr1UozEpqwAiGqCSdeA0EQ8bqqbknNLucwX81MM5Ol5iTRCZbPpcV",
"OJ9LOD2EDtFhTag3ZfzP3R061!2g3c3bbeQ3ImM495Dc31X3g3vygWZEpErRShX0knKMi5vPaZfRSYZHZaQDtxZaYZUrdjBsfg$$hPn49m1cZbXxOLmlzd301b6hYsRW",
"sK4KkPEdZRZfZS3Yfghr!800SF31b23bCpd31IJKMGc16azYqp2pW33ZdXRdTDC0ukLN5Tr$61EzfC2yhdHjez0WF6qzr3EX$FCzyILNMob2bbc1ux5G8pq6tcYTbsBD",
"TL4KMlEwXzddgr1radWgzx!BZPz3cbb3$gZgjM4K5RafRR!z1d8BdWpYTwrAoDQ$f5INMiY3g2rdyERabCGhzFZb3t0zSCRpDWW0An4Km0tSYcaDzvjp700de8BhfvWU",
"umI4KkmjQZfpR6YqqzF2Psr!fusgQev$tQBDnLKMGSDr0X8R3X8efDrpAx1TPFdhev5MKOydX6dhqZWbd7HvGwlXqXpD7z6XF1RYOMNMVpfVFDXQA!DWERg7UAsrz8o7",
"VlknKJ5uvXCY6DsHXzZTUwwPhLmwyeDQpPpun4KOse1D6RdFFxDvDHVG5uihGrrdPdAkNJlTd06p8Ee0ZGlAujtbWggaQyPhQ1hoIJKm8a8AEP882ZdYpd1p!vwZe7U8",
"DSvn49L5uAPFhrs8U3EwxBUw!zPPAj8FYS8kLKnscQsjUqq7eB8yaQQ4IOxluGFQ7hBlJKOH!dVjBaC8paDAQFapcdZC6ToP7FpnnKnucEyfrPFhZXXbpWiTolsGFaag",
"EDdVnK4IluG3E8hG0etzxPAPrHwuVTxeD8VI4NmcpDUVx7PSaxDDthS5imAAuyEE8CqlINLuEb1PDQsQwDBUw82CC7Guxhy8YXon4Ni7dEDlO21ydYc30ullEFrywhfd",
"f1aTOL945w6z$ZtptgzXvU3dDwTPojy6FykLKIvbUPU8V!FRXeeegaXGPfdmuxr$g3tH5J95P3b37DPuljud3CWtgcnkHlmjWWkMKIscqX7mb7BUBXdrDmouFCtc2Cpb",
"0feDik44OUPYCtZSg0QwDSgjbPjoDU0qwmL44VHsWfD!CPX3rw06gpGuyzdHGhX3pFuo5nNLV32cjpkOmvg7$tbbZ1u8QZXzYln44o37e1zrZpp6CprZQVHPfZrEbXZW",
"WF2ghiM9LlC6RcbRS0thZ1XzSDosorgpXn49nieuXt6WWYSb11ERbbYz7deQFd0aXjAsHOJ9O72!BBMM55AQtpgbDzBU3RbSgILKkscYpg0fY0fRR82D3Hb0cgP8XbdD",
"C8sFrGI44uz0bhb3pFYrd0RFqREDwrrpVn4Nkd8761tXer3fq3CvEp73QE1eezRWPVAPwmI4LVCS3bcfvGAlz!epSCQRPpbziM44ltyeFZdRreyQQ8e2dZbSrezZXEU$",
"CFfYQD5M9kv33QcCgCShhzdtzERjQ6z0IJ9Ll2FpbtFSEzF0qSZzpBYdRcHW1CS0wTojPVmMKkG1Ub21TueudSqc3YEWXBZBnL94VWr8CBjwtHHGUQeeZY763$ppprQ6",
"b!D!FtT54JmR0erCvgyUHfQ$0E2W6frmMN4VcqyGeZjZgFadDBrPze8refXzgbzXFgjGuQlk4Jm11Rg33S2YgfXa20Xp1fQkLNNkTzCF3bBQyyGHAu7bEFzqpC$CpEBW",
"Y00ttptmn9IAEppFXDxAUsQTZSdpadSIJ9Iy8y8sz1FxrgblylPQ!832dfd7tCzPEsiGVfDin9kB3EGF1a0SDXtWdfZaYgIJN9My8sw8gFTzeEQjvFq3$$EcXC$E6gd3",
"rYFRCgpsOLJ5jlmii5II5knIilO5mOOMNJlbWwjQuyUZZzXQw0zFBfggg8Z1r7PEVVGTHQTx54JVx5i5O5imi5OOOOO5imJ4KKksdSpFgYr2WfEGDHefSYZDppXQpEXe",
"QepbW2dEjI9ILMnnMMLLMMJLMMMnnMLL9kPcQaDUGTUHwUSFRURdWCdDpgtQrdEBGiVuUsGEunKnJnMMMnMLMMLLLLLLLJ4N9LVwvEZWSz2ECr7eTdfGrdTCWSdF6Y$0",
"W3qpdRpPoM4K999999999999999K9999KLOUUZQaZQRjFXrfFXbQqeXpCYdS0Q8wI5AHAdCb7kJK9K9999999999999999994OHP6wdphhZaZ$FfpvYjwztEcfz6ghCC",
"RXCTpgvdnLKIOkOk55IknMMInIOO5kOn9MmiTWC7DffRhQ$RtpZErqsFp3tB$t85jo7Rps3bIMKOm5OOIMnIIIIOONnMnMML9ImUfbX6rFPr6bQhYzQBz2GhrXdEp2rR",
"3EdWUg7iI44i7!qjZp!3GUHuhXPsfEU5N4IVvoXSfzX3XUF8asyBsZpSRbg2zabbluQzD!pin44xb21GVxukuyeATI55v5fIN4kd$Wd2f3bz3qgYDFFUP7uUu$fZWUcb",
"qbpFwsoIL9IecpccbccXloixsS3qcRtiM9LmlF3p7$gb07WzXeuuQYz1qRXR!7eHPvwXe$ROL9IDc30zePsHXzWZ7u5VZrPmJ9MUzUXrfp006pXFrd7ereVxVSggtXbc",
"t7WRzjkMN4AcbCX0P2pb5TiyZRSRR6tuI4J5vh8gEabbcSDvlUdHGPfTzVqEwOmmioAYzr5M4JVccqhvP1pYSg1gBqIIiozlON45TgeZS7qgaFPb88p$EWZvD23pqgcb",
"EyPWQVMJ9OQcbbR0zbcbnhu!z2RppgXzmMKnTWeQyhq3gSUlVxr8zR3ZYbgX7PiHVGGWfrkJ9Oec5imTsWW33tFZwTlioHrEmJ9nlZC7sSEfXY2bW3WfeTPrFFfTdBYr",
"dFehDOM4Jicbci87Y3cbkoo8QXgb3EFDVk4JOPUwafbqc1jDZPHrEfE7b3b3PjsAulDXX5M4JucRn5GyRQXXfYSpB8GGs!7bun44kdyuwwyWdq3bzEhBXRfGUsPGAedz",
"6EQ1ekJ9kzbcSSrScccolAhihrBpwCXpf5L9nmPA$D3gg27PSrHArrXbp730qZYviszv0kJ9mqcbLTG6XgzrCtz3YExyHvW3oIL9LiHuHh2GDb3ERbRtrdX75ujPF10f",
"Cq6P5M4Jxbg2bfQ$hcbOXytmkVshDWrzAln4NOV!q1zweDuHZzUsxy1tabZzYDPDwsPyOnNLPc6D5dtP2q00FbdZz2mvxjwGTVO445oy3xyTHbc6BcqtFz7PBrHVHbty",
"cb28nJ9O!czttr66WcctWSweavhvPwGDVi5n9MAaRCEws8wegD7loT03grZdTyoEzQesIJ9mBS$qq7mxvUqpYtsye38mmUjjjV5L9nop0t$DQQf3cbQp0Ef8eCjuU6Dr",
"bca5nNJxcBDzFtqg1c3Cdb6S3PaTQBvrovsOJ4OfaW!GAYjUD1erxsuwWPFtGuQx8$dkMNMu7e$tpsuGeHjjlv8AQgqtor17lsmI44OQdXWFRQq2cbDbYgEt7P!Trzz2",
"ZCFkJ9Ov2gXb0S2!bqRzbW37txZd0dGPju0jnKLVy7pfPoafCsUAjiVTUdW3TTUjGBBM49OEdTCSWBQBUuwsouQTxtdxrWSfGwA5MKLmZbrEWYTbqg2pXzZzrYC1UR8W",
"sZkMNLTctFQESEdqcbRZVG3QEFXbaSrjqDrvIJNkjoY6oovrEwloVHHBGPWpdqDqzeOMNMA3pFXRSUAuiAUvHAulRqCEpREfAwwiIJNkHZafdEWCRpDQUeagTFFR3R7j",
"jmI49mbR76gbYEb0pbF8GBUwpTW3C7xBeCTGOJKLn5iumYVBDfPGHwHTB7EZrdttXTnJKmp3YRpt!dyml5lxPfxw1DQQrapdZjHTkMKMGDX3dyxDTHvixBvVds$YScdq",
"oILKMuXGsgF1apgdrbYUss10debt!eeXgsPGjOJN4M5yBHHeYZUAVAVxVhdf7Ff$FOLKn$cDRRcXXymmiYYvvHAe3ddZZ0jF8VTliO4K5Tr3df8xPsUAVTUH1UZWd10b",
"lnJKOHAuVa3R3fdWdR!2QyU0gzTtYQsQWClQv5nNMIniHsojolPmGVBQv3RXSbrwin4KOW27zzZ70DUABUPVs7qZ$ffpvFH8vs8AHkMKnV0RW1DzYUVACsv!GHh!rFf1",
"kLKMmBAw8raFbTrQSC6RSUyWrEzWFUfYabnosVOJNOjmwTyjluxZHjZ7EZzzWSUuILKLT1HVTsH7QaQjQYdYqpbBd600CPDuso7HTimLK5z1ederE73gSFPXGQTAQYRE",
"n4K5jzyTBHGwXeuPg1dE!dgQyWqprSp0bRVUVomINLlVuwxollewrvyW3pp30XUxn4KIwhGuiAwCD8dTzheQPCq67dS!sHGhVGP$vZVINnxWCawzGhtdezFrhPfwsrXG",
"LKnH1TuvlssYPgxBWpTTFaBfQRWBxEE6637ijVGmMKkytqZl5uHY0yj7QiisbQBOMKIk3hxerVUWFehXwsyYfZWpZgSBDTwoHDoW1eH5MKIxZvytZHHoDQ$Ccyhp3ZDI",
"4Nl0rzQy8uHsTYVAxVjUebRzDhgXhZcqRcA2rHsokNLiS7855nnvoHiuiOlxxuxI4NVkssHZ2DBzZeGUHHwQ1gaZls0dsXGUT12eYYBonNLl8AlVxliOmUGjlVlmTsln",
"KIWbQezermmZwlHiH5ml8XEQRxuBApCSa7Htbdui5M9OOInnIIInnIInMnMIIkIL9nuxlhPDwzHFebaHuwAabdzUeoxDCDQ$q6cg8bRRmM9IIIInnIknnIIIIMIkIIIL",
"Noc78R7CrWpeHooGiuVoGafziisxGBrqpT$BbdqEuk444444NNNN44NNNN4444K44kqowIG7UUPZgcbbxPPrfYGHsvd0agQdbfbS!BYUGk444N4444N44444NN44444N",
"NiBdsUwqg8hPlTs5uw7UjwxG7TVmA8F01brc2TdCkMNMMMMMJL4MMLLLJLLLMLJJNIsdZio1aQgbRQrlFuU8EjAHAhYpEzr!P2StdQUpOMKJJJLLLLLMMMMMLLLMLLML",
"NnmCAPwfWgF1FoOixswuPqXyQF3rOyz1X3rDQZWunJKmPoimi5iiATuVlsoiVusIKMlmVHsegz1erDieEFrDHxVmupp$ytSD!FbbBFgHI4K5AxHoslGDQGuVTHVjQwjI",
"nNkjis8gDgZBXgPGHjTHzEctX6RajGf6RSQf3pEkLKnyc2c023vWc3bd6cbR8WXOLKM5uoXWRqq6Pn8gRpVG8FzVsfpFg67ZrrSXzdFOMKnucbbqca3RS7cbRUUc3SyO",
"kNJ5mQQXEHZ7vGUDAVADrff0tSabplFDDp2RRdun4KiRbdtzgFXt6CZBBtFD6$guIN4kvo8gdCSG5ureCpZefB7rBfaf3qCrZ1C0qEin4Nm$bZ0Q!GyvwUz7SqFeBZtl",
"iM9OeQe8GxhwpAU57QjQ66Xab0RSWPUlxdYzzzkLKnycdgd$h3S0D8grZX63!XgxOLKkleD23WiikV$ZwPFQAQuPZs6Sp3pt3zfe6tOLKnYcfYF2dUHxxlsTRgzpZdgy",
"AkNLiH8HDUTorm5mAPBsrBtzY7p5Aiuw11pCrunJNV2tDX6rpF6YRtZS0gSS3bteuINLl3zfZZIMmGCEjyeUuDWgFEZaRFDprGeXCGI4Ni2XXgp0exlxHPouP1d126cb",
"D5LKIshEqhxPZGA7UliiyDQTw5OAlVG7zrbzZkL9I!c63Ewg3b06$vFhWZ2DSWCCw5M9IAztEELM5l5Q8ZsGxrTtF3aSSE6XSgzqSIMKIj38c1epfR$SoUUuP0E3SS2W",
"WuO4JlfUuhCEBTxuoTe$jGTVAw8!GHwdQ3qZmM44lD6FSbX611fRZvDGVsQ3!3b6doMNJm8SCJ4LOl1SX$jiBuQz6eXS6XgdttR6Vn445ca3pFXpWWasWsouWr6bp6YC",
"dTmM9kuq8HtdWgfDIiG7sHVohwAuwmGDpCbYIJ9ndcSWcRCcbQqXGeojsGU$fCp10z5L9LAFbHiVuqEB!b1DZss8dXXqZSZda1ZWkL9MjcR0XaPzpqdsUPTP8pdZZSFW",
"XFAk4Jl8RpBSQdZ3mYmr7lusUlVwTT!oYzXmM445qYtT3bcb3FdrWxGjwmvtzfpE0FAONNI7acDssDaQqbpFUlGfZC30dqREDccin44V8Qrd6FwSqzf81BZFrZrPtg0X",
"QHFiM9IsRpRhQToqST8z8err8OPvGTQoGvsnL9nAcFS7WbqbZWPC7ZvAiiVoTPzg81tin9MV3prEDfrrf1c03XzRdpXGTrxGdRRIL9kEcTTwEqa18D1zWSXGmHjPDtpt",
"cXEuO4Jmj0DFDsdEdsTwHdRejnAsVuAPVZmn4Jmp1teq0Z!EC1prf7WWXllAvVh8ybFHOJ4OHfrwAz8Qr!fq2t6$WFXhGoHvYBmn4JAq!BUGCrWEXvGraYW7B7heeD11",
"weoV5nKnvfRXfhyfATuGw!ZPs5uluxjjTgnL9OzcSEz0Sz7QyhBgfrT8DlhPeYCUrzdglk9neD7zQsHdXXbc8eWWXg7GBoxVlILN9nlRZvByTsfS!dFzZwAj8ToFDb6r",
"s6TUVO4Jm8CcqZ73TVywr0ZtrPmimlsBGkMNJmcpdXYX1zTGsBUQWgsayeHZBiAlPPzDz5JJ5F3YQTaeZXcbGsD!fXZvQ8dViL4K4iWE$PxV5x7Fd7rhAQGYhGsdBuDP",
"gRgqtmMKniH2hs8q6rzXrDWr37BPqk5UAnJ9OQRrX7ftzumolT!HlTzQeZwt7sjuw31X3lMKMlg6pfp0YCcWQHQgPfVo8WYl8I49Ibb!6bX6okmow8FZl7Xparefejwy",
"rGZYpoOJNOxCfrt2CrYtYs8ZTYZ86njjnMNLVvZ8z1e0PijO5HlvGzCEZFwbRwxB8WC0WTn4NiZDXba3X132!aZiAj$syWcv5MNJlc66S6CdhlzQDD8qybbtf2E3pD6G",
"ATGPQfiM9Mi11pbFbZEqWwoTGHGQ3VwhM49nxvPeUP6sIkivPwiTygqiu8UsujuZhzDEy5ML9Mufd0bqg021EZaPopqpDjQykJ9kFDbRZu0CyTwX7z33trgqbcccbjys",
"!AAT7PUOJNIAf7PC1oBjAlPvde0YXhoILN457e7ywQ8AO5HxVBdfB1mVVyjTVooTyosdqOInNNkGdE1Sf0SSaRTZb832SE6kMNLocwp1WwepgvzXp1cc2tSfccbc2eUw",
"PjjQGEQmMKLibxZQoGBGu8!GjZdfg!uM4KOdYvsuGAlwhAABderYgzVlw65uwVsoPsiVAHwOJ9Misw8sQF018PyuYYFFDrUIJ9Ox3TZdSewSXEP8CgCR6HF0S3RW7GUZ",
"BQAQmXUAI4Nk55IMnI5O5OOOkm55O5kMNMGpdPiHHoVO5Vojrde8C2iisGiOOlxiVGuAeZsOL4NkOkIkkOkOOOIOkkkOO5OMNMsbzdPUEZW13ZPwyZB7SPgQqbbR6fPA",
"mqsX7rGjlnKMJJJ44JLLJJJJJJLMJLJJKm6jTjUPvm5m5ljTzTBUFdqbWXrd7rouijuoyAATOMKJLJJ4JJJLJLLJJJJJLJJ4KiZpF1ZUdTdvRGGlQXs8yAiTDFY3S7Bs",
"eQX8SdZYmn4NNNKKKKKKKNNKKNNKKNNNJkTQl5mIk55ylulwQillsqpgrTFStdusGouTAGvZmMNKKNKNNKNNKNKKKKKKKKKNJleGshoeYYzp6bJkoVQQxGGeTdDXCrGA",
"dPzWbXWgIJ9OmmVOO55Im5mllslmm55nKnlpZUm5aTBsvlHsAAsTdWRp6HPgd0U55kVe3GDQIJ9kiHmmmlVAlOOAliOOII5IKnvoxoHoUZwDdXVVioPSZyPZdZX137TV",
"T0fd2EwOnNLo0tSX2WV!guBbbccpRcPO44kT1ExPDQtslx7A7o!sgZcgC5YprWp1uioW2Zo5MNJVb3860qqCr8wTC1UBGGzkJ4kVUq2dId6r6drmmVPQ1gVmyDzXgzUr",
"e8tXCuhn495zbt6eXZiuuVP!ahCgtXhVnKnT6dFQZGWsdYjG7gZQ3zCWeDj0EDXfpgPsXtZkL95QbYF30$r67rq1pgzHjQ7inKM5HbzPB3SaXedumxusQtPYedWSXr0p",
"$zES3gOLNLjb$pSdErsPslmTXDgpWfrYOJNmQPQso8GojG03UGzZEZrCdR!b66tW2DYaP2OINJPceWF661dzBGD8aG8YZ1Ws5J4kW32XbSdPQQdFjovWEEQqWZdqzrD2",
"PfFtdHIJ9ODRqX$C7rZdFbUBrCQf66RaunKL5YZsoBxsUQ$hYZrRBsX3XhheftzPxwrbgxMJK5SWbZR0zSX6BxDxsQwvC$afVIKnoScb1bU$EyvyPPAsZDrZEvzPxfaS",
"SbFeBkMNLVb2cpCEhpgRc1rP8srBWFctPmJKkUwPo7s!uHyUdTWp!ZQXWYZaacpWzryhgOLNMwctDXABW37ptPVw6bgFrf0hsOJN5d2qwcrdSYE0eSPsv1geHyZ8T7gC",
"D$Y7DnJK5rcp3z$pSrXR2cxjDQxggX1$8mnNMG0FwXxAHvoBHBz3pdeTwZyF12cc2ujTyIJK5bsvxGuzRRGBgEv8Wb$E7yAgpiINnlCc3bT6bR60ZZ3XWD03Xyuws1zg",
"rFCdkLNMHb2c2XRdtSbtc2seb6F2aRFdFHnJNOPFRG8liim5hz6fdBU3q6t3bc0dxGGwIMNnUcHu7YFRf1YFsgW8rFt0SEzjGUmMNOybbbWceZgXzcWZCbZfYDvsvrdp",
"0WgGIJKmFqZEyFpC3ccP6FqfqzChaCd7Qh5nNLlZPUAlAjyGiljX0GTFEdbRSXcaPBjonJKmuZsrdg1a6YPt2dpRFesTftrevzlkNMlgbqgcsaSbWPEZerztCrZw8SZz",
"peEkLKMoch7!ro7pbpcsXQ$ZCqtzUYgFPsOMLKkTDoiVV7T18oD2EbrzF8zaY3dSQ8yIJKMuEexPWZ76pW7WXbRg3$rdWS!!F6WmMK5BbqbT8$Y7veyyHrEcZ!lVueYz",
"86iI4KOvlHo!BPZFE$SEXEQZSe0rC2yPEsdi4KJkIMmVotgbU!T8PrQszdsHTDtPptmn4NmFXojvTEZ0qzbrZg!PYZhFPBZzgEyVk4MVCEHGQx8PZfpZdQ066ECOVvhF",
"H7kMKMmePxHU5mD3eFPjvPTdep!CpgR0PzSiIN9IQ!PXtSzWzFwzGzToseHeEfwgw0OLKnyc0vdAHwb1zFdYq1zHGZHfX1adaeaA5MKOxVAloUVUP7ffY0pE3wVsDPpf",
"15n4NmyTojwjApEzde7ljjAQ!p6PScS3zwo5In4LierE6$ZdhbBVxoGiuHlHGpEzfunJNlEZUAmeyg6fsGB!w3eVuvTsGzWeZrTWiMN4n5lyTwxtDrpfpERIiAxVUTpE",
"BkLKnvqsvrbfXzbFF0F8DAZzeSRFdRc6gGlAyiMKkAYDWXcyTGBlVuiosGGxhfS$dIMKkBbWeG2DzpSybWQS0YBVHVUo8GhUBfZ$r5M9kV7YQszqctzpbgVIlAwozy7x",
"ILNNib31B$dZgzdyCWuFwaPX62ECZFSR8PxP0ok4JOGsHPrwdUxmPsAlsoDCPrtcln44xbCFsGeQfDypfgzzqbZtdvrnl7TAPooD8iO4J5TAHCXbeqpiOuOioTgEETCp",
"449necqYggzC3S7suxxGEZssqa2b2Cb3zB6yfeVn9nsBd7HQ6CAwewCsiPdbazfsOL9IQcpDosxPsfDztgEPgPRW7wDuuGHyPsoPQF5M9ITsTW0WZ6cMOImuP0FR787p",
"J4NlbqgPZegY8ZFTlVTjiTmlPDccqpbvGssz2b!k4J52dPwr2h8gCZR1aET3F2QkMN4i!7XDQGwQ!hDZpZ02F3epaUeZwHex7YG7Gmin4Jiht2XY3rIlRp55jZewwY7i",
"49nPbY!hYWbbhPedeD7HxOlloyb3b3b2UxTZpcCmL9IVqEUw2XgDdZb1wh8gEbVnJ9IUZjwAHG1!SzRbFF0DEpdg!gVusQDojPhuluHIL9kxc01CpLVf7Y6i8ilmofsn",
"NJVczcRrd1Cp2EFCZpqR6nVAPr32bpbXttZ2baQlk4JmxOm5lmm55IO5O5OOli5MNJAcPzuoPvQh0tWFQDZftgFPhZFR0sAixTyZGP8mnN4mwm5OJkOmOOmOknnIInMM",
"9nscCpFz0tRb3gBCWDW!3Ml8bZaYb6Rt6g6SpqWomn9IMMnMnnMMLLJLMLLLMMMJ9IP2da7olsseBD0pgt1CW$$za6ac1BTxsGZZ031Yln9InnnLMMLLnMMnKJJNNJJJ",
"4i3z01yfet1RYz6CXd36rOlSbSgBqbbCS66WbbWDmIJK9999K999999999999KKKL56fr$m5ATPdFh!6$303bt$trfS3SBxjBaWXhzbd5n4K9999999K999999999999",
"9ku8PajPglBvGZe0$$77zVj7ffbZYFgQdEEZRX$PIJKIIIkInnkkIkIInIn5kmmk9nBpRy5BojGrFXadtfpzc1EWfER0EfBQCwQ!RYgcOL9n5knIOkOOOkkkInkkkInL",
"NL5wxUtgFdjEyrCZRozVOVAYZfpwloDPpr$zStSlM44mDGy$GiAAGrzUPQX7T2qO4J5fmxiojirsPyrS2g7fqqbpX8a8FXfZFsrdA02mn44uz6ijpPeDfDDPzy7dUPaI",
"L9niwPwTPTTffFfDzR2iTTPQwpFulHhG7segS$XkL9kD6rWrdj88e7t1b3cbzreiM9kxZoGrGeyvyWgbSFXddhz6YEfZP6UUeAtsCXfkL9IPqbPeX6dfWWSqa6hFywQi",
"MNNIossH7hiHPSYqrpCXsGHsQrrjjG7PmTY03qin44xcqQ7RwXwxUUy8WYE78UZGmJJm8QmT8tjjeUfzzpbU8ZUEZtfFY0ZsApXTX1mn4JlcdsVjgX3tf6t31CfteeEj",
"kL9M5Av7HsllH1CqPzZrUhPlHjwmmVOuy!f0seIL9Og6wHw$TPGGxoAWv1ej$hFq5n9nHblhQTolGoot7XVBHAX8dgz$6ff1A7oahYkJ9IP3Z!UCc0SFWTpCgdDhPxsi",
"inNNOlsAAmlvrW8ys8gUHxZw5sHsQQWPlsqgein4Jo3b!GVTvuusuPEb1qb8QFrSU5J45zuTR3GQypERPRPuFdR7B721Sfh!XxOiAIM4Jic3C0g1TrYZfsHdpFFWUjBH",
"BmL9nOTGTVAAltZ6FjCBBZeZXPviBfUQrEdYQnL9kZbRBe1XgUBjmyFF6ScEdsxzWlnKIxTrG1wFapgE3rFP2FZayacbEzWhQYhVGMJ9OjRfqbSf8EsHlUUXqztD8iOr",
"fuI44MlGHwjhHFXWdQfW0r78qCsQUTuG3CtgmMNJVba67032FPTzUi7c0b!XUDFgZQ5J4lYeyt7SFp6RCZ3yjU78ywUpibPYF3SY5MNLlcXRg3mldaPswegZC!EgSDb7",
"zeiL9NkHVAvxASsX3dDwHAlxwCwQdwffDrZZnJ95h26t!W0gg1E6bmmvS1ZEPdrbYYVIKnlfBWFb16pEC1tZzUGUPlPqhqp7aXgrkJ9O1bXR28MVGCzGu7xGg2ZE22F0",
"2FHk4KL5joQ7dhzepZszqpGAsUDfpfZzgwwOLNJVXbCYY2$CFUfrrr2R8XPhxr2FgqeiL45TTrdd0zs8xHjxD$QwGbzTgzZf6q65nNLAcWUaUMi8GQ6ZEFePd7C3XW8X",
"dzDIn9J5rUCy7bz0b32GZDhzxlHz0d2YC1oM4958tUZ1!eQyefFp6ppX3wsQFqHyUdglIKLm6g7uzE1P7oUjQrTzuH7j8zfDRpdOJK583E2ikkivTjCgrDyrewqX!Z0D",
"FXZDOJNIoPhSq6cgFSq3dQfsV1sUPEF2X3kLNLBbUamPTBuQDf1EW3gUwZs7XZh0PdhBkJNIAdxWBpCqZhIVFzDDdsDSQ7$SRUmIKMo0h2CZkIOViZ6qRSe8XC03EBWR",
"ESyriINJkszwwEU3S8gp6zhyXrsXGrzgdGn495ccaQyGwGjQq2radFC0UwHryfF3U0ZhmnKMjDYE6cpdgqL5IfgbgFrfrWUbCPkJK5HR6qSAOiiGsrpCd7qy8QPyGlDX",
"W0DtUOJKMmVws7sy8dc3688ZXB7qTQrSSkMKLicgheRwjAV2ptE6!7DCFFTyFSH6ZdswGOLN5TfErr2DF2IOVFQCD3bzEta1XOMNMjbZEyGIszUbEhbc6EbplouzvgDr",
"BghzbA494m8UPV1Rbz0dCEQjVxjroHUCPn4KmDpSD8TDGuDa31fFX!qZD$ridZQqdExxouINMiDF0Rzzacji7DXtPCbZZEg78n4K5FptPhunogpE6Z3S6C75ifQP1qWh",
"uwjfSD54KI5Go78bfrhz0zTPlFUQilxWOJKLitCpEahYw1X6FrFhPWd7E3abZdWZf!llve5LKOjXgbBpE3hVdzhaY8hzh3DUOMNMPc3bbrOIoBBSFF3b$PixvUGPqZrh",
"sujjhbmnKJiTVuxeeDrbYjhAGqUVmmmiL4NOsPFRYzzqXfUP7ZlBg!gxPBWvYhhYpmmVx8GkNLup81S11$Doo70euGHPwaYxnJNmc2aGvWkiluQDWbbcsgbmQA7BOuuv",
"liiVQesn49nmHHAfXapFZyBsUrGinOlMJ9LV3wUFCCzRW$SG8D7QbbtqQzCWdQ7uyf7iiHPVLKOUC1TBU8swjrtXB8sUZWzILKn7ccgjYPuvbREzccc3lBdHd8Cpkno5",
"llouHst5LNJkHmloPe5mOi5AAVOmIMIJ4NmyCdCT8yFXgbR7U8d33p6ZZ1CpfhwuGsj!ZhXxk4JOAmVVixAA5iluAiumiiOM4Nl2RbfvAPd02pTBSccv7zpbYD01PQs5",
"hij8Hx5OIJ9JnnknI4MMMLnnOnMnnILLKnDcECXyryoD023oePXgzbbzCS6TBfGlVVeUzdQQiM9ILMnMnnkInMMnMnnnnnILKnYczxiHhd10qzTs5!IHv8XSFpd7UxVU",
"dQRUvVuV5kNNN44NNNNNNNNNN44NNNNNNiFazZCvwjsAsfrDR7RqWb603pqfYhlAjHmjQw7ZAn44NN4NN4N4NNNNNNNN44N44l0hOisHzg1ggZ755IL5jHf1UW3z8lVH"
};
