/* XPM */
static char * image_xpm[] = {
"128 128 64 1",
"A c #da8657",
"B c #b46e46",
"C c #a2603d",
"D c #c2764c",
"E c #b16c45",
"F c #de895a",
"G c #d07d50",
"H c #ca7b4f",
"I c #bc744c",
"J c #b8724b",
"K c #c2784f",
"L c #ca7d51",
"M c #b57049",
"N c #885032",
"O c #c4754a",
"P c #9e5c39",
"Q c #9a5c3a",
"R c #d28154",
"S c #ce7f53",
"T c #ab6843",
"U c #b46b43",
"V c #8f5535",
"W c #a26340",
"X c #b76b43",
"Y c #aa643f",
"Z c #ae6740",
"a c #bd7047",
"b c #b87048",
"c c #c57a50",
"d c #b26e47",
"e c #965a3a",
"f c #a05e3b",
"g c #955736",
"h c #ba6e45",
"i c #a5623e",
"j c #be7249",
"k c #c5784e",
"l c #c8794d",
"m c #c2744a",
"n c #ae6a45",
"o c #c87c51",
"p c #bf764e",
"q c #cf8154",
"r c #be754c",
"s c #b66e46",
"t c #a96642",
"u c #b16a44",
"v c #ba724a",
"w c #a56541",
"x c #c6784d",
"y c #c2774d",
"z c #c4784d",
"0 c #d58557",
"1 c #c87a4f",
"2 c #bc724a",
"3 c #d58254",
"4 c #af6842",
"5 c #c7764a",
"6 c #79472c",
"7 c #ba7048",
"8 c #eb925f",
"9 c #bf744b",
"! c #cc7d51",
"$ c #a9623d",
"ABCDEFGHAIJKILMNOPQRSTUVWXPCUYZECaPbcdefOaghPiQhjfUALklLmITGnoenplEBnqrlslBZtueGAWYvwgFqcRoAvcqWAxyqqz0D1wGx11rDmHUPCBIGjkac2swT",
"3WQsvFl2AKEcJppNUYCLLC4gC4VUXZanVjgIcKViU56UghP4aP7oKK5xHIW3WSQbrlJBrAzTnlLisagzLwikt6RFIoKFpp8vFxzq0D03GCOHxRzHhDCU4vRxOMGdzTTd",
"StQnv89BHLTcoIINeYfoRTUgEZVhha4EgXVDK!ggXhNXYjNhugbRR!sjOpeAQcQbvGLMRAKnvxzYvYgx0wu9WVL0FLq0IzFKFDRR0cASGCHx1yK94OUC4DkDmvHd2stT",
"1MCTb8w7MoWpLJ1NfUfoD2ZV4ZNYhXZBgYgmpcVVZUgYQhgO4fwSrvmGDKW3wEe2BDpM0FczvzRsyUQ20pu77e!FFRFAIoFLRLRAKdAA94j!jzKj4l4YuLK1H2aT22Ww",
"3JfZbFss!MdMAp!6X4fK2LXPta6aYhUbPG$2KvVeiiVQfhVu5Pwo2Tu!bonGQTVlEjqIR8vJqDRuSji1AqaOvWHF018FdoAoA38qSrkADEH979p1mGuZazK3G7jJ9bWM",
"Rdui287!RWEpFcHVU4CKxD$g9X6hfUUC$lZvLpV$$YiVg4gYhiTSRswOmddDQdVD2DSJc82rkM3ZLjtyccYGBTxcRcFA1cALqxFqKM!!7t77m2q!mm2jjor9lG7cvEEp",
"Sv44H8iDATwo8MyNfZir3HYPsX6f$XhQg7ZBoKNhfhCQgXg9mPT!SEb72dtUWMQyjmFKoFKIrWoZ3mtSLc7xSnbFFK0FrpA0qz8qLMFAA7jO2nAlOBHljoJllHx0kDIq",
"1diiK8t7GwT0AIv6PYidRM$P7U6iZ4mTVtZHcLNhPafPihCGhgWF1nsaupMsfJTBDbFKL8qBKEJ4AjizJMs3!ppAAI0A!pA8zzFRc0AFGEHjOBRxhsO!aDM2xb4AR2Jo",
"HniQp8VJRrJFqM7gChPn0nPgm46XUh5ZPf$xccNhQXXVCa$RmPWFyw2jbqwEtcnBEs0yD8qT2KLU35Wv!p7O2TBFS!pKcdA8D9RcqRFAHj9HOBqx4ju77D!299hIoBWS",
"!Migy8gKOqv0FJsQfafKSJQPGY6$h4hC$WiHpKNOQUUeP5Y3jPWAkw7ju!T2CpE77bFpL8KEIbK43aW!Son!vErF0cvvoK08!BGRqo3AkjDlHw0Ghm7smvcmDBhMHbdR",
"IyfNz8VMOMnLFd7$CXid1offxZ6hhhHi$eU3KpNGVmaiPHh37QfRIwj2TSMmEFMEsB3Ly8IvkvAh5s1pGIETDBIqRFvp0yK83BRqAS2Sbzc3DTomU4x4UvkzmxtvSnJL",
"SRU6J8QbxnKqAnlaiXYDMIVilY6aXZaeXf$3KpNlVmh$ClhGjUEoTw47BKdH98T9sT!kKFpDz!FUG4SS3rsj9ypLSypMczpFH7A3q0tLWlL3lBo7u49QtvrmlsYTRdwc",
"HzU6n8iMsSJcqfsZfZ4zWpUflCghZXaCXQ$RoM65gUZ$YUj34X1IbnTa2vn9EAdtrn1HoF31r7SUGuAo!rTD1HzAHzvzKcK8GED!S0TSj3qHH9vjujjQuxc214CB!twc",
"!3i6w8iTBKLq0NUPVYPLQAf$GYVZYumQUCCRpIN3V$4Y$aUACUBRttE4sJdDMAnU3vG7D80krzHU3HLoG2bGxRzoGzKo0qv83b9D0SBc2FoGjk!U4sOQ41yDbUi9GtWo",
"kG46T8YTEIzqq67$VffcQKP$G$gXZZ3YUeP1vp6GgfXYYhhACZTRETMs7oMlt0oskBllIFLBL9AUOmScSDHHDw1I3!qRR1vF0tD93c1ovGk32McsmOjQ4k392TeE97dv",
"DHj6T8ftt0LS8NuaNPPcwJCZGgPhZP3ZYgQHcM65Nga$Vhh3YuMSM4L77qvUb0K4p99zvAo1GIzYG53S!k9zlnbz8dAHovrFHnzxAclp1G!32voj57hQYzA2E2YnxEdM",
"2rj6E04CsRFo8Nua6PPAnvf$5gihUZ3Z$fgDMM6GNghfgUwAifMSEu!B20wuWSJ7czr2cRMGlbL4GlAFDkb57nvGApF3pLoA2fv10oDdkGL3jvpxhshtab07b9T2EtcK",
"nSh6ISY7tAAc8NnO6gZ0wrghmXfahiAY$YQBDcNAPghXV$TAYetv2tb7zAt4T!dsK2r9d3cRjkGil5Acy9EG4wDH390LcLIG1MnM02MBcxJGDccjm97Q7tRb9!sbufdo",
"2S46SctTTRAc867aNVCRWBQXUZ$aheGeUPPTnINmPgaXVQUHCCBbvwzxmITUHLJ9pxpBMz1qjyACmmAzp7TmuVJ7SuASF!rHDdBDS7DE0qIGzKIDGxBCubAEoSjHwCLq",
"b1i6oMCEsFkoF6jXNXPRCTfZXZ$ZUfGQXCCytc65NgmYgVsGTfdd!4kBfLJmn!p2cAlUvDKR7dRihlFDIbmGnWpMHnR03SzGHTuGSDxWq!JlxpvzGjT4udLv!35zTCI0",
"v1h6RTtC70xE86o4ViCSwEgZjQPYZVAiQQhdJL6OVg5ZgPBmBPpTd4I7eAK4bMWEoArsIzLAUy34j2FDpL1l4epn!nAqqSHLBTWAzk9tKArO9Sc9GjvUsbq2c3924tqS",
"Bva63Jt77q7JFdyU6UCowMiQO4CZhNAiZuYwpp6jPP5XgZTXjiJy1wt7V094BrEzJ8rbLuyRzs3fhDFS3RmHweyM2BMk0Avoxve!!S1u23GsjqJbGjHsUTc9L1x9sYSq",
"ErX6RKftUpBpAny$6ZgLWIiP3ZfPlNF4Yu$bcJNYggOhVXu$bUydcfEwg0!UTvCjc81s!nISlB!aZ73yDDx9tVyvjTMoK0v122iA0ID4x3Gt9LksA9HsUdRySxO2UV3q",
"tvsNqd4tmpBLFwkgNZC0ebVYlXCP5Q3aYjQnqngUgPm4fOUm7hqIpsQTVpE5wrfskFD9At!DGTD5UH1m9vH2EVddnCJASL21E9C!ScHnSAOij!JBG7SsbbqLKx!EEVL0",
"BxUVcttC4KDScfRYVXQLTdghGafgXCG5Z4inqMfYQZmaNUUUDOoML7w9CStawAVmqA99Ab3bOtEmsmo79y7lWWv1EQM!!pTbBxEx!oEt0RDUz!Ks3mDasyS!d9G9CNrq",
"BG4QRwCCZ3xo!nzYQYQceIPXOmZVmflGgafTSTgfgXX4fh$h7XKbp7n!CLbat0WHLG92R7SbDtEj!T32z9blwQt!DtWAyqTDGlnHxGtiAFHBm0JjGl9juS!DcE8ytNKL",
"b1iQ0titZ0xSMWjZgZNLVrgU5m4Va4U4Q4gsofQ4PU54iXXCWhIMpuTrwK24f8wG0!1v3zFt5Tw71ToERHT1tVBR1nBRrSETzGvlxR9W3Az92qIsGDEOBFovJWFBtVpL",
"ukUgFtYne0b0MtxaCagLf2fXGUXgaih4fUi7pMiZUYG4$4$ZeYvDcbWcYKBav8e3FD!R3H!QaBnx1brt0IbGnev829oKRFEb137H!SsBLS1lDkImOjBjjAD2KuFzugvK",
"w9ZQ0WwTQAuSMKDOviNReDYY3ahN4YaiP4PbcCeXZ$GmP4Y4NZ3v3yt74M95bFeASuKL3A0wabwl1zcw3DDzjfT8y!rR0Ay7s!7Rz1sBy19xlpobjsMX9FSDKbFxifpS",
"uBXP0eCWe0DKTtya2QQqQzPUGXXgXQhCgCPEIdgUYC5GgUZ$N50k31TBswbms8wADu1oAAptl2t739qwRryHvQT8oyc0AFx27Gw1qHB7DDulzIp2muBYm8IDjbFz4Qdo",
"QbhV0TmtgpldEEkXmPfAtMXYl$UPhemUgCCnpngXhiUlQ4Y$NhqySyTuBvnhEFTAbfSLLA1Tz1EjFESwKyD9wew3ID0F!oDSTlD7Fy7ivx2m1IILDbE49FS997F7UCnK",
"WmhVHdmUNp9MrTT4EeQFTLOZOVX$mQmsgf$EItgjZZZG6Z$UgUkoz39DspdhW8dFTt!IA1vBlyrkFEqtx39xBQWlM9c8pALxbDnxFyn4JDma!rdcH7EYk8vz!B32Zwdc",
"Tbhg7RajNqDddtEZmQQ3QzaCaVZYUilbVgPwcQY5Xfa56P$aN$9qpSkmbcfaQ823su3K3Rkb1BLdFDLw2SoHDEtvobJFkFyRtBTb3lTCJF9lzoMcj9UiD8dvSvLkUTKK",
"wD4ir8HHeRDvdW7XsQg9e1hftN$i4uaTVNQEST4YP$hhVgfONYL!d2oluoemeADRn4RIlvbdDTS1AwS4MoHmHTwHMnJSFF2FrnWBqxttIS1HbcJKzUEf28ryR9AMuiKK",
"T3QeIF7xNFmIJTEXBPfIVT4gu6CYgs5tVCiBcwZUPPZ4VPYaV$S!JDDmTpWlV01kuwDMl3DwxWkqS9qTb194Ktw3owc88R23KtwnqzbELAmjHLrvs97Q28v!LE0JUtIK",
"2DCPvFTlYF2MMkmXBPgwQJmgZNgUPm4wgggEcwYXQ$ZYVf4OVPBypBRl4IwxwqrRtn!JD!bsbW2oc9oB239wAb9GkTcF80Izq9nWqDbBB!HDxLpvBumV28pokESzuwJK",
"BxfQd0T7CAuKnIUhBPN9NdlNBVg5guOfVQe7LniZNZXYCgX5VVCMIERjUIVLQcyRwBDvxGtMsQvpKGoB21xiSnG3DTcA80zpF!wt0EsMwFzm!q!bxbHes8LSHwqBuYdp",
"sxfgt0WOCKzdT!ifTQe7WwuP4ggGPT74gfgvSwjXVhZZP$h5NVMpJBL7QoQEC0JmtT9TD11bUQRyKAob7D9t!BHLksFq8qJp8HdW0Rv2n32mSKquajjiTFc1!wj2s4RK",
"b7YiWoQjiLBcMEt$TgNBQWwPuPV5gWU7P4f1qCOUg4XYPimaVgDpJtxmQKtbE0M1Mk2d!v0B9WR9xGIdBk9b!wHc!nFq8oMk8AvBRSRHtRH9cIREhssu2ASSLT9TUh0I",
"9bYteIwmZ!vJrbuXTiNvfECV4fVG$YhOVhiSRBh4gYXiP$GafgLLJs7jWLU7nq37cLln1DRWhnL773ob2Dj7SQxSGbFL8Rdr82ztR9G9WRHjcdLEjmuhBAAz1KjTmuqW",
"9tiuwIds5REMD7BYUVVMNKVPT$gGVuX7NU41RTf4PiZZfYmZwPLyMsB7iSEUn0qnKczdDLREUwKuuGcsD2D4!wxF22pM8SIv87Lwc7lEtRAbDMLEh9ZZUAqL1M4TunKW",
"mBeZJvMiGAEdrns$YC62NzgVYPQGPhUZ6YZ!ATQaff544CaCifIKdh7jiMiZBqpddKR7SDLvjTLhul9j3DBtv73Sx70K8cLn8zkwK2HxMoAnLLcBbGfYsFqy9zjEUucM",
"lbfUJJJU!0TcMMlZWQ6n6!gNUCg5NhXiVQC93CgXffG4$$aXeCRBWmB9CJC4EF99TcknHdHTxEvhZmDkAbTwrv!LxncS8Fqp8Lxw229lpLFwHKoTbGYauFL1sRjT4tMR",
"REQnw!vuScnJb27CQi6B6!N64ZP3NlX7NfYG0eZ5fh5uZYHhQYIvnx9BwMn9BAMrJc9WR11n7BzjQ59zATsbEW1R3Wqc8RqS89cESlBmbo!nRdJvaG4u4qcbbkmwubII",
"lDYvdK1w!cBETbsV7$NdNLN6iCg565s2Vfw3AWZ5QXa4XZahCa9ITGEYDRwET0k9wqvCzybrTBDaYODS8bt7EnLG9Dqo8SoSAvRTAHrmBJkjkrJTa5Zj4cySUbstYsKK",
"9!Yjctbt!KnMER7XtX6weG6V$Cg5N5ZUgUujLQCaUiYaYVhOCXpzBGssBSWtTczUTqjT7cbvunlUalsxAywuK27GSDoS8RSIG2!C11b29ol9lKcThH4UUrc3DD4WCuoc",
"!7gwqC7t9KWyERjguXNTVyNNeZQ5NOZ7VUjBSnVuZPPHh$UmYHKt9G9EM!wBBcLOWSzEbIHkf9DhGu49Lq4Udwry1HRq8S0rx2FWSrBj1rx7bMothz4u4vzxGx7WQjKJ",
"31gCqfECGIfqTA!VsZgMVyN6PXhZ6hhBgQmEo7PhZ4PaZZUajuc2Bx9nELfYWcBxn3jEvc1Lt1bh3hUyMAub2BvMxRFK8RLkEDAWRpb71IBU7yyna2jCYEMkx1T9gUAd",
"!9PgqwEWhkQqW!uY7$Vce9gNflfX6aatVVbjcTg$ZUPm$4C$OXd!9mbnQACZsoBlt!9vBolAb!2ZGjsDoFtUvBbdl3FS80KbzEAn0p1B9dnu7zoTas7isnDEm12BNsLK",
"GzfgAw7fHKCLCLEfDX6pwxP6YlQX6hlZgNTDbEVP$ZglCZP$GYML952Ew8QYBqnmJLx99L2RlrHYxx9mIFQxIBInGAqp8qvDv!1n0pzb1dBjwLKujsziUnvn5179QYLp",
"GxQgAtbn3SQFW0EfjZN9E9$NYlVmNlGYNVfDKrgPYhVOPffhjCTAD5Hbn0TXB0TlT!yE9dJcyRvhROm2B3C52B99HHAq8Src29GE!ox2!Et9t!oWhjzQsEKW7S1TCYKc",
"GDeNlouWFofFTcTPEYNz1DU6f5$XVjGiN6QDLvfZC5PaPVYmaZwAIUHEnLtu9qfHwv!2yczorLnX8DxsTSZGdW!SL7Sc8SccGMlmLRzw3nEabz1ta7RQUdcWTr9EgtcJ",
"3GeNLvbwFoQ8B84iniN0Rlh6V5fUV4HZgNC9LcCZZOXOZPVZxYTFzUHuTqEC7oeGwBlTzcIRB2bZSmGst!UGEw3dHDcr8LRSxBEwqIvEGw2DnHkUHd3CjbctT9TTCYpc",
"3keN7oOE8pC8v8CChP68ADaNQGgXVZ5$g6izLpiXXH$5$$gP9ZWFHOFsw3Bi9rNGTxzd2cy1BBbik2kUE2jx9wA0qvcy8cSRb1EnFpbux2k9tSkTabD4hbIws24BCfK0",
"ADCgnoxnAqeAn8eQUPNF3Wagi5PCgalZgNwvSpQXZm$5iUVVOZMFHxA4dcEVvINmn7R7dozFTWWZzE1aWTh3xTSAS7pM8Ic0B9bTqI9s9DczTDS4avBYx9cT7zE2UCvF",
"!2YgdovTFqC82FWN4fNFGfmgf3PQPtHiP6ULcSgafXCX$YtgaZWFovHBBMwZIINaIbLaT3!0BRWtD79jttalB93Fqo0M8pqqB!9vFI9DSDvln!KuhaEfxxMEb9bbUQn0",
"RBZV1cDnFR48LATNwgVAStagg3fNCZ5YgNBxoL$4YUQ5gi4CmZWcRbGspoWCkJ6spnS7EADATxsZRb2UvfmbbBS83J0E0AS!9kvsAb!j3DdjwSosa2vYHDdp4bjWufdF",
"2biVS32tFof03AuVw$6F!emggGQN$hlhPNi9qKf4iZilQYm4OCtK02GsoIeV9pNTkE3xt1SREGEuxkHY1i!DR7z88bLM0rKovSw90MKjRGJxW7q7mBzVj9MKBHjwB4d0",
"BnCg387W8qQFFFxVU$NFSeOV$GY6$m5mfVfMp!OQ$ZYGVPXax$nRSElW0pngBA64qv!HbvAAdFnuz994zi!9GRE8AMRcqcSrEAtv3Ko3Am9mu70OhUlej7cqBrOWEeKc",
"EwCPA89w8oQLAA!gYY60LWmfPG4N4ahjfNudKS4efZilQNUuLZdqIW9bkoWgC0NQLt!H1z1Sd3nhBxuumhDBSLB80ERpqIKLbAEBRq!DRxD9DD0EUYmVh2KqucmEwCLo",
"xWfV!8DeFKfKSq3Psa6lLEXfQmZNYj4mUgb1ckuQfZCGfPU5GYML!t3tsKWQt86nLbkx!9GR2SHOmEElUURnqDx80nApoRKptFBsSSRBLDHmDD0uUu7Vh9KF7pBsQsLS",
"vbUQz8vQAqwcD23fUl61HbmffUYN$OYh4NuDdo4YCiPGYgUl1YBS82FTjcTNV8VRvEDR3xl3vSSm!Bw944RbR1G8FnoS0L0cEAWMcJS9oxb7LLqBassfa9KqWruEW7Rq",
"nvZND8ne3oQp8z3QuG6b1E4gPhXNC3iuZgsbrMuCePeAVVfmjfEc873tjdxNQANGDT2GRxxkzx2jGuw7j4RrR1GFqTS1A!oob3CvLSqLxb77!z0B54UTm2rqwpU1u9Sq",
"1b$Vn8vVjce0Rv3PDU61D2h$PaXgPAXPUNn3KbhYZVgmg6CXOgvM3xGCBnr6QFNG2tj9!3Dvvx7mmwTUliLzR9GRSM3oF0Iq9LE!RrSG!E7mAySEllaBaRTqBJbIaa0q",
"j2YCW87exIwoFvlP1Y6rMMtPCXUZUFXZ4gwcSEmU$V65iNiZmVDnRDjE9tzeeSVxET223GI9M!2aO4wxjhSSSzRSvq0L8qcLn1Wcocc!Lum5AoqBjah4ukd0bn2vxuF0",
"DKYPtFlejcWcqvBfx$6snriPCaC$Z5hUiCndqtX4ZP6hPV$$9N9wR7MsDnkfwLexb4159A1znSvjGDWG9h0!3xR00KAt8oqox1to3Kvl1722AL0bjUlTsKKq9dU2HwF0",
"HKtfM8je9LwvK2tPDZ67tIhPYhV4ZOhfPfnpKnUhQCVhPgZZxP2Jpxx4DM9CQoVbwbSDbLHxW!IlObTDahRA19D3!KLT8FFolxD!Ay9D2tkH3LKjUOG7hbLc!djwGW0A",
"Gr4QT89e7qQrF9QPaf6y7kXCV4NhUjlQYgtAFTYOg$ghZP4CHfsco2xibTAZQS6EnT3lD3Azt!xj97z7sU1RDmD3cocM8SocDk1rcD39Eu7yFAJBajsbsJqcHd7sGCRA",
"3bCQCF2WGFwqFkeCUZ69toa$QU6aChjYCPW00wCmV$$mZQigbYsFqKRYrW8aep6tBBR!9A89Mz2aG7yOwaIzz99FpF!J8Fc!GE!zAv09vUs2GRn4ujBE2dRcRMsbxQpq",
"I7ZNwFGQlFeS8qf4sZ6!wzGCU$NhZUlXYPTLRti5PCZaZVCg7QEA8E!uzQAhCLNbEvLDb2A!I27a7jRjuay!kD90IAcd8ASLRvyvSpqvrm7xz0vu4OUx7pLxGMsG9Qc0",
"!EUQQFlWjFnoA0fC4P6vCymiaYN$ChGYYPEo!wfmgUhh$giCMPTFAtRwKeKUQRN4sFDKBT3Ay9Bj7x!juU!S3l7qKFRK8oKR3AHc0Ir2b72vvFpti7ExaIqHxv42sfv0",
"ophgWFOwsF9vA!NZYg6TTouZmZNCPsGu4$TcRniGVXGaZQXP9UwRoWAwzQcYQ0eEU3LIznvRyxn7jsxx9aDzR79FMA!J8Kq!!LFJ0IIzMscmE1vCC7uATJqGH9fbTgML",
"!pUQnoaQuqkJA0w$QP6IW0YXaZ6CCsG4hYicqnQG6haj$gm$bUdFAT!wrnLutqWuU1Snxnq!RkBmja1Dx7HmAw1FIqSKAL!09q3M8J!!bOr9B3kwYUs3sMc3EyCTTero",
"LrEVvcjV4R1JSAdP4$6HtFQ4aY6NfZ3ZhCtJIJgHNZ3higa$wfwRqd3BBTdUTnwuB!Fw1Tc2!DWmlm979DLjSWLFEFkdFcARDLHp0IcH2jDnbA0tYUUHuKk1E7VntfIM",
"ovu$InagCM3I1ABPZhNHwF4POf6Q$C3YagYM!remNO8Y4NjYtCMAKMk4vMMUwIc791FfAeRH1zWhGO7nSHHhAo18EArEFA3k1MlcFJrG!GSETzquXa73sv!xUuQBuQcp",
"Iru$MWmfQJ!wF!BmiUN1MFuPaC6gZi3eafXM!Ig4Vh3U$Nm47PMAcrR7BITCWpqO2ELBFtzD!2wO3maEbDmlSz98ERnnASSvST!SSd199HGnuDzCh9OHskz99BtT9ucK",
"d044nVOwCn!pFrBhfCgksAUCm$gVXY3eaChvozgXVaFOiNjCmgK3crmnTqIOCKLHbv3!!lDz1dfjR9j2Bxs4Srv8b!Mdqqc2cn30RI1zDlGUEzzCmHjHmkpD7EW92szK",
"vvZQdejC4nSMFMnYYCeBTAhPXQPehi3ehfUTc2NZgaFaggmYjgq1rIGwBcRiwJRG4zLGEIypvpWHHmUtzGUB3MvFozMDSoSI3nAcSkksxj34bbyjjOU2zcK1HjtwE7SI",
"K1ZedexQswztRWtUUiP7n1afm4QQh4Gg4PYEJ3e4g5AXfVGYGYb9qqRit0FCWLoAuzL3fq2S2JwHs7s9H1sBKJMAcBovoSqdStGbIK1ExB9BGvI7H5s!1IbHaHBtEnRc",
"q95WJVsefIo00WTUZYfB7DUgaZCfaZmYaNCwkFgZPX3$gNlhmXnI89lTQoFZwoAFt2RFtA9DEoWlss9DHH7tKvM0Fy1ov0KB1BzvJMHsRWjDRbLfSlO9xrKDj7bwdl0q",
"REjwMViVQczqAK2XiZYnCmiPluZVhYAiOVftISPUPXG$fVGmuGrbcwxTQFSfwqF39lqAvA2vB!yjba27H1GToMMq0Ky!cqqdHvlbJMDtAf2jLpKtARlHBkJ2ju2WkkFI",
"3nOMMVQVQIzcLT2YiaYTMxYgOUhfGZxChNgncIeZY$3UYVljOlrEvQ1UE0qPbLFA7vIxK37Kvrnj7tnx1cOmHvdSRKS0kLAEqDHzpbRtFtHb3KKBDGjGtkrBbt9Kv9qc",
"!wHMcVwgicb1qQECuXYbdRPgjaXC3YOfZfenrcPY$f8XXg5ms5r2bi27b0AgBL3Gj7dHq3wqTbtHbtDHxya9cDb!Fcv0KSAMRvAz!LFTFQbu!cRub2aOnKoTstRrHsLI",
"owjMJVdfsdERRVBQuX4nTmfPXOUQGZjfZtPfLIfXPe8ZPfmst5yybUjsbqFe9FADvDMFoDESEbEjtWWjk9mmD7dLAIz3qoLdRBRHLI8n8f2TDIRuE7UOnLytxuAJjboK",
"ynZ9cV9tuIu3SW9NWZitt3PVYY5VGYaCiYYQLEihVe8Z$Q5UCaHD7usuBFFfB087ELTFSTwRBdBsuiem!vmI7DDFAIKSccoykTGHpL3w8Q1E9rRjk7UaEqkT2uFy7bqK",
"JBeLow2EscTFFblfwh4EwAQP4GONG$hfPQZwDEZaVg8hYemsVmkIunDs700fvAF3tzT8L3TotMn7TBNYqxXIml9FApIc!ILb2Ml!oK1n8WHB7pq4Dbu9BqznEn82DnLL",
"vBNRLW2jsKBAAQxPnX42w8CgjjmelaXigeYwK2ZjVN8aZPhONayK1nD490IeuAqAtyw8!Sn0wKEOutVZp7Uv93BARrIAvJRcBzu30poE8EzBBd349sUuTq09nw3M2ERo",
"ITNSLW!wuLBA3eGUfZTyu8gP7m5fGm7ZPeiWqdYZNN8XCYXGNYHrcEz430neT0KGERnRAAZACpbUEwe4psEcBS3ARBtFkpoR71v!KALy8T72uB3ajZltso07BQATB2L0",
"1fe3RWyEtAn3RvHZeYf1B8$PDj5PXla4CQZWLKiUN6Faf4XFNZbpkz24RFJVwSoG27TLRLsSwdvtB7YY1wtS9S3Io!QR0r!2GvrDIM!9A9bb7MFzGijus!FrttR47DRS",
"1Qe20vKuirWLoIlhCfV!t8CVxgX4UumhggYWSI4mNNFh$O$3eYlooM2ZR8weYAcGvz!1q3aqEMrtlTYiSwnqyzqo0qWK!K!K1D1LkRFD39vd7kSmDYjT9Mqkuu9uu3oS",
"yCVvFHoWZ2wA0wjYQfeLE8igGC$$Y49a$e$tRobZN6Fhgb$Gg$3rAET4H8tgQ3Rl9B!kFvj!Tdpf!TBQRfBqySIDqFQIL1qqDx!3rFSsFDjwDkSDOY5BjMqHB7DE4xJc",
"HQNJREKCCyCqFWlZw4Q1n8ZfOXPXZXH5ffPWj!E766FX6!Y5g$1vqTQfR8TgQq01tvFK8njondkiG9Ui3eao2HM2p0WSLRS322JAFpSDFRmBDc!9Hi57tEoz7B1wh7o0",
"StenA!KiuzQSRW3$TZQ2n8a$5CfaYUvGPCNtDp4X66F56GmGP$nERnttx8WNgLSmHyqnFfhRMMIiHHUiHwhDx9rMcodAqSI!7SwFLA1z379mmoS9muub7TI27U1CubpL",
"StgnpLcV4HnAAClaTUfMW8OXaaYXiXthgCQnDJChV6356HOGZPiHLT2tx8WNNLFO!xRnATmFWrrCmxai!Wjxc2vv0KcF0RKAEluFALKz37D99qz99amh2ddzj71wbTo0",
"KCenSME6BKTp3W7UsXVwt8hZZffXChEhPagT9MeXV65h6OaGYfC0ctGQ5FwgVLFs913dFwaRTnowsH9i1tUR8737LpMF0cqSnFHFA3r909!D9AI2mOlOaMdk2537ntRA",
"IWYtLtw6s3TJSEHZZUgnQ8XYUCPUYj7XZUQnHMfYgN5Y64haZPfF0Tve7FrNVR0sEj0d8Jj19TcYxlhi9whSFz0SSKdFRLAo2F3AFRvH1zGD9Fc7mjxm7qo9jj!7utoF",
"KBeCStt67cMzvTUZihVbe8UYa$ChZh4jZ4$BDpVYVNhZ6OXZXVQ33QoC7FSfeSKmt2SBRvj9nnys23uYzwaS0!oFcKdFA!0qz3BFFoKkSHylRFKBjmmH7kRu2x1lBfIq",
"znfQcrU6sAEvLfb42aNMW8i$UffhgjOh$aZT2De$PNUU6UZ$lCeqk9IBxFFQfSLs2n3nFT72Mn2aEFmsDEZG3BpAKII00!oLD3E8F!!!v!z!H0oDjHmh7JD1mG!9uCK0",
"cbuwrq4NtSnS3f9YshVdt8t$hPVXVUmUYUYduofYiNUZ6BPiGZe3Lrrjj0ReYqoh7BqnFw7Ipn7BmA5429X3STJAIMw0AScrjAT8FRAHLLHjSSLxhHsUmvD!b!1jbgJ0",
"!vYwKc9NQIBLFd!uthVv78i$aPgmfEjYuUYMBKiZXNUi6UgYlXV0LLcD7oAgm!ohBEzEFnmEyB9jlA!7D1uA9EM0vJTS0qoLW3n8FKAG3LD7GpqDX5YhDKHxsGos7VJc",
"3wiWvpseNwERFdDPCZgJw8sfO$N5PiajfU4tTKeZlPXX6!PYYXe!r3EY9IqgsLF49BKnFEkdA7djjGGx9r4At2I!ycDK0oqSB37FFSqGL!y7!90z45jXsLr2BGSEsfJF",
"!WfwKAuVVEwSFd7VChNdw8Y$OXNahC7jOY4QdoeZlPm463fZjgfSBHdi!KoVQRAsz2RJA29RSBEOjm3v7ka3sET!cKpc0AFLwFtFF0LF2z279yLRUOUujLKqs!FTufIJ",
"oWeEcqseeEwqFwmgTZgyQ8CXj4VtaTjsU$ZQMIf$5g5h6lf45ff1bxWTHKpNfcLbkBqM0B9drb9llxH72DlA7twoqckJFSAIQAES8FIRHbDUb!Kl4HUYx0cLjl3EUCwJ",
"kWeMKLUCQKTo8M7YtZgKCACZmOgsmuUZhZfWBpCiXihm6AUhmgQ1r!wuOoINQpLjDBSRRtDdJ7BlOm3MELb3bn9qFqFMqS0ST1WqFFLy3mps4LLxmO7PbSoxDmFEjCJM",
"McedK0uted7LFnzZfYiLQSWZmjNtX2m4CCVQMrsfZPY46ACaaCe2tHE7!cwVNISbvToAyjx0MHEamlGEnRbbWnscRq8EFc0InzWpFFoz!GMBCoA9hjOCxqovOxAsafpJ",
"!MVcp0b7eqE03tGZBfQKTSfYmYNhUjUYhCVQ9rtYCZlj6APaU$Qot!dwAqQNeMDE1TFA7EAoT9E2xm3nnosHwIsI8o8M8LFKsDQJ8RI11HpsT0FjljsCGLpH7m0DUUJK",
"S!eKJLbbNSEqAwli7QgoQ0Y4h$gZhUCChQgWvJ9Xg4Gh6lC5YfWoTLwtAKMNCppHmw!p7x3dDR7ObDG4dkBlTrtRFo8IF03qmLQLF3dSSxSutoF7GlxQGSIS9xqyiETr",
"prevno7Gep9cFQxZsQNKTKfiUaP4UaPuXfgtD!b5gh5X6lN5iYWS2rCiGKdNtqvGsEKDABSEnz2ajwluo!wl7BwcoJ8JLFSFj3tAAoMS7mLEuo0jmhOCHpA1x2B3i4Mo",
"SBNtKL79g0uc8NsYUZ6pWSggsZiZZuPYXfft1!QmPm5Z62NmsUnKMyBWGotVwJBDEB1oSbAyTDxj9D1fqvTj9Knc0W8KKLA0A!dRqqEzHOzEnKqDaa7Y5q0L!HCkY4Mq",
"3IVfToHlVLEp8eTXutNKWqVN4ffhf$h4YfZQH0Q5$Xaf69ghlYwobvwWHKMgQqnmbBIpSB2SIEDml9DeAyTaDSbK0w8dK000FbW3!0Tk9jptEJvmlUaimLKD1!g3C7J0",
"xMNQWIj!Q0BK8NphUignnKQNUf4XYZ44Zf$CzFgmiXUP6DVh5Qw0tEdW9IJQQpJtTBDLdLBortDZ9l2VR!7TyH9IRd8IoFLpF9tRSqbLSsKtGvvDGXlimvKbzAVDWjcq",
"wdVenImlTITJ8VR4UYNfwAegaPsZY$4PZQZfz3waZaYg6EfUl$fRMrBEsIpgTopT9bxSIvHoMEHuB92VRzbCySbIqd8pcF!p8SWAS0vy39rbl9Kq5t9imJID9AevCUMS",
"UvNiWvh!w0Tn8NqOhiNdMcVVmZj$$ZUZYQZQxFYaPhYg6EtYaiYvgk9BsKpgevnjyH9kIvbJwB3hbRlVRDxf9vEMFd8KK8!I8RJqo0IJSD97xSo!OTmf7J0E38QvtwdA",
"Tviiwn7DbcnJFNc5UYNTWLV6YZhP$iX4CwUW2FdaCaiV6ftXlgZoev99EEIPTvTuSEILTDbcQW3t9HkQyxxuzD2MLM8cKFRIFxW0Aq2Iz2919qr9jUufUnqzHFe1ttML",
"upiPQKsxunEMSekhXQNtnLg6ZCYfY4ajPf$QT8QagXPf6un4XeuHVozzudIiWwQYDH7zEpvIWn!B9G9N9kHl!Rro0K8cK8Rq8!wSAKpcH927z!Rbh9uZXWozRFWHatIL",
"icUCQo7xnnncRe1hjfVdVq$6aUsiZYhBgiPwE0WmgmZPVigUOVsqQL11uwKYwpWiMEn3rDDptt94jxIgGRmj12nqLo80SA0zF7Co0IocDmMDyRF1U94HjWq!RAivDBcc",
"EL4QNcbwsMWpoejZ7$NpwRZ6Y$UPZ4mEVEPwBFQaN$4iNiCeagt0Eo7I4nS4ndQ7kH9Ok1M0wTvYODMe!Sax!DE0KL8AoKcoFvwqA!K3BjnmK!FD$lYlaEF3G0n1jDSp",
"Bohg6oteuJvSIEbXH$NpWvZ6uZZPhims64gw9FgaVOhCVQuTjQsFE!uzvTRCtReU1x9B11coInDCjxKi115RG2MSppF3o1LIF1QpKDSFbs1mKK8s4mUmswAAbRn!D7pK",
"u15$6LEstMncqt7ixhNHnB$6lZUYhYOwNWPn2FCUPmXQ6eUUXCuFvvtM2dT4CoV4kAOEB1IpKM9Vm42B91aj9xyRMdFS!ISDF3VS3RF0jt1jqS82ZHmsttFAE3uSDjrq",
"skHX6SbuTrIS0TsZmXN9TnX65ZaZ4iOU64PTEqiUVUZQ6QUUYNTAzJETDJdZQFeExGjs1bKkKcxeaj7C215T!9c8rJA!czR1R!M00!Lc9il9H1As4RDsZQ0RWGB!jmpS",
"T!O46cTu9vJSLW1CmPVSdM46H$UYhYOYNiP2EFthQZXCNYUY4VQA1plEbJJhtAQbc!T2vzMpIRRQjswgxxlt9wDRppFSSvRvAGQpLvqLGtxm!y0biljUZtRReRDB97pK",
"w9GX6n2txdT!!TBPlZNq79X6F$YPY4OQN7PtpqiOPihuNsiPCNtq3!37vJcuWFeiF!al7brL!L8Cbm9QI2jE2tRoKMqqRzqRA!WKFSS!Gam5z3F2m2juhWcHwSx77uKI",
"7tA4NpMn3dtKvMtghfN3dDX6Fh$XPUae6uPnr0waYfaa6ZfUYNto1q3EvIdTbAewAG9BbJnrSRRtWOstcbj1bbFJqco0z!K18GTqFyAvzTE3lKF!h7hu4wKRfy127uKK",
"!2GsNq9TFcMrJvtglf6LAya63hg4PXY4NsZ!wq4OXCjl6YZuj4EdRkGpET2O7LVQpDDuIbMyLcIi7lEBpLY3sx3SFpMqoc0k8HJqArFk7shH7!qBhBYZwWK9uH!vDCpc",
"3tOjV!sw!LMJopQVhf6Hqza6G4YUPXjEVi$!dcTXhfhlNQ$hmafnLK3kBTtx90NCMODTKpJ0rR3itlw2SdfLW78qFkpop!Ar87KoAy0S2w93s9L7j2ZfCtIjB3D2lZp!",
"3E7aVAxWASnMKptNm$VrAEa6OZZXZi4bgi$HTIQCOhYhVfXaCXHJrE3o7nEHvq6tHDb9SEMHnzz4UhfFSMf1n98qoKpK!oAD8!toFvL2GB33711EjnafCtp9t391G4vM",
"Fwame09WSqtM3Iw65$QoKb5VOhChXYhuCTP9pJgC5CChg4ZaQCDMIE3SmJnl7!eTDmus1vMGdDHCUuf0oEYAMn8FpDcqLK8n8xTDFIoHDbHG99KEaRufg9JsTS!y3uMv",
"AWYGt89T3KEpoqd64PYR8EhNZ5CiZ4UBfZPHpdVQmmfZiCZZ5QULvWHRxnTlTAgTJlbnEoJyrDyYEtQRqnUInW8o0coA1qAdF7BSRD0H2TxGmcMjXxUCQtJ9szjqlnTT"
};
