/* XPM */
static char * image_xpm[] = {
"128 128 64 1",
"A c #2e1d0f",
"B c #604123",
"C c #51341c",
"D c #593b20",
"E c #352212",
"F c #6e4b29",
"G c #452712",
"H c #472b15",
"I c #653f20",
"J c #361f0e",
"K c #593318",
"L c #1b1008",
"M c #4d2c14",
"N c #6a4a2a",
"O c #654729",
"P c #5d4024",
"Q c #4e3b24",
"R c #5e381b",
"S c #5d3e22",
"T c #624326",
"U c #583e24",
"V c #483621",
"W c #52371f",
"X c #432b17",
"Y c #6c5131",
"Z c #3e210e",
"a c #46321d",
"b c #4d2f18",
"c c #81633d",
"d c #614b2e",
"e c #6e5535",
"f c #402f1c",
"g c #5e462a",
"h c #674e30",
"i c #584329",
"j c #2c1a0c",
"k c #261509",
"l c #5d4327",
"m c #654b2d",
"n c #523e26",
"o c #4d3720",
"p c #4d331c",
"q c #0c0703",
"r c #5d3b1f",
"s c #785b38",
"t c #755734",
"u c #685132",
"v c #564027",
"w c #492f19",
"x c #462f1a",
"y c #71512f",
"z c #3e2714",
"0 c #68492a",
"1 c #402411",
"2 c #513118",
"3 c #533b22",
"4 c #674425",
"5 c #543218",
"6 c #5f482c",
"7 c #3e2b18",
"8 c #59381d",
"9 c #55371e",
"! c #372717",
"$ c #563b21",
"ABCDCEDFGHIJKLMCGGNOPQDRSSTUVWHXYIBZJabcdXefVVVggghijklmnomapqrlhistuvpwxLleYyVtQLowmgieuEikxHyrwTIJCDIzxBK0S0Hsljx1yKFJG2RRFXAX",
"zbBrb3BrQw41Kk1GG50UOx2pRI2yapp3UCrbxX2sdzcvEaVc6idQLpengUdxjq4yzhhhsn3WgLecOsgSUklKlhhsY7ij8A2pSYFzHp8zpN9!Tw2BTzSEy85G1KRMRbEG",
"EAUDMoPIUb4GKLG1G5Og59KS54bta$O9DXPTEXbYaH6iEQ!sgmnVqkYiemmfVqtWbae6nis$D!hsce6sUktRmc6ee!mHG3NFS3wEWw4px4Mpa2GRSE9oTKtXZ5RRI8jr",
"AjBU8S9CGH5jRL1$GMP9Bl9pByGO3AD43TSOJN5Ih$3VEvAcueiVkLsQYyloYLt0Xvdnifcnv!esemig8EWXge6deE7JBCIOWDCExlIBUB4loo9NNZ4OFMSTZ2K5KRz0",
"A7PpgXx3Sb5Z2kGb2GCSPl4PF8A9aXDrrg5Cpw2cdG0kWvacvii!XacQugYn7kySmEn6efYg67hcegpy0xgbguQusj3Z9UITr4BEpS94pTS9wU$N0AMrURsTGKKRRR7S",
"EEOpXTWlU95J2LG5GGGODlr4FKjFzzU84WDMMC2TiL7kgQvcvsVaLfiQeistWLhbNaddsV0hijteey7Ny7nHmcnctapJCWpDT0BEaW39xD4C9llHFEbPWb0BGKK54HE9",
"LaDxPOWN29KJML2bMM1rNgITOCkTEwpS9BpTXxbws3gomancVgaEx!inesmt3qmBTkidsVUvdkyctmpBevopOYuccEJLJS4N9T2zEp0Ia9IbSxrOUqUBxbIZ1KK5RIJB",
"jo9jXWa41BIJ2qM5MM$wta4KFCGykaW4ODX8EplsiCuQdQVcVeX70a3QeygQjksgmEuudfOXe7hetYlr9EwITYhecf8kX98TSP1X7CrRJ99$OD9ywjl0UbOH1KM5KKkN",
"jb$19p3rGW5ZRkCb5R9Ptx2R42Xy!appUwTUxobcVpehhnfc6tbQIoXgscioWkgW3zdhiftXlfhtmhWSHJxAiVdecQbLkor4rmG7oCr87S5mDM89TJ0TpZyRGMR55HzI",
"JAFWWbpH$$Rb2LSpGGFC0UCKI4ptz3z5fTOPwHXGVvii6nasv6pvCnauscldaL29Bwucuay7p!heYYpTSC$wY6escfzkJWN84O1z9w8pASBB8bZIOpOUCwOIJMR1RbZK",
"jMNw8BwwP$I1RL45J1NyPo9rI2CFfQpyoODOoCbrV6lhV6Qmiuvflw!dstltHf13SQtceVsXn!ehueJNFm7xPVdecEwjbg0b4F57ooIWorP0pwJytGU0X8rBJHM1RzJR",
"Ea0SpIWCM$RHRkM8AJtPCzPMDRbNw3$FapDtxz8t7oPnVUVsYhnEVJ7uemlswqxoCvseefyvikTestvyyE7JpVsssJJLLhFDtmyHYorCUD2SXUWy0HTTECy4J1KJKMj4",
"zaDylK3bSzKb5LMI51UTSzXM49bhooNcpB$lxpWcffpinaVce6UA!ja6ueymUq9Qwxcuhft$6EesetEceGXEpVscsUkqDOKBOD3zHW8HSTKCC3p8$Z9HZST51JRM4G1y",
"E6oy$bP1DH5zKLKD2ZB8YoG8SGWs3iyFOU$PpWgyoaQdnnQcYv97OAVds3Ohmjz$xVeddQcaxklshYocDHAAW7eceBZjbUrBT9CwPpSbPD9DK$19aZWGHKFG1A5RFJEK",
"jW$BXMWG4G2J5LGbMJSymo2K1ZptllYFFCMNhzrTuQ7QVufseg2v2zUvehstEAahQVshQVcx7AfsOsoswZkXO3ususqarbF48X8$W9I1NPpSCD12U1a8GItjjARKIGHK",
"kXUOj5C3SKRGKL88KG4OTf9IM1WPv$cyT09tsJsshQad!QQgddb94k$fcssnkktgwnsenVNonjmshYaFU1AGlicesuLECPS0N3TxXNPSpBNpWbbwmbp1bTyLkGRMRXwK",
"kXvOW5wSr8K1KLD8MM0TOWpSMG3PU$y4OrCT4!s4dn!u7vfihhbzlEQVc6N$EjhV3VeYin436fpchsPyXoj!$nteedqqb30ByiTxxm9rDD0MwHXDYzO8HIKjkHKRRM55",
"kSlbJSb0S5KHKLB1Z508yxCNMG0poo9FP8GzNkyy6QUefiVieoUCBnudcYsvxLFoWvte7QME$o3sYticplqPWdteu6qwwwIYOQKAAUSB9wTOp99Sm835z9Gk12KKRK29",
"kpl99S9mUpKw5L4JK8TW4wC9HRTD$WWy4pMb0Jtyag$dfnnQe$lSELa6smlYGkIxWiutEiS$hBecmsdFgSLhVesehxJWU$SyN3ELXT9rpbOolNpSlUoCHxGqJHIKRHUX",
"EXoDMO5T0DKbML4GMMy3PfwrG0SPTxOmFP8UPbOyl6$eVhvAYugsl!rhcuiOUjtQ6issEnvpWVNcechtW8AOotcucJJbygrrCgwq$495TUYO03zbQ$o1ZXbkJKIKKMUb",
"j33hRmrTCDKM2L9ZJblUT3S9HNWSm9BTyUHDGbyBoiYu!Y7n6dUsDoDncedWHLcagndsQQlDailsYsoYwtqNgheesEG1Tv2$$lpq$RCHb908WpETlp3bwJNkZ1KRR27J",
"k9lgMS0T2DIZKLMHJG0SyWwIb5UWiD29W$HS5JyNpneeVh!VgioiTw$!cNuifLcf$fdtdimigdus0txtSmqmiuse6pjp834yOUBkoaW4SB4Dw12Tgra2HpTEJ1R25221",
"AN6$KS0Nw9I1ML1MAGX9439b94S6lX45$XxNUJ0OoQheVtfQgootSaeussYgZAYAl7ssd!PWgpesyh7cCWqU$huV6zqz83y4NlB!8GpOKD2SpbzOyFPCZPHLJMK2JMMC",
"ACgyIS9Do5IZKL1XkZJW4aXTGF83UBCt3pEoBj0hi7h6EsA6diUTwGYdcYUiT!owmWsen!Wdna6tYYxyCTqUoiedu3AJOlF0TDB7WwBPWFDUDbb$gPvD5SPLkHI1KGZ2",
"qS$P24M9R9RG2qM2jJAWDaIbRTCPUoICUUCcUjFpiihVLdAagivY3Hu6Ym6gzk3vOkmu6VzmniUNeYxsP5qOh6cuh6A7mHI0OprjA98SOOTDSCH3PMUpGS5LjHR5KGXG",
"qDlg9NCHB4RMKLWbJJXgPW9F4K9YTlKwg7Htt1yt67o7fikVeuudoHYudh6ggEtQ07thv7ng6VthYtwYDDLthdu6dQkx$pr4imrJCp9OTByBT91pBGpUMtKLLGI1RR1M",
"LaTOBrDxFGIGRqxGkjXUOlSOIMwyUlWxr9rB2XyF67iaomaiheuuWEedsYvhgfyzyphdnQ3mbine6s6sD0!gi6eitdJxOlI9n0y1WD4tHOBIWCZzWwH$KIKqL1IMrKJp",
"k7$6490bSR48Iq78AJwWYWBIXMz0oVbOrX0I2wZBWW!XnefiivimXgwcsh3mpEOEl!ueiV1eUnisYtheP5!mOieduizJOp89g02GHl4OpT4FPSjo4Cb9R92qAGIG551G",
"kbaBCD5wB5FDIqkDzZWmyOIRPrJg3VGWDB8rDU4YHaAansfdiouxolosdlvmJ!SEynsenQxlpQQehthPWzAgThughVJJ!MF23P2r49F4pNNDowJQBwzSITyqL15GI4Hb",
"kWTBtXDltK4zRqZGXJET03Twr5AxooX$Bw9IROFYpEUtft!uiluxzjEenl3iM!Vh86ssaf1g3vlcstehoDL6ohs6uhjjwPPr30rjBw45CS099Oz$PDGlr0KqLJRZR41W",
"kpUU5OOTBRRGML19ZZzYN$PWR8zYo38TTCHrKegggGutVg!iQdiPpJxuun6iA7EQ8nuefnC9ooiNYYmsvokOmVcuuvjJ4STSUN4GtIF5HBPBBajmPwEPR4IqkMK1IIZI",
"qpoSzOr9lrMbHq1$JZpNyYU4R45B3fFr8zgTyy9dQ8esVf!ifdiy1WmsugQv47E6XVes!QMp3xhYiuetvUEOmccddsakyIB4UN9lTbTT9F9TFGAv8zwURMRqJZ5MRzAN",
"kzrWpOrNCbHG2LM9j13yNlyBC4MFVV4F4RW45gOOiXscfnAnVnVoLhsdtUiltjgvm$ueVV8zfQNumuCNaJLolYcuedzzGKIBS4K8H$USPbFh0pkUDSwXGMKqkj5GRHEt",
"q$TOJ!SO71MJ2qZMj1UYD3PRM1HFUo0rIbbFzUrfdisufnkQi6ax11chmginSjvjmvegVQSQavdutYltHLjOSdceucJ85bOBB8rb4wPrbp48TILwFzz$M2KqjARHRbpI",
"q5SmpxSUkK515qGRJkPllxp8MGBy3UF4RW94CYSWiWhUVdLamdQKEUceYi3vXaT!UiuefnYpQ$istumsX7kYp6c76nVJjHI4OH2XOSDCSU0II$k0y7G9Kp2qLkKMHH1F",
"q4$lPHO5ERM1GqG9JjT0NrPC2J4Y3OB9983IlCzTiioy!hk7miu2pgcie6agHJ4AUh6uidlWxhfssYdd!7jOWgsee6Ejm7TB0T9GOyB2PSr5rz!TtEbCy1HqqZ51RXED",
"qBW9S$0HEGG2GqGwGJrTUo$C2jyOom9rBYOITlHT6mdtVgLfsuuDzYc6cmVdjfNjG6devflD6nVsetehfVkrUicicQAJO!BpFND5ZXb092S0NXAYy929KCJqqJMMMJXr",
"qsbNWKUb!H2b5LpwJZCOPUTCZjBtaUCWTCD4OxbSAisBngLftguzotcgsinnxXtE5uitfhYU366sceYsaUANlfcgeuLRWaTIl0CDXFDWH0Sp04xNOH1ltMEqq1KZRj14",
"qS99oJoHEIKGMqX2ZjrTY3PCZJNUVgbrB8SSWpESAQoyQnLahdQzQhchsm73M34E06duQiUg6O$yeuhYEJjW$ncaev!ZPCSCP88Dy49Tb08wy47S$Ezgb5pqqJ22FHEK",
"qp9OXwWD74M2KLjp2Z4OtlTzMEODfg4441US$XAOVvaUVhLah6iGmdcoYnVgDCgXsesdfn0OQXViyeYcVqiO9nsie6fGWHFIY85FTyP81O9WUrJrSJ168MUqqjGMIbp2",
"kWrSW9EK1BK1RkLbGZDBcONXHzlWag8SyzCyzoHe!sxoneLViYahUucgehghpZtxeiehQ6Olfg6tYessnqaDpVtvcQV1wEFBD989tO$SGTW9YIz9OEJ3187qqA5I5H!4",
"Aw0P1$pRJy5GKjk2GMU$4lD21z$f7$C94WTB93puVljhv6kf6eQCggvhc3QiJahXadt6iiuiQoiyYctsQLf$oicntiaSCvyDS8HDyFRUM0DYO5xXNbExR9MqqG5GRRpD",
"LbO2o1X9zO8kILjH1Ma0yDw812CO!W9DrET0XoF4Lh!i!nfQttfwOAQhsQasX76jmis6Qnuuff6OessYQ!J6PVYisiV9UiIPwBIwTTlU9DBTORxBDGXp2IKqkM2M212t",
"L7OrEbHyENwkRkJzMGCgT$9zDHXUEUsTBx8Rj5yP!hXgQVfdeuQUSLiusgomzZhpYhY6V6Qg3idvYsteo!7OOfOicQVaehHT048GNWDpbC4T4Rx0lGLESKbLLMRMJKXK",
"klUSkCCrET2AKkZARMb9ylCESGxPfoYcDWTCzx0gEh6gVV!svn!HYkdi6nVYvEaTl3sufgmnigdueeyeWkA4OQgnsVQki7SP8T55YPFoCSIDTRf09CEGKR9qkGK5ZCEI",
"LcTMUbWr!pGkRjZJIMMDNTXzC27afyTFNpTBXfWvaOsha77eginlVpV6digVzoXNiostfVnfligcshehiXAONfpne!oGJ2SBT9Fry2r1X8SWDDayKG7HrXMqqGKKEF!R",
"E9llp$3B!PWA5LH1R2GUFY9pG2z$fO8sCaC2w9bUQsssVQ7egfiiEz7esVYUg7ASggts!iU3W!oheYstUA7lYa3VeAopZwOSOII5sF4XzW2BP2wyKGJH82KLLG5RHHxy",
"LTyO3xbS3Uwk5Lzz5Z1zUOS7ZJEW!pzy9SO2WxCg6tuMQnEeuvUyJqfegosYozVmxWstVd8VafgseYlswEzO0fmvefnpUa493FKbFptxA$FTDbC0SXJZ8rKLqMK52CG8",
"kbT0pXHNx07JKk7E8GJwYWwo5HZN!DS8993Iwx4giy!Gvvveivl6ALQs6nNmzAnYjite!vbaQVQyseNuSL3VsVhne!xL0x9BOF4C8$FwEOlSWOMS07kpFCrkLJ2IGzzC",
"wECBlGx9JCaG2kw!GMZoySGE8wkBppUP1$rNS7telRE1daVYevWSHLAsaEgvW!unxmse!iivVogNeehd1qXDOfhvtEoqc6NTOUIMPS4DJCC4f4WDIkJ1O4SEqM255bEr",
"kwD92W7rHDAHKkpGM8GWNg8xrEEtS7pSWpDMR7FdVSVpiQaitviWkkgnmvhpWLeoMVtefiguaXvtYtevWLnysdsntfgqNP5SDp99PS4PjlzWoBoNyEjw8TWkLGGR4bz4",
"Lb58O5wrz5JGRkXG5MJv0y$7GJ7YVmWtU$34GjIYitVhds7ddV6Uk7Q6eQyWL7eBXfcc!npYXxQeeYdgU!xSmvfieVfEJD9BIODBt8rSZ$Tg7Oac47LG2GTJj25588LD",
"qXFXT5pP1Bj1KAxCMBJUc3P7bHxtam$OpBzyN7FtiT!tsQLgmmneA6ieQamlJfSYgVssfQUmUvaesYm6PAp0gQe6hQb7Mg4FByR4PIDTMzWYxNgyFLkwDZOJkG2KRIjr",
"LDB3rMWSwrjGMJXWByJ$yTNoJxxt3Uw8SxERIz8uQmked77dhiosjXge6fiyXkUzgvgcj6YYtgQtsYgQl760YasgeV1EO4ryioO2IF097HNDp4oyB7jr9IlAj1M5rMjD",
"L$NOb2CrWCL15L1354J3STywMzzFU0b429pP5XyezHVehQkYg6Jlkjv6s!gYZqOEonDcLnmhNa!teYgdyExYhVQhtnJ7BOBDVOB2b5T9X1N4zCpmRjkTGIHAJH15IMG8",
"kBT38G94WCL1MjXPRNJ34X8HGP7FnOGPCp7TC7HYVD!uief6atEUAJ6ddammRAmEvVot!gYhh!vuhttcYLCl6QvueQwETwKF3P82o$4yx$F$XDoY4EkT$MgJJZR2IMHF",
"LCBlIJbNCZLjHLJPI8JUyUrH5ophaNpTDWbBFp5Tfb!Yinfgdh!oLxghmfYYckhxPVzcVd4Fba7cgdYYmzClhauieVX!3M4rUhR5UBrNa3SCwBEYIAAClKSJLMMM42J2",
"q$7O5p44w9qAMkjwrMGw0l8x1PpOmSOyWTx54EPKv0!9iV7Yegx7qWugsndoskN3Al7uVYSsPv!lmeecFpwlhA!6egE7xT4rWYR5$4RTXXTX9CEFTLE$y4D1J2ZM4Zzr",
"qpWKRCBFz2qJMLJSFGwW0l2bM9ototgrwNaKrkTmVQ!vvnfiiuQlk9d6sgvYsqyoap6d!6By9klYYeeBlz1UvAvghn!ovT7B3gO2Up4BSWBTUpaYD!AmT8O1ZKG58Gp8",
"LplCC29018LJMLbT5XHxtl2jGGpSvOwBrFH9DAycaT79fQ!QueoyL6hdchYgRLlpapse!pFyszl3usY9aobQn!anhf!oziaTwN85lzDGD79rSzptlELURGOjG5MGR5z9",
"q!UI4p8RMRqJKLD2rbbnNlRwM2xF0DCSIPM4ZQOsapVJfnoiitU2qeenhifOcjtp37ts7xFOg6VnsssfzJQoeAiVdQf1xlxypNR5ZF$SoaTtCEwtWAAg4G8JMH1JRIwO",
"LwTMRGrrw5qJKLWK211l3VRH9TXSUTCBKBoUrUFYLN!JV7aihYxWzsunelvscLiWW!seapFpDnvmets3pxQxd7xoe6aJpXwBWW58XF22wWOTWxCyojkUK19JGMGGMzWs",
"qXoCKK28Z1LARLGrBA9glU8E85xTNW5S2XoTW71mfdfOfvvQg6Xg7s6Vc6oOKqpaW6ehffhFuUlmtemnWgXxi7kQti!JE$gTVUrI9SbBzDTBSw223kjp9GU1GKM5M2G0",
"qzoNCZ48GHqAKq1TMk4oTT5wbZfDPS9tDUW01xrOEmVIVna7hmK$!c6asvgYMLSa9ngcaiscgvlYseYiShJTv$A6eg!ZAgD8SmDISODPw4bpwzJwOAz9888GM5G21Mp0",
"Lanw42N4ZpqjKq5WbJTWSh9E9p7UO0wTWUoTaQBOEt7Uai!!vYbHaldVcQucTqglFgucVfccaahdeYscrxaT3vid6hALE3IT9UF2FD4CGS8O9xxg9AzSFwMkM5MZG2XF",
"qaU9B5C9JPqkRq5p2ZyOOVSpG17UTU9Foiw9x98iLsEgnu!7islGzhe7gQYOokmE4feuV3c0lxi0smegKQfTmWihhuLk!ClS3rr8B24Pb423UzvTDkZH2JbjH5G22zWT",
"qx3p0IClH0qkIL2ZMJOggmHXwj!OPTGOfbPU$g4m!8!gnYVngvsyWiiVv6shaEoaOAdhnVcDgahTYhdsUxAtdUQuthkLWbFTX$MKTSBNbN5S$EQyOzjXbHGjAMMM5JXS",
"qEVWGR$$bBqjRq2GRbTYBNKzK9EO$CDXo7p0aC00!0jvnQofQmP0xsdQnisYo!YQ3fhtnas3hgeYgmdmNoEOit3deekJjrYBXTC49BDTXSryNjptlkJDzKTJZ5M5IzXT",
"qHUxSBB$OULjKqMKGJT0lWMXR274TUSoP8SrP38WAs!anviVimrQwedin6eisl5QTVYeh3sXrd$YcYmlmE7SimsdugEJE4T0p0TIIT4Npxtp17pNnkJMUr2jMZ1M5Hz9",
"qVaC44PU9$qj2q2K2jPyU35z5b7WlD4SpXOOi72Tjrf!7QQQvtmalgevg36UbEGQ5vee6V4iCigeecOvekQ4goTdslVkkSSTxrs58r00owyW9!xmakjHOr4AM515RKJU",
"qopBrb099Sqk2qG2GjPTglHpM4E4U0I4NXWF3VC8A9iaQvvgshsw26dndgslNk1y9iuhnnr3dfBsetYnMkQNlNQdsEfkjFTlWST55T5SXDIVSCXPokzClbTwJ11M5IjD",
"qp$BrGTP8Nqk5q1M8ZxlhU8HMXjFUPpT0XOR!VlFalVn6dEiduu5bpimmn6tfqh6sEmenhtUdaSes4YVC7oFNUnhgwVbX4FOxS84UNFlwHyXoB7lVjAC2M0AGMMRMbzC",
"qWX9F2$WPPqjRq125wPyOxBXbz7Fx0bBBwPw77ys!0EQhinvgm6lRP7uUmtg5kdQsVsenhcmgAlsstOam!6SsUQedp!QmxSNCNrb$rTCEHcDPCCvoLf7CK4jKMG5R1WE",
"qUU8pI!CSXqk5L192HXB309WwJxOHTb8pxDM7zsN!Cad6iiiQedv8$EdQacvZfihdAicndsgvVhmeeYal!xDe3audBkJMy05U0BG$TC3JSc9ODxN!LxUWGykMMH2RAwk",
"qpXP1FfC5RqLKqM5M5VYPOwpHEfTxTrBD$w2o$cyfPQgnei6dmmY5G66TVmotonmu!pcnesP6VePYsdOFAfVhfieuTVZ2HSb3oF9$8BOG0ONS$xtnkWo2R5EG5GRRA$A",
"qUExoBwBb2qqKqMGZ5OyUlHMM!x0W98yN99xx9tNASdtvvVYehYs2ZiYnncv4pV6sflsQetW6EumststyL7Tea7uhCfjjylWWXFpzCB9XRRHIo9SVkWop9NGGMHMIXpz",
"L$o9a8xWXjqLRqMKGCSyvOw9RXftoC9BOwrE3OmUkK!hiQnudsvI2joeVQeUHZQgsQPsQuopi!66stt0PkVBavvd6hqwMOFppry9porT$TRBBCC4UqmBCG41GG15RZpA",
"ACUPB1aw1JqLZLGKG80lU3X2Gw!yVNwFFP9Uobeg7rA!6imn6vi$OM3hvUcOy!QQlvlenQ3Uhj3sssyYbq!hgw6huNkjZTWlxmIPXESrTbTx88bS3qP$CAcJGG1M51DZ",
"L3rlsGpo11kqMq1K1ROlOo2bWJ7NotWBTU$$72lmfOQen6vQdmd4HHDhugcrs1A7gWahnuQPdqHscsh3zkAlm3n6eiZjROS$pOFB3wr82T8Ow18PaLzSwb9jMGGMKHxw",
"LyUg0I$SZ1qqHqCM2bWy0vWJBJfyoyH3r9COARWdAXQQiVvghdmsHMbusttrtxjWQWm6cno3Yqiscus0xAwP0i6ddtJkYr0DUNONpCFDx4o2x9MWoqXClCPE1MZAKZAw",
"kp3PbI$rJ9kq1qGM5GpNPCbpR17t3vwDDWr8pHwQqOiiQdvahc6lKJlufms6yp!U77cgdvEUt!fsemcelE3rtDuegckJWFrDoTFKHXBOpS9zSrHDXqw$$oIzJMJJRjEw",
"796GYRW$j8kq2qG2MMolSC29rJxtUPZ7USrE7PwlqSVgfdo6gsuGTXUsnlyQNwEozCs6imWpWjgYsmepNqlNywvei!kjZtF$EF4r4zl079Np$8KsXjoMxJFxkM1GRzzb",
"kWxOrI$OrCqqIqJMGM7PDCCCC$7tl4J1WD2FjNHsqZEpa6!g6dhCOTvdQvsg8lkpwvcmQsfmiAimemYH0!$hyUQYQ6zUPRTP7g0JUb20o8FHD9btwAaIzHNlkMGM57xC",
"J9gObI3N$MAqKq1MMGzrPB$SlKxygKjbzD$CvbHTLGEQ!6VvuhibDGv6ngshKYkEp6sinUFT$!QmshezMqoW83s66hEmTFTW3h0xl$SmWS41CB5cZAfCZ9rlqHGGGX!C",
"ESohbRCCCGjq4LZ5M1w40DCSDHpPl2JDEO$KJXSoLF!invQdYdeolCgdfncit$na3hueu77PgLgWtOeSZkiYOodeiTJBYNY$3TSpoxPSCT5UwDrt$jarJpyxk1M12pEX",
"L0odNR3TXbAqMqJKMZXl$lDBbrSDob7xWCID7EbbkcEsin6VevuNUp3id6hp8s!n9HueuhBThk6PsYyrXjx64xgudPZXPmBUWONppwS0CTRSEPFtoApC2paELHZ2IGEJ",
"k4lCC5WESrJqRqZ2RGbOO$2SXFB0U1jEa9O$JAMPksLgunVfminMxZd6!gsEMDj7tXeeYlOtlq6YsYh8X!3YF!fuiSwG8NODU69z3rN0F0DC1W$yCEoSG1I1kG2MJ9kZ",
"zrmg4b9TW8JqRLMH5JKPbPbSwN8F3Sz3X$UDxjbXkcAdevQVhQuJ3od6!htz8Ck7hpssehyyykahcm6HWEGTrkivgOwr50W8OYrpP8F9IBSNj9Wt9EEKMPyAjAkM5OLC",
"L9TK595gC$1LZL5MMZ9BTgHDzrHypBElpDTwZjHsAcE6iig7hdeSp3hmfumQp8oxDhusnOsT6LmsshgQ8A$nFouuesEYS5BDpNS3Zwrl4SDc3XwTH!U1GUIkAJJ5RNkZ",
"!Frp5KGOGD1qzLM25GSDBfSIzS29XSEwPDBl!Eo3jsAi6iv!tne2XVhU7vhUNM!!TiueiYsPx!acseYgNfJyOvisudvHb2yF3yPwUpSWyOBTQDbtA73w14IJLAMRKTjj",
"Ey$3KrKY98zqKq5MKGyCXS54kT9t7TXUy98rfxNSEsAdQiuVe6sToVdh3Yhpt3A7sndunThh7jgsse6cTjXlT0ideu6j8USrDy2DS94U4WBF$3HyrkoEG4IEjjMRGHA2",
"z0U$FMNp5bJLKqG2M1OawoS4J9CPzNz3N$5tfJpx7cEnVg6dy6dgpnht7hcUccEfP6uei2$wpAiseh6cM!XrWeQufef5pXBTp0Spb5I9WU4BTpzy!qoX5FG3JGMKGNLR",
"ABlYRMBlCMwLKqMbMJxWWwOOJ5bOaTED4SDTCATn!cqQQ6nvs66SUah6fthVFhEnOvssuOCyTAmYeYsgTEAWW6iehYogHET4g0rlC2F9t8R2W8WhwEf$sPJEjHMIMKqy",
"JSUNKFpTDAGLRL22MJ9OWpStZzbXpTJ0yWW9xLsyQyLghnmisiuKfzvenisgs27ogoecucuyi!etsht34EaTwecuddUeJb0rvNCz2Rs53o59Op$gSECprGTjAGMK52jB",
"7UPSKrHzbG1LKqK2Gk2DT$P4ZJH2U3pBYWlFEEryQtLidnYiY6dJo2is6vt6yK7$v6sshseyNE3ycYtOTk7QwceuueZpzUTBnCDwO04Wp92BSwU0CLCD2HskZGHM5HA8",
"fyTSINpzbJzqKqKrRjM0so$SCMH5nSw5t$$8wxyOQOEhhv7ic6d2E9duu6tisWj6onssuQuDTf6cstenSAampcitdsWxw2pDvN4CMHCCSS0ItRb4pLDSRK4kZ5GGMIL4",
"fI98ySpjwZwq2qRGKkR0OpyR$ZpHU0$tcWOXoVOmVlAiti!ucmuB7SYudu6VczLV3EeeuNewDQhscmhWb3pmCcQeiegbGCrFocBM884rODNTl81czA2V2RMLH5MGM4jT",
"o5TGIpw7w12LHqH5Kj4hNpTb91$8UT!ySpD5W!pgiQEhg6fYcugmEMse6neoPbLVgvsthceosQVcsYsiroCxzsQsnuao1Z8B3yIoKCw0Fr44O$JNjE13MIGkKKMGMRkl",
"1K3S84XaxwMLRqGbRJDUTD4RlGl4W0zIr$SbTpbmi!!shhfeeisN7psdmdQxyVAdn3efivOmdnvscts3OA!Cphii7u71UHUrvFR9WW290OST4W18jA1bRbRLMM215Rkb",
"XOm5yCwEzCZkHqH55J2gDUS9bJ$DWFHF0xrAz6OQfxEsQvasehtSCic6hcvwypJtohsx6iyOh7WchytPYAkTxsnid66XPUp8fNrzNp90lT02IXwZzjJX81KkCMMZ1MLH",
"wSTbFSHkz5WkMqMrMZonDUrBGL993UX4$W5OHvoc6Anc66QeYUs3P6in6sdayfall6s3huYWd76teYmTlfjtjsusddQ!XKT8o4BpOW9TXT80TwbpEzzkI8RjA2KjbbqB",
"zWwOKFXAzCOk2L1r1GCo3NbWHHpNWbJUWDPbrWTcukncuf!cYQc9N6i6emigcphl3YuQiuOlUghhctYPO!E$!tvcuuV!JTSRTP2JCXN0XCbTyAC6XZ12RoMZM1M1CMk$",
"AClyRy8EkS8kHj1O1RWvTP$XwKDyxrDGSgB3I!NhvVYcvn!sivhPGveEcuYnsUxtm6hdhhrAVjlhcyyh07!lCuhs6cnjkZD90TSxpwINS39rpHGPxG7$HbKp5ZMMMMLB",
"k9P94coEGWKJMjHpMRpUm9WXX2CtzOHD5ypUXJyyit7c6hfugvvY$hufYilise!YPmddiuP3xEUycseh8AEQA6uudYVJkwR4lBBPwWb4wCIXPTM4pEAWCGOUGMRGR1LI",
"E3Sr4OW7A25JMkKb18SO03WWp84tfFzb9DpC8zOWmffYVeksVQghzid!sd6icGXi8lQusdlg7khsctteRAjvEdhu6YQkxb94m98H2Wy$wB9$FBMRb1ZW3Z40JMMGMILs",
"EXyT49pXzK5A5jKDZ1UrNS3wC4DB7NA8T8lSlAlseVfdeiaYiUh0Gee7yd6vc7J7fCdhhogmVAescsYg8k!pocQeYmV1gDBr$9SGS7RDpT44lD2IzHJ7BHFlJGMMIGLc",
"xvwD44SzpRRJ5jRpbMPUT90CKICyoTH2yplSUwNe6mlsV6fYnghNTesAcdvird3ok96ueueSnLYsscsSY7oaAtVue$799CBCwbOOEX4IpWT89wJDH5Jx5GNPkMGMMMjt",
"zlTBBFDxTBM12jR9KGDlS9W9MR9sQSD2PTTN97ycE!ccQg!cY7hD26u7ceifFldpkWdYehlSnLYsstmdYXf77QVeduWpOgFTSI5$pWT4xXIFO9zTXGkv2jM9kMMJbbjs",
"EgxNS1SoT4MMJjRDMGDnOxSC8KSFf8WDHDPIUAIsf7shVQVcuaeYRQefeum7cHoojdehseO5E!YsstYmyUgXEmnuhhPXwBFF9BSbzGRYz3IF$wzTGbjWMZtpLM2GMKLl",
"j$pSFZbFW1KJZjROMZSaOaOxpFHr!41S3PZ$S1rcE!SgQ6fsc!e6o6uVtYgAcZJEouu66ds9aADOsYhsglEHCs!dueJjp10B89NwUWIUX40c9EEDXGATr9K!!2KZM1LU",
"LCCPyJpSbCR1ZkK3ZKOWYXU9XFMF!WwSTW2wwpIF!!wSnYVccEslEhsfscU7Tj!nnesdedeSfkYustghh!7DaefQdiCgWt4TTS23z3Kv7N9D8zCTSGZOD1FGkGMAKKkW",
"L0D91HWrH7MG1k29MKSUY$TSJ9z4z5btTSTImzBc!a$sitVdcas9HVsgscgEMXA6Wtc6uQmTULhssm6egL7U7e6ish979N040ORp$U4UArPN0RHHIGZ9DMBJkMKM24L$",
"LzmyMGWTHp45JJ1BMZTlYowCE5by!8M4WCwyVxrmafNsdsatsVsPUQugsciozZLXWdsu6viTokYssme6Nf7Woe6ecdZpU9S0mPTDy3UlpBGsDE9MKpG4z5yZaKK1KIkT",
"jOPw4KW8wpIZZkJF2bPD$UXXSI53EpPColWBpj8Uf!xsth!teVsPWoinecloDjzWQmcednUyaLlssgYglffpVVvhcg2CFb3FNUtr1$TYjD2yND592G20gb0CGMRJR5AB",
"L9oSKMaT19R11LZBG8WDDoBHWMCYE$0z$pN9EAtUQhstWuadcE6YCOedscgmGjijmaud6gOs7Llesy6QhEaEQQditiU3yH84D0FGM9D9J8r0TbWF8X2mT8I3jMRMRRAR",
"L$3wHbpSJSRJMLGCG8WgSaWBSR90jTWTlp9bwfOPVgYsnhAYV!d8Yadids6Uk!pAFWchhgYmLjdett6dBAlq$edQc!9pNh4$N4FHCp4K99DDTlbS8zMyrJUpk2R1Rbx2",
"qWXw9D7TkHHkKj255CloUopSr4wFjlPWUPwSEEc0!!BcQ6QicVUyDidussdaiLCoyJsd6ny0EE6sdO6P3jnJ$euVcnw3OmF4S4r119R9pr5tBUC4BLMUMJ8WkMKZrGzl",
"qWx3RrXUXJR1GAKBMbg$haCD9M$FkpUCWWO0jjOsahmsQiQQcoh4wvu6ecg7WLzld!cuhnug6E6sYhiUSqxMTmi6ciJuoUrTT4Foz8BP9pBc8w9Mb!29K1tlLMK1RGJB",
"qUUzIIHB21RJ2JG5G5lWOUD9rGCFkOGBDXlg3xyOQldeVn7iencs5nuVeYgViftfyYcvu6tOdklthyiuakxSemedsVPhJWDSl$I1XD09WbBOIzzRXA50rbslJG2G5GXB",
"q$WUD4H4U1Rj2jGp58YpyU98Bz9rAT9PS92HbWsQVleuQVlgcgtht!eEceddsAY!UgcpddsDQAaegOehmLUxhgddsf7XHGDIPP9bJ2ry8CKSlXbGHX2T95TlLZ5M2boM",
"kNoUISHybrSJKLGCZR9wOxSNbH8TA$TIW98Cv1s6Qvsudf!6yvumOVdhsdvivqTUmns9sgc9i!xe6mtWTkh9enhesdkfj28IOUT9XbbtlT5PNpkTX15xIGHXjk2MI97P",
"!N7BstEIWySjRjZrRG8oTC85J5w0ApwBlEEm$Md5xQ0!ffagyitmJfuiugsanAoPiQhacdg3UapdeYepOLvZYggesQJpxlMSTlD$bD9y98IhXp2PYz594HBA1ZI5FIEH",
"AFGWIypSOIKA5AJKrZ8o4$OMZzSTA!$z7ETTMbOH7gW!iV7YtVcf0quisgs!Vi1p!nhuhhYPi76sYthpek71YQesugCSErMOOUpHr8PT7UbtTxCZBL4WKKtG1125tIA2",
"XUWg5T9Bp92J5kGMMG$wN3TRMHSSjpvpT$99GC3N3i7QVd7tYhOvzkhVsih!ifJUfih6Ydbpsk6ceedCYAUkynhseg9blw8U63T2cblNz$TrSaC1Bk0b8H81Z1K2RIEU",
"xwl3TIp0ppKZKkGC5Mxx4p44MM$0k99rIppU1jNTngVVQgLmediVzxmnsls737DHoheuhgPgTfYsOYi9pqOkc3Qdsi!jE19P9$BMF2FOp2N5bxpGTz3C8MtGJG55I9ET",
"zHiTFUpSpWIkKkGMMrOlOOIr2RDO!$8FpCU7pPYelgaffVfYuiuiEfmnYltQHL3v3g3sevWePfOctsvW2kpxcdids7wLLUY9W9szOH92FBFP2$9Nmxw5wbs1JHM2Fr14",
"oWlw4bTNZzKkRk1IJRVgSUB4rF2OEPD0PTPGow43vdUVgafdhi6n!f6i6vYvCqTlP6tuifAtlEmtssVuYLPEYgggcj6xLFGS8OykDw4bOCrtC$sPYxpRII41bKMMF9A2",
"EUpbbUPP1ZKAKkGDHR4PTlS2DKShECbaoyIMJ1HyYn3!vAVsVitvkZQaY6safLTplmeegiCbd7usYtohvqp$Y6ddh1lXzXSywUIJbCIb$SrODWWFlA3OSRy1b5KKIbER"
};
