/* XPM */
static char * image_xpm[] = {
"128 128 64 1",
"A c #c1b27a",
"B c #c3b07a",
"C c #b39f6c",
"D c #93865c",
"E c #c5b27c",
"F c #afa26f",
"G c #b8a873",
"H c #e8d89c",
"I c #e0d096",
"J c #e1d297",
"K c #dfcb93",
"L c #b4a570",
"M c #dac68f",
"N c #d7c38c",
"O c #eddda1",
"P c #b4a26e",
"Q c #ad9c69",
"R c #b8a671",
"S c #d0be82",
"T c #a89867",
"U c #d8c88e",
"V c #cfc087",
"W c #bfb078",
"X c #e0cf95",
"Y c #ccbd87",
"Z c #eada9e",
"a c #c0ae77",
"b c #c9b57f",
"c c #d2c289",
"d c #d6c68c",
"e c #f5e3a7",
"f c #d9ca90",
"g c #beab75",
"h c #c9ba81",
"i c #bbad76",
"j c #e5d098",
"k c #d3c48b",
"l c #f8e8aa",
"m c #dcca91",
"n c #9e8f61",
"o c #ae9e6c",
"p c #dece94",
"q c #d0be8a",
"r c #fcf0b1",
"s c #a79463",
"t c #9b8a5c",
"u c #cab880",
"v c #cbbd80",
"w c #f1dea3",
"x c #a99b69",
"y c #e5d59a",
"z c #e5d299",
"0 c #d2c088",
"1 c #c4b47d",
"2 c #8d7e56",
"3 c #7b6f4c",
"4 c #e9d69c",
"5 c #baaa75",
"6 c #a19365",
"7 c #cdba83",
"8 c #c5b67e",
"9 c #f1e1a4",
"! c #eddaa0",
"$ c #c6b87f",
"ABCDEFGHIJKLMMNOPQRSQDDTUVWXMYMZQaaGabcOHNdZZeOfQDgEKBhifjklimminoiSEchXAUHYUpqrsDtiuvApbkqHmwersQvuidSdfxJVhyZzPauTt011U2ic3Iq1",
"LaQtETGHJyNFmp4ZoC5aQ26nc7WqXYjlC8EgBgUHINpZ9!wJQtgu70$GcyU9YHeisQ5SEV1y5NHbyp7lQsnGbU7HbIBfyeerCGvWLV0kVTUkkeeMgWET275hV6B$2INW",
"PaTnRRopfHXiYyyZoQPERnD6k7FMyMzrP8gQ7aU9dNkZeeJOQsE0Ech7djIZqZO5tnWSBhGdi7zYI97wTTna0m7OaXGcZlwwCQv5L$0I8TmYq!!MgiR625WhfDN12zMW",
"PCRnRgLmJyKqqpIfoQouP6tFYB1qHNqrLEbRaaUpmMJlZeyICCubRkhhmMypkHeFsQivuvofYY4My9q!PtsGSd7HBXbder!HgPWiivMykFjUqpe45iCP6CbVmDM1DpMY",
"CsR2E5xHfXKNYpzqGtRcFToG1iiqZ7f9gEbgBEm4dKkrelIOTPRBRd88dmypUplGsF8SbSBuf$Zzy9qwaTPLSyMZNzEmllw!gC1$ovScVTXU1zl!RLQ5RR77d27i2fNk",
"TsCtbGAJfpq71fmkGtGUG6xLU1WKyqpwPEbPCgcm0Mprll!OsRQgb0hVYm9IJNrLTv5vb1aVcc9jJe7wATQLbmdmMH7qrze9QB8i5$mVhDXYWI9w5GLRP67fh2EiDYKM",
"TsPnaiWpccq7hffMi25pRoDodiuNfqyrQguRPgdKcjf9eel9sECgu0Vf$KyUUMrFsvGSBGaVhq!jXrY4itTLE0kVYJNY9ee!tEvP5vmV$xJUW!9ePFRoQTSVY27AD$Ip",
"Tss6TA5yffzhAfKqL2AmionFd57KI7ZroabPLR7NUXfOlOreCRsabuAY7cydp4exnAoSEEA0h7zZzrY!asQoBSUddZMkZlr!tEgTW8Nk8xfJWly!PCWaG6V753E1nYzN",
"sn2xR$LypUJYhdwkG2Rh56TLYFiKyNlrPaSPaC7mcKp9llrlQgsEEEAUYKKmfpeTtRPbv5AEV$4!ZlblQnRag0cJJONdeeelQWativ0$hFfp8HJwTCWLGT0d13B56NZK",
"tTtxG0FOfmOfAppqT2PAnDo8Y65y4M!rLE0QiC7fzKqeelrrCRQuSS$kkykppmeGtPaESRhafY49y9Yls2QgaV0ymHmcHyllgvG6Wvc1$Fqy1pZzQRLGRLBmh3E5FNeI",
"2CD5gE5HdpwHkJKqs2o8D26BfnRJmq!rAEdCGRScHjMe9rleRaRb0ucUcXUfkfZ1sogi0oWSUYjZzOzrtDtGEmSkpJNXXlrrg$AC8vUBiFYHiXHeQPFGPiBdf2BGFq9z",
"DQDGLvAJmkOHKUNYs2oA22FLUnLkdK4ruuSCi7kpymmH9rr9EggEdSfyUNjdMfO1sPRuvGbXKkIz9O4rstn1aJNUydjqj9llvvAQvWUF1oqIFKyeRGRCBxg7I27LFp94",
"2R2oRihZfUXOmAqh63oinD6BYDLUNMwrbvbT1acmHKK9llrwSgRumSUXXUKpMzM$QGobVGmKzIfZw9mesQTvaXNmXf!XXllrSARRmSJRiFhy6ey!AxPQa2gVp3BYiqw!",
"DT2LRVVHpYIZUBKqTD68D63aA65pNkerbbRCAbEKHUIOzrel8aRW0u7JJfMmMIzYQa5Sd6X7NpKZ9rz9tgCuRp0UUKKjMZ9rSv55dSJLiLqy6wf!WToToD57V3GYGk9!",
"DTnGRhhyyXHJMWXZQnTSnx2aW65!Nh9rbvGgLCEmHMpymlllbBgvUSbZymHfzHzYRg1MdtkhMfj49rKOsgCAPV0JfpKqMyrrvSWLdhJG5o1OFyfwSFRsRDBcG3G15J4w",
"sTn5RVYpyzUzmimHQnn8ni2B5TGIjfZrEgGRRabMz7X9HrlrTBB$mSSppyKyIJyqCP$vS6YW7JkI!l4!PaPGE0cU7dNN!wlravAxdvmxGx1JB!Je8GRDB6ikF3FLi$zz",
"tn6gRvYyZHfJp1KOTnTb68DRxoWq!f!raaGgxEEuyNp99elrsabcdu7IYHpXeIefRQSb$6Vi7pjy!l4wCgQWaMkYYIzMz4!rQ1AQmSmLiFbf5wp!WLGt16id53GGG5mj",
"tsTQRvYHz9pKHimexTnBnht5GF7KeIZrWgGaoBEmwNy9O999sBg$7SSfi9zjHIwpGRcE1T1i79mpw9wlRRsugS7VV!zzm!!rP8ixmhz6$oiHi!yw8oosaD$7F37WG5qj",
"snnos5kOmOyXJ8zOCstG6vTGWFqXzJOrGAPoTa0zjq49OOeOCBREE1mXBZXyHd!zRRdgWn8hN9M4elwlTgCEgbUdmKyjyzzrgWL5USZL$65Oo4feLGLTBD7W12qAFBXz",
"sTDRQ7YHmZOIYAMdPnTGDvFbiF8y9Owrg8LatbSUXJXeZww4a5gv7iKpBXqHyYzzPgmuWo$8YJqKzrelTAPBRSmUJKHwO4!raRQAchJ5hnLHL4prAGLng2dLk605FoK4",
"ss25oSYZmZpIkiKMsntGnSx8iFqZ94rlgETaQb0NJOmOyw!wgg5SSaNkENYy9YzHsPSvvCkWUHNIKrlesGCEaBXp4p44lK!rRioAddz716FZ1eZwW5ota27Gc6KFioXz",
"RtnWT0$HyHd9f5kyTT2EnhnW1oqZ9!9lTGsGTSm7ZyXO9w4wGPacdBEIb7fOyMe4tgSuvoSWmyMZKelrQCRSgaZKKdK!9M!rgRi$SUf11ixe19JlWiPt1n08UnMxWFZz",
"CDtisSVyyOUwqLqJQCt1nA6YYFM4lj!rQAsas0UbKJ!Oe!Z!PRvdvabHEqfyZfy4DLS$Ui7A0fYjXllltLBuagyfppK!9melPCAivmS5YhoH14f98vPt5211p37niGwm",
"sx2FsSdczZZyIFMZLssE6WohY67ZrK!lCvsGn1d0zpZyH9495gSudB5XbKfIOkzItC$SuuV17UNjXrlrnaR7B7JzIjXzeKwlTg8WvKSWU8xOFIH9$SGCW3u1827nGA4z",
"Tn2LCdddyJ9HIFMlTPTvTBx$U6YXejwrGisPouXjXpZHH9K9QG0udggJbwYyeYX42gvvbihVbfKNzrrrsGgbgcpmyONZZ4erQE$GvKbi$8xH54plicCP12iTW6Nn5YII",
"Cn2GCdcJHmelkFYOTgTSQdtVd6qJ9z!rWLsEbSJZXdMmHeZ9PQv1muRJEI1yZdm!2PSE7Fc$7k4KqlrlssagB$OzH9YjeZlrs8AF$Uc7$VGZbKfeGUoCiDoo8nK5Y$I4",
"PD2AQNXXZdJlp51ePLTSo0TkUxhp9zwrWWsRuuJOmVMXZw!egTSSU8BJuXYewIqlDPSEEocVufZj4lreTnRRg$HXHwbkZKrlQAWhidK7YVF9AMI9AcGQ5tL5hDNi1YOr",
"RtD1o0mdHfpwfiF!LFsiTUPVfFkIOKelWGsPSuZphV04!Oee8Qu1dhBX7ydwOpqr2QSvao8kEUfKIrreQagRb$fjylMpwXrrsBSWidXuWYoZ8!pegSiRotG57nKGAAer",
"Pn3gT0cKOdZIfi5ORLsuTcQUkFbIOKOe8WDGu7ypNibUzZllgsva7VRmbwYymyql3sv1Wx$kGqkmywrrPWaR8uKmy9KmfdelCbvW1VU$8kxJq!z9W$8RiD1W5DNiiYle",
"R63aQMXdZVy4fWkzgPTEocakV5uXJq4rvvtu00pd7AqU4ZleRQa5ScxK5wcdzOq92RuBAoVU5mUHOZrrRGgRvcKfZZfzZYZeQuvG8VVk5kxfNzJrg1SRA61L7xKFYNel",
"gT2AQNXJJUfZf8qHPgsRxVLfiWbXfqHrvSDS7bHfN5by4ywORnEa8dC01jdzHwYl2BSgETYXomUwZwrrRLgPb0NUypy49dOeCu1G$Vd$AfFfkj4rt5ACWQi5cim6dMle",
"RD2ECN0JXkdJkkqlRB1aFfifFiEK4mmrSvDvdGzUU67fKpwZC2CaSdT7NXpJOOqetPdCb5UpTJmwOwrlRtEQvSUpfHfjlqywCAAi$vuKip5HXzzlDGRCixG5UhcFqqe!",
"Qs3$oUJdcAdZfqNrTBicsXLfFibNIMIrv8DvSEXdk6bZmJw4P2xuuc67cdkdOHMetbuTE8UkxypweylrQnGRSEUffzYKe7yOnvgAvV7mGJBz4jzrtEvRinGAdyNxfqwZ",
"sC3vC0UpdhmZkYMlQ88WxcRkFAbhwMMrWg2SuuddYnqepz!wnDTEvSC7hmYd9ZXl3uEBRiVk6pypyzwexngCSu0kzyqze8yOt8BvA$bVWUoU9z4rs5vaSx1AkfmFkUre",
"CP3$gUXmpkfZYYqraABAoVgdihb5XmmruL3SSoXfk6KryYewstQuaSRbVmVhZH!e3EBuoW0VTUfZ9!elxP5QS1udJXY4Zqfesba1$77VhYBqO4!rsPREvih5hU4xYyll",
"ss3SEvNYXJZIqk$rPAgvLW5f5kBbpKKr8Ptv7PScYPKr!de4tsQSEMiBUKmpjeI!2ugS5$mY6cYUHMweGLPRdbBXH!fmrfplQEER$dgd5Yq$y4we2PavW8VWAkzxYIlr",
"tT3ugSSVUYyUifLraiR$i$5d5YE7qXyrvQtuubSVdRXlJqezsQoEvBiBKjcIj9Z!t8BSWhd$TJkJJ84lPCgauu0dzykzrJIeCBgo87EfFb$8p!!lnigBLocaYhmxYflJ",
"Qs2WbdN0UAIyFpWrGGRAiA5cxUaKY4ZrasDvu1SkEb0wO$OMQsnSEa5PXNYpw94ZtgEAEhULDykZyKw9togEg7kNJXU4rONlQbgRi7ukLYYiZewrtLE5GLAW$YYxiklI",
"QQ2$vddVNhHZGp$rgiRiAG7$6kE4YwyruQ2E0GbdAYkpZYZMPtTub5BgXYYZ!zwOT1uaSVdoDKkzZN4OnGR8u7cMOmJjlZNlPSE5W07fFkYGHwlODPEALF1W1cYnAfOz",
"sG2ASVUcM1OwFHKlgag5Soa$nIEzd4OraTDBc5aJ5qfNl8zqgnxvE$uaKEYyZe49QAub07cFnjq4Zq!zTP5Bvbk0ZKIzOykrREbLWbufxcNFUmOOtTRvGW$ioqcn$qlZ",
"xQ2uSbX0mhHp6eklRg8GSL7hnIBKJj9rao3B0AUYhKKNHkeqRDTdBgaLU1hpelwlCAugdb$in0kZXqjJTQ58SNf7ZNJKJHylRaALG0uYLmk5ZJ!ItTCvL1YAxkN2qYeZ",
"nQDLduUNUifIDOYlRsP5vFEc2fbjOM9rAx3E1GpZJjpJJYwMQsxSELFFMVqw4O!rgWaRpBV1t0dNyXMqiTR1S0UaHNJKKUleRi8oBSu1iNb1pOHy2Pg0gL$$FYY2hYeH",
"tQ21m7dSVxpp2JIeCnPLvx57Dd1K9jerEo2BSoHKJjmmJbyqCts0bga6mVW4zOwrgARgUgkYDqUqyXNqPCBacNpCmMdN4m4lgLgPuSE$1mq$X!eItsBELn1VFV1DqMwI",
"TW2ahaY0h2mmDyM9stPLATFutV1j9jerAL2guL97dj!fJ7Z8C3oSNagozfhNwewrCggQSG716qyNJIqJoRuSSbZaNJZUmI!lGPPTv0akhd0czOwJsD5boTV7o88D7N!I",
"QE3Lcgd0B2ppDOU4TtRLhx6utpWze4ze8P2gvoH1kX!dyq4qC36SuBbPfJqq!rwrQgaCSaSVL7zufK7JsRSuEbZbUmlmkqerCPCQdk0chk$f4lw!s2Gga6$AFfY37N!4",
"QGDPSbV0E2Yz69I4QDothFt7np5KOmI!vQnBcozWJKpqpbwYR3nSSEuGYpdkeelrQoEsSE0YbByN4IqOCCuSSuHNJ4OkkYllAGTndd7kYKkpww9ZnDWg5Qci5UY3bmXN",
"nQnWubYVuD1p6eyITsLoE6xhxI5y!M!jSQnbSiKbfmKMwb!qa3nbSBVPGfIMZl9rsR8suEm0FGHqjMqlnQ$dvNmjdZZqmY99SPQQJccVkMfy4wlOtt1BTDhAAUd3hXz8",
"sQQ58b$cuD1dnef4QsTsb6T06f5Z!m!!WPs5vLNYmMmNybfqA3tBUB0a5ffq!llrsLdQ1AJVo5ZqzKmrTCvSEmNXJHHJpq9e8RTPmV1fcUyJMwwOtnAAtn$18Ud3YzK5",
"CPoA8SAUADF$TwIzsTTngxxV6IWOONw!vPQ1viNhfN!YpE4IB32bci0EBfYq4ells8uovAHBoAO74pqlxRuUEmUXHHKkUq9eEWnacccckJyy49!JtsWAsnu81Vk31KpY",
"QGnGv$8fxDGY6Z!IsxsGR66uFmAze8zz8RRaS$m1fXyqw7wfP22um1SbVJq1krerQ8SEdAy$5$pqzpqwgg8cBdfXJlkZkqe9EvnG8cddkHyJMy!ZnnGiLCi88kk3Aqyh",
"naniv7cyTn6YnMIZssQWRxQ7oh1meA!O$sPBh17bZKwKlbZpQ22EmhAaVJYKNlrrRPvL0$yUCUz7mmNeRgvvSdppz9$Of7!rgSsgSmUdfZHJMpzItsiWTRWh$UJ3Y1z1",
"PgQxV7kdTn6qDmZ4CnniRiLULU$pl5we1CPgc8muJjzmOEzpB2tScSEadHYNMlrrg1AEuLfdPkzNmdqlgPSUESXdmeAOZ54rC5sv0v7dfHHdYMwUQTA$TGGhhfd3hYHx",
"8ggoU8ccLD6q2XJ4t6s1LRRk078yr1lrvgCRcAU0JX4zO1MkA2nE00u5cJYMNlrrRvWGSGfYLhjNyf7egPSUu0Xdm9YHyBMrQit1cv1YcfZmUqefgtA$CQG$Vfm3iYeG",
"CGCxU11mL6Lc2!JKnxTSE5shhW$flBrr8BQGdSddf4KzZYM$g2nBSUSAckNYBZregSARcRdh5YzMKwbZGPvdb$ympecZH7mrQRsAE11AJdHmp!4qR3AECLgYVyp3GN95",
"QCQo0h8fF6FM24HMRntiv5xW8EfpOYrr$gCLvEScYzjyONjiLDD80mb1UXkYb4r!a5v5cGhdB0jqmwNmTPbkB1K0ze0JyNK9Qgtia5SVZKyfwwjfR2$8naGhd0p3FzOi",
"CRsFcVGH6FnX2!zjQttadLxhiikUJYrr8ao5cuuV7jYmeqKYC2n8bKcufJcub4r4EavbVB1p7Nzm4wMITEEdbWMMjZ7IZmKyTPDARWbYp7IdHrzqCDv8QuRkhBJ314OB",
"CBsFvcoyiT6m3ep!Rst1SLad1Gkd9prrGsLPS0EJumhpOXjfQ2TSSUNbfkq1ByrKWAvBhBvkNKMM!4XKQugSR$UKKZimpKMOsCt18GadH7YfOepkgtviL1gWABd3GXyE",
"gRnx$boJiD6U3w4wPQDGB5ad15qdwpreTPgLmSoU7UudZMjqQ2xABdm1YpA15fr4ggvEc5hYNpKKyezYgvgUg8mKKmbNIMK!sx2L1GokVdffywNY82S5o8RY7aY3YXp1",
"CgsxcB6yixFmDj!wgx3TaF8hh5YYZIresRuLJbBk7K7YfKNmC2xvgNdA$yuYWyl4aavEcLhVbUKN99KkRuBS07mMNmYKyjj!tC2ASGofXffpf4qYG2A1xhgAi7Y31zy5",
"TgsF1bTpLFDzDOe9go3TaFSdhiYYMplZxgBaX0uhEKbkqfzYR2tvCSd15fccG9rwPiS5XR17bmmcJeKqguBSS10MMmMNJ4kOssDASRGdJJUUqjbYW2ShFuE81ud314y5",
"naTh$7nXiGnMneOlgG3RLT0VhYkbmYeIPBggvu5Yup7NdN4fT2DaR7KYahzb1rlegaSakGha0mMN4eIqCuRSS7cMMmKNy4Y9sQtF0BPppZJ$Y!Yiutgv6uS1Gbd3iwZ6",
"ngsiBbDfA1nNoe4ZTQ2gB6u5$1J1UOX!PgLgcbaAuHNN8IzfP26BR1mhW0pYWOleR8vi7LbL0UKKKeNUC1PSbEUuKcXKHjKetP2L8R5fJfJ1$eqi$DavQW7LW5k35wpD",
"sPTGgBDYFY2jTe4ltotQPoUGY8I7Myk4LBLBSuai0HMqkZ4YG3nPBu0h51IaxleeWvWiv5bi7fmK!rNkC8PSSRdS0qy7I!4lni351GRJyHV8YwqY8tuSxiEFFuY31ON6",
"TTPFBR2iLW2z6w4rDitnPn01LYyBuHI4LgRShuE80zMUqw4qa3ngbacY50fF6lwlGa$8aGNu0JzjerkUR$aSuPSM7mKbpw4lTa2ASACKJJY8heYfgtiio1RGFF13Yw1F",
"CgLxbRtLL1Dyxl4ltLsQGDchGApMYyZ4RPPaSa770VNhkeypa2tguGSU1bqiGJlwPAvSRR01NJ4NIrYICiBSSR07SMNqUewlTED5SvocUfmLFwLURt8xT$uFoAkD$e18",
"PRiigLDLFhDXGl!9tLnGatcxxiddq!ZwQEPR$aBdmkMkYlwpQ2s57S1ycmcGoYrliv$cExmuNJyKJrkOQiav0oBBbKKjq94ePosAviQdfVkT64FfQs5L61A5x$cDFO58",
"QCiiBoTFi$2zirzOng6x5DcoFhykN!H4PvPuFguJMMqf8OwMn2nb70AJmmdbFYleAESSULd10fpmOeZOQAgEUGbgBNMNq9!w5Ts$bGLpp1mxLj5JsRAF21k5FLf2$!58",
"PQ$AuFDGWhnXiwqrtAnnBtVoGdfYjze4REs8REbyM7NkYHzzn2QSSSVIJMfYTN!lAgWS0Fd$cYymyO9OPPRBmR0CgmyjN9e9PssuEBGdfhkDojLJPs$At$dLxFq2YeYh",
"Ts1GbWt5ihnNFwMrt56Tbn$FWfmqq49wAgnvbESpNMYd8HewP2QcSSkypJkhFj!eS5AcvgdYNcy4IrrOBaTgcQdG54JMI9eeQCQ$EG5Uc0U2LKoORoSLCWfGLFY3p9mB",
"RnvLvA2GLAxkGeNrtCxoW6$FhIVdajl4$ancbu7fMKqdYOl!gDsdSh0pfcqqgN9l$gvSuBvYmcycfleHgWxBS6SG54JyfewyQRPigRLUhiID5jn9QTvxoLhxoAW3zHzY",
"GscTuu2LY1xYLlmr3GFQuTVG8dUmBMreAPsS0SGdKKYkf9eJansS7hVUpXmYG4llAR88bRAdddZm$zyHiAFQ5su7Bjp4IelyoRRig5GkYYy6L4DlPCAFFL$5xAF3JZHq",
"RTvQEGtF$$oqYlOl2RisEoA8Apdzq4rwaotuKMWdNNqkfJwjRsn8EbKJUpMqFqrlxgu8usEcNcZYqmOOivgoCD0mGKJKJ9eZQauiGEFX7qp5P4DOoRaxxBATx5L2p!yq",
"CCAs8hnTF86$ke9ltW5n1ooG8khI74l4vGtadKupN0K8f9w4vCtE77XcfJ$YT1llnRvvuoakmpHNfY9piRGBQs0SBXXMJZ!IxaSWQgFf1kmG5jD9RPgxFEVFoFG2pOmY",
"QC8R8uGo6hnN$rmltvLtGox6YdAMmOlz8gnPcz0fqNMiqO!zSntG7SXyczkkG1!lxQv$SG1HmfZcdYlyAPLSaoUVEmfp49!fPgviCaFmVNUGBX6laCLLBFYW61F2JJMp",
"QQiRuuWT6W6MYeIOtaiTWTLDhmqMNerzRgt51p0YdNmYYZj!$QsREumXYXkYaqZlRTvcSFBHyI4NfYeOigTugRX0u4OpOewyQRELsBBf7uzF1j69RCPFBFVoTAxxIymz",
"tC$xcBATFWxqqJIOsRinGRin8y$yblrzPPnuWc7dmNc1844!AsCaE0Ujcmcq5qjeGsA$kLEHyJZMfqllGaFuGGm0NXfzzleeQsaLsGFy1bKGYZDOQQPxPWJoL16FIImy",
"tPv680AtFWThNIHOnPWnGWWn7Z8y$OOzss60GK7mXkm1h!IeWtCgEddykZfYL!XlQQAAdFBdfOZMpNr9APFvEiVVmKJpwr!9CQWotbxZuYKYqwDysRPTFuVFL16GHMZy",
"QQvxWmW6ni6AqpyrtTWTW11t1p5fYyz4tTT8P0SpMKmk8wKlWtQEBmmyYZf$LOmlxQBGcoRcWZHKzYlZACnbgobcKmZkwl!wCQ5L25TmLKIdf4Dws5EDa7Sx5i5F4jIy",
"PQSR5dvLD1Thqdmfns8RWA8Di15kXZKZssToPhcdKX4chemlosTPbSUH$KJ$FpzlsgAxdnLB$4HKpY99QgnEEFbXUK9UOejOCTWTt55caz41qMnetag21gVoL8GFIZqp",
"Cg$PEvuxDi6VqkqfTTWFWiaDLW$kNlzOQtQGChv8yZwc1lz9TssRuhUwVuy11zeOLPvLuTgEWmHKmbrexa6EvRg0zpfNle!!QTW6DiLfxXfqkKDwsgg3Wa1iG$85d!Y!",
"CQSBB7SoD$xYqkYYTsA5$FSxA8mpY949sssGCVY8jwZpqeKeTnRQ70U4diZAENl4PQGQ8tBRim9UMqr9QaQB7P5KzXfKlOjXQC1GnhA75yMUMXDeQga3Ag8LoYhYI4YO",
"gQSG5h1DDAnkkqMqsPa58icTodmyY9wlsPTWRdYdy94zk94lTnggSK0zmGyhb8rzGQLTuDAGEMepJNrlCaQGSGbyXMfN99XjQsSGscAYEf0fIz2OCaB2uaUFTVcYfMke",
"RCAEad73n8nkq1kknBRT8G7tF$cJYOIrnTLagV$XyyzUK!jlT2RaShcKkFUYMYle5Qaxu6NGEK9yNNrrs5TPgBVXK0JmlzwzQTvxs0ic1fKcyK6yTGR3agXLLccYfqpO",
"RCARW0c2nA6kkq8YDLPTvoV6ohUphrMrnsLaRh$ZHyjcjOjrs2CBShd40Gmkjqw!GC8Gu67AVm9!kKrrQR6gbaUJH0y4e!w9PCALQcichJN19qnZtTB3BPUi5Y1mU7mw",
"RCAR$Vc2n8LpmqY$2iTPSLYDoc4pNezlsQLvBUhIppXmMZ4lT2RuRBdjYFXqXkwyWPuibT7WVmOyMMrrsg2aSEyy9cZJe4eZRQC$TvFm1fkiyND!sQRtBPSi5$YIpMz9",
"PRAPWvU6nY5JkhZYtAs6bxhTodJfflwlCsiSgXcdOyMyN9!rC3Ruah0j$BKczqyZRCUavFSYkNO4pKrrnC2P0bmkZmZZZjOePoT1s$5k1kYFJm6zsPGtvChhLd$dYqpl",
"PE8FhhdT2fxyy8OMs$snSi$oopKmp9erCtAcBXfVIJzJzr4eg3PB0mEXh84k!H9ZPPSLGiL8yM9zpMrrCs2RSBXUZyHpyeZOPa61RAFUdJUF!zoICPAs$R51iY$Y1KIl",
"Qavs$0Ut2poHzGZNL$s6aivTnppImewrQtW18UdcXHMpjrelP3CabSEXVczqzIr9sPuxiLBiOMezINrrRt3PdEdfyZHp49e9RWtACW5YVfkxMmo!sRvnSR1h1VLYF!Or",
"sRAQv$U2tmGyJFOpQvQ2LWi6DXYdp9Oro2ivucvkmJKZyrerT2ggb15ccYyk4yOwsRBG1A5VIM9jzKrlPQ3sduU1pZZy4wl9aE3APcRYYpmxqpxesQG2coE1VhW8F!9l",
"sWAQhVd3xUAwIx!kt8Q2ToiQ2fbdpJlOQnAEgcVUmJM!4l9rQ3CCbEg0mYyJjZHetPgii8EipmeK44lrgR2T01mVJzlyM!eeRS2hP0RUhkKLpIxrCsA2cL8Whf1ko499",
"Q1GCScmDxc7JK6w8DGx265$6DUEYUHwlRTLuBAkppmc!wlllG2PCNWEcJNpdjZ4esRPWVv7ApYlfyOl9CC2RuVmVdHeJ79llab3oQETd8yK5Hk6lQQW2UL07Vd0cxMee",
"QviBuVm6xc$ImDeL2Rx2DoiL2pBcIOe9gsoEb$kdJNuwlJreaDLsNi0hZKmf4OwlngRWUSkGJNlfwJlraR2CSdKhdlHwmwrOPv3R5bCYVzhGZZxlCQG2uQVhhfAYFylr",
"Q1WuaSm6nU8yJxyFtA56niiF20qY!IwrgtQ0EvJdXY5HeprwRnRsuR0hzmXqOOjlQgv$dS8AXqlzlf9rRQ2GcdUUHHJ9X4rHRb2WG7PkhmqiZk5lsQi28Qk7hUFqD4lr",
"PW8Av1cnnk$Iy6OFnABDTWx567!cZd4rGtxSuAympYiplyrIasPs0LuWyyyYZ9jlsC$VS$GAXmwy9IzrPo2sUd7f9OIOKerwQB38uc5zUNqTp8i9CRW3xCpuh76k6Ier",
"R$vicSSn6UkkforFsgb2QWFE6YXkOf!rgDP8uUpYUmBHweepRtCQ0xB5dyZ1IlKrtC1vVh51NMO994KrRs2LVXEpZzfHKel4Qa3ab75XYMdDf1$wCQG26ayWfcDmT4lw",
"RCaG0ccDokddOTrxnEg2tWLG6mJdIMzegsP$SyXVIzGeN4efQnsQSLbidHwBMOzrtP$duU5VjMZZwI9rgQ211dgpJyUOIer!CA2GEUimdmcnJqqzsQLD6ud$V$nyF!H!",
"RgaLavcDxiqplFlFQautnGB1xIqpJj!9PxGSvmmVfJ5lMzwITnQCuoGicHHY!e!rn5Avd7B8KjXywzrrRQ3uhSufZ4J9wre!BE3Q70LdV7X6fkfpsQR26Sdhh8n4o4ez",
"RA86ghf2x1dVO5eTggb66Lg16XqXJjyraCLS5UfhJOGlzMe4CsQRGPuGm9Zd!9ertR$c0BLhKM4yejllPQ3WSducmz99yllmga3CS0iYfcK6JpprTQA26vJ7mdn4TXwO",
"RaEnEVJ2xLqhkB9BCga6TxTaxyqXI!9ranxu5VUd7Z6ezme9gnsGbQbGdZJm!OZrtgvcSRx7MNmJ9wlePQ3RhdEcjzOHIllqbR3BaUAhcdNnZUklQs82nWcd7k6mnzll",
"giv2WdfDDAc1NBe7Cagoo6o6xHd4I!llRtQSRcSfU9Fzz44OCsnbQQ05pZyHpZwlQaAk7bocN0kZH9e9aQ3av00cXjyZJlrqvC35vN1GAkq6Zfh!CQi2TGSUuU6qD4Ow",
"PAaDEhVnnhk1N8r1Q$LPRo6DoYY4z4reCDTvo0SV7JGk!yz9PCTSQo0EJZjpkw9OsEWc0750j7k9!49rgC2gv0NNKKZJllrXET3SS7W75pqxkf1eCD52TBa0iI6mDNlO",
"giBQ1$S3x1fhkYrisWLiRFo6x$fZJKrlPDoAC7X8oykKzpj9CPQSCCubfmOINwlJtaSSmNG7N7fZ94Z!PC3BvW0UjMZpellmRt38vSLd1yY6fYq!PDstnRR$1JxzxMel",
"C8W6vVSD5YUiYYeGCG8GQootxUUlymrlQnGvB5fhgJYpzpj4QgQBPoBgVNXpqwwktgSdUSTmd7pplmZwQQ3gvuuXmKwIOlw4Ct3W0SWdYIuxXqf!QnotDFRu1ZozFN9Z",
"Q8g6uXmtF8yGq1y5Pv$PTRFnFjIeyKreQtRcbCmYBdIXzyZ4TRCBR6N11NjHNwwM2adUcSodV5ZflkJ4To25SubXyplpJHX4sC3AU$7YcI7xOHdeCnPD2nTV7JxcnmZ9",
"C8u3vJmTDGJWYBYFQvLTTTLDojdey4reQsg1SPXcbkUI44e!QagEP6NaA$IyqwJMnRcmv0QNcbyzZjJeQG2Fv7BmyXlX99Z!t52$UWA1VHaiIpIwCQxDn6CKWVTB24ZO",
"sGS28UcF2FZik$YLQW5QCn52LKzeIjressWWSopc7MJMj4eetBg0RncL0qyHq9mJtRvShNQmd7y4OjpOCoDPcU0dmJwMlez!2g3$dcE17VbFfpIrTQT2n6aUidxY3zOl",
"TgS25kcLniZ5YhkFtggQR6B3FMOHkIlwnniA$6UA1py4Z4e!nRPuRQNEGhmHNjf42CuWVM57X0yJI4fyWnsGSJ0NU9wXl9!Kta3Ac$B8SUGWIfplQsn6xQR7YWFN3Kwr",
"taSD1dfx6$IxYYIbsESPQni21qOlke9926Wvdxd1EJI4OJe!t5W75TdbFupZY4IztQvGi0gBm7yp4KkeLsQCvmuNml!ylewM2L3vdv8h7VG8Zkz!PnsoTT17086q3jlr",
"sRv2ScmxtAm5dky1QB1RRn8t$qflJlr!2oSSUF0iAXZwlzewtRubGT0BGqpJk4MUtPSCFN5gXqdKejqrAnn2vVc0UlZXee!j252cd1LkbY5qOIp!iQsTTCVqhioq3mrl",
"sRStch7FDAyx8ypqPgBaRD12$MIHIr!42o8hd5ScbZZOeOww2R1EbTcbGMkHNyqH2bS6x0uEX1fXOzzriTtn8vSNmO4I4!O4tR3G0hBc7AFfzpyzPsC6TaWkk1Gq3qer",
"QPSnd8ui6GmD19yNnEAGgt$2f4KmHljH2Cu$dguY1KO4llw!2QvBgC8BiZUIqmpO25bR5Sbom1fK!44rRPt2T00SXy4mOjw42R3iud7cVAFmIIwKATsnxSiVU5q13N9r",
"CCatSG7WxWjDYlz4tvEGg28nymzfJ9e!DBbAcGacVNywyleOtsuago1aGKmZqMd!2QBL5SU1N8fm4!prgRtt5Su0Jy4Uw!ZjtG3GSk1d$AEKyYeziQtsouYVVGqi3Ne!",
"Qa1sSRAi5GjxqOIztbaFa2Y2UXZOJJO!saE$$BEdYMJKZl9wtTAugL$R5zNZYIfz3CRoaBz7dYIf9j4rRPD6vd00UHemmw!wsL2oUVkkVi70IieK5tntTE8aUx113qrz",
"Ta1nS5bhiWmFklIesBPGG3AnUJ4JNZ9ptggaWEEhVjdNH9!wsCuSBg$aE0pZYXzm3PBFBEM1V7Zm4z4rPPDTgXdmpHjmywllsQ2GudvkYFbkz5wNinstDb0PKF813Nyw",
"CGStvPLhGifLmlmlsB55b3G2VmkJNjlptgaB1bBmkMNMI94wtaWUbBcE5hYyijZY2BvWQEmukcOmZwprPRtR1UUKJIjke9lltCD$aWhcdFBcKWHqGRo6t7cgUF183My!",
"RgSDhRBWWFZ5YzqesPREa352cyIOqXeftgSRAuEmfKmMHeeMtSgcbEdBEimpGzOq2GBAP0du7Y47!wMrGPtQvkmXym4fle!9D5ocRvUJUGENmWIpRRPn21baYxYi3MHz",
"oav3E57$$WyTYpYOtgC8E3F2kKf9qqyJDPuBScBNXKNX9!lq2iRSb8Vu1$cZ5Y!Y3aa1bum7UK479eKeagttbXyjmK!JZle!nWRcP8cpU1i7N1yNCaQnDBg1c6qL3q4e",
"LAED55E8kcH6Y4zZ2gPv53o2pffONjH!nQSu0dR7UMcIZOeM3gBSaBcAb0qO5beY2RRaB$U$Yzym4wKevgn6SmImUm4yeel4sigdPY7ck5B1kqwmLATD3RBcV6Yi3qZl",
"RaR2F8E7YckFXZq92CRbu352OmqyNIppTC$SbXEMU0MMOeeztCG0guYu5AhOGBwX2RWBauJbdIm7yzmegRtT0XyXNK!mlllwsAgcFV0cfxY1Yq!MnSQD2sEcd6Y53hwe",
"ogBDBioVdpXnqwh9tgRBW3o3yckpqzMHTQAS5UScXMcmZ44qtsSAE0V1a5Y!17!82C5vGvzMVOp7w4flvPtndypUXU4Yewl9nvuvo$hcfFc$YYHqnmLtDn87d6Xq3IO4",
"PPgDBGgkfXdDYj$OQaCab3x2mf1jMXN9sg8gBS7mXjmKZ!zi2tvWcvWFGY8z1B412TASi$mqbZm7lXmlvQD6XyfJZM4Ywwlltvc$5VddpGY5bkONQdWDtt01U2m83yye",
"CCW2WT5dpkmDNmqrGagGE362XfhZj!q!saSuLmupmMMy9jZitT8$g7BxEqUXL1!83TivG$m51!fYlNK9vT3FcUpJyKjcHjlrs8SiFVJdVF1WYYwMtvgn66dAf6Ii3Jww",
"CP8TiT5cydJn1pYlgRRoE3x2JfbljwNZDASaR01J0Nm49jeBssgvE78xgby7Fq91DxvSWSpEapZMwzqOEC3x7UcpY$K$HzlrtFv1LVJXYGYGYqeqQ5Wnnsdip6kh3pz9",
"PESxWQLpZdyn8kYrRCCxLnFDmmBeKIIy2ucBQ0VZdN!49Z91Ttgu707LL1mbxqeYnQ$caSJb5YOMOKYO5T25umUpd1MVzjernDAWGVpX$AYFhYeKGau6ttViI6dq3Ipp",
"PBWsuTFyHNZnBMqrQgPGR3TDmYWeXmO!t58BC0SpdNHHZwlmtDagSSuLWYq7FYMBnx8$ESX07kfYw4Nr5ttLScypzYKkZjerstvui8mphFNibpl4QgvT2TVFdDXk3yMm",
"LWRnSxxJOpHGqqkrPRgWu2DDX7GrKY49tWvRoSkcf0yzIlwMt2gGSEV6idhUxdq1tRvdEdcNEV4cZpNlitsW8UfmdqMUyMwlTtvbGvpZ85M5qprMTPvT2GcT1nkq2zYq",
"gLgnUR6ZZJyGXmqrLCGgB3D2M$oIKBzlDGSCaSvmpNypjl!Ks2QaNiVFB0h!ofk1n5SSbVhXikIkHINrPQtvvUdHuMNdzK!lnD8aiAdJYFMWqz9KFP8n2B8Lh28h2pqY",
"APRxSxRJHZpFmkk9osgEP2t2NVxzq7Kls5ECaBVyJNkpOwO4R2CaMaYGdNdlFMfYsoA05UWXAKH7JfYlTt3u8KYfbqKpH4wlsnAb$vcJUxI1MHz!iQ1TtE5Ac2EY3MN1"
};
