/* XPM */
static char * image_xpm[] = {
"128 128 64 1",
"A c #74562b",
"B c #75582e",
"C c #987646",
"D c #8f7044",
"E c #735b38",
"F c #9e7e51",
"G c #b59262",
"H c #9b7d55",
"I c #4b3717",
"J c #5c4626",
"K c #7f633b",
"L c #6a5638",
"M c #524128",
"N c #7a6240",
"O c #181209",
"P c #050301",
"Q c #352710",
"R c #5e4b30",
"S c #cba671",
"T c #d6ae77",
"U c #e4ba80",
"V c #886737",
"W c #906e3d",
"X c #785e39",
"Y c #ab8754",
"Z c #91744c",
"a c #a0835a",
"b c #927752",
"c c #644922",
"d c #83673c",
"e c #886d46",
"f c #b28f5e",
"g c #836435",
"h c #8b6a3a",
"i c #9c7949",
"j c #9a7b51",
"k c #ad8a5a",
"l c #a7885d",
"m c #826844",
"n c #7a5c2f",
"o c #967340",
"p c #a58355",
"q c #c5a16d",
"r c #a27d4a",
"s c #8c6d40",
"t c #b79567",
"u c #674d28",
"v c #5a421f",
"w c #7f6031",
"x c #c09c6a",
"y c #43351f",
"z c #685130",
"0 c #bc9764",
"1 c #6e5228",
"2 c #876a3f",
"3 c #503c1e",
"4 c #271e0f",
"5 c #6f5631",
"6 c #907248",
"7 c #ad8d61",
"8 c #a38050",
"9 c #a58559",
"! c #3e2f16",
"$ c #97794f",
"ABCDEFGHIIJKELMNOPQRGSTUVWXYDZabcAWdefTTghijfklmnAoppqTUBrsfNZttugdCmetbvwoENEexVByzdikxnWodd00Hn1hKMRmtwuOMMZeRcBXXOikGnIn2KeaG",
"Agr2XjGb3IuDmRRL4P4EkTTUnh5Y6ZZH3nhXZ0xTVhrrkl7NAno8pSTUVYifNZtS1wErN6xHIAVXKzxbgvyMK8kq1osss0l71A5DJyblV1O3yZZMIJ2R4Zk7AIg22Dat",
"BBoKEF7b3IzdeyLL4PQL9STUBgB8epabvvhdjGTUWCrFfkleAwW8jxTUwYCfmNqScgB2N8xH!c5KDEt7B1yuE8kx1WoiNf77vgB2RMjHguO!yNFM!1KJQeF7AInsD$7x",
"nndCKpfbI3zKj!LNQP!RkSTUAV5YCk9bcAs2$lTUooC6p97bwVhi$xUUwYrYZmtSAnXKNpxa3vXXeLGqnvyzXFfxcWd2Ef0avh5DmRbag3PQM6Fy3uBz!NpGA!BKsZ7t",
"n1doXka7!vu2e4ML!P4MfTTUnhuCFk7aIcis$GTUWCoDpjtHBVsi6xTUwYrk$eqT1odKmj7q31s26Laxwu!uXplqvWX2EkHaBWVdmLj7wvPQy$Hyun5y46j7c!1D2ZSx",
"V1dDekaH4IRDX4Mm!P4M$TSUnVJrpfttvnWdFGTTWoi2f$xlngWDZqUUn8rfZZtTAWK6N$7tIBh26RbSn1!uXkk0crd2XGbagwhDZRalw3P4yFaMuuzQ429lc!Bd6$0x",
"hwg8mfabQIJKL!yb4P4MpqTUnwcrk9qxvAorD0STgiodkkxGwwsCZqTUn8r0$etTAwKoDmHaQBgKEEexA1!u2FkxcodsXGGGAgwdmMZ7AuPQMj9MvwJQ4Dptv!526e7t",
"w1BiDlklO!32N!ybQPOR8qSUWnzrY99GvghFX0qUVhC6kGqt1hhC6qTUnCi0peGqAA5dX$77IwWmXLb7A5vJd$HScVdKX0tlvgV6mMjlcAPQMjFMvVXQODpxcIu2im7t",
"VVnFj09lOQJsF4yNQOPLF0TUhnBCkkatuAKCXGSTVhWY00St1wdDmxTUgriG$m0qVB5CK69tIBoKENe71gu32Zkq1hsKKkfauuh5ER9tcnP3z66M3VX4Oe8tvQ5r6mt7",
"VWX8ik9GOQ5dZO!e4OPRjxTUVJB20FktwuiDDqSUhodffqt7uwhsZxTUgYr09NGqnBE$melaQcCdLmEGAK5yX8pq1wdDmG9luuwEXMHtuwP3NFZRcgXQO6kacInr2N7t",
"g8hCC9at4OXEN4QlQOPM6xqToBnCY$7xA18FdxxUVWsff0Gl1VV26xTUWrrfpNqq1n56NZfbQuhDXNNt1gKJdFkq1ACDXFktB11deRHtA1PyKkeR1wK44mf9AQgDDeaq",
"A8hdip$74OdKX4OaOPPMXSqTi5hipF$ac1of69SUgWD0f0x71BhDmSTUVir0FNxSnA5szelaQcgDDRNxnVz3dFpqAhCCm99TWBBXNy$7uuPyNpZL1gX!4eplcQgCCNbS",
"nogd2F77O4dKN4OeOPPMmtxUrgzi8pea3unFFaxUVgd0Gxxt1woseqUUWCr0ZmGxhu5DzZll3vVFFREtBswJdpF01hDCmlmUoBd2eyHxA3P!mFNLcBuQ4m9anQgsCebS",
"gCXsD9774OsELyOm4PPMNGxUrgBi8GmlccX8pH7SVV2Yx0qanwWCeSTUVoo0eZGSw1E2NjG7v!WY$MmtBWBJXYH0nWCCm9eqWBdspyl01IPQmmmRvV544mf9AInsCDHS",
"hWdDs97a!OKdLROHOOPMN00UoA5ik0etcugip97TWWid0qqHwnVdFqUUVrok6$0SAcKD6kqa3!rdjMmxgA5JKp9tAorC$k9lh1VD$RktnIP!meeLvnu!OefHA!B2ie7x",
"W1Vi6FGa3O5DmLOeQOPMN0GUo5Jr80Ntcudk$$7ShWrXkqqbwwz2pxUUorifel7quwd6e9xa3!oXiRE7g15RXj9xAVriYatlo1wEjMf7n3PQeZmLuBuQ4Nkl1!wKie9q",
"wnhdDZla4P56mROaIOPM6x0Uonzi09LqccXY6HqqVhYXkSSbAAh5jGUTWrrYNa7t1AKrm9q7!vsNeRmtVu5JK$pxAhWCkZqlgBBEmMl7nIPym$NLuWB4Q$F71QnX869S",
"AVhD6F9bQO1sD!OaIPOy$qtUr1zD0FEtvcsk8eSqWwYXpqqbAndE60TUoiCYNa9x1vK6NZtlvI2X6Re7nAuuEFfSwWriFE7lh55zRy9l1!PymNmLuogQQmk7cQ5KieaT",
"Vw2Ki8Gb3OuEe!OlIP4yZ0xUrzwCG8m71Iw6i$STWwY2pqq7cugz6aTTorrfNjGx13EdXExan!KL6Re7g1BJXFkxnViCFLGthnBMy4k71IP3XENecod!yeplcQwsCeZT",
"VggC8fTaIOBXeyOaIP4yeqxUYuu2fFZx1QDDj6xToVY6YxSaI1XR67UThrYYN$7lAvEzEN7a13hReRH7gc1uKpYxAVCrfzaSn555Eyl7A!PMRLee1h5yM69av!gDimHT",
"gg5CY9qb3OnD6yOaIPQyeStUrv5D8FHScui2FZqTVhYr$tql!BdR$GUTACYpNH9xwczzmNjlA!hMeMb7g5oJKFkqnwirFRaGABXz6yk7AIP3MReechXyJe9a1!g2C6jt",
"WV52Y$9e!Ou6eyOH!P4RN0xUrI1r6ZHSunsCebqTgWC8ZxS7IAWM8lUSwCYpNbGxn1zJ6mZtv3dMKRZtnnDyspkqn1oiFXGq1uJXYyl7c!PMzRNecnX4Me8buQndC6ZG",
"VnBskbHb44us$yObvP4ze07Ur3nDje973w2CNbSxwWD8FxSa3BdRF7USBC8YmetxABJRmm$qv3wMdMbtwBCyDjpx1BhC66STAnJ5FM7tcQPzRMemcBEQ3F9ZcOgdCejx",
"wnBC8a9aQOXdeyOavP4ReG7UYIgD$e7aIBhiXZqShWsYGGUbInKRF7UTVoYYXmlxAnzJeLHS3Ih3XRetVBWy6ekqAAdrFZ0ahwJMZMlG1!Pu3MZbcgzQy8kZvPgKrNlx",
"gV52pGHHQ4KKNROlI44RekGUrvVC8mtGI1KsLHxUWVC807TacnKRmGUThikFXelGgouEmLbqIJsRERm71BsyrjkxAuhrCNllw1n3$Matn!P3yyjmugXQ!ikZcOWd8Nlt",
"wgzdYGfb4OK5mROaQQQz6btUrI5i$ea7cwddmatUWhr80kSxvVg5mtUUorkpemaa1VuDjN$SIvgz5MNt1hs3iFk0c3d88ml7wvgyjMl7VIORQyFmvwB!yFkHvPV2CNlx",
"whJ2pqxb!PXXeLO74OyR$atUr4dsF6$7vn2se9STowY8k7txch5ze0UUWYYFZeba1gJD$NlS!IBRzMLtBVoyCppt1cdrFmlqBBWM6R97wIOzQ4pmvwKyMYkHcOo2rElS",
"nhvd8G7aQOBELRO7QOy5FHSUrOgXkFHHcnsie7qSrn88kxqtcWgzm0UTorYYFNb71wICeEjt!IVRERLlwhwyDZ$GAu2C6$7TvnsyeLG9gIOMQ!pevgKMRY9HcOhWCNbq",
"WoJEi8GH!OKEXLOaQP3EkaTUiPhXp7eb112i2kSxWgri0tTSconXmqTTWrCi$eZHn1I2mEbtvJszzyLlAgnRsFkG1crCi67xvhoz2LGlgIPMQ!pNvhg!R8pac4hDiNjt",
"gWJ26FG7IOh5NROHQPJzp$SUiPi5fkmZvgs2dGUSWwCiqqSSuoKX6xTTorr8ZZeagny6NNm7cvs2NyLtnh5Rs6kt1cri8ZxTQwoMDzGlwQPJ!QeL3Wd!LikH1QgsCNbt",
"WW38iFf7IPdKNyObQP5RFaSUCOCRk$ZbniodsxSqWhDrqqqxuWhE67TTWrrkZFe7V136mLexv1s2dyL7VB5Js6lGAIioCpSxQV2J2L7tA4P3y4eEvoKQEifjv!hoiN$t",
"WhIrC$H73PKsLyOZQO5XZHSUrOhzp$eeWWiXifSThWsi0TTtcwWEm7TUg8rkZ9etV1v2EN$qcuh2K4Lb11BJ289tAIDdiFqxIr2zXNftA4PyMQ$e3onOz$kHv!Vismj7",
"WgvsDZHl3OKdNyObQOzmbbTToOBRFjZZg1CKDaTTWVC8fTTtuBr5N0TUVYif$$Z7ABu6NN9SccsDdOLHVu5J2YjxAIWK6k7tIYDJRmkxAOPJMQZmIChOzFkb3QhCDebG",
"WwMX2jZ7!OK2myOmQO5K6bTUWQV5YGebwgCse7TTWWi8YSTtcBozXGUUhro06ZbaAwv26m9tuuW224LlW1uRs89x1vos8ltHvYiJMeb71OPJy!6m3WsPR8kZ34Vi2NZx",
"wgvsC$ea4OodEMOe4OnXF$TUWQw5GkNHghsY6GqSWoriGqT7vBV56fUUWYifZmel1BuCZN7lvvoXN4N7hAB5CF9tAvo6pfqaviCRM6HG1OPJyM6mIVoPzF9bv!WCdNjx",
"Vg3KD$6a4OdKmROe!O5EbbTUVQVEYZbZwWnYekSTVWY680StIBgKjxUUoYrk$NHaAgBs6L7l3c2zL4NlhwB5DF9GnIoC$Gx7IwKELej7vOPz!yeL3ViPRp9bv4WCdNH7",
"w1yXeGZbOOsdmMOeQOzKjbTUVQwEj$bbhAnCElSSVh8K$qTtQBgEeTUUiirYjNZlgn5KeLlav!B5N!maVwwKXpfGncW6FG77vBsXReHlvPOuyMNm3WsPM8jjvQWi2NHt",
"h1!5KfaHQPr5eMQN!O52kHTUg3VE$NbHVwzKm9TTghre6GTqQng5ZTUUrrik$mZtWgzX6L9lvAB5X!Na1undE$FGwvCC80Gacwo5MeH7AOOJyM6mIWsPMkjavQhi2eHq",
"WuQXDYlaQPszLyQm!4J2G9TU1IgK$NbaWBnDYtSTnWo6eGUxQwgu$TUUrr8YjNjtVh5EZLtav1z5LyNlIBBDdZ9tnvrDFG7tc12ERm9x1OOMM!ee!wWPMk8H3!wDd6Hq",
"gBQzep7bQPdzMQOeI432fZqUu3wEYNNlhBXC87TxwWs6$STt!wXReUTUrorYFLb7VgBE6R0aI1hKzMNlI1uCXZpqnusC8Fbtv1iXJXb71POuM4jN!VoPR8klvQhsdF$7",
"hhy5ep9HQOB53yOeQOM6fbSUuIgEkZRbVAKdYHSTnWW6k0Tx!gwMjTTTorrYkEHl1W2Kezt73A5K5yNaIgBDdppqguXrkFb71cd6MNpl1POJ!!9L!WoPJif73!hd2Zaq",
"VhIEK$aaQ45CRy4ZQ436kjSU1Qg2GaMmAgD22$STVgViGqqq!wwJpSUUoYsffRlHwrCEemGlI3zKzyLlcgAd2Flqw1JifFel1JziRRH71OPM!yHLQoWPEif7I3hoCeHS",
"Vi3D2F$a!4E6RMybQ43D0ZSUcId2kNRNcwWCX$qTChBkkqt7vnKJjqTUhCi0GLGlwWgzeN7aIuz5EyRt1uBK2pfqVuRCfkklgun8RLHtcOO5yMjLQW2PEikavIg2DmbT",
"VW3rXpja3Od2MMye!O!e0ZxTv!d2$FRH1gBD$pSSCV5kfGtlcA5zpSTTVrCGfexawnzEeNGlcvJ2zyRSc1u2KFfGgnJika7ag1BYRL97nQO5MyjLQoKPKZf7cIhWDXjT",
"gg!26jll34KeJRymIPIsk6qUu!gde9R71uB6k7qToVWfpkqHcwXE$SSThriGkexG1uKEXNlav11D5MR7cAuXd8k0wwXsF9GaBBKiMzmG14O5JMHR4oKP2Fk7c3Wd2maT",
"wV!668lG345mzRyeQPJ6kEqUI!dijfmHcBsDp9xUwWd0YkxauAEE$GTtrCrGpettnuodNmGaI1JDzLMbvBwX28k0wwdC8Ff7wnseyEHG1O4EMMkL!o2PDjklvcW2DEHq",
"wg!s$9bx34zDERMHQPJDfZSUv!gCpFeacuXi$90UAWEYkfxt1AXK$fUtroiGke7x1nCXN6GHInuEzLLHcBV2sifGABzCkpxtgVXXyLH7nPyRyRfR!oXP6jktvnWKsNbq",
"hw!D6kexvQdXNLMH4PJikbSU3IVCpkZGvJXCjG0UnVXp8lxtcndXp0USrii09mlt1BW2eN9bIBu5JLRbvcWsdi77nwXDF$q7nghXJRetwO3zMRjL!WKPsF90vBWX2NeT",
"WVID8fbbI4XELERb4P3kkHTUv!Vi$9e7IABCCfqT1VhjY0txvAXXp0USooifGejtwghLe$9H!nJdRzMmnuKDdFG0nwXsiFxxugz5RNHlnPIzyRpNIWKPi6kx3AhXDNex",
"noIDjfbHI4B5JLLb4OJkflUUIIgiFjmS3Anf$SSTwWKFYGt7cw5dkxUToCr0GeHtwVgE$kbaQguCRLyNg1dKKFfqAV5s6ZtqcgJz5NZa1O!zyR$N!gsPYCY73nhd2m$t",
"Vh!skFbHQ45XMRNaQORYxGUUIIgCppeqvn5KFqTThhn880xt115KFfTThWDffZaxwBoKjk674nu8zRMEgJdKd60xnnKdiextvB3zREZa1OyXyRjL!w2PiFplIAhKdjZt",
"WBIskFeHPQ5XRMNbOO5pflUTI3sC$kZqcV12kxTTVhuF8fxxnAJd8GSUw8oYkmaqcACKDkZl!wJYELybhvBhsrf0wBKD$$9t1cJRzRHlcP4KyR$R!nKP6FklI1oKKZeq",
"V5yDkZeb4!wEzMea44X$f7UT!cV8j9Et1h5CqfTSVV5CYGtSwBJKj0TUVYCYGmHx1wXE2jj7IBICLEybc3BdE8fxwwrDiZltuv3uEz9lIOOKzLHN!nKPi8f7vuiKKjmq",
"nByoffZb4!BKRMm7Q4z2GGTT!JV869N7AgAKG0SSghuifGxSnBJ2F0TUorrG0ma7ABwRN9t7Ic3dzNMNI3BWKFpqggDriNZlwc33KzHa3PO5RLpN31sPi8fGv1CsX$mS",
"w1ysiGma43n6yMNS!4uKfxTqI3niNkNx1ww6GtSSVhBFYGxTAnuEjtSSoCWf0ZHtwuhEmllGvuMCzzRNccBiXF9qngdCjpeawnJJKElHIPO5REFNI5KPCYkfv1hsXeLT",
"wJ!D6fma!uwCyyLtQ4uKkxTSIvzCNpL7cABC00xTWCBDpxqU1nzX6GTTWiCfx6HxncCEmjl7cBvrJRMZcuzKKikqnVKspkbbgn3zXmHZIPOzREbNIgKPii9f31VKdmNT",
"wc3sC0NH4Jn6y!NHQQ5dpqTSQcnDDpLavABCGf7SoWBFkxST1V1K6fUTWWiY0el0A1W5ZFaavu3dREybu3uKK89xwVs2Fta7AJ356E9bIPQRMLjN3hXPC8k0vuosKeLt",
"gBQXNlNe4v52yMElQQ56pGUx4B5Dj6EHcnw8pftToogFkqTTvVndZ0USCiif0e9GwACzFja7Iuu5REye13!oXF9xwwKs6HaS1vvX6NaZvP!5MRZeIo5Pspft3uhKXmmt",
"g13XKfbHQvsX3QmlI45jYSUq4w5ijeNNwgg2r70SWWWFYqTxcgB26tUqoorfGeHxwAiM$H9G!1JzMLyGvvysd6lqwgds$eqxcv3DZE9b3P!KyLZm!oXPDFGxcvWWEmmq",
"V1MXD0EH43KEMyNtI!E$YxTtOnzC8NemVnhD8lxTgodFpqSt11B2mtUxor8Y0Ne0B1sM$ef7!1BMRLMlvvvBXFkqwVWdkmSlQuJCpLGZ3P!KMNemIgdPsifGcciWXmmS",
"BwJdX9NaOcB5R!bxI!zF$xTxOgzCjNZNWBoiC9SUghn8pSStAgB6exUSgrrf0L$qAuXRemltIABMLLM71vuK5FlSwwWdpmxH3nJr$zlbvPIXymmL!gXPD8f7c1osdNmx",
"wuuEKZZ7OJJEEQel!456$xTxOBuipNeLnJs68pqUwgBiFqqtnVzDjTUSoC80qmHS1AhEZefGI1zMKMR7AQBKEFpqnVWCieSbvnuipL7l3PIdMmLLI1XPdFfGccWDKLeq",
"wn3ddjZ7Q1cEe!ma4QJCZxSS4dBrFelLcvnCYfqTgg5rfGTtAgu6jUTSoCfGxNbSABBK8e07IJXzXRRl1Q55X8lxngKD8Nqeuwzi8NHl3P!EyNNLIgzPs8jGv1WWEzZq",
"w1yX2ebl4nJXe!mH!QJ86qSSOVdd$eHec3nCktqTWwKdkGSxnB56$UUSiCYk06jS1wgKYZf7!udREMReAQgKXYl0ww2D0mqewhBC8Lal3Pvzz6mNQVuPs$FGcAhWXLex",
"11QKKZbaQc5ze4HZQQRpZSSTOWoKmeeeccu8pxxSigCKk0SxBgBKZTUqooYk0$lqnwB$pZ9xI1VEXRRN1!gEskaxnVoD0mtZnBoiZNZ7IPJJNmmNQnzPXiptvAoW5Emt",
"nAyXEjblQ3dML4ab!Qzp6STTOhYdiEmbc3nYkfqSihoKp0StAwBDZSTSVCrpSaHtnVnYF$llvBhKERRagv5Kd8pxAV22kexa1BWdDL$73Pu3RNeNQwzPKik031WoXNmt",
"Au!2Rjb7Q1X!L4lHQ!5jexSSOWC66NRHv1npfpSTrh2X0qxqno5C6qUThYY8qGHS1B56NZG7IBW6RMR7guBnXiHqwwXKk$xaBuWs6NZavPuyEeeL!nJO28kt3uWCEmbS",
"Ac3KRkb7QBK3EOHq4!EFZTSTOgrdi6Ra1w5kkFqTrr2df0qxwogjFxTSVfYY0flq1cnemZ77I5dsLRMbB5sK2CkqVwzDrkt711WCDm671PJ4ReZLIhM4KY97v1W2EmbS",
"ngIXEtblQ1hyL4HTQ3KCjTSqOdrKjkLav1hkG67SoW5DfqqxnWw8pxUTgrYf0llxg3uDme07InKCmMLa11rWd8FqnBJsCxtHvcCCse$a1Ou!ReeR!gJO2F97InoK5Xax",
"unu52xmHQJKMEObHQIz2F0UxOsCs8pLl3cKk0kxUoC5DYxxtBhBCFqUUh8YG0b0GnIK8meHtIw5KKMNHnJKdd8ktgAuCikxHcJDsF6ZbAQI!MeZRQn3OKipa3Bs2XRbx",
"1nW5FGN7vuXMRO$l!3BmbxUxQgd2eYL7QJd8xfqUohz6Fqx7AVu6f0UUVCr00jtxAJz8eejxInRXmMmZAc5gs8ktguzCi8leBJ5X$mma13JQMejR!1!4sDpbvnWDXRHq",
"wAX5CGEGJvnRmOH74vuDF7Sq4gKK$0E7QuDkpkSSho3KpqqtAg520xUUWi8kfNqtAvK6emGlInJKNMNl1K5dDiftAAJD8ftenIdKmEmbcIB4MmZRIv!422jl3AVsELaS",
"Bgh56FNlv3uMmOZl4IBD6tSxOgz2pYN7IurkkkSTooJXFqTtcVB2f7UUhrrf0NqGBvB2mmGlIwuENzm7uXBVXjGt11J68kGbwIs2mNZmc3EOyNjRQc3!smFavghsXNjq",
"wWoKmFNt3IdMLOba4v5NmqStOWXDFpLtIurYSpTTooJKjxSlcog6k7TUhrr0keGqwvu2NNqacWu5ELjac5BXdFft1nBirYxawICDLeeec1u4MmpR!v3Qse9HvnWCKEaS",
"gWs5EfNxI32MNOabOvzDZqTtOgBDkpNlcvC8xjTShWJ26xS7uWgD8SqUorof9etSnv1DmLSacguzMNj7BuJXX6YGAnwp89tb1vBdENeZ3B54MEHRIBI4DmkH3woDzLlq",
"nhozRGE7!cD3EOZb4cdK6GTt4nBCpkRacJiC0kSqWhMFF0SaAWoDpSUUorrpf9GScugD6NSG115JJEml1JMEdiptAwBYYqtZvJK2meZNvnuOyNpR!w!QDNf9IwCszLlq",
"nWDzL0LxvIKzmOml4I2mZtTx4gBspFNtcvYpfkqTViJkfqx7ggiskTUTrYr00a0SA1XK6e7GccXMRLL71Juw2Yk71VzYYxtNuuBDme$LIwJ4yN$R!g!42eflIgWs5NHx",
"wWdXKkLTIIXX$O$H4uCeefTq4o5d8ZNtvJfGYfqSWo5k0xxqBVoipTUUrC8k0$tTnwBDmD7GIvdMMLRaB3z5KYk0AVnDkkGN1AwXeNlLvnuOMNZMInQOsef7InWoyDaq",
"hhd5EkEq333spOeeOnwmN0xS4ouEpmexc10f$0STWrBYk0tTAVospSUUoofY0btSABXC66ltI3gyRLLa1v5XD8Y7AohCkG0NnggReeaNI13OyeZM!n!Od6fGInWDMeHx",
"ggg5zfNtvI32$4ea4uKmE0qS4Wzs8NZxv10r2qxToo5kY0tTVVhsmSUUoWYYSbtxw5Cf8ef7IvdJLNLHuvEKCFf7Aowiff7LnBdzemHbIu3Oy6ey!nQOdmG7InWsMeaq",
"VngKNY6qv!Be$ONaOcCEmqqT!hR6FmbSvBCKKSxToCzpGxtSgVVd6SUUWoYfSl7SwBKYFm7xc1KzLeLHA3EdDYklwgn8Y9tRAcoz$ejeI1!O!eZy3w4Odmfl3AWsMZbq",
"wwWzKpNS3vXCZOel4vsdNSSS!oJCeZNSc5oddqGUoV5ifqGqhWWs$GUUoofGqFfSguWkZmGSI1KJzEZ7A!2dC897VAgiY8GL11sR6N$mIAyPymjyvn4QsX8lvwrdMZ9q",
"wACXK$mSIJdEeONlIvdRmSTS!ouCF6mxcnhsDqxTWo5CGGltwWWsF0UUoCYfxHlxn1VY8mtxI5wyLee7BICXs89xwBgrkF7eBwVR66amQ1yPyN$ycgOy6XkavnrDJ$lx",
"1BodmZNt33sE$ORZIv5RmSSSIW3r6eN71gV2i0qThoXDf0H7nVo2FSUThiY0q99xABg8$eGt!noyEeZ7BIWEDpkqwngrpFlHgWBJZjHNQc!PyNeyvnO!CNHlcwWoMeat",
"nhC5zGbxIcdzjORmv32MmSTS1g3rmeL7cWs5kfSTgoK2kGHanWo6$SUUVCYf0f7xA1gFeZ0aI1KMzmHaouhKi$9SwwViiZbHgonM6$9LIvyPM6myv143sN9acgWoJeZS",
"nWsdL0bxcc55jOMbc323mxUSwg38dZN7choXp0xSnWdDG0l71ooijfUUWiYkq7lxwuwre6xaIJwyLXZHoJz2CFfxnwW2ZZ7aAWVz$$bL3JQPMmmy3cOMd2pGvnhsJebS",
"nhVK8paGV1KzpOMbvIsyXqUqghviDZeG1nWd80STVgh$ffll1hoYpxUUohY0SffqwcBYDmfHnJXyLZNHwJJ2i8kxAVWdF6Hbw3sJ$$HR3c!PMmZy3BOM2m9GInwDMmNq",
"BVgE8ZGqw152FOMeI3CyNqUShW3iC6e71wWX60STWgdZflaachoYpxUUhw80xk7xnvu68mkHwudyNHNaB4vWi8ltngWKkZxavvW3eF9RcvyPymjy3wPJdeHa3uoCMmNx",
"cBhzpe7tccz2pOMZc!gyESTqVdM86ej71Vo26xTUhW2Zf7lHuCoix0TUhVrf0lGG1cBDpZ9ZAAzMNlN7BIvo6$7xn1i2Ya7acVK5eFHRvu3PyNjMvhOMde$7IAr2MmeT",
"AVgX8ettcu55FOMHvIJQXSUxguJreZmHvBiD80TTVosFG7tH1WoixqTUVn800HtGA1z6eN9Hn1u3XbNln33WD8GxwAWspFtHnVVKEFZLvu3Py$eR3hOyXmZ73uo2MNmS",
"gwgEpm07c!zXe4MbvIz4EqTtVz5i6mjHvBgX8FTSWhDC0l0lAghixSSUgwYkqetxwnXDe6alBBdyRLEtB3Is2pGxABdDCpqloho5LZeLvByPQjjLcVP326m7vAoW3NeS",
"g3Xzi6St1Oz5EQLbcJX4RqTthwziYe9lIBBsZ6TSVoCF07St1VW6GSTUoBY8SNtxV1KCmNGtAgXyyEN7n3!W2kfGwuWC$FSGWBDzLp6LvB!PQZeNcgPJs6eG3Ag2MXbS",
"ouBXdFqqAQzRmQNNvI5OzSTtrnuCie77uVBdYbTThiri0Glt1ohi0STUVniYSZxSV1ssNeqx1ww!QLmanv!2ikfGwBWidjqxngWLLkmLAA4P4jZLvWPMDZ$lvAhoymjt",
"VugXe$0x1!R5ZyLLQvzOLST7r5uXrjllu116k7TUhoiD0Ga7wWoDGSTUggCfq$qS1WssEattABg4yMmHnJydiYf71noimSqG1AWM6ZeNwcOP4pZLIoPMKej9cAgdyZaS",
"WcVK$9a7uQzEeyEN4v54LSUxrB3sFp0H1n5$f7TTViCiGGlbghh2fqUUgWrfx9xxwwdKNkHlcBW4MLNlBBuKD89G1nrCm0a7WuKz6eZmVu4PQF$LvgP3XmZ7cghDy6Hq",
"hBWDjGHtvQXEmMRmQcXONqUtiwJDjFS7AuwFpGSTVWCFGfbHnhhdkSUUgVrfG0Gt11KK$l9t3ggQRLm7VuusD8lx1Bi6jp77gB53$mmehu4PQ$bRvhPRNmeacwWsyjaT",
"guhijfb7c45zmLMmQvKPmxSxohuDYF7xg3BiiGSTVWCCffbbggW2GSTUnorGf07tV1hKjk9tIn5QzRbHV13ds8FGAwii6jG7w1J3eRmbV14POZ6LvgPJXNZHcwgEyZaS",
"hBWCepjau4zJeRyNI35Pe0TtinuDC9xxocXKFxqTAhrikkbHnWodfTUUBoif9pltwgdXZGHG3ggQ$zaawJyDCF$71Vo8D$la1nu!eLNZwu4OOeeNvwPMRe6b1gVXMjaS",
"wuoCDFa7v4yJmRyLI!ROmfqqowBD8jkqwuXCZ0SUnof809e7woid8SUUuhYGG9ltwWd2e9HGvBgQ6MbHg5!26F$GcgWrspt7AuzyNRNlBu4O4emLvVPRzX6aAwnKMZ9q",
"nvh8$pHluO!MLLyLv!u4efSqo1gCC$pqgJzrZGqUwof80GbtAoo28xUUcWYGGHlqgh2sjpl7!ww4myZbcu!2CFFGvWor6kkxw11QXLNlcBQP4eeN3WPJzEZacVBKMZaT",
"Bv5$FFH7vO!yNRyR1IJ4ZfSSougC8f9a1uui2kSUAiY80xbxVhW2kqTS1WYf09ltwBrdp$9lQ1hQmybH1vIXC$ptchoYD0aHw3u!mMm7uAQPOeZNvWPJzzZkcVnKRZlq",
"WABi6jat14y!eLyRIIIOFfqSrugKYfaaBc3YDpqUwoipf0bqVViXkqUT1offxkkGwgrDFF9aIJh4DRZbnc!uCFpxvwCY89x711uMpMNtAAQPO6bNcWPyMNZl1h5E5eaT",
"hwc66Zl0c44MNL!NI3!OZ9TTryh2jkk7vIy869SqwioFfGHthwWX$SUT1CYk0G7aVwr8e$7b!JVQ6RaawoI5DYktcgiYCpxxAJJR$zN7Au4PO6aNuhP3MmF7AhzEX$lq",
"VwBDme7ac4QMLM4mI334jkTUoyodiY9aI3ysppqxgrhkf7HtVBod8qTTnoY0000thwrY$$7bIBn!ELH7nWQK28kt1gsY69xGwJuEmRLb114POZlLcwPzMmFlngu558lS",
"nhw2D$llv4QzLm4b!QvOpkTUo!CDp977vIvCfjqSVWC0k0atV1V2GTTUurf0ff0xgWrpCa7b3VnyRNll1W!X6YfqAgok6fqqng5zXRMH114P4e9NAnPEReFfnVvz5jHq",
"wWBKj6tG1435LNyeIII499TUrIWCkkjac!Jip$tqgWWfY0btnwgsGTUTvrfGfGlqwhip$$7avgwyRmatvCQJikkxgVoYDkSTgg5EMzMaAwyP!$9enBPXMdk7ngz5EeHq",
"Vw5d$6xHvOvKLN4N!JyQflSUrvhiYkaeII3CplqSnWWpfxetnggDGqUU1iY0pGtSBVWi6F9a3gVRMmat1WQyDFkqVnrkCGtUwBBzMLMa1wyO4$lH1nPEyN8GAVJuK$9S",
"Wnuz$ZabvO!EzLONI3yQklTUC!V6f99RvcuX97SqhWikkGbtnwg8kSSU1rffk0GxAwKsFY0bIwiMM$H7cw!yCFfxVnrYe7xTI5dJREMbcg3OOZalAnPXyNYf1hJzKeaT",
"WBJE2$7ev4!XzLQNcQI!fkTUi4gCZklR1w5s0$tThor0YGHlVnhikTTU1oYYktGx1BKCFjaH!nhRRjatcB4328ktwgi86ZSTIu5JzLyecn!OO$alAnP2ympl1wv5KNlT",
"WAuXEe9bAOQ5MNyLI3vMYfUUV4sDD9$NcBw8G9tThV80kGatVgwikSUSuWYY0Gfqnu2rF6kHvn5zJ$Ht1u4MsY00wgrYKpSU!nXzMMyZ113OOF9HcgPi!Z971nn5Xmax",
"hnvdKeaecQQLJNymIuJMffTUgOVi6a7NccWfGk0ToVixG0ltwhhijqUTAWYk07fGAAKKjZGHvnwRE67HgB4MDFf7ngr8DZSU!nKRRMMHcuv4O$abvWP6!DflcB5EK6aq",
"VV3iN6lbn4QmEEMmIc3M0GUUV4VYm$aNcu8kkftTohDq8x7qnVh88qUUgh8fGflx1uX2NZk7vgWRRetag1ORDCGxwg8Y6exT!B5uEzya3A3OOjHHvoPDM$Glvnz5XDaq",
"VWurXZGaA44XRZMm!IzyGxUUV!C8j$bLuvoYFqlTWWK0YGlTBVh8pSUUVVYG0a9qwuK2mY7HnVgERmtxw1PMKF00ggs2i6xqIgu5LLMHcBIO4$HHvVPCMj97vcn5KDbT",
"hwuiX$bbgO4XLHRRI3zyGSUUV3orkZZm1uWf6x7ThWg0Y0lqgno8pxUUgWYYGbbtw1dsel7l3gWXzLGtV3PMDYfxwnWi6mxqIgJzELMHcw!OQ$ZbvwP6y8kG1uVKXD9T",
"WBBsKGbbg4Q2eeLMQIJQkqUUh3WrYjZeguoYpGlShog0ffltwgWDpqUUgWYffeetBussel97IWg25LGlg5PMdY0xAw2CZm7x!gBKXLRHvwy4QmebcgO6M$k7ccdE2XlT",
"wg56dfjbnO4e6mELQ33!pxUUovhrpFmEc1CrpxaxVoWfkf7tVVhDYxUUVhrfGbeSA1XdmZft!hzmzXHHwcPzC80xAgC8rmltvwudzLMlvwQyQNmb3WOsMFf7vuVKdXHT",
"wh1dmGleB4Q6ENLL!v3yYSUUV3oCf$ZL!1r6k09TgVofffatWWVspxUUoVr8feZx1n5XNea73gVdLztHgcPND8kx1hoiCeGlAWJdMLMlvVOQ!eZmcW42Mi97vuWXEm9T",
"VWXKpF0enQ3XLELNQ!330SUUWJo6px$mInoCfGxTgoikfqbGghVC$qUUohrYfZZtuw5XLZ7bvWC5RLtHhuO5C8GxcVrr66aanWJ2MmMacnO3y6ZN1V4DQZ97cuh5X6bS",
"os5s$9tHc4MzNLRNIQyzkxUUhvCsp$FEQAWCkt0TwVoY0fltgogdYqUUWhYkkZH71Bo2E8tH1ng5zLGaWuOEC8f0AwCC6$blVhu2M$RacnOM!mZNAgId4p9GccsXdC$q",
"WnXsiltZAQuKRLyRIIyJ0xTUVcW2jjZE41drkfxTWwWY0fG7whhsFtUUWhY0FZaq1BWsRZGb3AgRMRa71cO5DFft1A2CiZG7ow5dMaRH1n4yymbLAnIKOFl7v1hE6FHt",
"wA5E6FGmcOziMRymvcQMGqSUwnWsklZmOcsCpkqqWVh8GGtHAWh2pxUUWoY0paftngi85pleQBgJRNHanvQ5D8kxun2iFekHAwX6RZLlcnOQyZZN11Q2Oep7vugX2pat",
"gnuK$$7b34J8MRyl3vQM0STUnBW8pY6NQusCf9GTwoWkGFxb1hosptUUhWYG9alxwWokXYtbQuWMELHxn3!5Cp0tABWdpj7avWKDEzLa1c4OM6jL1uJdPD97vv2EKp7t",
"nwzX8$9mvO3CMRQ7!JQRkSTUngVsZpemc1dCF9xSwrVFGF7augWCYqTUhW0kk7atgVsYe$GlQnszLmmtVv!ziFGqcwoCiZGb1WDimRLlu34Oy$9N1uJ2O6pacvKKKDbx",
"gw5KFpHbvO3FRRQaQI4R0TSUAgn8Dkamv1KCe9GSBYX60H77cWwik0UUVWf0kaHxAWspmkGaQno5mZmlV3Qzo8Gq1Vdii9lbuwssJRLa1JO4M$HLvuJdQeFacIws5DHx",
"wA5s8F7evO3Kzy!bQIyRxSSUBnXYeZpeuuD8ejGTuYWiff7aAVgY90UUwW80laaqnhB6mxla!udX2eZen3QJD8G01gXDeFGbAW2XMRN71c4QM6$RvuKK46j7A3gD5$7q",
"nnKiK6aecO55LMyNQQ!MGTTUwwBfNe$bcnoi6G0Tnro8kf7e1wKrpxSUBoWqjaaSnVzim7lH33sde6NHnvQzsYkx1gdde9abwWBKyLL7nvOyMmeR3n2d4$F0BvWidFlt",
"wAsizeam34zKLyymI4!z0TTUBn5kmHHH1BW8mkTTnWoFFGGm1wir9xTUArK06H7q1nwYXHa7Iu2XmZNSwJQJDi9qchW5Ef9ZA5w83LL7AJOMMmmRIwdK48FxwyWrd$Ht",
"n1o2ze7mvQJdKMyH!P!zGSTUwhKfXjZbc1WdefSTVsoikaamAnr8jqUTnCsfmb7SnndCXfGavAs5XemSw5!zsifxAoCXK00bncgsJRNGAJOzMmeLIn2EOFZ0wInCsiat"
};
